<svg width="51" height="35" viewBox="0 0 51 35" fill="none" xmlns="http://www.w3.org/2000/svg">
<rect x="0.858154" y="1.15625" width="49" height="33.2857" rx="5.5" fill="white" stroke="#D9D9D9"/>
<path fill-rule="evenodd" clip-rule="evenodd" d="M12.2813 13.4176C12.9528 13.4743 13.6243 13.0778 14.0439 12.575C14.4566 12.0582 14.7294 11.3643 14.6595 10.6562C14.0649 10.6846 13.3305 11.0528 12.9108 11.5696C12.5261 12.0157 12.1973 12.7379 12.2813 13.4176ZM20.2692 22.5372V11.4988H24.3611C26.4734 11.4988 27.9493 12.9715 27.9493 15.124C27.9493 17.2764 26.4455 18.7633 24.3051 18.7633H21.9619V22.5372H20.2692ZM14.6524 13.5521C14.0608 13.5177 13.5211 13.7322 13.0851 13.9055C12.8045 14.0171 12.5669 14.1115 12.3861 14.1115C12.1833 14.1115 11.9359 14.012 11.6581 13.9003C11.2941 13.7539 10.878 13.5866 10.4416 13.5946C9.44139 13.6088 8.5111 14.1823 8.00049 15.0957C6.95129 16.9224 7.7277 19.6271 8.74192 21.114C9.23854 21.8504 9.83309 22.6576 10.6165 22.6292C10.9611 22.6161 11.2091 22.5096 11.4656 22.3994C11.761 22.2725 12.0679 22.1407 12.547 22.1407C13.0095 22.1407 13.303 22.2691 13.5847 22.3923C13.8525 22.5095 14.1097 22.622 14.4915 22.6151C15.3029 22.6009 15.8135 21.8787 16.3101 21.1424C16.8461 20.352 17.0816 19.5807 17.1173 19.4637L17.1215 19.4501C17.1207 19.4493 17.114 19.4462 17.1024 19.4408C16.9232 19.3578 15.5539 18.7232 15.5407 17.0215C15.5275 15.5933 16.6269 14.8696 16.7999 14.7557C16.8104 14.7488 16.8175 14.7441 16.8208 14.7417C16.1213 13.6937 15.0301 13.5805 14.6524 13.5521ZM31.041 22.6222C32.1042 22.6222 33.0905 22.077 33.5381 21.2132H33.5731V22.5372H35.1399V17.0428C35.1399 15.4497 33.8809 14.423 31.9433 14.423C30.1457 14.423 28.8167 15.4639 28.7678 16.8941H30.2926C30.4185 16.2144 31.041 15.7683 31.8944 15.7683C32.9296 15.7683 33.5101 16.2569 33.5101 17.1561V17.765L31.3978 17.8924C29.4323 18.0128 28.3691 18.8271 28.3691 20.2431C28.3691 21.6734 29.4672 22.6222 31.041 22.6222ZM31.4956 21.3123C30.5933 21.3123 30.0197 20.8733 30.0197 20.2007C30.0197 19.5068 30.5723 19.1032 31.6285 19.0395L33.51 18.9191V19.5422C33.51 20.5759 32.6427 21.3123 31.4956 21.3123ZM40.3369 22.9691C39.6584 24.9021 38.882 25.5393 37.2312 25.5393C37.1053 25.5393 36.6856 25.5252 36.5877 25.4968V24.1728C36.6926 24.187 36.9514 24.2011 37.0843 24.2011C37.8328 24.2011 38.2525 23.8825 38.5113 23.0541L38.6651 22.5655L35.7973 14.5293H37.567L39.5605 21.0503H39.5954L41.5889 14.5293H43.3096L40.3369 22.9691ZM21.9617 12.9432H23.9132C25.3821 12.9432 26.2215 13.7362 26.2215 15.1311C26.2215 16.5259 25.3821 17.326 23.9062 17.326H21.9617V12.9432Z" fill="black"/>
</svg>
