<svg width="47" height="47" viewBox="0 0 47 47" fill="none" xmlns="http://www.w3.org/2000/svg">
<path d="M41.9459 23.4535C41.9459 13.2518 33.655 4.96045 23.4529 4.96045C13.2507 4.96045 4.95983 13.2513 4.95983 23.4535C4.95983 33.6557 13.2507 41.9465 23.4529 41.9465C33.6554 41.9465 41.9459 33.6557 41.9459 23.4535ZM40.0494 23.4535C40.0494 32.6306 32.6301 40.0498 23.453 40.0498C14.276 40.0498 6.85672 32.6305 6.85672 23.4535C6.85672 14.2765 14.276 6.85717 23.453 6.85717C32.6301 6.85717 40.0494 14.2765 40.0494 23.4535ZM35.7819 23.4535C35.7819 23.2342 35.6499 22.9428 35.5153 22.8016L27.9283 14.7406C27.574 14.3744 26.9929 14.3394 26.5797 14.7111C26.2106 15.0436 26.2086 15.6839 26.5503 16.0448L32.6406 22.5056L12.073 22.5056C11.5491 22.5056 11.1248 22.9303 11.1248 23.4538C11.1248 23.9778 11.5495 24.4021 12.073 24.4021L32.6406 24.4021L26.5503 30.8629C26.2089 31.2238 26.2258 31.8631 26.5797 32.2115C26.9535 32.5789 27.5793 32.5389 27.9283 32.1668L35.5153 24.1058C35.7383 23.8872 35.7783 23.6765 35.7819 23.4539L35.7819 23.4535Z" fill="white"/>
</svg>
