<svg width="47" height="47" viewBox="0 0 47 47" fill="none" xmlns="http://www.w3.org/2000/svg">
<path d="M4.84686 23.4535C4.84686 13.2518 13.1377 4.96045 23.3399 4.96045C33.5421 4.96045 41.833 13.2513 41.833 23.4535C41.833 33.6557 33.5421 41.9465 23.3399 41.9465C13.1374 41.9465 4.84686 33.6557 4.84686 23.4535ZM6.74342 23.4535C6.74342 32.6306 14.1627 40.0498 23.3397 40.0498C32.5167 40.0498 39.9361 32.6305 39.9361 23.4535C39.9361 14.2765 32.5167 6.85717 23.3397 6.85717C14.1627 6.85717 6.74342 14.2765 6.74342 23.4535ZM11.0109 23.4535C11.0109 23.2342 11.1428 22.9428 11.2775 22.8016L18.8645 14.7406C19.2188 14.3744 19.7999 14.3394 20.2131 14.7111C20.5822 15.0436 20.5842 15.6839 20.2425 16.0448L14.1522 22.5056L34.7197 22.5056C35.2437 22.5056 35.668 22.9303 35.668 23.4538C35.668 23.9778 35.2433 24.4021 34.7197 24.4021L14.1522 24.4021L20.2425 30.8629C20.5838 31.2238 20.567 31.8631 20.2131 32.2115C19.8393 32.5789 19.2135 32.5389 18.8645 32.1668L11.2775 24.1058C11.0545 23.8872 11.0145 23.6765 11.0109 23.4539L11.0109 23.4535Z" fill="white"/>
</svg>
