<svg width="327" height="19" viewBox="0 0 327 19" fill="none" xmlns="http://www.w3.org/2000/svg">
<path d="M6.52301 6.5766L9.86351 1.70504C10.4899 0.800327 11.325 0.347968 12.3341 0.347968C13.1692 0.347968 13.8651 0.626343 14.4567 1.21789C15.0482 1.80943 15.3614 2.50537 15.3614 3.3057C15.3614 3.89724 15.1874 4.4192 14.8742 4.90635L11.8469 9.29075L15.5354 13.9883C15.9182 14.4407 16.0921 14.9974 16.0921 15.6238C16.0921 16.4589 15.8138 17.1548 15.2222 17.7464C14.6307 18.3379 13.9347 18.6511 13.0996 18.6511C12.1949 18.6511 11.499 18.3727 11.0118 17.7812L6.48821 12.1441V15.2758C6.48821 16.1805 6.34903 16.8417 6.03586 17.3636C5.47911 18.2683 4.64398 18.7207 3.56528 18.7207C2.59097 18.7207 1.82544 18.4075 1.30349 17.7464C0.816332 17.0504 0.572754 16.2501 0.572754 15.241V3.68846C0.572754 2.74895 0.816332 1.94862 1.33828 1.32228C1.86024 0.695937 2.62577 0.347968 3.56528 0.347968C4.47 0.347968 5.20073 0.695937 5.79228 1.32228C6.14025 1.67025 6.34903 2.05301 6.41862 2.40098C6.48821 2.64456 6.48821 3.06212 6.48821 3.68846V6.5766H6.52301ZM23.1559 4.03643V15.2062C23.1559 16.1805 22.9123 16.9809 22.3904 17.6072C21.8684 18.3031 21.1029 18.6511 20.1634 18.6511C19.2934 18.6511 18.5627 18.3379 17.9712 17.6768C17.484 17.1548 17.2056 16.3197 17.2056 15.2062V4.03643C17.2056 2.78375 17.4492 1.87903 17.9712 1.32228C18.5627 0.66114 19.2934 0.347968 20.1982 0.347968C21.1029 0.347968 21.8336 0.66114 22.3904 1.28748C22.9123 1.87903 23.1559 2.78375 23.1559 4.03643ZM33.8733 0C36.0655 0 38.0837 0.730733 39.928 2.1922C41.3546 3.3405 42.0854 4.55838 42.0854 5.81107C42.0854 6.85497 41.633 7.6901 40.7631 8.28164C40.2759 8.62961 39.7192 8.7688 39.1276 8.7688C38.6405 8.7688 38.1881 8.66441 37.7358 8.42083C37.5618 8.31644 37.1094 7.86408 36.3787 7.09855C35.7176 6.36782 34.8476 5.98505 33.8385 5.98505C32.8642 5.98505 32.0291 6.33302 31.3679 6.99416C30.7068 7.6901 30.3588 8.52522 30.3588 9.49953C30.3588 10.4738 30.7068 11.309 31.3679 12.0049C32.0291 12.7008 32.8642 13.014 33.8385 13.014C34.6388 13.014 35.4044 12.7356 36.1003 12.1789C36.5179 11.7613 36.9702 11.3438 37.3878 10.9262C37.8402 10.5434 38.4317 10.3347 39.1276 10.3347C39.928 10.3347 40.6239 10.613 41.2502 11.1698C41.8418 11.7265 42.155 12.4225 42.155 13.2228C42.155 14.3363 41.4938 15.4498 40.2063 16.5633C38.3969 18.1639 36.3091 18.9295 33.9081 18.9295C32.4466 18.9295 31.0548 18.6163 29.7325 17.99C28.097 17.1896 26.7748 16.0413 25.8005 14.5103C24.8261 12.9792 24.339 11.309 24.339 9.46474C24.339 6.75058 25.3481 4.4192 27.3663 2.50537C29.1409 0.869921 31.2984 0.0347968 33.8733 0ZM49.1143 6.5766L52.4548 1.70504C53.0812 0.800327 53.9163 0.347968 54.9254 0.347968C55.7605 0.347968 56.4565 0.626343 57.048 1.21789C57.6396 1.80943 57.9527 2.50537 57.9527 3.3057C57.9527 3.89724 57.7787 4.4192 57.4656 4.90635L54.4382 9.29075L58.1267 13.9883C58.5095 14.4407 58.6835 14.9974 58.6835 15.6238C58.6835 16.4589 58.4051 17.1548 57.8135 17.7464C57.222 18.3379 56.5261 18.6511 55.6909 18.6511C54.7862 18.6511 54.0903 18.3727 53.6031 17.7812L49.0795 12.1441V15.2758C49.0795 16.1805 48.9403 16.8417 48.6272 17.3636C48.0704 18.2683 47.2353 18.7207 46.1566 18.7207C45.1823 18.7207 44.4168 18.4075 43.8948 17.7464C43.4076 17.1548 43.1293 16.3197 43.1293 15.3454V3.68846C43.1293 2.74895 43.3729 1.94862 43.8948 1.32228C44.4864 0.695937 45.2171 0.347968 46.1566 0.347968C47.0613 0.347968 47.792 0.66114 48.4184 1.32228C48.7664 1.67025 48.9751 2.05301 49.0447 2.40098C49.1143 2.64456 49.1143 3.06212 49.1143 3.68846V6.5766Z" fill="white"/>
<path d="M62.4068 11.6918C63.0679 11.6918 63.7639 11.9701 64.5294 12.5617C65.4689 13.2924 66.0952 13.6404 66.4432 13.6404C66.9652 13.6404 67.2087 13.362 67.2087 12.8401C67.2087 12.5617 67.0696 12.3181 66.7564 12.1093C66.5824 12.0049 65.7125 11.657 64.077 11.1002C61.4325 10.1607 60.1102 8.45565 60.1102 5.91548C60.1102 4.00166 60.8061 2.50539 62.198 1.42669C63.4507 0.487178 64.9469 2.28882e-05 66.7564 2.28882e-05C68.3222 2.28882e-05 69.6793 0.382788 70.8276 1.11352C71.9759 1.84425 72.5675 2.81857 72.5675 4.00166C72.5675 4.69759 72.3587 5.28914 71.9063 5.7763C71.454 6.26345 70.8972 6.47223 70.2013 6.47223C69.4705 6.47223 68.6702 6.12426 67.7655 5.42833C67.2087 5.01077 66.7912 4.76719 66.5128 4.76719C66.0257 4.76719 65.7821 5.01077 65.7821 5.46312C65.7821 5.91548 66.3736 6.33305 67.5915 6.68101C69.2618 7.20297 70.5144 7.82931 71.4192 8.59484C72.6371 9.60395 73.2286 10.9958 73.2286 12.8053C73.2286 14.7887 72.5675 16.3197 71.2104 17.4332C69.9577 18.4771 68.3222 18.9643 66.304 18.9643C64.2858 18.9643 62.6156 18.4423 61.2933 17.3636C60.2494 16.4937 59.6926 15.5194 59.6926 14.3711C59.6926 13.6056 59.9362 12.9792 60.4582 12.4573C61.0149 11.9701 61.6413 11.6918 62.4068 11.6918ZM78.3089 6.01987H76.7431C75.8732 6.01987 75.1424 5.7763 74.5857 5.32394C73.9941 4.80199 73.681 4.14085 73.681 3.27092C73.681 2.74897 73.8201 2.26182 74.0985 1.80946C74.3769 1.3223 74.7597 1.00913 75.212 0.80035C75.6644 0.591569 76.7431 0.487178 78.4481 0.487178H84.4332C85.8946 0.487178 86.8689 0.591569 87.2865 0.765553C87.7737 0.974334 88.1564 1.28751 88.4348 1.77466C88.7132 2.26182 88.8872 2.74897 88.8872 3.27092C88.8872 4.10605 88.574 4.80199 87.9129 5.39353C87.4605 5.81109 86.695 6.05467 85.6163 6.05467H84.2592V15.0323C84.2592 16.0066 84.0852 16.7721 83.772 17.294C83.2153 18.1988 82.3802 18.6511 81.3363 18.6511C80.2576 18.6511 79.4572 18.2336 78.8657 17.4332C78.5177 16.9113 78.3089 16.1458 78.3089 15.1018V6.01987ZM92.7496 16.1805C92.4712 16.8417 92.1929 17.3636 91.8797 17.6768C91.2881 18.338 90.5574 18.6511 89.6875 18.6511C88.6436 18.6511 87.8085 18.2336 87.2517 17.3984C86.9038 16.9113 86.7298 16.3197 86.7298 15.6934C86.7298 15.1714 86.8689 14.6495 87.1125 14.1275L92.7496 2.12263C93.3064 0.939537 94.2111 0.382788 95.4986 0.382788C96.786 0.382788 97.7256 0.974334 98.2823 2.19222L103.989 14.2667C104.233 14.7539 104.337 15.241 104.337 15.6934C104.337 16.3893 104.093 17.0157 103.641 17.5724C103.049 18.3032 102.284 18.6511 101.344 18.6511C100.579 18.6511 99.9526 18.4075 99.4306 17.9552C99.0478 17.6072 98.6651 17.0157 98.2823 16.2153H92.7496V16.1805ZM117.455 11.5526L118.847 13.8144C119.23 14.4407 119.439 15.067 119.439 15.7282C119.439 16.5633 119.16 17.2593 118.569 17.816C117.977 18.3727 117.281 18.6511 116.446 18.6511C115.368 18.6511 114.567 18.1988 114.01 17.294L111.54 13.2228V15.6586C111.54 16.4937 111.262 17.1897 110.705 17.7812C110.148 18.3727 109.452 18.6511 108.617 18.6511C107.608 18.6511 106.808 18.3032 106.286 17.5376C105.798 16.9113 105.59 16.0414 105.59 14.9975V3.89727C105.59 1.60068 106.808 0.487178 109.278 0.487178H113.071C114.324 0.487178 115.472 0.835147 116.516 1.56588C117.595 2.29661 118.36 3.20133 118.847 4.34963C119.23 5.21955 119.404 6.08947 119.404 6.95939C119.404 8.59484 118.743 10.1259 117.455 11.5526ZM124.519 6.01987H122.953C122.083 6.01987 121.353 5.7763 120.796 5.32394C120.204 4.80199 119.891 4.14085 119.891 3.27092C119.891 2.74897 120.03 2.26182 120.309 1.80946C120.587 1.3223 120.97 1.00913 121.422 0.80035C121.875 0.591569 122.953 0.487178 124.658 0.487178H130.643C132.105 0.487178 133.079 0.591569 133.497 0.765553C133.984 0.974334 134.367 1.28751 134.645 1.77466C134.923 2.26182 135.097 2.74897 135.097 3.27092C135.097 4.10605 134.784 4.80199 134.123 5.39353C133.671 5.81109 132.905 6.05467 131.826 6.05467H130.469V15.0323C130.469 16.0066 130.295 16.7721 129.982 17.294C129.425 18.1988 128.59 18.6511 127.546 18.6511C126.468 18.6511 125.667 18.2336 125.076 17.4332C124.728 16.9113 124.519 16.1458 124.519 15.1018V6.01987ZM142.126 12.9444H144.84C145.954 12.9444 146.789 13.188 147.346 13.6404C147.972 14.1971 148.32 14.8931 148.32 15.763C148.32 16.6329 148.007 17.3636 147.346 17.8856C146.859 18.3032 146.024 18.5119 144.875 18.5119H140.247C139.169 18.5119 138.403 18.4423 137.985 18.2684C137.185 17.9552 136.663 17.3984 136.42 16.6677C136.246 16.1805 136.176 15.415 136.176 14.3363V4.52361C136.176 3.68849 136.211 3.16653 136.246 2.88816C136.35 2.33141 136.559 1.84425 136.942 1.42669C137.359 0.974334 137.916 0.695959 138.542 0.556772C138.855 0.487178 139.482 0.487178 140.421 0.487178H143.971C144.945 0.487178 145.502 0.487178 145.676 0.521975C146.302 0.591569 146.824 0.765553 147.241 1.07872C147.972 1.63547 148.32 2.33141 148.32 3.20133C148.32 4.14085 148.007 4.87158 147.381 5.39353C146.824 5.84589 146.058 6.05467 145.084 6.05467H142.161V7.27256H144.493C145.188 7.27256 145.745 7.44654 146.198 7.82931C146.685 8.21207 146.893 8.73403 146.893 9.42996C146.893 10.8566 146.024 11.5874 144.284 11.5874H142.161V12.9444H142.126ZM161.23 11.5526L162.622 13.8144C163.004 14.4407 163.213 15.067 163.213 15.7282C163.213 16.5633 162.935 17.2593 162.343 17.816C161.752 18.3727 161.056 18.6511 160.221 18.6511C159.142 18.6511 158.342 18.1988 157.785 17.294L155.314 13.2228V15.6586C155.314 16.4937 155.036 17.1897 154.479 17.7812C153.922 18.3727 153.227 18.6511 152.391 18.6511C151.382 18.6511 150.582 18.3032 150.06 17.5376C149.573 16.9113 149.364 16.0414 149.364 14.9975V3.89727C149.364 1.60068 150.582 0.487178 153.053 0.487178H156.845C158.098 0.487178 159.246 0.835147 160.29 1.56588C161.369 2.29661 162.134 3.20133 162.622 4.34963C163.004 5.21955 163.178 6.08947 163.178 6.95939C163.178 8.59484 162.517 10.1259 161.23 11.5526Z" fill="#2BDE73"/>
<path d="M182.106 14L180.832 12.712C180.356 13.2067 179.848 13.5753 179.306 13.818C178.765 14.0513 178.154 14.168 177.472 14.168C176.8 14.168 176.203 14.0467 175.68 13.804C175.167 13.5613 174.766 13.216 174.476 12.768C174.196 12.32 174.056 11.7973 174.056 11.2C174.056 10.5187 174.248 9.92133 174.63 9.408C175.022 8.88533 175.596 8.47467 176.352 8.176C176.054 7.82133 175.839 7.49467 175.708 7.196C175.578 6.89733 175.512 6.57067 175.512 6.216C175.512 5.80533 175.615 5.43667 175.82 5.11C176.035 4.774 176.338 4.51267 176.73 4.326C177.122 4.13933 177.575 4.046 178.088 4.046C178.592 4.046 179.031 4.144 179.404 4.34C179.778 4.536 180.058 4.81133 180.244 5.166C180.431 5.51133 180.515 5.89867 180.496 6.328H179.222C179.232 5.94533 179.124 5.64667 178.9 5.432C178.676 5.208 178.387 5.096 178.032 5.096C177.659 5.096 177.356 5.20333 177.122 5.418C176.898 5.62333 176.786 5.88933 176.786 6.216C176.786 6.496 176.861 6.76667 177.01 7.028C177.169 7.28933 177.43 7.61133 177.794 7.994L180.706 10.92L180.958 10.528L181.91 8.932H183.282L182.134 10.92C181.976 11.2 181.789 11.494 181.574 11.802L183.772 14H182.106ZM177.472 13.076C177.976 13.076 178.429 12.978 178.83 12.782C179.241 12.586 179.628 12.2827 179.992 11.872L177.122 8.988C175.928 9.44533 175.33 10.1687 175.33 11.158C175.33 11.7087 175.526 12.166 175.918 12.53C176.32 12.894 176.838 13.076 177.472 13.076Z" fill="white"/>
<path d="M199.16 0.224693H194.213V18.7353H199.16V0.224693Z" fill="#E91478"/>
<path d="M211.805 8.79369L206.808 0.224693H201.612V18.7353H206.308V9.11787L206.383 9.11926L212.054 18.7353H216.6V0.224693H211.879V8.79369H211.805Z" fill="#E91478"/>
<path d="M219.069 0.224693V18.7353H225.288C231.159 18.7353 233.931 17.2611 233.931 9.46784C233.931 1.82414 231.109 0.224693 225.214 0.224693H219.069ZM228.911 9.49217C228.911 14.1645 227.587 14.4623 225.738 14.4623H224.014V4.72172H225.537C227.637 4.72172 228.911 4.84628 228.911 9.49217Z" fill="#E91478"/>
<path d="M240.649 0.224693H235.703V18.7353H240.649V0.224693Z" fill="#E91478"/>
<path d="M281.513 0C274.62 0 273.395 4.52068 273.395 9.49216C273.395 14.4386 274.62 18.96 281.513 18.96C288.383 18.96 289.608 14.4386 289.608 9.49216C289.608 4.52068 288.408 0 281.513 0ZM281.513 14.5882C278.791 14.5882 278.416 12.714 278.416 9.66749C278.416 6.64466 278.791 4.77112 281.513 4.77112C284.212 4.77112 284.586 6.64466 284.586 9.66749C284.586 12.714 284.212 14.5882 281.513 14.5882Z" fill="#E91478"/>
<path d="M316.184 0C309.289 0 308.064 4.52068 308.064 9.49216C308.064 14.4386 309.289 18.96 316.184 18.96C323.053 18.96 324.277 14.4386 324.277 9.49216C324.277 4.52068 323.078 0 316.184 0ZM316.184 14.5882C313.461 14.5882 313.086 12.714 313.086 9.66749C313.086 6.64466 313.461 4.77112 316.184 4.77112C318.88 4.77112 319.256 6.64466 319.256 9.66749C319.256 12.714 318.88 14.5882 316.184 14.5882Z" fill="#E91478"/>
<path d="M325.872 15.8064C324.97 15.8064 324.749 16.4158 324.749 17.2145C324.749 18.009 324.97 18.6149 325.872 18.6149C326.77 18.6149 327 18.009 327 17.2145C327 16.4158 326.77 15.8064 325.872 15.8064ZM325.872 18.416C325.133 18.416 324.963 17.8942 324.963 17.2145C324.963 16.5306 325.133 16.0095 325.872 16.0095C326.612 16.0095 326.785 16.5306 326.785 17.2145C326.785 17.8942 326.612 18.416 325.872 18.416Z" fill="#E91478"/>
<path d="M326.493 16.8965C326.493 16.5605 326.383 16.3678 325.95 16.3678H325.31V18.0424H325.654V17.451H325.872L326.131 18.0424H326.482L326.201 17.4176C326.427 17.3439 326.493 17.1588 326.493 16.8965ZM325.936 17.1741H325.654V16.6677H325.936C326.102 16.6677 326.157 16.7379 326.157 16.9223C326.157 17.1039 326.102 17.1741 325.936 17.1741Z" fill="#E91478"/>
<path d="M263.911 11.5918H267.102V11.9153C267.102 13.9607 267.166 14.863 264.73 14.863C262.456 14.863 261.681 13.8139 261.681 9.64244C261.681 5.2957 262.98 4.77112 264.929 4.77112C266.376 4.77112 267.402 5.14542 268.251 5.62127L270.899 1.49853C269.499 0.598986 267.451 0 265.153 0C258.759 0 256.71 3.0729 256.71 9.49216C256.71 15.0877 258.209 18.96 264.279 18.96C265.354 18.96 266.278 18.8863 267.074 18.7353H271.623V7.56925H264.457L263.911 11.5918Z" fill="#E91478"/>
<path d="M298.58 11.5918H301.772V11.9153C301.772 13.9607 301.836 14.863 299.399 14.863C297.126 14.863 296.351 13.8139 296.351 9.64244C296.351 5.2957 297.65 4.77112 299.598 4.77112C301.046 4.77112 302.071 5.14542 302.921 5.62127L305.569 1.49853C304.169 0.598986 302.121 0 299.823 0C293.429 0 291.38 3.0729 291.38 9.49216C291.38 15.0877 292.878 18.96 298.948 18.96C300.024 18.96 300.948 18.8863 301.744 18.7353H306.293V7.56925H299.127L298.58 11.5918Z" fill="#E91478"/>
<path d="M255.408 4.74608V0.224693H243.118V18.7353H255.408V14.3391H247.965V11.5654H252.853L253.45 7.16992H247.965V4.74608H255.408Z" fill="#E91478"/>
</svg>
