<svg width="626" height="626" viewBox="0 0 626 626" fill="none" xmlns="http://www.w3.org/2000/svg">
<path d="M361.041 45.2917L208.938 197.407C206.885 199.239 204.894 201.132 203.013 203.025C177.195 228.83 161.471 262.738 158.324 299.042L84.4362 225.155C45.6482 186.367 45.6482 123.249 84.4362 84.4609C123.237 45.6605 186.354 45.6605 225.154 84.4485L225.314 84.6207L264.471 45.4636L264.299 45.2917C203.923 -15.0972 105.668 -15.0972 45.2914 45.2917C-15.0971 105.68 -15.0971 203.935 45.2914 264.311L197.394 416.426C199.251 418.479 201.144 420.484 203.013 422.352C228.831 448.17 262.75 463.906 299.03 467.041L225.154 540.917C186.354 579.717 123.237 579.717 84.4363 540.917C45.6483 502.129 45.6483 438.998 84.4363 400.21L45.2916 361.054C-15.097 421.443 -15.097 519.697 45.2916 580.073C105.668 640.462 203.923 640.462 264.299 580.073L416.414 427.97C418.48 426.114 420.459 424.221 422.34 422.352C448.145 396.547 463.894 362.627 467.029 326.335L540.905 400.21C579.705 438.998 579.705 502.129 540.905 540.917C502.117 579.717 438.999 579.717 400.211 540.917L361.042 580.073C421.443 640.462 519.685 640.462 580.074 580.073C640.45 519.697 640.45 421.443 580.074 361.054L427.971 208.951C426.127 206.922 424.246 204.93 422.34 203.025C396.535 177.207 362.615 161.471 326.323 158.336L400.211 84.4484C438.999 45.6604 502.117 45.6604 540.905 84.4608C579.705 123.249 579.705 186.367 540.905 225.155L580.074 264.311C640.45 203.935 640.45 105.68 580.074 45.2917C519.685 -15.0972 421.442 -15.0972 361.042 45.2917M411.964 312.676C411.927 339.232 401.588 364.164 382.876 382.888C364.152 401.6 339.22 411.939 312.701 411.976C286.146 411.939 261.201 401.612 242.477 382.888C223.753 364.164 213.438 339.232 213.389 312.689C213.438 286.133 223.753 261.201 242.477 242.489C261.188 223.765 286.146 213.438 312.676 213.401C339.219 213.438 364.152 223.765 382.876 242.489C401.6 261.201 411.927 286.133 411.964 312.676" fill="#739391"/>
</svg>
