<svg width="51" height="35" viewBox="0 0 51 35" fill="none" xmlns="http://www.w3.org/2000/svg">
<rect x="0.858154" y="1.15625" width="49" height="33.2857" rx="5.5" fill="white" stroke="#D9D9D9"/>
<path fill-rule="evenodd" clip-rule="evenodd" d="M23.9727 23.1675V18.8518H26.2001C27.1128 18.8518 27.8832 18.546 28.5112 17.9428L28.6619 17.7899C29.8091 16.5411 29.7337 14.5957 28.5112 13.4403C27.8999 12.8286 27.0625 12.4973 26.2001 12.5143H22.6245V23.1675H23.9727ZM23.9728 17.5435V13.8226H26.2341C26.7198 13.8226 27.1804 14.0095 27.5238 14.3493C28.2524 15.0629 28.2692 16.2522 27.5657 16.9913C27.2223 17.3566 26.7366 17.5605 26.2341 17.5435H23.9728ZM34.9506 16.4477C34.3728 15.9125 33.5857 15.6406 32.5892 15.6406C31.308 15.6406 30.3451 16.1163 29.7087 17.0593L30.8977 17.8154C31.3331 17.1698 31.9277 16.8469 32.6813 16.8469C33.1586 16.8469 33.6192 17.0253 33.9792 17.3482C34.3309 17.654 34.5319 18.0958 34.5319 18.563V18.8773C34.0127 18.5885 33.3596 18.4356 32.5557 18.4356C31.6178 18.4356 30.8642 18.6565 30.3032 19.1067C29.7421 19.557 29.4574 20.1516 29.4574 20.9077C29.4407 21.5959 29.7338 22.25 30.2529 22.6918C30.7805 23.1675 31.4504 23.4054 32.2375 23.4054C33.167 23.4054 33.9039 22.9891 34.4649 22.1566H34.5235V23.1675H35.813V18.6734C35.813 17.7305 35.5283 16.9829 34.9506 16.4477ZM31.2915 21.8252C31.0151 21.6213 30.8476 21.29 30.8476 20.9332C30.8476 20.5339 31.0319 20.2026 31.392 19.9393C31.7605 19.6759 32.2211 19.54 32.7655 19.54C33.5193 19.5315 34.1055 19.7014 34.5243 20.0412C34.5243 20.6189 34.2981 21.1201 33.8543 21.5449C33.4523 21.9527 32.9079 22.182 32.3384 22.182C31.9615 22.1905 31.593 22.0631 31.2915 21.8252ZM38.7104 26.3703L43.2154 15.8785H41.75L39.665 21.1116H39.6398L37.5046 15.8785H36.0392L38.9951 22.7003L37.3203 26.3703H38.7104Z" fill="#3C4043"/>
<path d="M19.3182 17.9176C19.3182 17.5013 19.2847 17.085 19.2177 16.6772H13.532V19.0305H16.7893C16.6554 19.7866 16.2199 20.4662 15.5835 20.891V22.4201H17.5262C18.665 21.3582 19.3182 19.7866 19.3182 17.9176Z" fill="#4285F4"/>
<path d="M13.5322 23.8984C15.1567 23.8984 16.53 23.3547 17.5264 22.4202L15.5838 20.891C15.0395 21.2648 14.3445 21.4772 13.5322 21.4772C11.958 21.4772 10.6266 20.3983 10.1493 18.9541H8.14795V20.5342C9.16953 22.5986 11.2546 23.8984 13.5322 23.8984Z" fill="#34A853"/>
<path d="M10.1496 18.954C9.89832 18.1979 9.89832 17.3738 10.1496 16.6092V15.0376H8.14794C7.28532 16.7622 7.28532 18.801 8.14794 20.5256L10.1496 18.954Z" fill="#FBBC04"/>
<path d="M13.5322 14.0861C14.3947 14.0691 15.2237 14.4004 15.8433 15.0036L17.5683 13.2536C16.4714 12.2171 15.0311 11.6479 13.5322 11.6649C11.2546 11.6649 9.16954 12.9732 8.14795 15.0376L10.1493 16.6177C10.6266 15.165 11.958 14.0861 13.5322 14.0861Z" fill="#EA4335"/>
</svg>
