<svg width="25" height="31" viewBox="0 0 25 31" fill="none" xmlns="http://www.w3.org/2000/svg">
<path d="M21.9921 12.6989C20.181 13.7856 19.0516 15.665 18.9782 17.7159C18.9177 19.3979 17.043 20.4385 15.4962 19.6473C13.6119 18.6846 11.3515 18.6846 9.46714 19.6473C7.92044 20.4385 6.0456 19.3979 5.98507 17.7159C5.9118 15.6665 4.78085 13.7856 2.97131 12.6989C1.48515 11.8066 1.48515 9.72824 2.97131 8.83597C4.78244 7.74933 5.9118 5.86989 5.98507 3.81905C6.0456 2.13706 7.92044 1.09632 9.46714 1.88758C11.3515 2.85026 13.6119 2.85026 15.4962 1.88758C17.043 1.09632 18.9177 2.13706 18.9782 3.81905C19.0516 5.86837 20.1825 7.74933 21.9921 8.83597C23.4783 9.72824 23.4783 11.8066 21.9921 12.6989Z" stroke="black" stroke-miterlimit="10" stroke-linecap="round" stroke-linejoin="round"/>
<path d="M23.6151 26.2057H1.25122" stroke="black" stroke-miterlimit="10" stroke-linecap="round" stroke-linejoin="round"/>
<path d="M3.70811 28.9611L1.53039 26.8594C1.15654 26.4986 1.15654 25.9146 1.53039 25.5539L3.70811 23.4521" stroke="black" stroke-miterlimit="10" stroke-linecap="round" stroke-linejoin="round"/>
<path d="M21.1572 28.9611L23.335 26.8594C23.7087 26.4986 23.7087 25.9146 23.335 25.5539L21.1572 23.4521" stroke="black" stroke-miterlimit="10" stroke-linecap="round" stroke-linejoin="round"/>
</svg>
