<svg width="15" height="16" viewBox="0 0 15 16" fill="none" xmlns="http://www.w3.org/2000/svg">
<path d="M7.49875 2.10933C9.50092 2.10933 9.73838 2.11682 10.5295 2.15307C11.2606 2.18619 11.6568 2.30929 11.9211 2.41115C12.2711 2.54738 12.521 2.70985 12.7835 2.97231C13.0459 3.23476 13.2084 3.48472 13.3446 3.83466C13.4471 4.09899 13.5696 4.4958 13.6027 5.22693C13.639 6.02055 13.6465 6.25801 13.6465 8.25768C13.6465 10.2573 13.639 10.4992 13.6027 11.2884C13.5696 12.0195 13.4465 12.4176 13.3446 12.6819C13.2084 13.0319 13.0459 13.2818 12.7835 13.5443C12.521 13.8068 12.2711 13.9692 11.9211 14.1055C11.6568 14.2079 11.26 14.3304 10.5289 14.3635C9.73525 14.3998 9.49779 14.4073 7.49812 14.4073C5.49846 14.4073 5.25662 14.3998 4.46738 14.3635C3.73625 14.3304 3.33819 14.2073 3.07386 14.1055C2.74814 13.9851 2.45349 13.7933 2.21151 13.5443C1.94905 13.2818 1.78658 13.0319 1.65035 12.6819C1.54787 12.417 1.42539 12.0195 1.39227 11.2884C1.35602 10.4979 1.34853 10.2605 1.34853 8.25768C1.34853 6.25488 1.35602 6.01867 1.39227 5.22693C1.42539 4.4958 1.54849 4.10024 1.65035 3.83591C1.78658 3.48597 1.94905 3.23601 2.21151 2.97356C2.47396 2.7111 2.72392 2.54863 3.07386 2.4124C3.33882 2.30992 3.73625 2.18744 4.46738 2.15432C5.25787 2.11807 5.49533 2.11058 7.49812 2.11058L7.49875 2.10933ZM7.49875 0.758301C5.46159 0.758301 5.20663 0.767049 4.40677 0.803293C3.60877 0.839537 3.06324 0.965766 2.58644 1.15199C2.09278 1.34383 1.6741 1.60004 1.25542 2.01684C0.836735 2.43365 0.586152 2.8517 0.393684 3.34537C0.20809 3.82154 0.0812365 4.36707 0.0449925 5.16507C0.00874856 5.96493 0 6.22114 0 8.25705C0 10.293 0.00874856 10.5492 0.0449925 11.349C0.0812365 12.147 0.207465 12.6926 0.393684 13.1694C0.582267 13.6704 0.877343 14.1245 1.25854 14.5004C1.63326 14.8814 2.08637 15.1762 2.58644 15.3646C3.06136 15.5508 3.60627 15.6771 4.40489 15.7146C5.20476 15.7502 5.46096 15.7583 7.49812 15.7583C9.53528 15.7583 9.78837 15.7502 10.5882 15.7146C11.3862 15.6771 11.9318 15.5521 12.4086 15.3646C12.9091 15.1772 13.3624 14.8822 13.7365 14.5004C14.1177 14.1255 14.4128 13.6722 14.6013 13.1719C14.7863 12.6957 14.9138 12.1502 14.9494 11.3522C14.9856 10.5523 14.9944 10.2961 14.9944 8.26018C14.9944 6.22426 14.985 5.96806 14.9488 5.16819C14.9125 4.3702 14.7863 3.82466 14.6001 3.34787C14.4117 2.84751 14.1163 2.39432 13.7346 2.01997C13.36 1.63862 12.9069 1.34348 12.4067 1.15511C11.9318 0.970141 11.3856 0.842662 10.5882 0.807043C9.79024 0.766424 9.53404 0.758301 7.49875 0.758301Z" fill="white"/>
<path d="M7.4989 4.40625C6.48967 4.42443 5.52792 4.83811 4.82062 5.55826C4.11333 6.27841 3.71704 7.24746 3.71704 8.25686C3.71704 9.26625 4.11333 10.2353 4.82062 10.9555C5.52792 11.6756 6.48967 12.0893 7.4989 12.1075C9.62479 12.1075 11.3495 10.3828 11.3495 8.25686C11.3495 6.13096 9.62479 4.40625 7.4989 4.40625ZM7.4989 10.7564C6.11788 10.7564 4.99932 9.63788 4.99932 8.25686C4.99932 6.87584 6.11788 5.75727 7.4989 5.75727C8.87992 5.75727 9.99848 6.87584 9.99848 8.25686C9.99848 9.63788 8.87992 10.7564 7.4989 10.7564Z" fill="white"/>
<path d="M11.5017 5.15419C11.9986 5.15419 12.4015 4.75132 12.4015 4.25434C12.4015 3.75737 11.9986 3.35449 11.5017 3.35449C11.0047 3.35449 10.6018 3.75737 10.6018 4.25434C10.6018 4.75132 11.0047 5.15419 11.5017 5.15419Z" fill="white"/>
</svg>
