<svg width="157" height="42" viewBox="0 0 157 42" fill="none" xmlns="http://www.w3.org/2000/svg">
<g clip-path="url(#clip0_42_180)">
<path d="M13.7841 1.72831L7.97703 7.53295C7.89864 7.60286 7.82261 7.6751 7.75079 7.74735C6.7651 8.73207 6.16477 10.0259 6.04461 11.4113L3.22367 8.5918C1.7428 7.11167 1.7428 4.70312 3.22367 3.22299C4.70503 1.74239 7.11478 1.74239 8.59613 3.22252L8.60223 3.22909L10.0972 1.73487L10.0906 1.72831C7.78553 -0.576104 4.03428 -0.576104 1.72917 1.72831C-0.576391 4.03271 -0.576391 7.78206 1.72917 10.086L7.53629 15.8906C7.60716 15.969 7.67944 16.0455 7.75079 16.1168C8.73648 17.102 10.0315 17.7024 11.4166 17.8221L8.59614 20.6411C7.11478 22.1217 4.70503 22.1217 3.22368 20.6411C1.7428 19.161 1.7428 16.752 3.22368 15.2718L1.72918 13.7776C-0.576387 16.0821 -0.576387 19.8314 1.72918 22.1353C4.03429 24.4397 7.78553 24.4397 10.0906 22.1353L15.8982 16.3312C15.9771 16.2603 16.0526 16.1881 16.1244 16.1168C17.1097 15.132 17.7109 13.8377 17.8306 12.4528L20.6511 15.2718C22.1325 16.752 22.1325 19.161 20.6511 20.6411C19.1702 22.1217 16.7605 22.1217 15.2796 20.6411L13.7841 22.1353C16.0902 24.4397 19.841 24.4397 22.1465 22.1353C24.4516 19.8314 24.4516 16.0821 22.1465 13.7776L16.3394 7.97346C16.269 7.89606 16.1972 7.82005 16.1244 7.74734C15.1392 6.76215 13.8442 6.16166 12.4586 6.04203L15.2796 3.22251C16.7605 1.74238 19.1702 1.74238 20.6511 3.22298C22.1325 4.70311 22.1325 7.11167 20.6511 8.5918L22.1465 10.086C24.4516 7.78206 24.4516 4.03271 22.1465 1.72831C19.841 -0.576104 16.0902 -0.576104 13.7841 1.72831M15.7283 11.9316C15.7269 12.9449 15.3321 13.8963 14.6178 14.6108C13.9029 15.3249 12.951 15.7194 11.9386 15.7208C10.9247 15.7194 9.97234 15.3253 9.25748 14.6108C8.54263 13.8963 8.14882 12.9449 8.14694 11.9321C8.14882 10.9187 8.54263 9.9673 9.25748 9.25327C9.97187 8.53879 10.9247 8.14471 11.9376 8.14329C12.951 8.14471 13.9029 8.53879 14.6177 9.25327C15.3326 9.9673 15.7269 10.9187 15.7283 11.9316" fill="white"/>
<path d="M47.3983 0.000427246C40.8162 0.000427246 35.4602 5.35282 35.4602 11.932C35.4602 18.5112 40.8162 23.8641 47.3983 23.8641C50.8538 23.8641 53.9709 22.3881 56.1526 20.035V30.0679C56.1526 34.893 52.2253 38.8183 47.3983 38.8183C42.5712 38.8183 38.644 34.893 38.644 30.0679H35.4602C35.4602 36.6476 40.8162 42 47.3983 42C53.9808 42 59.3364 36.6476 59.3364 30.0679V11.932C59.3364 5.35282 53.9808 0.000427246 47.3983 0.000427246ZM47.3983 20.6819C42.5712 20.6819 38.644 16.7566 38.644 11.932C38.644 7.10739 42.5712 3.18211 47.3983 3.18211C52.2253 3.18211 56.1526 7.10739 56.1526 11.932C56.1526 16.7566 52.2253 20.6819 47.3983 20.6819Z" fill="white"/>
<path d="M68.8901 0H65.7068V23.8636H68.8901V0Z" fill="white"/>
<path d="M78.4408 11.932V0H75.2574V11.932C75.2574 18.5216 80.6018 23.8641 87.1946 23.8641V20.6819C82.36 20.6819 78.4408 16.7646 78.4408 11.932" fill="white"/>
<path d="M93.5616 11.932V0H90.3783V11.932C90.3783 18.5216 95.7231 23.8641 102.316 23.8641V20.6819C97.4814 20.6819 93.5616 16.7646 93.5616 11.932Z" fill="white"/>
<path d="M117.437 0.000183105C110.845 0.000183105 105.499 5.34225 105.499 11.9322C105.499 18.5218 110.845 23.8638 117.437 23.8638V20.6817C112.61 20.6817 108.683 16.7568 108.683 11.9322C108.683 7.10715 112.61 3.18188 117.437 3.18188C121.721 3.18188 125.293 6.2735 126.044 10.3409H117.437V13.5231H129.269C129.338 13.0023 129.375 12.4713 129.375 11.9322C129.375 5.34225 124.031 0.000183105 117.437 0.000183105Z" fill="white"/>
<path d="M153.817 6.10469V11.9319C153.817 16.7569 149.889 20.6817 145.062 20.6817C140.235 20.6817 136.308 16.7569 136.308 11.9319V0.000274658H133.125V11.9319C133.125 18.5111 138.48 23.8639 145.062 23.8639C148.518 23.8639 151.635 22.388 153.817 20.0348V30.0683C153.817 34.8929 149.889 38.8181 145.062 38.8181C140.235 38.8181 136.308 34.8929 136.308 30.0683H133.125C133.125 36.6475 138.48 41.9998 145.062 41.9998C151.645 41.9998 157 36.6474 157 30.0683V6.10469H153.817Z" fill="white"/>
</g>
<defs>
<clipPath id="clip0_42_180">
<rect width="157" height="42" fill="white"/>
</clipPath>
</defs>
</svg>
