<svg width="51" height="35" viewBox="0 0 51 35" fill="none" xmlns="http://www.w3.org/2000/svg">
<rect x="0.858154" y="1.15625" width="49" height="33.2857" rx="5.5" fill="white" stroke="#D9D9D9"/>
<path fill-rule="evenodd" clip-rule="evenodd" d="M25.7152 25.1664C24.013 26.6353 21.8049 27.5221 19.392 27.5221C14.0082 27.5221 9.6438 23.107 9.6438 17.6607C9.6438 12.2144 14.0082 7.79932 19.392 7.79932C21.8049 7.79932 24.013 8.6861 25.7152 10.1551C27.4175 8.6861 29.6256 7.79932 32.0384 7.79932C37.4222 7.79932 41.7867 12.2144 41.7867 17.6607C41.7867 23.107 37.4222 27.5221 32.0384 27.5221C29.6256 27.5221 27.4175 26.6353 25.7152 25.1664Z" fill="#ED0006"/>
<path fill-rule="evenodd" clip-rule="evenodd" d="M25.7153 25.1664C27.8113 23.3576 29.1404 20.6662 29.1404 17.6607C29.1404 14.6553 27.8113 11.9638 25.7153 10.1551C27.4176 8.6861 29.6257 7.79932 32.0385 7.79932C37.4223 7.79932 41.7868 12.2144 41.7868 17.6607C41.7868 23.107 37.4223 27.5221 32.0385 27.5221C29.6257 27.5221 27.4176 26.6353 25.7153 25.1664Z" fill="#F9A000"/>
<path fill-rule="evenodd" clip-rule="evenodd" d="M25.7153 10.1553C27.8113 11.964 29.1403 14.6555 29.1403 17.6609C29.1403 20.6663 27.8113 23.3577 25.7153 25.1665C23.6193 23.3577 22.2903 20.6663 22.2903 17.6609C22.2903 14.6555 23.6193 11.964 25.7153 10.1553Z" fill="#FF5E00"/>
</svg>
