<svg width="120" height="19" viewBox="0 0 120 19" fill="none" xmlns="http://www.w3.org/2000/svg">
<g clip-path="url(#clip0_448_2323)">
<path d="M10.2843 0.731567L12.5933 7.66022H20.0653L14.0203 11.9423L16.3293 18.8709L10.2843 14.5889L4.2393 18.8709L6.54828 11.9423L0.503296 7.66022H7.9753L10.2843 0.731567Z" fill="black"/>
<path d="M59.3347 0.731567L61.6438 7.66022H69.1158L63.0707 11.9423L65.3798 18.8709L59.3347 14.5889L53.2898 18.8709L55.5987 11.9423L49.5538 7.66022H57.0258L59.3347 0.731567Z" fill="black"/>
<path d="M34.8095 0.731567L37.1186 7.66022H44.5906L38.5455 11.9423L40.8546 18.8709L34.8095 14.5889L28.7646 18.8709L31.0735 11.9423L25.0286 7.66022H32.5006L34.8095 0.731567Z" fill="black"/>
<path d="M83.8539 0.731567L86.163 7.66022H93.635L87.5899 11.9423L89.899 18.8709L83.8539 14.5889L77.809 18.8709L80.1179 11.9423L74.073 7.66022H81.545L83.8539 0.731567Z" fill="black"/>
<path d="M108.379 0.731567L110.688 7.66022H118.16L112.115 11.9423L114.424 18.8709L108.379 14.5889L102.334 18.8709L104.643 11.9423L98.5983 7.66022H106.07L108.379 0.731567Z" fill="black"/>
</g>
<defs>
<clipPath id="clip0_448_2323">
<rect width="120" height="18" fill="white" transform="translate(0 0.731567)"/>
</clipPath>
</defs>
</svg>
