<svg width="26" height="26" viewBox="0 0 26 26" fill="none" xmlns="http://www.w3.org/2000/svg">
<g clip-path="url(#clip0_485_1448)">
<circle cx="13.3372" cy="13.2019" r="12.272" fill="#6FCF97"/>
<path fill-rule="evenodd" clip-rule="evenodd" d="M5.70276 13.4299C5.70276 9.22362 9.10666 5.79541 13.3372 5.79541C13.6047 5.79541 13.8235 6.01423 13.8235 6.28168C13.8235 6.54913 13.6047 6.76795 13.3372 6.76795C9.66587 6.76795 6.6753 9.75852 6.6753 13.4299C6.6753 17.1012 9.66587 20.0918 13.3372 20.0918C17.0086 20.0918 19.9991 17.1012 19.9991 13.4299C19.9991 13.1624 20.218 12.9436 20.4854 12.9436C20.7529 12.9436 20.9717 13.1624 20.9717 13.4299C20.9717 17.6604 17.5678 21.0643 13.3372 21.0643C9.10666 21.0643 5.70276 17.6361 5.70276 13.4299ZM9.51998 12.0683C9.71449 11.8981 10.0306 11.9224 10.2008 12.1169L12.8023 14.913L19.8532 7.86204C20.0478 7.66753 20.3395 7.66753 20.534 7.86204C20.7285 8.05655 20.7285 8.34831 20.534 8.54282L13.1184 15.9585C13.0211 16.0557 12.8996 16.1043 12.778 16.1043C12.6564 16.1043 12.5349 16.0557 12.4376 15.9585L9.49567 12.7734L9.47135 12.7491C9.30116 12.5546 9.32547 12.2385 9.51998 12.0683Z" fill="black"/>
</g>
<defs>
<clipPath id="clip0_485_1448">
<rect width="25" height="25" fill="white" transform="translate(0.609131 0.929932)"/>
</clipPath>
</defs>
</svg>
