<svg width="51" height="35" viewBox="0 0 51 35" fill="none" xmlns="http://www.w3.org/2000/svg">
<g id="Payment Method/Visa">
<rect id="BASE" x="0.858154" y="1.15625" width="49" height="33.2857" rx="5.5" fill="white" stroke="#D9D9D9"/>
<path id="visa-logo" fill-rule="evenodd" clip-rule="evenodd" d="M15.537 23.8825H12.508L10.2366 15.217C10.1287 14.8184 9.89983 14.466 9.56311 14.2999C8.72278 13.8825 7.79679 13.5503 6.78662 13.3828V13.0492H11.6662C12.3396 13.0492 12.8447 13.5503 12.9289 14.1324L14.1074 20.3831L17.1349 13.0492H20.0798L15.537 23.8825ZM21.7634 23.8825H18.9027L21.2583 13.0492H24.119L21.7634 23.8825ZM27.82 16.0503C27.9042 15.4669 28.4093 15.1332 28.9985 15.1332C29.9245 15.0495 30.9332 15.217 31.775 15.6329L32.2801 13.3005C31.4383 12.9668 30.5123 12.7993 29.672 12.7993C26.8955 12.7993 24.8751 14.2999 24.8751 16.3825C24.8751 17.9669 26.3062 18.7988 27.3164 19.2999C28.4093 19.7996 28.8302 20.1332 28.746 20.633C28.746 21.3825 27.9042 21.7161 27.0638 21.7161C26.0537 21.7161 25.0435 21.4663 24.119 21.0489L23.6139 23.3828C24.6241 23.7988 25.717 23.9663 26.7271 23.9663C29.8403 24.0486 31.775 22.5495 31.775 20.2993C31.775 17.4657 27.82 17.2996 27.82 16.0503ZM41.7866 23.8825L39.5152 13.0492H37.0755C36.5704 13.0492 36.0653 13.3828 35.8969 13.8825L31.6908 23.8825H34.6357L35.2235 22.2996H38.8418L39.1785 23.8825H41.7866ZM37.4964 15.9666L38.3367 20.0495H35.9811L37.4964 15.9666Z" fill="#172B85"/>
</g>
</svg>
