<?xml version="1.0" standalone="no"?>
<!DOCTYPE svg PUBLIC "-//W3C//DTD SVG 1.1//EN" "http://www.w3.org/Graphics/SVG/1.1/DTD/svg11.dtd" >
<svg xmlns="http://www.w3.org/2000/svg" xmlns:xlink="http://www.w3.org/1999/xlink" version="1.1">
<metadata>
Created by FontForge 20190801 at Thu Feb 20 11:28:43 2014
 By www-data
Copyright (c) 2014 by SuperBruut / Thijs Janssen. All rights reserved.
</metadata>
<defs>
<font id="Le_Super_Type_Regular" horiz-adv-x="654" >
  <font-face 
    font-family="Le_Super_Type_Regular"
    font-weight="400"
    font-stretch="normal"
    units-per-em="1000"
    panose-1="0 0 0 0 0 0 0 0 0 0"
    ascent="750"
    descent="-250"
    x-height="798"
    cap-height="798"
    bbox="-126 -175 2835 1016"
    underline-thickness="50"
    underline-position="-100"
    unicode-range="U+000D-20AC"
  />
<missing-glyph horiz-adv-x="358" 
 />
    <glyph glyph-name="A_M_2" unicode="AM" horiz-adv-x="1585" 
d="M570 186h-172v54h51l-40 132h-182l-95 -318h50v-54h-172v54h66l206 690h-50v54h172v-54h-50l151 -504h65v-54zM393 426l-75 252l-75 -252h150zM1070 54h52v-54h-172v54h56l-186 624l-186 -624h49v-54h-172v54h67l206 690h-40v54h153v-54h-41l182 -611l182 611h-40v54h153
v-54h-41l206 -690h65v-54h-172v54h51l-186 624z" />
    <glyph glyph-name="A_M_3" unicode="aM" horiz-adv-x="1532" 
d="M765 678l-186 -624h47h2v-54h-2h-169h-3v54h3h47l-39 132h-293l-40 -132h50v-54h-172v54h66l206 690h-50v54h172v-54h-50l188 -629l187 629h-39v54h152v-54h-41l182 -611l183 611h-40v54h152v-54h-40l205 -690h66v-54h-172v54h50l-185 624l-186 -624h50v-54h-171v54h56z
M449 240l-131 438l-130 -438h261z" />
    <glyph glyph-name="A_P" unicode="aP" horiz-adv-x="1132" 
d="M1063 611q24 -56 24 -119q0 -64 -24 -119q-23 -55 -65 -97t-97 -66q-57 -24 -119 -24h-200v-132h59v-54h-59h-54h-59v54h59v132h-290l-80 -132h39v-54h-172v54h71l411 690h-62v54h83h54h200q62 0 119 -24q55 -24 97 -66t65 -97zM528 240v434l-258 -434h258zM782 240
q52 0 98 20t80 54t54 80t20 98t-20 98t-54 80t-80 54t-98 20h-200v-504h200z" />
    <glyph glyph-name="A_P_2" unicode="ap" horiz-adv-x="967" 
d="M879 735q62 -62 62 -150q0 -43 -16 -81.5t-46 -69.5q-30 -30 -68.5 -45.5t-81.5 -15.5h-148v-134v-53v-132h59v-54h-171v54h58v132h-290l-79 -132h38v-54h-171v54h70l111 184v1l301 505h-62v54h82h54h148q43 0 81.5 -16.5t68.5 -46.5zM527 239v435l-258 -435h258z
M729 426q33 0 61.5 12.5t50 34.5t34 50.5t12.5 61.5t-12.5 62t-34 50.5t-50 34t-61.5 12.5h-148v-318h148z" />
    <glyph glyph-name="A_R_2" unicode="AR" horiz-adv-x="1207" 
d="M1362 -81l-22 -13q-52 -33 -113 -42q-23 -3 -45 -3q-18 0 -36 1.5t-35 6.5q-58 14 -105 48q-50 36 -81 88l-111 181h-150h-6v-132h58v-54h-171v54h59v132h-205v53h50l-40 133h-182l-95 -318h50v-54h-172v54h66l206 690h-50v54h172v-54h-50l151 -505h99v505h-59v54h313
q62 0 119 -24q56 -25 97 -66q42 -43 65 -98q24 -56 24 -118q0 -64 -24 -119q-23 -55 -65 -97q-41 -41 -97 -66q-49 -20 -101 -23l94 -154q27 -44 67.5 -72.5t86.5 -39.5t94.5 -4t92.5 34l23 14zM393 426l-75 251l-75 -251h150zM658 744v-504h200q52 0 98 20t80 54t54 80
t20 98t-20 97.5t-54 80t-80 54.5t-98 20h-200z" />
    <glyph glyph-name="C_H" unicode="CH" horiz-adv-x="947" 
d="M100 398q0 -71 27 -134t74 -109.5t110 -73.5t135 -27h26v-54h-26q-84 0 -156 31q-70 29 -127 86q-28 27 -49 59t-36 67q-32 76 -32 155q0 81 32 156q30 72 85 127q28 27 59.5 48.5t67.5 36.5q75 32 156 32h26v-54h-26q-72 0 -135 -27t-110 -74t-74 -110t-27 -135z
M848 799h59v-53h-59v-319v-53v-319h59v-53h-59h-54h-59v53h59v319h-322v-133h59v-54h-171v54h58v133v53v133h-58v54h58h54h59v-54h-59v-133h322v319h-59v53h59h54z" />
    <glyph glyph-name="C_O" unicode="CO" horiz-adv-x="929" 
d="M828 615q42 -42 65 -97q25 -59 25 -120q0 -59 -25 -118q-23 -56 -65 -98q-22 -21 -46 -37.5t-52 -27.5q-56 -24 -119 -24q-62 0 -119 24q-55 23 -97 65q-43 42 -65 98q-24 57 -24 118q0 63 24 120q23 55 65 97q41 41 97 66q57 24 119 24q63 0 119 -24q54 -23 98 -66z
M611 146q52 0 98 20t80.5 54.5t54.5 80t20 97.5t-20 98.5t-54.5 80.5t-80.5 54t-98 20t-98 -20t-80 -54t-54 -80.5t-20 -98.5t20 -97.5t54 -80t80 -54.5t98 -20zM100 398q0 -71 27 -134t74 -109.5t110 -73.5t135 -27h26v-54h-26q-84 0 -156 31q-70 29 -127 86
q-55 55 -85 126q-32 76 -32 155q0 81 32 156q30 72 85 127t127 85q75 32 156 32h26v-54h-26q-72 0 -135 -27t-110 -74t-74 -110t-27 -135z" />
    <glyph glyph-name="D_O" unicode="DO" horiz-adv-x="1176" 
d="M1144 554q31 -72 31 -156q0 -81 -31 -155q-30 -70 -86 -126q-54 -56 -127 -86q-72 -31 -155 -31t-155 31q-30 14 -58 31t-53 40q-46 -43 -110 -71q-37 -16 -76 -23.5t-79 -7.5h-67h-56h-56v54h56h2v690h-2h-56v54h56h56h67q80 0 155 -32q63 -26 110 -70q25 23 53 40
t58 30q75 32 155 32t155 -32q74 -31 127 -85q57 -57 86 -127zM510 178q38 45 59 101t21 119t-21 119t-59 101q-37 -45 -58 -101t-21 -119t21 -119t58 -101zM245 54q66 0 124 22.5t104 63.5q-20 23 -36 49t-28 54q-31 74 -31 155q0 84 31 156q24 56 64 104q-46 40 -104 63
t-124 23h-67v-690h67zM776 54q71 0 134 27t110 73.5t74.5 109.5t27.5 134q0 72 -27.5 135t-74.5 110t-110 74t-134 27q-66 0 -124 -23t-104 -63q20 -24 36 -49.5t28 -54.5q31 -72 31 -156q0 -81 -31 -155q-24 -55 -64 -103q46 -41 104 -63.5t124 -22.5z" />
    <glyph glyph-name="E_T_2" unicode="et" horiz-adv-x="786" 
d="M625 798h124v-54h-124v-690h58v-54h-58h-54h-59v54h59v690h-499v54h499h54zM184 612h254v-54h-254v-318h222v-54h-222v-132h254v-54h-254h-54h-58v54h58v132v54v318h-58v54h58h54z" />
    <glyph glyph-name="E_T_E" unicode="ETE" horiz-adv-x="1155" 
d="M626 798h504v-53h-504v-691h59v-54h-59h-53h-59v54h59v691h-501v53h501h53zM878 612h252v-54h-252v-318h220v-54h-220v-132h252v-54h-252h-54h-59v54h59v132v54v318h-59v54h59h54zM184 612h254v-54h-254v-318h222v-54h-222v-132h254v-54h-254h-54h-58v54h58v132v54v318
h-58v54h58h54z" />
    <glyph glyph-name="E_U" unicode="EU" horiz-adv-x="1191" 
d="M1062 90q-42 -42 -96 -66q-59 -24 -120 -24q-63 0 -120 24q-56 25 -97 66q-21 21 -38 45.5t-28 51.5q-24 58 -24 119v438h-53h-6h-295v-132h264v-54h-264v-504h301v-54h-301h-54h-59v54h59v504v54v132h-59v54h59h54h295h6h53h54h59v-54h-59v-438q0 -52 20 -98t54 -80
t80 -54t99 -20q52 0 98.5 20t80.5 54t54 80t20 98v438h-59v54h59h54h58v-54h-58v-438q0 -61 -24 -119q-12 -27 -28.5 -51.5t-38.5 -45.5z" />
    <glyph glyph-name="F_T" unicode="FT" horiz-adv-x="1060" 
d="M180 798h355v-54h-355v-318h258v-54h-258v-318h59v-54h-59h-54h-59v54h59v318v54v318h-59v54h59h54zM766 798h261v-54h-261v-690h60v-54h-60h-53h-59v54h59v690h-124v54h124h53z" />
    <glyph glyph-name="G_E" unicode="GE" horiz-adv-x="1234" 
d="M905 744v-133h264v-53h-264v-504h301v-54h-301h-54h-59v54h59v318h-36q-2 -34 -9.5 -66t-20.5 -63q-31 -72 -86 -126q-54 -55 -126 -86q-76 -32 -155 -32q-81 0 -156 32q-70 29 -127 86q-55 55 -85 126q-15 37 -23.5 76t-8.5 79q0 41 8.5 80t23.5 76q30 70 85 127
q28 27 59.5 48.5t67.5 36.5q37 15 76 23.5t80 8.5h26v-54h-26q-72 0 -135 -27t-110 -74t-74 -110t-27 -135q0 -71 27 -134t74 -110t110 -74t135 -27q68 0 128 25t106.5 68t75.5 101t34 125h-207v54h207h54h35v132v53v133h-59v54h59h54h301v-54h-301z" />
    <glyph glyph-name="G_O" unicode="GO" horiz-adv-x="1234" 
d="M135 117q-55 55 -85 127q-32 75 -32 155t32 155q31 74 85 127q27 28 59 49t68 36q75 32 155 32h27v-54h-27q-72 0 -134.5 -27t-109.5 -74t-74 -109.5t-27 -134.5q0 -71 27 -134t74 -110t109.5 -74t134.5 -27q79 0 149 34q-18 13 -32 29q-57 57 -86 127q-32 75 -32 155
t32 155q30 73 86 127q27 28 59 49t67 36q75 32 155 32q82 0 155 -32q74 -31 128 -85q53 -53 84 -127q32 -75 32 -155t-32 -155q-30 -71 -84 -127q-56 -55 -128 -86q-36 -16 -75 -23.5t-80 -7.5q-40 0 -79 7.5t-76 23.5q-11 5 -22 11l-22 12l-22 -12t-22 -11
q-37 -16 -76 -23.5t-79 -7.5q-83 0 -155 31q-73 32 -127 86zM470 399q0 -88 40 -161t106 -121q62 44 100.5 110t44.5 145h-207v54h208h54h58v-54h-59q-5 -68 -31 -128q-15 -36 -36.5 -67.5t-48.5 -59.5q-8 -8 -16 -15t-17 -14q70 -34 149 -34q72 0 135 27t110 74t74 110
t27 134q0 72 -27 134.5t-74 109.5t-110 74t-135 27q-71 0 -134 -27t-110 -74t-74 -109.5t-27 -134.5z" />
    <glyph glyph-name="H_A_2" unicode="ha" horiz-adv-x="1054" 
d="M961 54h70v-54h-171v54h38l-79 132h-290v-132h58v-54h-58h-54h-59v54h59v132v0h-322v-132h58v-54h-58h-54h-59v54h59v690h-59v54h59h54h58v-54h-58v-504h322v504h-59v54h59h54h58v-54h-38zM787 240l-258 434v-434h258z" />
    <glyph glyph-name="L_A" unicode="la" horiz-adv-x="788" 
d="M107 0h-59v54h59v690h-59v54h59h54h59v-54h-59v-690h582v-54h-582h-54zM410 186h-171v54h66l150 504h-49v54h171v-54h-50l151 -504h65v-54h-171v54h50l-40 132h-182l-39 -132h49v-54zM566 426l-75 252l-75 -252h150z" />
    <glyph glyph-name="L_A_2" unicode="LA" horiz-adv-x="902" 
d="M106 0h-58v54h58v690h-58v54h58h54h59v-54h-59v-690h390v-54h-390h-54zM794 54h65v-53h-172v53h51l-96 319h-182l-39 -133h49v-54h-171v54h66l150 505h-49v53h171v-53h-50zM626 426l-75 252l-75 -252h150z" />
    <glyph glyph-name="L_E" unicode="LE" horiz-adv-x="689" 
d="M351 186h-59v54h59v318v54v132h-59v54h59h54h253v-54h-253v-132h221v-54h-221v-318h253v-54h-253h-54zM160 54h497v-54h-497h-54h-58v54h58v690h-58v54h58h54h59v-54h-59v-690z" />
    <glyph glyph-name="L_E_2" unicode="le" horiz-adv-x="686" 
d="M405 744v-318h221v-54h-221v-132h253v-54h-253h-54h-59v54h59v132v54v318h-59v54h59h54h253v-54h-253zM160 54h497v-54h-497h-54h-58v54h58v690h-58v54h58h54h59v-54h-59v-690z" />
    <glyph glyph-name="L_E_E_2" unicode="lee" horiz-adv-x="1131" 
d="M843 798h254v-54h-254v-318h221v-54h-221v-132h254v-54h-254h-53h-60v54h60v132v54v318h-60v54h60h53zM405 744v-318h221v-54h-221v-132h253v-54h-253h-54h-59v54h59v132v54v318h-59v54h59h54h253v-54h-253zM160 54h937v-54h-937h-54h-58v54h58v690h-58v54h58h54h59v-54
h-59v-690z" />
    <glyph glyph-name="L_I" unicode="LI" horiz-adv-x="562" 
d="M107 0h-59v54h59v690h-59v54h59h54h59v-54h-59v-690h358v-54h-358h-54zM509 186h-172v54h59v504h-59v54h172v-54h-59v-504h59v-54z" />
    <glyph glyph-name="L_I_E" unicode="LIE" horiz-adv-x="1022" 
d="M731 744v-318h221v-54h-221v-132h253v-54h-253h-53h-60v54h60v132v54v318h-60v54h60h53h253v-54h-253zM984 0h-823h-54h-59v54h59v690h-59v54h59h54h59v-54h-59v-690h823v-54zM450 744v-504h59v-54h-171v54h58v504h-58v54h171v-54h-59z" />
    <glyph glyph-name="L_L" unicode="LL" horiz-adv-x="650" 
d="M106 0h-58v54h58v690h-58v54h58h54h59v-54h-59v-690h440v-54h-440h-54zM323 186h-59v54h59v504h-59v54h59h54h59v-54h-59v-504h223v-54h-223h-54z" />
    <glyph glyph-name="L_O" unicode="LO" horiz-adv-x="915" 
d="M107 0h-59v54h59v690h-59v54h59h54h59v-54h-59v-690h699v-54h-699h-54zM354 276q-41 41 -66 97q-24 55 -24 119q0 63 24 119q25 56 66 97q42 42 97 66q57 24 119 24t119 -24q55 -24 97 -66q41 -41 66 -97q24 -56 24 -119q0 -64 -24 -119q-25 -56 -66 -97q-42 -42 -97 -66
q-57 -24 -119 -24t-119 24q-55 24 -97 66zM570 744q-52 0 -98 -20t-80 -54t-54 -80t-20 -98t20 -98t54 -80t80 -54t98 -20t98 20t80 54t54 80t20 98t-20 98t-54 80t-80 54t-98 20z" />
    <glyph glyph-name="L_O_O" unicode="LOO" horiz-adv-x="1261" 
d="M1219 0h-1058h-54h-59v54h59v691h-59v53h59h54h59v-53h-59v-691h1058v-54zM1195 611q24 -56 24 -119q0 -62 -24 -119q-12 -27 -28 -51.5t-37 -45.5q-42 -42 -98 -66q-57 -24 -118 -24q-63 0 -120 24q-28 12 -52 29q-24 -17 -52 -29q-59 -24 -120 -24q-62 0 -119 24
q-55 24 -97 66t-65 97q-25 59 -25 119q0 61 25 119q22 55 65 98q41 41 97 65q57 24 119 24q61 0 120 -24q14 -6 27 -13t25 -15q12 8 25 15t27 13q57 24 120 24q61 0 118 -24q58 -25 98 -65q21 -21 37 -45.5t28 -52.5zM570 240q35 0 67.5 9t60.5 26l-1 1q-41 41 -66 97
q-24 57 -24 119q0 63 24 119t66 98q1 0 1 1q-28 17 -60.5 26t-67.5 9q-52 0 -98 -20t-80 -54.5t-54 -80.5t-20 -98t20 -98t54 -80t80 -54t98 -20zM822 492q0 55 -21.5 102.5t-58.5 82.5q-38 -35 -59.5 -82.5t-21.5 -102.5t21.5 -102.5t59.5 -82.5q37 35 58.5 82.5
t21.5 102.5zM914 240q52 0 97.5 20t80 54t54.5 80t20 98t-20 98t-54.5 80.5t-80 54.5t-97.5 20q-36 0 -68 -9t-60 -26v-1q44 -44 66 -98q24 -56 24 -119q0 -62 -24 -119q-22 -53 -66 -97v-1q28 -17 60 -26t68 -9z" />
    <glyph glyph-name="L_U" unicode="LU" horiz-adv-x="888" 
d="M682 798h172v-54h-60v-321q0 -48 -17.5 -91t-51.5 -77q-34 -33 -76.5 -51t-90.5 -18t-91 18t-77 51q-33 34 -51 77t-18 91v321h-59v54h172v-54h-60v-321q0 -38 14.5 -71.5t39.5 -58t58.5 -39t71.5 -14.5q37 0 70.5 14.5t58.5 39t39.5 58t14.5 71.5v321h-59v54zM106 0h-58
v54h58v690h-58v54h58h54h59v-54h-59v-690h634v-54h-634h-54z" />
    <glyph glyph-name="L_Y" unicode="LY" horiz-adv-x="690" 
d="M106 0h-58v54h58v690h-58v54h58h54h59v-54h-59v-690h465v-54h-465h-54zM330 744h-70v54h171v-54h-37l64 -107l66 107h-38v54h172v-54h-72l-100 -166v-338h58v-54h-58h-54h-59v54h59v338z" />
    <glyph glyph-name="L_Y_2" unicode="ly" horiz-adv-x="910" 
d="M161 54h684v-54h-684h-54h-59v54h59v690h-59v54h59h54h59v-54h-59v-690zM866 798v-54h-76l-187 -336v-163h59v-54h-59h-53h-59v54h59v163l-172 336h-82v54h171v-54h-29l140 -272l150 272h-34v54h172z" />
    <glyph glyph-name="N_N" unicode="NN" horiz-adv-x="1094" 
d="M138 54h60v-53h-60h-53h-59v53h59v690h-59v54h172v-54h-40l362 -618v618h-58v54h58h54h59v-54h-39l362 -618v618h-59v54h59h54h58v-54h-58v-690h58v-53h-171v53h39l-362 618v-618h59v-53h-171v53h38l-362 618v-618z" />
    <glyph glyph-name="O_O" unicode="OO" horiz-adv-x="1199" 
d="M216 31q-70 29 -127 86q-56 56 -86 126q-31 74 -31 155q0 84 31 156q29 70 86 127q55 55 127 85q75 32 155 32t155 -32q19 -8 36.5 -18t34.5 -21q17 11 34 21t36 18q76 32 156 32t155 -32q72 -30 127 -85t85 -127q32 -75 32 -156q0 -79 -32 -155q-30 -71 -85 -126
q-57 -57 -127 -86q-72 -31 -155 -31q-82 0 -156 31q-19 8 -36 17.5t-34 21.5q-17 -12 -34.5 -21.5t-36.5 -17.5q-72 -31 -155 -31t-155 31zM823 744q-51 0 -96.5 -13.5t-85.5 -38.5q4 -3 12 -11q55 -55 85 -127q32 -75 32 -156q0 -79 -32 -155q-30 -71 -85 -126l-6 -6t-6 -5
q40 -25 85.5 -38.5t96.5 -13.5q71 0 134 27t110 73.5t74 109.5t27 134q0 72 -27 135t-74 110t-110 74t-134 27zM478 398q0 -78 32 -145t87 -115q55 48 87 115t32 145t-32 145.5t-87 115.5q-55 -48 -87 -115.5t-32 -145.5zM371 744q-71 0 -134 -27t-110 -74t-74 -110
t-27 -135q0 -71 27 -134t74 -109.5t110 -73.5t134 -27q51 0 96.5 13.5t85.5 38.5q-4 3 -12 11q-56 56 -86 126q-31 74 -31 155q0 84 31 156q29 70 86 127q8 8 12 11q-40 25 -85.5 38.5t-96.5 13.5z" />
    <glyph glyph-name="O_U" unicode="OU" horiz-adv-x="1158" 
d="M1078 744v-437q0 -62 -24 -120q-12 -27 -28 -51.5t-37 -45.5q-43 -42 -98 -66q-57 -24 -119 -24q-63 0 -120 24q-14 6 -27.5 13.5t-25.5 16.5l-22 -12t-23 -11q-71 -31 -155 -31q-81 0 -155 31q-72 32 -126 86q-57 57 -86 127q-16 37 -23.5 76t-7.5 79q0 83 31 155
q30 73 86 127q27 28 59 49t67 36q76 32 155 32q82 0 155 -32q74 -31 128 -85q55 -55 85 -127q31 -72 31 -155q0 -40 -7.5 -79t-23.5 -76q-15 -36 -36.5 -67.5t-48.5 -59.5q-9 -8 -17.5 -15.5t-17.5 -15.5q28 -15 59 -23.5t66 -8.5q52 0 98 20t80.5 54t54.5 80t20 99v437h-59
v54h59h53h60v-54h-60zM54 399q0 -71 27 -134t74 -110t110 -74t134 -27q42 0 81 9.5t74 26.5q-21 21 -37 45.5t-28 51.5q-24 58 -24 120v207h-59v53h59h53h60v-53h-60v-207q0 -56 22.5 -104.5t61.5 -83.5q65 48 104 120.5t39 159.5q0 72 -27 134.5t-74 109.5t-110 74t-135 27
q-71 0 -134 -27t-110 -74t-74 -109.5t-27 -134.5z" />
    <glyph glyph-name="P_O" unicode="PO" horiz-adv-x="1178" 
d="M1094 117q-56 -56 -128 -86q-36 -16 -75 -23.5t-80 -7.5q-81 0 -155 31q-72 31 -126 86q-22 21 -39.5 45t-32.5 50l-4 -2q-56 -24 -118 -24h-201v-132h59v-54h-172v54h60v690h-60v54h314q62 0 118 -24t98 -66l3 -3q46 37 101 61q76 32 155 32q82 0 155 -32
q74 -31 128 -85q54 -56 84 -127q32 -75 32 -156q0 -79 -32 -155q-30 -71 -84 -126zM466 398q0 -29 5 -56t13 -53q48 34 76 87t28 116q0 37 -10 70t-28 62q-39 -45 -61.5 -102.5t-22.5 -123.5zM336 240q52 0 101 22q-24 66 -24 136q0 84 31 156q28 65 73 113q-35 35 -81.5 56
t-99.5 21h-201v-504h201zM506 238q22 -41 53.5 -75t71 -58t85 -37.5t95.5 -13.5q72 0 135 27t110 73.5t74 109.5t27 134q0 72 -27 135t-74 110t-110 74t-135 27q-64 0 -120 -21.5t-102 -59.5q8 -13 15.5 -25.5t13.5 -26.5q24 -56 24 -119q0 -62 -24 -119q-25 -56 -66 -97
q-20 -20 -46 -38z" />
    <glyph glyph-name="P_S" unicode="PS" horiz-adv-x="870" 
d="M827 298q15 -39 15 -84q0 -48 -17.5 -90.5t-50.5 -75.5q-34 -34 -76.5 -51.5t-90.5 -17.5q-70 0 -128 38t-87 103q-2 4 -3.5 7.5t-2.5 7.5l-9 26l50 17l9 -24q2 -3 2.5 -6t2.5 -7q22 -50 67 -79t99 -29q37 0 70.5 14t58 39t39 57.5t14.5 70.5q0 46 -17.5 77t-43 50
t-55 29t-52.5 14q-2 -4 -4 -10q-24 -56 -66 -98t-97 -65q-59 -25 -119 -25h-201v-132h60v-54h-172v54h59v690h-59v54h313q62 0 119 -24l24 -12t24 -14q56 47 129 47q41 0 77 -15t65 -43q28 -29 43 -65t15 -77v-27h-53v27q0 30 -11.5 57t-31.5 47t-47 31.5t-57 11.5
q-24 0 -45.5 -7.5t-40.5 -20.5l6 -6q41 -41 66 -97q24 -56 24 -119q0 -29 -6 -56q23 -5 42.5 -11t37.5 -15q40 -18 67 -46q29 -28 45 -66zM587 492q0 54 -21 101.5t-58 81.5q-11 -17 -17.5 -37t-6.5 -43q0 -47 27 -85.5t72 -59.5q4 19 4 42zM335 240q40 0 76 11.5t66.5 32.5
t54 50t37.5 64q-48 20 -82 57q-57 60 -57 140q0 63 36 113q-29 17 -62.5 26.5t-68.5 9.5h-201v-504h201z" />
    <glyph glyph-name="Q_U" unicode="QU" horiz-adv-x="1398" 
d="M885 744v-509q0 -38 14 -71t39 -58t58.5 -39t71.5 -14t71 14t58 39t39 58t14 71v509h-58v54h58h54h59v-54h-59v-509q0 -48 -17.5 -90.5t-51.5 -76.5t-76.5 -51.5t-90.5 -17.5t-91 17.5t-77 51.5q-33 34 -51 76.5t-18 90.5v509h-59v54h59h54h58v-54h-58zM546 31
q-36 -16 -75 -23.5t-80 -7.5q-40 0 -79 7.5t-76 23.5q-71 30 -127 86q-56 57 -85 126q-32 76 -32 155q0 81 32 156q15 36 36.5 67.5t48.5 59.5q54 54 127 85q75 32 155 32q82 0 155 -32q74 -31 128 -85q54 -56 84 -127q32 -75 32 -156q0 -79 -32 -155q-16 -39 -42 -76
l121 -121q46 -48 106 -73t126 -25q60 0 114.5 20.5t98.5 59.5q17 14 31 31t26 35l15 22l44 -30l-14 -22q-27 -41 -66 -76q-51 -46 -115.5 -70t-133.5 -24q-77 0 -150 31q-69 31 -121 84l-116 117q-2 -3 -4 -5l-4 -4q-56 -56 -128 -86zM46 398q0 -71 27 -134t74 -109.5
t110 -73.5t134 -27q75 0 140 29t113 80l-258 259l37 38l255 -254q27 42 43 90t16 102q0 72 -27 135t-74 110t-110 74t-135 27q-71 0 -134 -27t-110 -74t-74 -110t-27 -135z" />
    <glyph glyph-name="Q_U_2" unicode="qu" horiz-adv-x="1446" 
d="M838 798h54h58v-54h-58v-509q0 -38 14.5 -71t39 -58t58 -39t71.5 -14t71.5 14t58 39t39 58t14.5 71v509h-59v54h59h54h58v-54h-58v-509q0 -48 -18 -90.5t-52 -76.5q-33 -34 -76 -51.5t-91 -17.5t-91 17.5t-77 51.5q-33 34 -51 76.5t-18 90.5v509h-59v54h59zM990 -137
q-52 0 -102.5 9.5t-99.5 26.5q-47 17 -90 42t-81 57q-25 21 -47 44l-12 -6t-12 -5q-36 -16 -75 -23.5t-80 -7.5q-40 0 -79 7.5t-76 23.5q-72 31 -126 86q-56 56 -86 126q-31 74 -31 155q0 84 31 156q29 70 86 127q27 28 59 49t67 36q75 32 155 32q82 0 155 -32
q74 -31 128 -85q54 -56 84 -127q32 -75 32 -156q0 -79 -32 -155q-30 -71 -84 -126q-26 -26 -56 -47q72 -72 167.5 -112.5t204.5 -40.5q81 0 152.5 26.5t125.5 73t87 109t37 134.5l1 27l53 -2v-27q-3 -41 -13 -79.5t-29 -76.5q-36 -68 -99 -124q-65 -56 -145.5 -85.5
t-169.5 -29.5zM391 54q77 0 142 30q-12 15 -23 31t-21 32q-53 89 -72 187l-5 27l52 10l6 -26q13 -67 41 -126t70 -109q70 47 113 122t43 166q0 72 -27 135t-74 110t-110 74t-135 27q-71 0 -134 -27t-110 -74t-74 -110t-27 -135q0 -71 27 -134t74 -109.5t110 -73.5t134 -27z
" />
    <glyph glyph-name="R_I_2" unicode="ri" horiz-adv-x="774" 
d="M734 14l21 -49l-25 -11q-54 -24 -116 -24h-1q-58 0 -113 23q-28 11 -52 27.5t-45 36.5q-44 43 -68 99l-109 258h-94v-320h59v-54h-171v54h58v690h-58v54h258q43 0 81.5 -16.5t68.5 -46.5t46 -68.5t16 -80.5q0 -88 -62 -150q-29 -29 -66 -45t-78 -17l101 -237
q20 -48 55.5 -82t79.5 -52t93.5 -18.5t96.5 19.5zM132 427h146q33 0 62 12.5t50.5 34t34 50.5t12.5 62t-12.5 61.5t-34 50t-50.5 34t-62 12.5h-146v-317zM684 744v-505h59v-53h-59h-54h-58v53h58v505h-58v54h171v-54h-59z" />
    <glyph glyph-name="R_N" unicode="RN" horiz-adv-x="1284" 
d="M1205 804h59v-54h-59v-690h59v-54h-171v54h38l-361 618v-432h59v-54h-59h-54h-59v54h59v504h-59v54h172v-54h-39l361 -618v618h-58v54h58h54zM743 73l28 -46l-22 -14q-53 -32 -113 -41q-23 -3 -46 -3q-17 0 -34.5 1.5t-35.5 6.5q-57 13 -105 48q-51 35 -81 87v1l-45 74
h-156v-133h59v-54h-172v54h59v690h-59v54h314q61 0 118 -24q28 -12 52.5 -28t45.5 -38q41 -41 65 -97q11 -28 17.5 -57.5t6.5 -61.5q0 -31 -6.5 -60.5t-17.5 -57.5q-12 -28 -28 -52.5t-37 -45.5q-43 -43 -98 -65q-48 -19 -101 -24l28 -47q27 -44 67.5 -72t87 -39t95 -4
t92.5 34zM133 241h201q52 0 97.5 20t80 54t54.5 79.5t20 97.5t-20 98t-54.5 80t-80 54t-97.5 20h-201v-503z" />
    <glyph glyph-name="R_O" unicode="RO" horiz-adv-x="1176" 
d="M1090 681q57 -57 86 -127q31 -72 31 -156q0 -81 -31 -155q-30 -70 -86 -126q-54 -56 -127 -86q-72 -31 -155 -31t-155 31q-71 30 -127 86q-21 21 -38.5 45t-31.5 50q-2 0 -4 -2q-25 -10 -50 -15.5t-52 -7.5l80 -133h71v-54h-100l-1 -1v1h-70v54h38l-79 132h-156v-132h58
v-54h-171v54h59v690h-59v54h313q62 0 119 -24q56 -25 97 -66l3 -3q23 19 48.5 34t52.5 27q75 32 155 32t155 -32q74 -31 127 -85zM463 398q0 -29 5 -56t13 -53q48 34 76 87t28 116q0 37 -10 70t-28 62q-39 -45 -61.5 -102.5t-22.5 -123.5zM319 240h14q52 0 101 22
q-24 66 -24 136q0 84 31 156q25 62 73 113q-35 35 -81 56t-100 21h-200v-504h185v1zM808 54q71 0 134 27t110 73.5t74.5 109.5t27.5 134q0 72 -27.5 135t-74.5 110t-110 74t-134 27q-63 0 -120 -21.5t-102 -59.5q9 -13 15.5 -25.5t12.5 -26.5q24 -56 24 -119q0 -62 -24 -119
q-23 -55 -65 -97q-11 -11 -22.5 -20.5t-23.5 -17.5q22 -41 53.5 -75t71 -58t85 -37.5t95.5 -13.5z" />
    <glyph glyph-name="R_O_2" unicode="ro" horiz-adv-x="1305" 
d="M1222 681q27 -28 48.5 -59.5t36.5 -67.5q16 -37 23.5 -76t7.5 -80q0 -81 -31 -155q-30 -71 -85 -126q-56 -56 -127 -86q-72 -31 -155 -31q-58 0 -115 17q-40 -40 -95 -63q-54 -24 -116 -24h-1q-57 0 -114 23q-27 11 -51.5 27t-44.5 37q-44 42 -68 98l-109 257h-94v-318
h59v-54h-171v54h58v690h-58v54h260q43 0 81.5 -16.5t68.5 -46.5t46 -68.5t16 -81.5t-16 -82t-46 -69q-29 -29 -66.5 -44.5t-79.5 -16.5l101 -237q20 -47 55.5 -81.5t79.5 -52.5t93.5 -18.5t96.5 19.5q16 8 30.5 16t28.5 19q-64 30 -111 79q-55 54 -86 126q-31 74 -31 155
q0 41 7.5 80t23.5 76q29 70 86 127q55 55 127 85q75 32 155 32t155 -32q70 -30 127 -85zM132 426h148q33 0 61.5 12.5t50 34.5t34 50.5t12.5 61.5t-12.5 62t-34 50.5t-50 34t-61.5 12.5h-148v-318zM940 54q71 0 134 27t110 73.5t74 109.5t27 134q0 72 -27 135t-74 110
t-110 74t-134 27t-134 -27t-110 -74t-74.5 -110t-27.5 -135q0 -54 16 -103.5t44.5 -91t68 -73.5t86.5 -51q40 52 50 118t-17 131l-10 25l50 21l10 -25q24 -57 24 -118q-1 -29 -6.5 -57.5t-16.5 -55.5q-12 -31 -30 -56q19 -5 38 -6.5t39 -1.5z" />
    <glyph glyph-name="R_S" unicode="RS" horiz-adv-x="866" 
d="M191 0h-171v54h58v690h-58v54h313q62 0 119 -24q39 -17 70 -43l4 4l4 4q59 59 142 59q40 0 76.5 -15t65.5 -44q28 -29 43 -65t15 -76v-28h-54v28q0 30 -11.5 56.5t-31 46.5t-46.5 31.5t-57 11.5q-33 0 -61.5 -13.5t-48.5 -36.5q34 -38 52 -83q24 -56 24 -119
q0 -11 -0.5 -21.5t-2.5 -21.5q8 -4 17 -6l18 -4q24 -4 45 -10.5t41 -15.5t36.5 -20.5t30.5 -26.5q14 -14 25.5 -30.5t18.5 -35.5q8 -20 11.5 -40.5t3.5 -43.5q0 -47 -17.5 -90t-50.5 -76t-76 -50.5t-90 -17.5q-71 0 -129 38t-86 102l-11 24l49 22l11 -25q21 -49 66.5 -78.5
t99.5 -29.5q37 0 70 14t58 39t39 57.5t14 70.5q0 46 -17.5 77t-43 50t-54.5 29t-52 14q-11 2 -20.5 4.5t-18.5 5.5q-2 -5 -4 -11t-5 -11q-23 -56 -65 -98q-41 -41 -97 -66q-57 -23 -117 -24l94 -153q26 -42 65.5 -71t88.5 -40q48 -12 96.5 -4.5t90.5 33.5l24 15l28 -46
l-24 -14q-52 -33 -112 -41q-20 -4 -45 -4q-35 0 -71 9q-57 12 -105 48q-49 34 -82 87l-111 181h-140v-132h59v-54zM585 492q0 44 -13.5 83t-38.5 71q-5 -12 -6.5 -24t-1.5 -24q0 -36 15.5 -67t43.5 -53q1 4 1 14zM132 744v-504h201q42 0 80.5 13.5t70 37.5t55 56.5
t35.5 71.5q-13 8 -24 17.5t-22 21.5q-28 29 -42.5 65t-14.5 75q0 47 21 89q-32 26 -72.5 41.5t-86.5 15.5h-201z" />
    <glyph glyph-name="R_Y" unicode="RY" horiz-adv-x="1206" 
d="M549 708q42 -43 65 -98q24 -56 24 -118q0 -64 -24 -119q-23 -55 -65 -97q-41 -41 -97 -66q-25 -10 -50 -15.5t-52 -7.5l80 -133h71v-54h-100l-1 -1v1h-71v54h39l-79 132h-157v-132h59v-54h-171v54h58v690h-58v54h313q62 0 119 -24q56 -25 97 -66zM333 240q52 0 98 20
t80 54t54 80t20 98t-20 97.5t-54 80t-80 54.5t-98 20h-201v-504h186v1l1 -1h14zM994 798h188v-54h-71l-209 -353v-337h60v-54h-60h-53h-59v54h59v337l-209 353h-70v54h188v-54h-56l173 -293l174 293h-55v54z" />
    <glyph glyph-name="S_U" unicode="SU" horiz-adv-x="982" 
d="M131 747q29 29 65.5 44t77.5 15q39 0 75.5 -15t65.5 -44q29 -28 44 -64.5t15 -76.5v-28h-54v28q0 30 -11.5 56.5t-31.5 46.5t-46.5 31.5t-56.5 11.5q-31 0 -58 -11.5t-47 -31.5t-31.5 -46.5t-11.5 -56.5q0 -29 11 -55.5t30.5 -47.5t46 -35.5t58.5 -20.5q5 -1 9.5 -1.5
t9.5 -2.5v140h-59v54h59h54v-54v-157q3 -1 6.5 -2t6.5 -2q19 -10 36 -21.5t31 -25.5q29 -29 44 -67q15 -39 15 -84q0 -35 -10 -68t-28 -62q32 -24 70.5 -37.5t81.5 -13.5q52 0 98.5 20t80.5 54.5t54 80.5t20 98v449h-59v53h59h54h58v-53h-58v-449q0 -64 -24 -119
q-25 -57 -67 -98q-43 -43 -96 -65q-59 -24 -120 -24q-63 0 -120 24q-38 16 -68 40q-33 -32 -74 -48t-86 -16q-43 0 -82.5 14.5t-71.5 41.5q-32 28 -52 64t-26 78q-4 16 -4 36v27h54v-27q0 -7 0.5 -13.5t1.5 -14.5q5 -33 21 -61.5t40 -48.5t54.5 -31.5t64.5 -11.5
q35 0 65.5 12.5t55.5 34.5q-18 19 -31.5 41t-24.5 46q-24 55 -24 119v92q-7 2 -14 3.5t-14 2.5q-38 7 -72.5 25t-60.5 47q-28 29 -42.5 65t-14.5 75q0 40 15 76.5t43 64.5zM430 224q0 58 -25.5 91.5t-59.5 51.5v-71q0 -47 16 -89t45 -75q24 40 24 92z" />
    <glyph glyph-name="S_U_R" unicode="SUR" horiz-adv-x="1558" 
d="M1504 610q24 -57 24 -118q0 -63 -24 -120q-11 -27 -28 -51t-38 -45t-45 -38t-51 -28q-51 -22 -102 -23l80 -134h70v-53h-100v-1v1h-72v53h40l-80 133h-156v-133h59v-53h-171v53h58v691h-5h-53h-6v-448q0 -64 -24 -119q-22 -54 -66 -98q-43 -43 -97 -65q-57 -24 -119 -24
q-63 0 -120 24q-38 16 -68 40q-67 -64 -161 -64q-42 0 -82 14.5t-72 41.5q-31 28 -51 64t-27 78q-3 18 -3 36v27h54v-27v-13.5t2 -14.5q5 -33 21 -61.5t40 -48.5t54 -31.5t64 -11.5q35 0 66 12.5t55 34.5q-17 19 -30.5 41t-24.5 46q-25 58 -25 119v92q-7 2 -14 3.5t-14 2.5
q-38 7 -72.5 25t-60.5 47q-28 29 -42.5 65t-14.5 75q0 40 15 76t44 65q59 59 142 59q40 0 76.5 -15t64.5 -44q29 -29 44.5 -65t15.5 -76v-28h-54v28q0 30 -11.5 56.5t-31.5 46.5t-47 31.5t-57 11.5t-57 -11.5t-47 -31.5t-31.5 -46.5t-11.5 -56.5q0 -29 11 -55.5t30 -47.5
t45.5 -35.5t58.5 -20.5q5 -1 10 -1.5t9 -2.5v140h-58v54h58h54v-54v-157q5 -1 13 -5q20 -9 37 -20.5t31 -26.5q27 -27 44 -66q7 -20 11 -40.5t4 -43.5q0 -35 -10 -68t-29 -62q32 -24 70.5 -37.5t82.5 -13.5q52 0 98 20t80 54.5t54 80.5t20 98v448l-59 -10v53l59 10h54h6h53
h259q63 0 120 -24q56 -25 96 -65q44 -44 66 -98zM344 296q0 -47 16 -89t45 -75q25 42 25 92q0 57 -25.5 91t-60.5 52v-71zM1222 240q52 0 98 19.5t80.5 54t54 80t19.5 98.5q0 52 -19.5 97.5t-54 80t-80.5 54.5t-98 20h-200v-504h185h1h1h13z" />
    <glyph glyph-name="T_E" unicode="TE" horiz-adv-x="730" 
d="M205 744v-690h58v-54h-58h-54h-59v54h59v690h-124v54h124h54h499v-54h-499zM397 0h-59v54h59v132v54v318h-59v54h59h53h254v-54h-254v-318h221v-54h-221v-132h254v-54h-254h-53z" />
    <glyph glyph-name="T_E_2" unicode="te" horiz-adv-x="862" 
d="M330 54h59v-54h-59h-54h-58v54h58v690h-249v54h249h54h504v-54h-504v-690zM582 558v-318h220v-54h-220v-132h252v-54h-252h-54h-59v54h59v132v54v318h-59v54h59h54h252v-54h-252z" />
    <glyph glyph-name="T_H" unicode="TH" horiz-adv-x="928" 
d="M827 798h59v-54h-59v-690h59v-54h-59h-53h-60v54h60v318h-323v-318h59v-54h-59h-53h-59v54h59v504h-59v54h171v-54h-59v-132h323v318h-60v54h60h53zM205 54h59v-54h-59h-54h-59v54h59v690h-124v54h124h54h435v-54h-435v-690z" />
    <glyph glyph-name="T_T" unicode="TT" horiz-adv-x="952" 
d="M667 798h261v-54h-261v-690h59v-54h-59h-53h-60v54h60v690h-100v54h100h53zM342 798h100v-54h-100v-690h59v-54h-59h-54h-59v54h59v690h-261v54h261h54z" />
    <glyph glyph-name="U_U" unicode="UU" horiz-adv-x="1072" 
d="M694 -1q-59 0 -120 25q-23 10 -41 21q-20 -12 -42 -21q-58 -25 -119 -25t-119 25q-54 22 -98 66q-43 43 -65 97q-24 57 -24 119v438h-60v54h60h53h59v-54h-59v-438q0 -53 20 -99t54.5 -80t80.5 -54t98 -20q61 0 114 28q-5 3 -9 9q-42 42 -66 97q-24 57 -24 119v438h-58
v54h58h54h59v-54h-59v-438q0 -59 25 -109.5t67 -85.5q43 35 67.5 85.5t24.5 109.5v438h-59v54h59h53h60v-54h-60v-438q0 -62 -24 -119q-22 -54 -65 -97q-5 -6 -9 -9q53 -28 114 -28q52 0 98.5 20t80.5 54t54 80t20 99v438h-59v54h59h54h59v-54h-59v-438q0 -62 -24 -119
q-24 -55 -66 -97q-22 -21 -46 -38t-51 -28q-61 -25 -120 -25z" />
    <glyph glyph-name="W_N" unicode="WN" horiz-adv-x="1529" 
d="M1437 798h59v-54h-59v-690h59v-53h-171v53h38l-361 618v-618h59v-53h-172v53h38l-369 620v-620h59v-54h-172v54h39l-412 690h-70v54h187v-54h-55l370 -620v620h-59v54h188v-54h-55l370 -620v620h-59v54h188v-54h-55l361 -618v618h-58v54h58h54z" />
    <glyph glyph-name="W_W_W_2" unicode="www" horiz-adv-x="2871" 
d="M2776 798h59v-54h-59v-690h59v-54h-171v54h38l-369 620v-620h58v-54h-171v54h38l-369 620v-620h58v-54h-171v54h38l-369 620v-620h59v-54h-172v54h39l-370 620v-620h59v-54h-171v54h38l-370 620v-620h59v-54h-171v54h38l-412 690h-70v54h171v-54h-38l369 -620v620h-58v54
h171v-54h-38l369 -620v620h-58v54h58h54h59v-54h-38l369 -620v620h-59v54h172v-54h-39l370 -620v620h-59v54h59h54h58v-54h-38l370 -620v620h-59v54h171v-54h-38l369 -620v620h-58v54h58h54z" />
    <glyph glyph-name="A_M" unicode="am" horiz-adv-x="1575" 
d="M1367 798h171v-54h-59v-690h59v-54h-59h-53h-59v54h59v620l-370 -620h38v-54h-171v54h59v620l-370 -620h39v-54h-172v54h71l412 690h-39v54h171v-54h-58v-620l370 620h-39v54zM196 0h-171v54h65l207 690h-51v54h172v-54h-49l150 -504h66v-54h-172v54h50l-40 132h-181
l-96 -318h50v-54zM407 426l-74 252l-75 -252h149z" />
    <glyph glyph-name="L_E_E" unicode="LEE" horiz-adv-x="1122" 
d="M843 744v-132h221v-54h-221v-318h253v-54h-253h-53h-60v54h60v318v54v132h-60v54h60h53h253v-54h-253zM351 186h-59v54h59v318v54v132h-59v54h59h54h253v-54h-253v-132h221v-54h-221v-318h253v-54h-253h-54zM160 54h936v-54h-936h-54h-58v54h58v690h-58v54h58h54h59v-54
h-59v-690z" />
    <glyph glyph-name="W_W_W" unicode="WWW" horiz-adv-x="2825" 
d="M2748 744l-206 -690h41v-54h-153v54h40l-182 611l-182 -611h40v-54h-152v54h40l-186 623l-186 -623h41v-54h-153v54h40l-182 611l-182 -611h40v-54h-152v54h40l-186 623l-186 -623h40v-54h-152v54h40l-183 611l-181 -611h40v-54h-152v54h40l-207 690h-66v54h172v-54h-50
l187 -623l185 623h-56v54h172v-54h-51l186 -623l186 623h-50v54h171v-54h-49l186 -623l185 623h-55v54h171v-54h-51l186 -623l186 623h-50v54h171v-54h-49l186 -623l186 623h-56v54h171v-54h-51l186 -623l186 623h-50v54h172v-54h-66z" />
    <glyph glyph-name="R_I" unicode="RI" horiz-adv-x="887" 
d="M743 73l28 -46l-23 -13q-51 -33 -112 -42q-23 -3 -46 -3q-17 0 -35 1.5t-35 6.5q-59 14 -105 48q-51 36 -81 88h-1l-44 74h-156v-133h59v-54h-172v54h59v690h-59v54h313q62 0 119 -24q56 -24 97 -65q42 -43 65 -98q24 -56 24 -119t-24 -118q-23 -56 -65 -98
q-43 -43 -97 -65q-48 -19 -101 -24l28 -47q27 -44 67 -72t86.5 -39t95 -4t92.5 34zM133 241h200q52 0 98 20t80 54t54 79.5t20 97.5t-20 98t-54 80t-80 54t-98 20h-200v-503zM806 744v-504h59v-54h-59h-54h-58v54h58v504h-58v54h171v-54h-59z" />
    <glyph glyph-name="E_T" unicode="ET" horiz-adv-x="915" 
d="M630 798h249v-54h-249v-690h59v-54h-59h-53h-59v54h59v690h-505v54h505h53zM185 558v-319h221v-53h-221v-132h253v-54h-253h-54h-59v54h59v132v53v319h-59v53h59h54h253v-53h-253z" />
    <glyph glyph-name="E_A" unicode="EA" horiz-adv-x="1026" 
d="M130 0h-58v54h58v318v54v318h-58v54h58h54h302v-54h-302v-318h264v-54h-264v-318h538v-54h-538h-54zM660 744h-50v54h172v-54h-50l206 -690h66v-54h-172v54h50l-95 318h-182l-39 -133h49v-53h-171v53h66zM771 426l-75 251l-75 -251h150z" />
    <glyph glyph-name="E_N" unicode="EN" horiz-adv-x="1179" 
d="M131 0h-59v54h59v318v54v318h-59v54h59h54h301v-54h-301v-318h263v-54h-263v-318h633v-54h-633h-54zM608 186h-58v53h58v505h-58v54h171v-54h-39l362 -618v618h-59v54h59h54h58v-54h-58v-690h58v-53h-171v53h39l-362 618v-433h59v-53h-59h-54z" />
    <glyph glyph-name="E_E" unicode="EE" horiz-adv-x="979" 
d="M131 0h-59v54h59v318v54v318h-59v54h59h54h301v-54h-301v-318h264v-54h-264v-318h762v-54h-762h-54zM614 186h-60v54h60v132v54v318h-60v54h60h53h280v-54h-280v-318h248v-54h-248v-132h280v-54h-280h-53z" />
    <glyph glyph-name="H_A_N" unicode="han" horiz-adv-x="1578" 
d="M997 186h-59v53h59v504h-59v54h171v-54h-39l362 -617v617h-59v54h59h54h59v-54h-59v-689h59v-54h-172v54h39l-362 617v-432h59v-53h-59h-53zM99 0h-59v54h59v690h-59v54h59h54h59v-54h-59v-504h322v504h-59v0v54v0h171v0v-54v0h-38l412 -690h70v-54h-171v54h38l-79 132
h-290v-132h58v-54h-58h-54h-59v54h59v132v0h-322v-132h59v-54h-59h-54zM787 240l-258 434v-434h258z" />
    <glyph glyph-name="H_A_N_2" unicode="HAN" horiz-adv-x="1760" 
d="M1674 744v-690h59v-53h-171v53h39l-363 618v-433h60v-53h-60h-53h-59v53h59v505h-59v54h172v-54h-40l362 -618v618h-58v54h58h54h59v-54h-59zM488 242v316h-322v-504h59v-54h-172v54h59v690h-59v54h172v-54h-59v-132h322v132h-59v54h171v-54h-58v-502h58v-54h-171v54h59z
M1106 54h67v-54h-172v54h50l-40 132h-293l-39 -132h50v-54h-172v54h66l206 690h-50v54h171v-54h-49zM995 240l-130 438l-131 -438h261z" />
    <glyph glyph-name="R_A_W" unicode="RAW" horiz-adv-x="2151" 
d="M244 0h-171v54h59v690h-59v54h313q62 0 119 -24q56 -25 97 -66q42 -43 65 -98q24 -56 24 -118q0 -64 -24 -119q-23 -55 -65 -97q-41 -41 -97 -66q-49 -20 -101 -23l28 -47q27 -44 67 -72.5t86.5 -39.5t95 -4t92.5 34l23 14l28 -46l-23 -13q-26 -17 -54.5 -27t-57.5 -15
q-23 -3 -46 -3q-18 0 -35.5 1.5t-34.5 6.5q-58 15 -106 48q-50 36 -81 88l-44 74h-156v-132h58v-54zM186 744v-504h200q52 0 98 20t80 54t54 80t20 98t-20 97.5t-54 80t-80 54.5t-98 20h-200zM1161 54h65v-54h-171v54h50l-95 318h-182l-40 -133h50v-53h-172v53h66l150 505
h-49v54h172v-54h-51zM994 426l-76 251l-74 -251h150zM1860 54h41v-54h-153v54h40l-182 611l-182 -611h41v-54h-153v54h40l-206 690h-67v54h172v-54h-49l186 -623l186 623h-56v54h172v-54h-52l186 -623l186 623h-50v54h171v-54h-65z" />
    <glyph glyph-name="E_T_A" unicode="ETA" horiz-adv-x="1330" 
d="M963 745h-49v53h172v-53h-51l207 -691h65v-54h-171v54h50l-40 132h-293l-39 -132h49v-54h-171v54h66zM1130 240l-131 438l-130 -438h261zM37 798h483h54h281v-53h-281v-691h59v-54h-59h-54h-58v54h58v691h-483v53zM96 240v318h-59v54h59h54h253v-54h-253v-318h220v-54
h-220v-132h253v-54h-253h-54h-59v54h59v132v54z" />
    <glyph glyph-name="A_W_A" unicode="AWA" horiz-adv-x="1965" 
d="M523 744h-66v54h172v-54h-50l187 -623l185 623h-56v54h172v-54h-51l186 -623l186 623h-50v54h171v-54h-65l-206 -690h40v-54h-152v54h40l-183 611l-181 -611h40v-54h-152v54h40zM182 0h-172v54h66l206 690h-50v54h171v-54h-49l205 -690h67v-54h-172v54h49l-39 132h-293
l-39 -132h50v-54zM448 239l-130 438l-131 -438h261zM1734 744h-50l206 -690h66v-54h-172v54h50l-40 132h-292l-40 -132h50v-54h-171v54h65l206 690h-50v54h172v-54zM1778 239l-130 438l-130 -438h260z" />
    <glyph glyph-name="T_I" unicode="TI" horiz-adv-x="645" 
d="M510 54v504h-58v54h171v-54h-59v-504h59v-54h-59h-54h-58v54h58zM260 740h-249v54h249h54h309v-54h-309v-686h59v-54h-59h-54h-59v54h59v686z" />
    <glyph glyph-name="L_S" unicode="LS" horiz-adv-x="656" 
d="M106 54v690h-58v54h58h54h59v-54h-59v-690h463v-54h-463h-54h-58v54h58zM310 382v-27v-10t2 -10q8 -47 43.5 -78t83.5 -31q27 0 50.5 10t41 27.5t27.5 41t10 50.5q0 33 -12.5 54.5t-30.5 35.5t-39 21t-38 10q-30 5 -57 19t-47 36q-21 23 -32.5 51t-11.5 59
q0 32 12.5 60.5t33.5 50t49.5 34t61.5 12.5q32 0 60.5 -12.5t50 -34t34 -50t12.5 -60.5v-27h-54v27q0 21 -8 40t-22 33t-33 22t-40 8t-40 -8t-33 -22t-22 -33t-8 -40q0 -42 29 -73t74 -39q76 -14 118 -56q47 -47 47 -118q0 -37 -14 -70t-40 -59t-59 -39.5t-70 -13.5
q-33 0 -63.5 11t-55.5 33q-25 21 -40.5 49t-21.5 60q-1 8 -1 15v14v27h53z" />
    <glyph glyph-name="C_A" unicode="CA" horiz-adv-x="934" 
d="M748 55h50l-96 319h-181l-39 -132h49v-54h-172v54h67l150 504h-50v53h172v-53h-50l206 -691h65v-53h-171v53zM686 427l-74 251l-75 -251h149zM446 0q-84 0 -156 31q-70 29 -127 86q-55 55 -85 126q-32 76 -32 155q0 81 32 156q30 72 85 127t127 85q75 32 156 32h26v-54
h-26q-72 0 -135 -27t-110 -74t-74 -110t-27 -135q0 -71 27 -134t74 -109.5t110 -73.5t135 -27h26v-54h-26z" />
    <glyph glyph-name="E_T_T_I" unicode="ETTI" horiz-adv-x="1293" 
d="M1261 744h-310v-690h59v-54h-59h-53h-60v54h60v690h-100v54h100h53h310v-54zM1202 558v-504h59v-54h-59h-54h-59v54h59v504h-59v54h172v-54h-59zM626 744v-690h59v-54h-59h-54h-59v54h59v690h-499v54h499h54h100v-54h-100zM186 558v-318h220v-54h-220v-132h252v-54h-252
h-54h-59v54h59v132v54v318h-59v54h59h54h252v-54h-252z" />
    <glyph glyph-name="T_I_O" unicode="tio" horiz-adv-x="1302" 
d="M565 562v-504h59v-54h-59h-54h-59v54h59v504h-59v53h172v-53h-59zM1095 591q28 -11 52 -27.5t46 -37.5q21 -21 37 -45.5t28 -51.5q24 -59 24 -119q0 -63 -24 -120q-24 -55 -65 -97q-22 -21 -46 -37.5t-52 -27.5q-56 -24 -119 -24q-62 0 -119 24q-55 23 -97 65
q-42 44 -66 97q-24 57 -24 120q0 60 24 119q25 56 66 97q42 42 97 65q57 24 119 24q63 0 119 -24zM976 58q52 0 98 19.5t80.5 54t54.5 80t20 98.5q0 52 -20 98t-54.5 80t-80.5 54t-98 20t-98 -20t-80 -54t-54 -80t-20 -98q0 -53 20 -98.5t54 -80t80 -54t98 -19.5zM1282 744
h-968v-686h59v-54h-59h-53h-59v54h59v686h-250v54h250h53h968v-54z" />
    <glyph glyph-name="E_T_T_E" unicode="ETTE" horiz-adv-x="1485" 
d="M897 744h-100v54h100h53h500v-54h-500v-690h59v-54h-59h-53h-59v54h59v690zM1142 239v319h-59v53h59h54h254v-53h-254v-319h221v-53h-221v-132h254v-54h-254h-54h-59v54h59v132v53zM571 744h-499v54h499h54h100v-54h-100v-690h59v-54h-59h-54h-59v54h59v690zM131 0h-59
v54h59v132v53v319h-59v53h59h54h253v-53h-253v-319h221v-53h-221v-132h253v-54h-253h-54z" />
    <glyph glyph-name="O_G" unicode="OG" horiz-adv-x="1296" 
d="M1221 426h59v-54h-60q-2 -34 -10 -66t-20 -63q-31 -72 -86 -126q-57 -57 -127 -86q-72 -31 -155 -31q-82 0 -156 31q-18 8 -35.5 17.5t-34.5 21.5q-17 -12 -34.5 -21.5t-36.5 -17.5q-72 -31 -155 -31q-82 0 -156 31q-70 30 -126 86q-55 54 -86 126q-31 77 -31 155
q0 80 31 156q29 70 86 127q57 56 126 85q38 15 76.5 23.5t79.5 8.5t79.5 -8.5t75.5 -23.5q39 -17 71 -39q17 11 34.5 21t35.5 18q38 15 76.5 23.5t79.5 8.5h27v-54h-27q-51 0 -96.5 -13.5t-85.5 -38.5q8 -8 12 -11q57 -57 86 -127q31 -76 31 -156q0 -78 -31 -155
q-31 -72 -86 -126l-12 -12q40 -25 85.5 -38t96.5 -13q68 0 128 24.5t106.5 67.5t75.5 101t34 125h-207v54h208h54zM715 398q0 78 -32 145.5t-87 115.5q-55 -48 -87 -115.5t-32 -145.5t32 -145t87 -115q55 48 87 115t32 145zM370 54q51 0 96.5 13t85.5 38l-12 12
q-55 54 -86 126q-31 76 -31 155q0 80 31 156q29 70 86 127q3 2 6 5l6 6q-40 25 -85.5 38.5t-96.5 13.5q-72 0 -134.5 -27t-109.5 -74t-74 -110t-27 -135q0 -71 27 -134t74 -109.5t109.5 -73.5t134.5 -27z" />
    <glyph glyph-name="A_R_T" unicode="ART" horiz-adv-x="1416" 
d="M1386 744h-196v-504h60v-54h-60h-53h-59v54h59v504h-195v54h195h53h196v-54zM572 186v-132h59v-54h-59h-54h-59v54h59v132h-291l-78 -132h38v-54h-172v54h71l412 690h-39v54h113h147q43 0 82 -16t69 -46q30 -31 46 -69.5t16 -80.5q0 -43 -16 -82t-46 -69q-27 -26 -60 -42
t-70 -19q9 -24 23.5 -63.5t31 -83t32 -83t24.5 -63.5q18 -45 52 -79t79 -53q48 -20 97.5 -20t96.5 20t81.5 55.5t52.5 79.5t18.5 93t-19.5 97l-11 24l50 21l10 -25q24 -56 24 -117q0 -59 -23 -114q-23 -56 -63 -97q-45 -44 -99 -67q-57 -24 -118 -24h-2q-61 2 -115 24
q-56 23 -97 64.5t-63 97.5l-17.5 45t-22.5 59t-24.5 64.5t-23.5 61.5t-19 50.5t-12 31.5h-111v-133v-54zM878 586q0 33 -12.5 61.5t-34 50t-50.5 34t-62 12.5h-147v-318h147q33 0 62 12.5t50.5 34.5t34 51t12.5 62zM518 240v133v53v248l-259 -434h259z" />
    <glyph glyph-name="A_Y" unicode="ay" horiz-adv-x="1094" 
d="M559 54h66v-54h-171v54h49l-39 132h-293l-40 -132h50v-54h-171v54h65l207 690h-50v54h171v-54h-49zM448 240l-130 437l-131 -437h261zM901 798h172v-54h-71l-208 -353v-337h58v-54h-58h-54h-59v54h59v337l-209 353h-70v54h171v-54h-38l172 -293l174 293h-39v54z" />
    <glyph glyph-name="A_Y_2" unicode="AY" horiz-adv-x="1087" 
d="M560 54h66v-54h-172v54h50l-40 132h-293l-39 -132h50v-54h-172v54h66l206 690h-50v54h171v-54h-49zM448 240l-130 437l-131 -437h261zM902 798h171v-54h-70l-209 -536v-154h59v-54h-59h-54h-59v54h59v154l-207 536h-72v54h172v-54h-43l177 -457l179 457h-44v54z" />
    <glyph glyph-name="D_A" unicode="DA" horiz-adv-x="1155" 
d="M614 398q0 -79 -32 -155q-15 -35 -36 -67t-49 -59q-57 -57 -127 -86q-72 -31 -156 -31h-66h-56h-57v54h57h2v690h-2h-57v54h57h56h66q81 0 156 -32q36 -15 67.5 -36.5t59.5 -48.5q55 -55 85 -127q32 -75 32 -156zM214 54q72 0 135 27t110 73.5t74 109.5t27 134
q0 72 -27 135t-74 110t-110 74t-135 27h-66v-690h66zM1064 54h66v-54h-172v54h50l-40 132h-293l-39 -132h50v-54h-172v54h66l206 690h-50v54h171v-54h-49zM952 239l-130 438l-131 -438h261z" />
    <glyph glyph-name="D_U" unicode="DU" horiz-adv-x="986" 
d="M961 744h-59v-438q0 -62 -24 -119q-24 -55 -66 -97q-21 -21 -45.5 -38t-52.5 -28q-56 -24 -119 -24q-62 0 -119 24q-15 7 -29.5 14.5t-28.5 17.5q-21 -14 -48 -25q-72 -31 -155 -31h-67h-55h-58v54h58h1v690h-1h-58v54h58h55h67q80 0 155 -32q72 -30 127 -85t85 -127
q32 -75 32 -156q0 -79 -32 -155q-30 -71 -85 -126q-8 -8 -15.5 -14.5t-15.5 -13.5q58 -35 129 -35q52 0 98 20t80.5 54t54.5 80t20 98v438h-58v54h58h54h59v-54zM215 54q44 0 84 10t76 29q-20 20 -35.5 44t-26.5 50q-24 57 -24 119v224h-59v53h59h53h59v-53h-59v-224
q0 -54 21.5 -101.5t58.5 -82.5q63 48 100.5 119.5t37.5 156.5q0 72 -27 135t-74 110t-109.5 74t-134.5 27h-67v-690h67z" />
    <glyph glyph-name="D_J" unicode="DJ" horiz-adv-x="1002" 
d="M810 798h171v-54h-59v-438q0 -63 -24 -120q-12 -27 -28 -51.5t-37 -45.5q-44 -43 -98 -66q-56 -24 -119 -24q-62 0 -119 24q-18 8 -35 18t-33 23q-15 -10 -30 -18t-32 -15q-72 -31 -155 -31h-67h-54h-1h-57v54h57h1v690h-1h-57v54h57h1h54h67q80 0 155 -32
q35 -15 67.5 -36t59.5 -49t48.5 -59.5t36.5 -67.5q32 -75 32 -156q0 -79 -32 -155q-29 -69 -85 -126l-10 -10t-10 -9q30 -21 66 -33t76 -12q52 0 98 20t80 54t54 80t20 99v438h-58v54zM212 54q48 0 92.5 12.5t83.5 35.5q-17 18 -30.5 39.5t-23.5 44.5q-9 23 -15 45.5
t-8 46.5h-60v54h59h54h59v-54h-57q4 -42 21.5 -79t44.5 -66q58 48 92 116.5t34 148.5q0 72 -27.5 135t-74.5 110t-110 74t-134 27h-67v-690h67z" />
    <glyph glyph-name="M_M" unicode="MM" horiz-adv-x="1967" 
d="M1942 54v-54h-172v54h51l-187 624l-185 -624h51v-54h-172v54h56l-186 624l-186 -624h49h8v-54h-8h-164h-7v54h7h50l-185 624l-187 -624h51v-54h-171v54h56l-186 624l-186 -624h49v-54h-171v54h66l206 690h-40v54h153v-54h-41l182 -611l183 611h-40v54h152v-54h-40
l182 -611l182 611h-40v54h153v-54h-41l182 -611l182 611h-40v54h153v-54h-41l206 -690h66z" />
    <glyph glyph-name="A_R_3" unicode="Ar" horiz-adv-x="1090" 
d="M983 708q44 -44 66 -97q24 -56 24 -119t-24 -118q-22 -54 -66 -98q-41 -41 -97 -66q-49 -20 -101 -23l80 -133h70v-54h-100l-1 -1v1h-70v54h38l-79 132h-157v-132h60v-54h-172v54h50l-39 132h-294l-39 -132h50v-54h-172v54h66l206 690h-50v54h172v-54h-50l159 -534v534
h-59v54h313q63 0 119 -24q56 -25 97 -66zM449 240l-131 437l-131 -437h262zM767 240q52 0 98 20t80 54.5t54 80t20 97.5t-20 98t-54 80t-80 54t-98 20h-201v-504h186l1 1l1 -1h13z" />
    <glyph glyph-name="A_R_4" unicode="ar" horiz-adv-x="1086" 
d="M1256 -94q-26 -16 -54.5 -26.5t-58.5 -14.5q-20 -4 -45 -4q-36 0 -70 9q-58 12 -106 48q-24 17 -44.5 39t-36.5 48l-111 182h-156v-133h59v-54h-172v54h50l-40 132h-293l-39 -132h50v-54h-171v54h65l206 690h-50v54h171v-54h-49l159 -534v534h-59v54h313q62 0 119 -24
q28 -12 52 -28t45 -38q43 -43 65 -97q24 -56 24 -119t-24 -118q-23 -56 -65 -98q-43 -43 -97 -65q-48 -19 -101 -24l94 -154q27 -44 67.5 -72t87 -39t95 -4.5t92.5 33.5l22 15l28 -46zM455 240l-130 438l-131 -438h261zM574 241h200q52 0 98 20t80 54t54 79.5t20 97.5
t-20 98t-54 80t-80 54t-98 20h-200v-503z" />
    <glyph glyph-name="H_A" unicode="HA" horiz-adv-x="1194" 
d="M488 242v316h-322v-504h59v-54h-172v54h59v690h-59v54h172v-54h-59v-132h322v132h-59v54h171v-54h-58v-502h58v-54h-171v54h59zM1173 54v-54h-172v54h50l-40 132h-293l-39 -132h50v-54h-171v54h65l206 690h-50v54h171v-54h-49l206 -690h66zM995 240l-130 437l-131 -437
h261z" />
    <glyph glyph-name="A_E" unicode="AE" horiz-adv-x="915" 
d="M527 798h54h301v-54h-301v-505h264v-53h-264v-132h301v-54h-301h-54h-59v54h59v132h-291l-79 -132h39v-54h-172v54h70l412 690h-62v54h83zM268 239h259v435z" />
    <glyph glyph-name="A_E_2" unicode="ae" horiz-adv-x="942" 
d="M626 798h301v-54h-301v-504h264v-54h-264v-132h16h285v-54h-285h-16h-53h-59h-44v54h44h7l-40 132h-293l-39 -132h49v-54h-172v54h67l205 690h-49v54h171v-54h-50l203 -678v120v54v504h-59v54h59h53zM465 240l-131 437l-130 -437h261z" />
    <glyph glyph-name="R_A" unicode="RA" horiz-adv-x="1246" 
d="M796 72l28 -46l-23 -13q-26 -17 -54.5 -27t-57.5 -15q-23 -3 -46 -3q-18 0 -35.5 1.5t-34.5 6.5q-58 15 -106 48q-48 35 -81 88l-44 74h-156v-132h58v-54h-171v54h59v690h-59v54h313q62 0 119 -24q56 -25 97 -66q42 -43 65 -98q24 -56 24 -118q0 -64 -24 -119
q-23 -55 -65 -97q-41 -41 -97 -66q-49 -20 -102 -23l29 -47q27 -44 67 -72.5t86.5 -39.5t95 -4t92.5 34zM186 240h200q52 0 98 20t80 54t54 80t20 98t-20 97.5t-54 80t-80 54.5t-98 20h-200v-504zM1226 54v-54h-171v54h50l-95 318h-182l-40 -133h50v-53h-172v53h66l150 505
h-49v54h172v-54h-51l207 -690h65zM994 426l-76 251l-74 -251h150z" />
    <glyph glyph-name="I_T" unicode="IT" horiz-adv-x="669" 
d="M210 54v-54h-59h-53h-60v54h60v504h-60v54h172v-54h-59v-504h59zM402 54h59v-54h-59h-54h-59v54h59v686h-310v54h310h54h248v-54h-248v-686z" />
    <glyph glyph-name="A_W_A_Y" unicode="AWAY" horiz-adv-x="2410" 
d="M523 744h-66v54h172v-54h-50l187 -623l185 623h-56v54h172v-54h-51l186 -623l186 623h-50v54h171v-54h-65l-206 -690h40v-54h-152v54h40l-183 611l-181 -611h40v-54h-152v54h40zM182 0h-172v54h66l206 690h-50v54h171v-54h-49l205 -690h67v-54h-172v54h49l-39 132h-293
l-39 -132h50v-54zM448 239l-130 438l-131 -438h261zM1734 744h-50l206 -690h66v-54h-172v54h50l-40 132h-292l-40 -132h50v-54h-171v54h65l206 690h-50v54h172v-54zM1778 239l-130 438l-130 -438h260zM2094 286l178 458h-44v54h171v-54h-69l-209 -536v-154h58v-54h-58h-54
h-59v54h59v154l-207 536h-72v54h171v-54h-41z" />
    <glyph glyph-name="R_E_2" unicode="re" horiz-adv-x="1144" 
d="M859 798h253v-54h-253v-318h221v-54h-221v-133h253v-53h-253h-53h-60v53h60v133v54v318h-60v54h60h53zM796 72l28 -46l-22 -13q-27 -17 -55 -27t-58 -15q-23 -3 -45 -3q-18 0 -35.5 1.5t-34.5 6.5q-58 15 -106 48q-49 36 -82 88l-44 74h-156v-132h59v-54h-171v54h58v690
h-58v54h312q61 0 120 -24q54 -24 96 -66q44 -44 66 -98q24 -56 24 -118q0 -64 -24 -119q-22 -53 -66 -97q-42 -42 -96 -66q-51 -20 -102 -23l28 -47q27 -44 67.5 -72.5t87 -39.5t95 -4t92.5 34zM186 240h200q52 0 98 20t80.5 54t54 80t19.5 98t-19.5 97.5t-54 80t-80.5 54.5
t-98 20h-200v-504z" />
    <glyph glyph-name="R_E" unicode="RE" horiz-adv-x="1146" 
d="M859 744v-133h216v-53h-216v-319h248v-53h-248h-53h-60v53h60v505h-60v54h60h53h248v-54h-248zM796 72l29 -46l-23 -13q-26 -17 -54.5 -27t-58.5 -15q-23 -3 -45 -3q-18 0 -35.5 1.5t-34.5 6.5q-58 15 -106 48q-49 36 -82 88l-44 74h-156v-132h59v-54h-171v54h59v690h-59
v54h312q63 0 120 -24q54 -24 96 -66q44 -44 66 -98q24 -56 24 -118q0 -64 -24 -119q-22 -53 -66 -97q-42 -42 -96 -66q-51 -20 -102 -23l28 -47q27 -44 67.5 -72.5t87 -39.5t95 -4t92.5 34zM186 240h200q52 0 98 20t80.5 54t54 80t19.5 98t-19.5 97.5t-54 80t-80.5 54.5
t-98 20h-200v-504z" />
    <glyph glyph-name=".notdef" horiz-adv-x="358" 
 />
    <glyph glyph-name=".null" horiz-adv-x="0" 
 />
    <glyph glyph-name="nonmarkingreturn" unicode="&#xd;" horiz-adv-x="358" 
 />
    <glyph glyph-name="NULL" horiz-adv-x="0" 
 />
    <glyph glyph-name="NULL" horiz-adv-x="0" 
 />
    <glyph glyph-name="space" unicode=" " horiz-adv-x="256" 
 />
    <glyph glyph-name="exclam" unicode="!" horiz-adv-x="279" 
d="M168 802h59v-53h-59v-597h-54v597h-59v53h59h54zM142 98q21 0 35.5 -14.5t14.5 -34.5t-14.5 -34.5t-35.5 -14.5t-35 14.5t-14 34.5t14 34.5t35 14.5z" />
    <glyph glyph-name="quotedbl" unicode="&#x22;" horiz-adv-x="271" 
d="M173 700l-2 258h47v-258h-45zM56 700l-2 258h47v-258h-45z" />
    <glyph glyph-name="numbersign" unicode="#" horiz-adv-x="666" 
d="M478 499l-26 -198h138v-59h-146l-33 -242h-58l32 242h-144l-33 -242h-58l32 242h-129v59h137l26 198h-138v59h146l33 243h59l-33 -243h144l33 243h59l-33 -243h129v-59h-137zM419 499h-144l-26 -198h144z" />
    <glyph glyph-name="dollar" unicode="$" horiz-adv-x="510" 
d="M406 555v27q0 28 -9 53t-25.5 45t-38.5 33t-47 17v-315q31 -9 59 -26t49 -41q27 -29 41 -66t14 -76q0 -83 -57 -143q-45 -46 -106 -57v-99h-54v97q-33 5 -63 19.5t-54 39.5q-57 60 -57 143v28h54v-28q0 -28 9 -53t25.5 -44.5t38 -33t47.5 -17.5v315q-64 19 -108 67
q-26 29 -40 66t-14 76q0 41 14.5 77.5t41.5 65.5q45 46 106 57v100h54v-98q33 -5 63 -19.5t54 -39.5q57 -60 57 -143v-27h-54zM123 582q0 -51 30 -92.5t79 -60.5v298q-23 -6 -43 -19t-34.5 -32.5t-23 -43t-8.5 -50.5zM395 206q0 51 -30 92.5t-79 60.5v-298q24 6 44 19.5
t34.5 32.5t22.5 43t8 50z" />
    <glyph glyph-name="percent" unicode="%" horiz-adv-x="937" 
d="M839 323q27 -27 41 -61t14 -72t-14 -73t-41 -61q-55 -55 -134 -55q-38 0 -72 14t-61 41q-27 26 -41 61t-14 73t14 72t41 61q27 26 61 40.5t72 14.5t72.5 -14.5t61.5 -40.5zM705 54q28 0 53 10.5t43.5 29t29 43t10.5 53.5q0 28 -10.5 52.5t-29 43t-43.5 29t-53 10.5
t-52.5 -10.5t-43 -29t-29 -43t-10.5 -52.5q0 -29 10.5 -53.5t29 -43t43 -29t52.5 -10.5zM421 506q0 -38 -14 -72.5t-41 -60.5q-27 -27 -61 -41t-72 -14q-79 0 -134 55q-27 26 -41 60.5t-14 72.5q0 79 55 134q27 26 61.5 40.5t72.5 14.5t72 -14.5t61 -40.5q55 -55 55 -134z
M233 371q28 0 52.5 10.5t43 29t29 43t10.5 52.5t-10.5 53t-29 43.5t-43 29t-52.5 10.5t-53 -10.5t-43.5 -29t-29 -43.5t-10.5 -53t10.5 -52.5t29 -43t43.5 -29t53 -10.5zM318 -85l-49 21l351 844l49 -20z" />
    <glyph glyph-name="ampersand" unicode="&#x26;" horiz-adv-x="621" 
d="M578 15q-3 3 -29 31.5t-64 70.5q-8 -12 -16 -23t-19 -21q-34 -35 -77.5 -53t-91.5 -18q-100 0 -171 71q-34 34 -52 77.5t-18 92.5q0 69 37 128q37 58 96 87q1 0 5.5 2.5t11.5 6.5q-15 23 -28.5 48t-24.5 48q-5 9 -9.5 21.5t-7.5 29.5t-4 26t-1 22q0 75 50 123
q48 45 118 45q35 0 65.5 -13.5t53.5 -36t36 -53.5t13 -65q0 -48 -32 -92q-16 -23 -33 -39t-30 -26q-15 -11 -39.5 -26t-48.5 -29q9 -15 21 -28q13 -17 33 -40t43 -50t48.5 -56t51.5 -57q1 5 1.5 11t0.5 13v27h54v-27q0 -37 -12 -73q45 -50 76.5 -83.5t31.5 -35.5l19 -19
l-40 -37zM185 586q23 -48 52 -92q24 14 48.5 28.5t38.5 25.5q27 20 50 50.5t23 63.5q0 24 -9 44.5t-24.5 36t-36 24.5t-44.5 9q-21 0 -41.5 -7t-36.5 -21t-26 -35.5t-10 -50.5q0 -11 0.5 -18t3.5 -21q2 -11 5.5 -20t6.5 -17zM281 56q54 0 98.5 28.5t67.5 74.5
q-28 31 -57 63.5t-55.5 63t-49.5 57t-38 45.5q-13 16 -26 35q-10 -5 -16 -8.5t-8 -4.5q-48 -24 -76 -68.5t-28 -98.5q0 -39 14.5 -73t40 -59.5t60 -40t73.5 -14.5z" />
    <glyph glyph-name="quotesingle" unicode="'" horiz-adv-x="213" 
d="M126 700l-88 258l47 15l86 -258z" />
    <glyph glyph-name="parenleft" unicode="(" horiz-adv-x="358" 
d="M187 788q50 44 108 44h27v-54h-27q-39 0 -74 -31q-37 -31 -68 -93q-32 -66 -49 -149t-17 -176q0 -94 17 -177t49 -149q31 -62 68 -93q37 -32 74 -32h27v-53h-27q-58 0 -108 44q-24 20 -44.5 47.5t-37.5 62.5q-35 72 -53.5 161t-18.5 189q0 99 18.5 188.5t53.5 160.5
q17 35 37.5 62.5t44.5 47.5z" />
    <glyph glyph-name="parenright" unicode=")" horiz-adv-x="364" 
d="M174 788q46 -39 82 -110q35 -71 53.5 -160.5t18.5 -188.5q0 -100 -18.5 -189t-53.5 -161q-36 -71 -82 -110q-50 -44 -109 -44h-26v53h26q38 0 75 32q37 31 68 93q32 66 49 149t17 177q0 93 -17 176t-49 149q-31 62 -68 93q-35 31 -75 31h-26v54h26q59 0 109 -44z" />
    <glyph glyph-name="plus" unicode="+" horiz-adv-x="891" 
d="M418 372h-371v54h371v372h54v-372h371v-54h-371v-372h-54v372z" />
    <glyph glyph-name="comma" unicode="," horiz-adv-x="194" 
d="M102 98q21 0 35.5 -14.5t14.5 -34.5q0 -23 -19 -39l-52 -64l-25 14l18 49q-21 15 -21 40q0 20 14 34.5t35 14.5z" />
    <glyph glyph-name="hyphen" unicode="-" horiz-adv-x="412" 
d="M359 372h-306v53h306v-53z" />
    <glyph glyph-name="period" unicode="." horiz-adv-x="206" 
d="M102 98q21 0 35.5 -14.5t14.5 -34.5t-14.5 -34.5t-35.5 -14.5t-35 14.5t-14 34.5t14 34.5t35 14.5z" />
    <glyph glyph-name="slash" unicode="/" horiz-adv-x="441" 
d="M422 806l-345 -827h-59l345 827h59z" />
    <glyph glyph-name="zero" unicode="0" horiz-adv-x="874" 
d="M35 27l109 110q-41 46 -67 107q-31 72 -31 155t31 155q29 70 86 127q27 28 59 49t67 36q76 32 155 32q81 0 156 -32q57 -24 107 -67l109 110l38 -38l-109 -109q44 -50 67 -108q15 -37 23.5 -75.5t8.5 -79.5t-8.5 -79.5t-23.5 -75.5q-15 -36 -36.5 -67.5t-48.5 -59.5
q-54 -54 -127 -86q-37 -16 -76 -23.5t-80 -7.5q-81 0 -155 31q-61 26 -107 67l-110 -109zM790 399q0 65 -22 122t-61 102l-487 -486q45 -39 102.5 -61t121.5 -22q72 0 135 27t110 74t74 110t27 134zM100 399q0 -64 22 -121.5t60 -103.5l486 488q-45 38 -102 60t-122 22
q-71 0 -134 -27t-109.5 -74t-73.5 -109.5t-27 -134.5z" />
    <glyph glyph-name="one" unicode="1" horiz-adv-x="231" 
d="M89 0h-59v54h59v690h-59v54h59h53h60v-54h-60v-690h60v-54h-60h-53z" />
    <glyph glyph-name="two" unicode="2" horiz-adv-x="675" 
d="M142 0h-28h-85v54h74l357 366q57 55 57 134q0 39 -15 73.5t-40.5 60t-60 40.5t-73.5 15q-32 0 -61 -10t-53 -28.5t-41.5 -43.5t-26.5 -55h54v-53h-171v53h62q8 38 28 71.5t49 59.5q34 29 74.5 44.5t85.5 15.5q49 0 93 -18.5t78 -52.5q35 -35 53 -79t18 -93q0 -47 -20 -95
q-19 -45 -52 -77l-320 -328h468v-54h-504z" />
    <glyph glyph-name="three" unicode="3" horiz-adv-x="533" 
d="M480 168q-20 -48 -58 -87q-38 -38 -88 -59q-50 -22 -107 -22h-190v54h190q46 0 86 17.5t70 47.5t47.5 70t17.5 86t-17.5 86t-47.5 70t-70 47.5t-86 17.5h-52v54h52q42 0 80 15t67.5 41t48 61.5t23.5 76.5h-409v54h438h27q0 -29 -5.5 -68.5t-16.5 -65.5q-20 -48 -58 -87
q-17 -17 -36 -30t-40 -24q21 -10 40 -23.5t36 -29.5q37 -40 58 -88q22 -53 22 -107t-22 -107z" />
    <glyph glyph-name="four" unicode="4" horiz-adv-x="559" 
d="M476 797v-551h61v-53h-61v-139h61v-54h-61h-54h-61v54h61v139h-406v42l411 577h49v-15zM90 246h332v467z" />
    <glyph glyph-name="five" unicode="5" horiz-adv-x="520" 
d="M324 22q-50 -22 -106 -22h-191v54h191q45 0 85 17.5t70 47.5t47.5 70t17.5 86t-17.5 86t-47.5 70t-70 47.5t-85 17.5h-164l-27 27v248l27 27h438v-54h-411v-194h137q53 0 106 -22q25 -11 46.5 -25.5t41.5 -32.5q39 -40 58 -88q22 -50 22 -107t-22 -107q-19 -48 -58 -87
q-38 -38 -88 -59z" />
    <glyph glyph-name="six" unicode="6" horiz-adv-x="571" 
d="M535 305q13 -52 4 -99q-8 -52 -35 -96q-36 -58 -96 -92q-29 -15 -60.5 -23.5t-64.5 -8.5q-35 0 -69.5 10t-65.5 29q-44 26 -75 70q-29 41 -41 91q-12 47 -4 99q9 50 35 96q3 4 5.5 8t5.5 8l261 425h63l-205 -335q8 3 16 5.5t17 5.5q28 6 58 6q36 0 70 -10t65 -28
q44 -28 75 -71q31 -41 41 -90zM458 138q22 35 28.5 74.5t-3.5 80.5q-10 40 -33.5 72.5t-58.5 54.5q-48 30 -107 30q-11 0 -23 -1t-23 -4q-36 -8 -66.5 -28.5t-53.5 -49.5l-16 -27q-17 -33 -21.5 -69.5t3.5 -72.5q10 -40 33.5 -73t58.5 -55q49 -30 107 -30q54 0 100.5 26
t74.5 72z" />
    <glyph glyph-name="seven" unicode="7" 
d="M115 27l440 727h-537v53h608v-41l-464 -766h-64z" />
    <glyph glyph-name="eight" unicode="8" horiz-adv-x="532" 
d="M430 46q-32 -32 -73.5 -49.5t-88.5 -17.5t-88.5 17.5t-73.5 49.5q-33 33 -50.5 75t-17.5 88t17.5 88t50.5 75q26 26 54 40q-29 16 -54 41q-33 32 -50.5 74t-17.5 88q0 47 17.5 88.5t50.5 74.5q32 33 73.5 50.5t88.5 17.5t88.5 -17.5t73.5 -50.5q33 -33 50.5 -74.5
t17.5 -88.5q0 -46 -17.5 -88t-50.5 -74q-25 -25 -54 -41q15 -8 28.5 -18t25.5 -22q33 -33 50.5 -75t17.5 -88t-17.5 -88t-50.5 -75zM91 615q0 -36 14 -68t38 -56t56 -38t69 -14q36 0 68 14t56 38t38 56t14 68q0 37 -14 69t-38 56t-56 38t-68 14q-37 0 -69 -14t-56 -38
t-38 -56t-14 -69zM91 209q0 -36 14 -68t38 -56t56 -38t69 -14q36 0 68 14t56 38t38 56t14 68t-14 68.5t-38 56.5t-56 38t-68 14q-37 0 -69 -14t-56 -38t-38 -56.5t-14 -68.5z" />
    <glyph glyph-name="nine" unicode="9" horiz-adv-x="548" 
d="M528 634q13 -52 4 -100q-6 -41 -26 -80l-165 -454h-57l128 354q-17 -12 -37 -19.5t-40 -12.5q-27 -7 -58 -7q-36 0 -70.5 9.5t-65.5 29.5q-45 27 -75 69q-15 20 -25 43t-16 48q-5 24 -6.5 49t2.5 50q7 50 36 97q35 57 96 91q28 16 60 23.5t64 7.5q73 0 135 -38
q46 -29 75 -70q14 -20 25 -43t16 -47zM458 477q17 33 22 70t-4 74q-10 40 -33.5 72.5t-58.5 54.5q-24 15 -51.5 22.5t-55.5 7.5q-54 0 -100 -25.5t-75 -71.5q-21 -35 -27.5 -75t2.5 -80q10 -40 33.5 -72.5t58.5 -54.5q49 -30 108 -30q11 0 22.5 1t22.5 4q42 9 74.5 33
t54.5 59l6 9v2h1z" />
    <glyph glyph-name="colon" unicode=":" horiz-adv-x="205" 
d="M102 98q21 0 35.5 -14.5t14.5 -34.5t-14.5 -34.5t-35.5 -14.5t-35 14.5t-14 34.5t14 34.5t35 14.5zM102 430q21 0 35.5 -15t14.5 -36q0 -20 -14.5 -34.5t-35.5 -14.5t-35 14.5t-14 34.5q0 21 14 36t35 15z" />
    <glyph glyph-name="semicolon" unicode=";" horiz-adv-x="204" 
d="M102 430q21 0 35.5 -15t14.5 -36q0 -20 -14.5 -34.5t-35.5 -14.5t-35 14.5t-14 34.5q0 21 14 36t35 15zM102 98q21 0 35.5 -14.5t14.5 -34.5q0 -23 -19 -39l-52 -64l-25 14l18 49q-21 15 -21 40q0 20 14 34.5t35 14.5z" />
    <glyph glyph-name="less" unicode="&#x3c;" horiz-adv-x="458" 
d="M402 697l-330 -330l367 -367h-75l-349 348v38l349 349h77z" />
    <glyph glyph-name="equal" unicode="=" horiz-adv-x="594" 
d="M14 466h566v-54h-566v54zM14 193v53h566v-53h-566z" />
    <glyph glyph-name="greater" unicode="&#x3e;" horiz-adv-x="463" 
d="M54 38l330 330l-367 367h75l349 -348v-38l-349 -349h-77z" />
    <glyph glyph-name="question" unicode="?" horiz-adv-x="562" 
d="M237 159h-53v23q0 35 10.5 67.5t31.5 61.5q42 55 106 80l2 1q28 9 52 26t41 40.5t26.5 52t9.5 59.5q0 38 -14.5 71.5t-39.5 58.5t-58.5 39.5t-71.5 14.5t-71.5 -14.5t-58 -39.5t-39 -58.5t-14.5 -71.5v-26h-54v26q0 48 18 91t52 77q33 34 76 52t91 18t91 -18t77 -52
t52 -77t18 -91q0 -80 -47 -144q-11 -15 -24 -28t-29 -24q-29 -22 -67 -33q-51 -20 -82 -63t-31 -96v-23zM215 98q-21 0 -35 -14.5t-14 -34.5t14 -34.5t35 -14.5t35.5 14.5t14.5 34.5t-14.5 34.5t-35.5 14.5z" />
    <glyph glyph-name="at" unicode="@" horiz-adv-x="882" 
d="M847 405q0 -56 -14 -108t-43 -100q-27 -45 -65 -82t-85 -63q-2 -1 -9 -5t-17 -8t-22.5 -7t-24.5 -3q-19 0 -38 13q-15 13 -20 26q-2 5 -4.5 13t-2.5 27v22v222h-134l-56 -94h26v-53h-147v53h59l231 388h-31v54h147v-54h-42v-240v-54v-222v-1q-1 -11 0 -23t3 -16
q1 -2 4 -5t5 -3q12 0 26.5 6.5t19.5 9.5h1q42 24 75 57t56.5 72.5t36 84.5t12.5 93q0 72 -27.5 136t-75 111.5t-111.5 75t-137 27.5q-72 0 -136 -27.5t-111.5 -75t-75 -111.5t-27.5 -136q0 -68 24 -128.5t66 -107t99.5 -76.5t125.5 -37l26 -2l-5 -54l-27 3q-75 8 -141 41
t-117 90q-51 56 -78 125.5t-27 145.5q0 81 32 157q30 73 87 128q54 56 128 88q77 31 157 31q42 0 81 -8t77 -23q74 -32 128 -88q28 -27 49.5 -59.5t37.5 -68.5q31 -74 31 -157zM502 406v170l-102 -170h102z" />
    <glyph glyph-name="A" unicode="A" horiz-adv-x="637" 
d="M626 54v-54h-172v54h50l-40 132h-293l-39 -132h50v-54h-172v54h66l206 690h-50v54h171v-54h-49l206 -690h66zM448 239l-130 438l-131 -438h261z" />
    <glyph glyph-name="B" unicode="B" horiz-adv-x="612" 
d="M406 24q-57 -24 -119 -24h-106h-54h-59v54h59v690h-59v54h59h54h114q25 0 46.5 -9.5t37.5 -26t25.5 -38t9.5 -46.5q0 -23 -7.5 -44t-23.5 -37q46 -15 84.5 -43.5t66.5 -66.5t43.5 -84t15.5 -97q0 -62 -24 -119q-11 -28 -28 -52t-38 -45q-41 -41 -97 -66zM181 613h115
q28 2 46 18q19 19 19 47q0 27 -19.5 46.5t-46.5 19.5h-114v-131zM181 54h106q52 0 98 20t80 54t54 80t20 98q0 51 -19 96.5t-52.5 80t-78 54.5t-95.5 22h-113v-505z" />
    <glyph glyph-name="C" unicode="C" horiz-adv-x="507" 
d="M472 0h-28q-40 0 -79 7.5t-75 23.5q-36 15 -67.5 36.5t-60.5 49.5q-54 55 -84 126q-32 73 -32 155q0 85 32 156q30 71 84 127q57 55 128 85q73 32 154 32h28v-54h-28q-71 0 -134 -27t-109.5 -74t-73.5 -110t-27 -135q0 -71 27 -134t73.5 -109.5t109.5 -73.5t134 -27h28
v-54z" />
    <glyph glyph-name="D" unicode="D" horiz-adv-x="673" 
d="M613 554q31 -72 31 -156q0 -81 -31 -155q-30 -70 -86 -126q-57 -57 -127 -86q-72 -31 -155 -31h-67h-53h-3h-56v54h56h3v690h-3h-56v54h56h3h53h67q80 0 155 -32q72 -30 127 -85q57 -57 86 -127zM245 54q71 0 134 27t110 73.5t74 109.5t27 134q0 72 -27 135t-74 110
t-110 74t-134 27h-67v-690h67z" />
    <glyph glyph-name="E" unicode="E" horiz-adv-x="523" 
d="M184 744v-318h264v-54h-264v-318h302v-54h-302h-54h-58v54h58v318v54v318h-58v54h58h54h302v-54h-302z" />
    <glyph glyph-name="F" unicode="F" horiz-adv-x="548" 
d="M535 744h-355v-318h258v-54h-258v-318h59v-54h-59h-54h-59v54h59v318v54v318h-59v54h59h54h355v-54v0z" />
    <glyph glyph-name="G" unicode="G" horiz-adv-x="889" 
d="M875 372h-60q-5 -68 -30 -129q-30 -70 -86 -126q-57 -57 -127 -86q-72 -31 -155 -31t-155 31q-70 29 -127 86q-55 55 -85 126q-32 76 -32 155q0 81 32 156q30 72 85 127t127 85q75 32 155 32h27v-54h-27q-72 0 -134.5 -27t-109.5 -74t-74 -110t-27 -135q0 -71 27 -134
t74 -109.5t109.5 -73.5t134.5 -27q68 0 128.5 24.5t107 67.5t75.5 101t34 125h-368v54h368h54h59v-54z" />
    <glyph glyph-name="H" unicode="H" 
d="M113 0h-59v54h59v318v54v318h-59v54h59h53h59v-54h-59v-318h322v318h-58v54h58h54h59v-54h-59v-318v-54v-318h59v-54h-171v54h58v318h-322v-318h59v-54h-59h-53z" />
    <glyph glyph-name="I" unicode="I" horiz-adv-x="244" 
d="M151 0h-53h-60v54h60v690h-60v54h172v-54h-59v-690h59v-54h-59v0z" />
    <glyph glyph-name="J" unicode="J" horiz-adv-x="792" 
d="M114 186q-19 45 -23 92h-60v54h59h53h59v-54h-57q5 -48 26.5 -89t55 -71t77 -47.5t92.5 -17.5q52 0 97.5 20t80 54t54.5 80t20 98v439h-59v54h172v-54h-59v-439q0 -64 -24 -119q-25 -56 -66 -97q-21 -21 -45.5 -38t-52.5 -28q-56 -24 -118 -24q-64 0 -119 24
q-54 22 -98 66q-21 21 -37 45.5t-28 51.5z" />
    <glyph glyph-name="K" unicode="K" horiz-adv-x="580" 
d="M153 0h-54h-59v54h59v690h-59v54h59h54h58v-54h-58v-450l273 450h-37v54h171v-54h-71l-211 -346l212 -344h70v-54h-171v54h37l-179 293l-94 -155v-138h58v-54h-58v0z" />
    <glyph glyph-name="L" unicode="L" horiz-adv-x="527" 
d="M107 0h-59v54h59v690h-59v54h59h54h58v-54h-58v-690h348v-54h-348h-54z" />
    <glyph glyph-name="M" unicode="M" horiz-adv-x="1087" 
d="M188 54v-54h-171v54h66l206 690h-40v54h153v-54h-41l182 -611l183 611h-40v54h152v-54h-40l205 -690h65v-54h-171v54h50l-185 623l-187 -623h51v-54h-171v54h56l-186 623l-186 -623h49v0z" />
    <glyph glyph-name="N" unicode="N" horiz-adv-x="661" 
d="M138 0h-53h-59v54h59v689h-59v54h171v-54h-39l362 -617v617h-59v54h59h54h59v-54h-59v-689h59v-54h-172v54h39l-362 617v-617h59v-54h-59v0z" />
    <glyph glyph-name="O" unicode="O" horiz-adv-x="853" 
d="M426 0q-82 0 -156 31q-72 31 -126 86q-55 54 -86 126q-31 76 -31 155q0 80 31 156q30 71 86 127q55 55 126 85q38 15 76.5 23.5t79.5 8.5t79.5 -8.5t75.5 -23.5q36 -15 67.5 -36.5t59.5 -48.5q28 -28 49 -60t37 -67q31 -76 31 -156q0 -79 -31 -155q-16 -35 -37 -67
t-49 -59q-57 -57 -127 -86q-72 -31 -155 -31zM426 744q-72 0 -134.5 -27t-109.5 -74t-74 -110t-27 -135q0 -71 27 -134t74 -109.5t109.5 -73.5t134.5 -27q71 0 134 27t110 73.5t74 109.5t27 134q0 72 -27 135t-74 110t-110 74t-134 27z" />
    <glyph glyph-name="P" unicode="P" horiz-adv-x="678" 
d="M94 0h-60v54h60v132v54v504h-60v54h60h53h200q63 0 119 -24q55 -24 97 -66q44 -44 66 -97q24 -56 24 -119q0 -64 -24 -119q-22 -53 -66 -97q-42 -42 -97 -66q-56 -24 -119 -24h-200v-132h59v-54h-59h-53zM147 240h200q52 0 98 20t80 54t54 80t20 98t-20 98t-54 80t-80 54
t-98 20h-200v-504z" />
    <glyph glyph-name="Q" unicode="Q" horiz-adv-x="907" 
d="M438 0q-83 0 -155 31q-70 29 -127 86q-54 54 -86 126q-31 77 -31 155q0 80 31 156q32 73 86 127q55 55 127 85q75 32 155 32t156 -32q71 -30 126 -85q57 -57 86 -127q31 -76 31 -156q0 -78 -31 -155q-28 -63 -72 -112q42 -39 95 -59.5t111 -20.5h27v-53h-27
q-38 0 -73.5 7t-69.5 22q-29 12 -54 29t-48 38q-23 -20 -48.5 -35.5t-52.5 -27.5q-74 -31 -156 -31zM93 398q0 -71 27 -134t74 -109.5t110 -73.5t134 -27q63 0 118.5 20.5t100.5 57.5l-204 204l37 38l206 -205q41 46 64 104.5t23 124.5q0 72 -27 135t-74 110t-109.5 74
t-134.5 27q-71 0 -134 -27t-110 -74t-74 -110t-27 -135z" />
    <glyph glyph-name="R" unicode="R" horiz-adv-x="720" 
d="M863 -34l28 -46l-23 -14q-26 -17 -54.5 -27t-58.5 -15q-21 -3 -45 -3q-36 0 -70 9q-57 12 -106 47q-24 18 -44.5 40t-36.5 48l-111 181h-156v-132h59v-54h-171v54h58v690h-58v54h312q62 0 119 -24q55 -24 97 -66q41 -41 66 -97q24 -56 24 -119t-24 -118q-24 -56 -66 -98
t-97 -66q-24 -10 -49.5 -15.5t-51.5 -7.5l94 -154q27 -44 67.5 -72t87 -39.5t95 -4.5t92.5 34zM186 240h200q52 0 98 20t80 54.5t54 80t20 97.5t-20 98t-54 80t-80 54t-98 20h-200v-504z" />
    <glyph glyph-name="S" unicode="S" horiz-adv-x="525" 
d="M110 46q-32 27 -52.5 63.5t-26.5 78.5q-3 16 -3 36v27h54v-27v-14.5t2 -13.5q5 -33 21 -61.5t40 -49t54 -32t64 -11.5q37 0 70 14.5t58 39t39 57.5t14 71q0 46 -17.5 77t-43 50t-54.5 29t-52 14q-39 6 -73.5 24.5t-60.5 46.5q-28 29 -42.5 65.5t-14.5 74.5q0 40 15 76.5
t44 65.5q59 59 141 59q41 0 77.5 -15t65.5 -44q28 -29 43 -65.5t15 -76.5v-27h-53v27q0 30 -11.5 57t-31.5 47t-47 31.5t-58 11.5q-30 0 -56.5 -11.5t-46.5 -31.5t-31.5 -47t-11.5 -57q0 -29 11 -55t30.5 -47t46 -35.5t58.5 -20.5q46 -7 85 -26q40 -18 67 -47q31 -29 44 -66
q16 -38 16 -84q0 -47 -17.5 -90t-51.5 -76q-33 -33 -75.5 -51t-90.5 -18q-43 0 -82 15t-71 42z" />
    <glyph glyph-name="T" unicode="T" horiz-adv-x="576" 
d="M261 745h-250v53h250h53h249v-53h-249v-691h59v-54h-59h-53h-59v54h59v691z" />
    <glyph glyph-name="U" unicode="U" horiz-adv-x="731" 
d="M58 744h-59v54h59h53h59v-54h-59v-438q0 -52 20 -98t54.5 -80t80.5 -54t99 -20q52 0 98 20t80.5 54t54.5 80t20 98v438h-60v54h60h53h59v-54h-59v-438q0 -62 -24 -119q-22 -54 -65 -97q-21 -21 -45.5 -38t-52.5 -28q-57 -24 -119 -24q-64 0 -119 24q-54 22 -98 66
q-42 42 -66 97q-24 57 -24 119v438z" />
    <glyph glyph-name="V" unicode="V" 
d="M290 54l-207 690h-65v54h171v-54h-50l187 -623l185 623h-49v54h171v-54h-66l-206 -690h50v-54h-172v54h51v0z" />
    <glyph glyph-name="W" unicode="W" horiz-adv-x="1066" 
d="M987 744l-205 -691h40v-54h-152v54h40l-183 611l-182 -611h41v-54h-152v54h40l-207 691h-66v54h171v-54h-49l186 -624l186 624h-56v54h172v-54h-51l186 -624l185 624h-50v54h172v-54h-66z" />
    <glyph glyph-name="X" unicode="X" horiz-adv-x="644" 
d="M185 54v-53h-171v53h70l204 346l-205 345h-69v53h171v-53h-39l173 -293l173 293h-35v53h172v-53h-75l-204 -345l205 -346h74v-54l-172 1v53h36l-174 293l-173 -293h39v0z" />
    <glyph glyph-name="Y" unicode="Y" horiz-adv-x="638" 
d="M184 798v-54h-38l172 -293l174 293h-39v54h172v-54h-71l-208 -353v-337h58v-54h-58h-54h-59v54h59v337l-209 353h-70v54h171v0z" />
    <glyph glyph-name="Z" unicode="Z" horiz-adv-x="656" 
d="M629 744h-71l-408 -690h479v-54h-611v54h70l408 690h-478v54h611v-54v0z" />
    <glyph glyph-name="bracketleft" unicode="[" horiz-adv-x="284" 
d="M40 866h207v-54h-153v-828h155v-54h-209v936z" />
    <glyph glyph-name="backslash" unicode="\" horiz-adv-x="438" 
d="M77 806l345 -827h-59l-345 827h59z" />
    <glyph glyph-name="bracketright" unicode="]" horiz-adv-x="295" 
d="M249 -70h-209v54h155v828h-153v54h207v-936z" />
    <glyph glyph-name="underscore" unicode="_" horiz-adv-x="606" 
d="M594 54v-53h-577v53h577v0z" />
    <glyph glyph-name="grave" unicode="`" horiz-adv-x="213" 
d="M126 743l-88 258l47 15l86 -258z" />
    <glyph glyph-name="a" unicode="a" horiz-adv-x="644" 
d="M182 0h-172v54h71l412 690h-39v54h172v-54h-60v-505v-53v-132h60v-54h-172v54h59v132h-291l-79 -132h39v-54zM513 239v435l-259 -435h259z" />
    <glyph glyph-name="b" unicode="b" horiz-adv-x="585" 
d="M450 398q12 -7 23.5 -15.5t22.5 -19.5q31 -30 46.5 -68.5t15.5 -81.5t-15.5 -82t-46.5 -69q-30 -30 -69 -46t-81 -16h-173h-54h-58v54h58v318v54v318h-58v54h58h54h173q42 0 81 -16.5t69 -46.5q31 -30 46.5 -68.5t15.5 -81.5t-15.5 -82t-46.5 -69q-11 -11 -22.5 -19.5
t-23.5 -16.5zM173 426h173q33 0 62 12.5t50.5 34t34 50.5t12.5 62t-12.5 62t-34 50.5t-50.5 34t-62 12.5h-173v-318zM346 54q33 0 62 12.5t50.5 34t34 50.5t12.5 62t-12.5 62t-34 50.5t-50.5 34t-62 12.5h-173v-318h173z" />
    <glyph glyph-name="c" unicode="c" horiz-adv-x="497" 
d="M472 0h-28q-40 0 -79 7.5t-75 23.5q-36 15 -67.5 36.5t-60.5 49.5q-54 55 -84 126q-32 73 -32 155q0 85 32 156q30 71 84 127q57 55 128 85q73 32 154 32h28v-54h-28q-71 0 -134 -27t-109.5 -74t-73.5 -110t-27 -135q0 -71 27 -134t73.5 -109.5t109.5 -73.5t134 -27h28
v-54z" />
    <glyph glyph-name="d" unicode="d" horiz-adv-x="667" 
d="M613 554q31 -72 31 -156q0 -81 -31 -155q-30 -70 -86 -126q-57 -57 -127 -86q-72 -31 -155 -31h-67h-53h-3h-56v54h56h3v690h-3h-56v54h56h3h53h67q80 0 155 -32q72 -30 127 -85q57 -57 86 -127zM245 54q71 0 134 27t110 73.5t74 109.5t27 134q0 72 -27 135t-74 110
t-110 74t-134 27h-67v-690h67z" />
    <glyph glyph-name="e" unicode="e" horiz-adv-x="522" 
d="M185 744v-505h264v-53h-264v-132h301v-54h-301h-54v0h-59v54h59v0v132v53v505v0h-59v54h59v0h54h301v-54h-301z" />
    <glyph glyph-name="f" unicode="f" horiz-adv-x="562" 
d="M183 744v-505h259v-53h-259v-132h59v-54h-59h-53h-60v54h60v132v53v505v0h-60v54h60v0h53h355v-54h-355z" />
    <glyph glyph-name="g" unicode="g" horiz-adv-x="887" 
d="M875 372h-60q-5 -68 -30 -129q-30 -70 -86 -126q-57 -57 -127 -86q-72 -31 -155 -31t-155 31q-70 29 -127 86q-55 55 -85 126q-32 76 -32 155q0 81 32 156q30 72 85 127t127 85q75 32 155 32h27v-54h-27q-72 0 -134.5 -27t-109.5 -74t-74 -110t-27 -135q0 -71 27 -134
t74 -109.5t109.5 -73.5t134.5 -27q68 0 128.5 24.5t107 67.5t75.5 101t34 125h-368v54h368h54h59v-54z" />
    <glyph glyph-name="h" unicode="h" horiz-adv-x="624" 
d="M529 0h-54h-59v54h59v132h-322v-132h59v-54h-59h-54h-59v54h59v690h-59v54h59h54h59v-54h-59v-504h322v504h-59v54h59h54h59v-54h-59v-690h59v-54h-59z" />
    <glyph glyph-name="i" unicode="i" horiz-adv-x="219" 
d="M83 0h-59v54h59v690h-59v54h172v-54h-59v-690h59v-54h-59h-54z" />
    <glyph glyph-name="j" unicode="j" horiz-adv-x="614" 
d="M204 186h-57q5 -28 19 -52t35 -42t47.5 -28t55.5 -10q33 0 62 12.5t50.5 34t34 50.5t12.5 62v531h-58v54h171v-54h-59v-531q0 -43 -16 -82t-47 -69q-30 -30 -68.5 -46t-81.5 -16q-88 0 -150 62q-52 52 -61 124h-60v54h171v-54z" />
    <glyph glyph-name="k" unicode="k" horiz-adv-x="576" 
d="M378 580l108 -526h64v-54h-172v54h53l-93 459l-196 -321v-138h59v-54h-59h-53h-59v54h59v690h-59v54h59h53h59v-54h-59v-450l274 450h-38v54h172v-54h-72z" />
    <glyph glyph-name="l" unicode="l" horiz-adv-x="534" 
d="M107 0h-59v54h59v690h-59v54h59h54h58v-54h-58v-690h348v-54h-348h-54z" />
    <glyph glyph-name="m" unicode="m" horiz-adv-x="1098" 
d="M188 0h-172v54h70l412 690h-38v54h171v-54h-58v-620l369 620h-38v54h171v-54h-59v-690h59v-54h-59h-54h-58v54h58v620l-369 -620h38v-54h-171v54h59v620l-370 -620h39v-54z" />
    <glyph glyph-name="n" unicode="n" horiz-adv-x="664" 
d="M85 1h-59v53h59v690h-59v54h171v-54h-39l362 -618v618h-59v54h59h54h59v-54h-59v-690h59v-53h-172v53h39l-362 618v-618h59v-53h-59h-53z" />
    <glyph glyph-name="o" unicode="o" horiz-adv-x="838" 
d="M420 0q-83 0 -155 31q-35 15 -67.5 36.5t-59.5 49.5q-55 55 -85 126q-16 37 -23.5 76t-7.5 79q0 41 7.5 80t23.5 76q30 70 85 127q54 54 127 85q37 15 75.5 23.5t79.5 8.5t79.5 -8.5t75.5 -23.5q72 -30 127 -85q28 -28 49 -60t37 -67q16 -37 23.5 -76t7.5 -80
q0 -40 -7.5 -79t-23.5 -76q-16 -35 -37 -67t-49 -59q-54 -56 -127 -86q-72 -31 -155 -31zM420 744q-71 0 -134 -27t-110 -74t-74 -110t-27 -135q0 -71 27 -134t74 -109.5t110 -73.5t134 -27t134 27t110 73.5t74.5 109.5t27.5 134q0 72 -27.5 135t-74.5 110t-110 74t-134 27z
" />
    <glyph glyph-name="p" unicode="p" horiz-adv-x="519" 
d="M135 373v-319h59v-54h-59h-53h-60v54h60v319v53v318h-60v54h60h53h147q42 0 81 -16.5t69 -46.5t46 -68.5t16 -81.5q0 -42 -16 -81t-46 -69t-69 -46t-81 -16h-147zM135 426h147q33 0 62 12.5t50.5 34.5t34 50.5t12.5 61.5t-12.5 62t-34 50.5t-50.5 34t-62 12.5h-147v-318z
" />
    <glyph glyph-name="q" unicode="q" horiz-adv-x="833" 
d="M136 117q-56 56 -86 126q-31 77 -31 155q0 80 31 156q29 70 86 127q55 55 126 85q76 32 156 32t155 -32q72 -30 127 -85q57 -57 86 -127q31 -76 31 -156q0 -78 -31 -155q-30 -70 -86 -126q-57 -57 -127 -86q-72 -31 -155 -31q-11 0 -21.5 0.5t-21.5 1.5
q29 -14 61.5 -20.5t65.5 -6.5q57 0 109 19.5t94 57.5q31 26 53 62l15 22l45 -30l-15 -22q-25 -38 -63 -73q-50 -43 -111 -66t-127 -23q-77 0 -144 29q-33 14 -62 34.5t-54 46.5l-16 18q-51 26 -90 67zM418 744q-72 0 -134.5 -27t-109.5 -74t-74 -110t-27 -135q0 -71 27 -134
t74 -109.5t109.5 -73.5t134.5 -27q71 0 134 27t110 73.5t74 109.5t27 134q0 72 -27 135t-74 110t-110 74t-134 27z" />
    <glyph glyph-name="r" unicode="r" horiz-adv-x="715" 
d="M239 0h-172v54h59v690h-59v54h313q63 0 119 -24q55 -24 97 -66q22 -21 38 -45.5t28 -51.5q24 -56 24 -119q0 -62 -24 -119q-12 -27 -28 -51.5t-38 -45.5q-42 -42 -97 -66q-49 -20 -101 -23l80 -133h70v-54h-99l-2 -1v1h-70v54h38l-79 132h-156v-132h59v-54zM180 744v-504
h185l1 1v-1h14q52 0 98 20t80 54t54 80t20 98t-20 98t-54 80t-80 54t-98 20h-200z" />
    <glyph glyph-name="s" unicode="s" horiz-adv-x="530" 
d="M113 46q-32 27 -52.5 63.5t-26.5 78.5q-3 16 -3 36v27h54v-27q0 -8 0.5 -14.5t1.5 -13.5q5 -33 21 -61.5t40 -49t54 -32t64 -11.5q37 0 70 14.5t58 39t39 57.5t14 71q0 46 -17.5 77t-43 50t-54.5 29t-52 14q-39 6 -73.5 24.5t-60.5 46.5q-27 29 -41.5 65.5t-14.5 74.5
q0 40 14.5 76.5t43.5 65.5q59 59 142 59q40 0 76.5 -15t65.5 -44t43.5 -65.5t14.5 -76.5v-27h-53v27q0 30 -11.5 57t-31.5 47t-47 31.5t-57 11.5t-57 -11.5t-47 -31.5t-31.5 -47t-11.5 -57q0 -29 11 -55t30.5 -47t46 -35.5t58.5 -20.5q46 -7 85 -26q39 -18 68 -47t44 -66
q15 -39 15 -84q0 -47 -17.5 -90t-51.5 -76q-33 -33 -75.5 -51t-90.5 -18q-42 0 -81.5 15t-71.5 42z" />
    <glyph glyph-name="t" unicode="t" horiz-adv-x="577" 
d="M262 744h-250v54h250h53h249v-54h-249v-691h59v-54h-59h-53h-60v54h60v691z" />
    <glyph glyph-name="u" unicode="u" horiz-adv-x="761" 
d="M72 744h-58v54h58h54h59v-54h-59v-438q0 -52 20 -98t54 -80t80 -54t99 -20q52 0 98 20t80.5 54t54.5 80t20 98v438h-59v54h59h54h59v-54h-59v-438q0 -62 -24 -119q-24 -55 -66 -97q-21 -21 -45.5 -38t-52.5 -28q-56 -24 -119 -24q-62 0 -119 24q-54 22 -98 66
q-43 43 -65 97q-25 59 -25 119v438z" />
    <glyph glyph-name="v" unicode="v" horiz-adv-x="653" 
d="M83 744h-65v54h171v-54h-50l187 -623l185 623h-49v54h171v-54h-66l-206 -690h50v-54h-172v54h51z" />
    <glyph glyph-name="w" unicode="w" horiz-adv-x="1068" 
d="M874 54h39l-371 620v-620h60v-54h-172v54h39l-412 690h-71v54h172v-54h-39l370 -620v620h-59v54h172v-54h-39l370 -620v620h-59v54h59h53h60v-54h-60v-690h60v-54h-172v54z" />
    <glyph glyph-name="x" unicode="x" horiz-adv-x="678" 
d="M203 1h-171v53h70l204 346l-204 345h-70v53h171v-53h-39l174 -293l172 293h-35v53h172v-53h-74l-204 -345l205 -346h73v-53h-172v53h36l-173 293l-173 -293h38v-53z" />
    <glyph glyph-name="y" unicode="y" 
d="M328 286l178 458h-44v54h172v-54h-70l-209 -536v-154h59v-54h-59h-53h-60v54h60v154l-208 536h-72v54h172v-54h-42z" />
    <glyph glyph-name="z" unicode="z" horiz-adv-x="486" 
d="M469 0h-451v54h67l259 690h-326v54h451v-54h-67l-260 -690h327v-54z" />
    <glyph glyph-name="bar" unicode="|" horiz-adv-x="138" 
d="M43 -103v1029h54v-1029h-54v0z" />
    <glyph glyph-name="asciitilde" unicode="~" horiz-adv-x="622" 
d="M548 465h54v-27q0 -29 -11 -54.5t-30.5 -44.5t-45 -30t-53.5 -11q-39 0 -77 19.5t-75 41.5q-35 22 -69.5 40t-67.5 18q-42 0 -70.5 -28.5t-28.5 -69.5v-27h-53v27q0 31 12 58.5t32.5 48t48 32.5t59.5 12q45 0 85.5 -20t79.5 -45q33 -20 64.5 -36.5t59.5 -16.5q36 0 61 25
t25 61v27z" />
    <glyph glyph-name="copyright" unicode="&#xa9;" horiz-adv-x="861" 
d="M264 573q35 35 79.5 53.5t94.5 18.5h27v-54h-27q-40 0 -75 -15t-61 -41.5t-41 -61.5t-15 -75q0 -39 15 -74t41 -61.5t61 -41.5t75 -15h27v-53h-27q-50 0 -94.5 18.5t-79.5 53.5t-53.5 79.5t-18.5 93.5q0 50 18.5 95t53.5 80zM712 681q57 -57 86 -127q31 -76 31 -156
q0 -78 -31 -155q-31 -72 -86 -126q-57 -57 -127 -86q-72 -31 -155 -31q-82 0 -156 31q-70 30 -126 86q-55 54 -86 126q-31 77 -31 155q0 80 31 156q29 70 86 127q55 55 126 85q76 32 156 32t155 -32q72 -30 127 -85zM430 54q71 0 134 27t110 73.5t74 109.5t27 134
q0 72 -27 135t-74 110t-110 74t-134 27q-72 0 -134.5 -27t-109.5 -74t-74 -110t-27 -135q0 -71 27 -134t74 -109.5t109.5 -73.5t134.5 -27z" />
    <glyph glyph-name="registered" unicode="&#xae;" horiz-adv-x="912" 
d="M824 558q32 -76 32 -156t-31 -156q-32 -73 -86 -127q-56 -56 -128 -86q-75 -32 -156 -32q-80 0 -155 32q-72 30 -128 86q-28 27 -49 59t-37 68q-16 37 -23.5 76t-7.5 80q0 82 31 156q16 35 37 67t49 60q56 56 128 86q72 31 155 31q84 0 156 -31q72 -30 128 -86
q55 -57 85 -127zM455 55q72 0 135 27t110.5 74.5t74.5 110.5t27 135t-27 135t-74.5 110t-110.5 74.5t-135 27.5t-135 -27.5t-110 -74.5t-74.5 -110t-27.5 -135t27.5 -135t74.5 -110.5t110 -74.5t135 -27zM679 262l1 -54h-27h-1q-32 0 -62.5 11.5t-54.5 34.5q-23 21 -37 48.5
t-17 58.5q-5 -1 -8.5 -1h-7.5h-65v-99h47v-53h-148v53h47v295h-55v54h174q26 0 48.5 -10t39.5 -27t27 -39.5t10 -48.5q0 -33 -15.5 -60.5t-41.5 -44.5v-9q2 -23 12.5 -43t26.5 -35t36.5 -23.5t43.5 -8.5h1zM465 413q29 0 50 21t21 51q0 29 -21 50t-50 21h-65v-143h65z" />
    <glyph glyph-name="quoteleft" unicode="&#x2018;" horiz-adv-x="215" 
d="M126 700l-88 258l47 15l86 -258z" />
    <glyph glyph-name="quoteright" unicode="&#x2019;" horiz-adv-x="215" 
d="M42 715l86 258l47 -15l-88 -258z" />
    <glyph glyph-name="quotedblleft" unicode="&#x201c;" horiz-adv-x="350" 
d="M263 700l-88 258l47 15l86 -258zM126 700l-88 258l47 15l86 -258z" />
    <glyph glyph-name="quotedblright" unicode="&#x201d;" horiz-adv-x="355" 
d="M38 715l86 258l47 -15l-88 -258zM175 715l86 258l47 -15l-88 -258z" />
    <glyph glyph-name="Euro" unicode="&#x20ac;" horiz-adv-x="567" 
d="M341 766q75 32 155 32h27v-54h-27q-60 0 -114 -19.5t-98 -54t-75.5 -82t-46.5 -102.5h349v-53h-358q-1 -8 -1.5 -17t-0.5 -18t0.5 -18t1.5 -17h358v-53h-349q15 -56 46.5 -102.5t75.5 -81t98 -53.5t114 -19h27v-54h-27q-83 0 -155 31q-71 30 -127 86q-55 55 -85 126
q-14 33 -22 67h-77v53h69q-1 8 -1 17v18v18t1 17h-69v53h77q4 17 9 34t13 34q15 36 36.5 67.5t48.5 59.5q57 55 127 85z" />
    <glyph glyph-name="A_N_2" horiz-adv-x="970" 
d="M883 798h59v-54h-59v-690h59v-53h-171v53h39l-362 618v-432v-54v-132h59v-53h-172v53h59v132h-291l-78 -132h38v-53h-171v53h70l412 690h-63v54h196v-54h-39l362 -618v618h-59v54h59h53zM394 240v434l-259 -434h259z" />
    <glyph glyph-name="A_R" horiz-adv-x="949" 
d="M846 708q42 -42 65 -97q24 -56 24 -119q0 -64 -24 -119q-23 -55 -65 -97t-97 -66q-49 -20 -101 -23l79 -133h71v-54h-172v54h39l-79 132h-156v-132h59v-54h-59h-54h-59v54h59v132h-290l-80 -132h39v-54h-171v54h70l412 690h-63v54h137h200q62 0 119 -24q55 -24 97 -66z
M376 240v434l-258 -434h258zM630 240q52 0 98 20t80 54t54 80t20 98t-20 98t-54 80t-80 54t-98 20h-200v-504h200z" />
    <glyph glyph-name="A_R_6" horiz-adv-x="1279" 
d="M1270 294q24 -57 24 -118q0 -29 -5.5 -57.5t-16.5 -55.5q-11 -28 -27.5 -52t-36.5 -45q-21 -21 -46 -38.5t-53 -28.5q-57 -24 -118 -24h-1q-61 0 -116 23q-56 24 -97 65.5t-63 97.5l-17.5 45t-22.5 58.5t-24.5 64.5t-23.5 61.5t-19 50.5t-12 32h-111v-134v-53v-132h59
v-54h-59h-54h-58v54h58v132h-290l-79 -132h38v-54h-171v54h70l111 184v1h1l300 505h-62v54h136h148q43 0 81.5 -16.5t68.5 -46.5t46.5 -68.5t16.5 -81.5t-16.5 -81.5t-46.5 -69.5q-54 -54 -130 -60l24 -64t31.5 -83t31.5 -83t25 -63q18 -45 51.5 -79t78.5 -54
q48 -20 97.5 -20t96.5 20t81.5 55.5t52.5 79.5t18.5 93.5t-19.5 96.5l-11 25l50 20zM430 373v53v248l-258 -435h258v134zM484 426h148q33 0 62 12.5t50.5 34.5t34 50.5t12.5 61.5t-12.5 62t-34 50.5t-50.5 34t-62 12.5h-148v-318z" />
    <glyph glyph-name="L_E_U" horiz-adv-x="1229" 
d="M1195 0h-1035h-54h-58v54h58v690h-58v54h58h54h59v-54h-59v-690h1035v-54zM732 256q-34 33 -52 76t-18 91v321h-31h-27h-226v-318h220v-54h-220v-132h253v-54h-253h-54h-59v54h59v132v54v318h-59v54h59h54h226h27h144v-54h-59v-321q0 -38 14.5 -71.5t39 -58t58 -39
t71.5 -14.5t71.5 14.5t58 39t39 58t14.5 71.5v321h-59v54h172v-54h-59v-321q0 -48 -18 -91t-51 -76q-34 -34 -77 -52t-91 -18t-90.5 18t-76.5 52z" />
    <glyph glyph-name="E_2" horiz-adv-x="525" 
d="M184 798h302v-54h-302v-132h264v-54h-264v-504h302v-54h-302h-53h-1h-58v54h58h1v504v54v132h-1h-58v54h58h1h53z" />
    <glyph glyph-name="R_2" horiz-adv-x="661" 
d="M635 -29l-22 -2t-23 -1q-36 0 -70 9q-57 14 -106 47q-50 37 -81 88l-44 74h-157v-132h59v-54h-171v54h58v690h-58v54h313q62 0 119 -24q56 -25 97 -66q42 -42 65 -97q24 -56 24 -119q0 -64 -24 -119q-23 -55 -65 -97q-41 -41 -97 -66q-25 -10 -50 -15.5t-52 -7.5l28 -47
q27 -44 67.5 -72t87 -39.5t95 -4.5t92.5 34l22 15l28 -46l-22 -14q-26 -17 -54.5 -27t-58.5 -15zM132 240h201q52 0 98 20t80 54t54 80t20 98t-20 98t-54 80t-80 54t-98 20h-201v-504z" />
    <glyph glyph-name="T_2" horiz-adv-x="478" 
d="M189 798h261v-54h-261v-690h59v-54h-59h-54h-59v54h59v690h-124v54h124h54z" />
    <glyph glyph-name="T_3" horiz-adv-x="474" 
d="M326 744v-690h59v-54h-59h-54h-59v54h59v690h-261v54h261h54h124v-54h-124z" />
    <glyph glyph-name="R_O_O" horiz-adv-x="1815" 
d="M459 214q-2 -1 -3.5 -1.5t-3.5 -1.5q-48 -19 -101 -24l95 -154q27 -44 67 -72t86.5 -39t95 -4.5t92.5 33.5l23 15l28 -46l-23 -14q-26 -16 -54.5 -26.5t-58.5 -14.5q-20 -4 -44 -4q-37 0 -71 9q-57 12 -105 48q-49 34 -82 87l-111 182h-156v-133h59v-54h-172v54h59v690
h-59v54h314q61 0 118 -24q58 -25 98 -65q1 -2 2 -3t2 -3q24 20 49.5 35.5t53.5 27.5q75 32 156 32q79 0 155 -32q35 -15 67 -36t59 -49l3 -3l3 -3l3 3l3 3q27 28 59 49t68 36q75 32 155 32t155 -32q35 -15 67.5 -36t59.5 -49q55 -55 85 -127q16 -36 23.5 -75t7.5 -80
q0 -40 -7.5 -79t-23.5 -76q-30 -70 -85 -127q-54 -54 -127 -85q-75 -32 -155 -32t-155 32q-72 30 -127 85l-6 6l-6 -6q-55 -55 -126 -85q-76 -32 -155 -32q-81 0 -156 32q-70 30 -127 85q-44 45 -71 97zM1388 744q-75 0 -140 -29.5t-113 -80.5q14 -18 25 -38.5t20 -41.5
q16 -36 23.5 -75t7.5 -80q0 -40 -7.5 -79t-23.5 -76q-19 -44 -45 -79q48 -51 113 -81t140 -30q71 0 134 27t110 74t74 110t27 134q0 72 -27 134.5t-74 109.5t-110 74t-134 27zM1100 209q28 41 43 89t15 101q0 54 -15 101.5t-43 89.5q-27 -42 -42.5 -89.5t-15.5 -101.5
q0 -53 15.5 -101t42.5 -89zM813 744q-66 0 -123 -22t-102 -60q16 -26 26 -51q24 -56 24 -118q0 -64 -24 -119q-23 -56 -64 -97q-22 -22 -44 -37q21 -41 53 -75.5t71.5 -59t86 -38t96.5 -13.5q75 0 140 30t113 81q-28 35 -45 79q-32 75 -32 155q0 82 32 155q8 21 19.5 41.5
t25.5 38.5q-48 51 -113 80.5t-140 29.5zM467 399q0 -28 5 -55t13 -53q46 35 73 87t27 115q0 70 -36 129q-38 -45 -60 -102t-22 -121zM133 241h201q54 0 104 22q-24 64 -24 136q0 41 7.5 80t23.5 75q26 62 71 112q-35 36 -81.5 57t-100.5 21h-201v-503z" />
    <glyph glyph-name="D_O_V" horiz-adv-x="1690" 
d="M1224 744h-50l186 -623l186 623h-49v54h65l2 7l22 -7h82v-54h-66l-206 -690h50v-54h-172v54h50l-206 690h-65v54h81l22 7l2 -7h66v-54zM94 54v690h-2h-57v54h57h55h67q80 0 156 -32q30 -12 57.5 -29.5t52.5 -39.5q25 22 52.5 39.5t57.5 29.5q76 32 156 32t155 -32
q72 -30 127 -85q56 -54 86 -127q31 -74 31 -155q0 -79 -31 -155q-30 -71 -86 -127q-28 -27 -59.5 -48.5t-67.5 -36.5q-75 -32 -155 -32t-156 32q-59 25 -110 70q-51 -45 -110 -70q-76 -32 -156 -32h-67h-55h-57v54h57h2zM480 619q-38 -45 -58.5 -101t-20.5 -119t20.5 -119
t58.5 -101q38 45 58.5 101t20.5 119t-20.5 119t-58.5 101zM746 744q-66 0 -124.5 -22.5t-103.5 -63.5q41 -48 64 -104q31 -74 31 -155q0 -79 -31 -155q-23 -56 -64 -104q45 -41 103.5 -63.5t124.5 -22.5q71 0 134 27t110 74t74 110t27 134q0 72 -27 134.5t-74 109.5t-110 74
t-134 27zM147 54h67q66 0 124.5 22.5t103.5 63.5q-41 48 -64 104q-31 76 -31 155q0 81 31 155q23 56 64 104q-45 41 -103.5 63.5t-124.5 22.5h-67v-690z" />
    <glyph glyph-name="O_U_R" horiz-adv-x="1706" 
d="M2 243q-32 76 -32 155q0 81 32 156q30 72 85 127t127 85q75 32 156 32q79 0 155 -32q71 -30 126 -85q57 -57 86 -127q31 -72 31 -156q0 -81 -31 -155q-30 -70 -86 -126q-11 -12 -26 -24q29 -19 63.5 -29t72.5 -10q52 0 98 20t80.5 54t54.5 80t20 98v438h-60v54h60h53h6
h53h260q60 0 119 -24q56 -25 97 -66q42 -42 65 -97q24 -57 24 -119q0 -64 -24 -119q-23 -55 -65 -97q-41 -41 -97 -66q-51 -20 -101 -23l94 -154q27 -44 67 -72.5t86.5 -39.5t95 -4t92.5 34l23 14l28 -46l-23 -13q-51 -33 -112 -42q-23 -3 -45 -3q-18 0 -36 1.5t-35 6.5
q-57 13 -105 48q-25 17 -45 39.5t-37 48.5l-111 181h-156v-132h59v-54h-171v54h58v690h-5h-53h-6v-438q0 -62 -24 -119q-24 -56 -65 -97q-22 -21 -46.5 -38t-51.5 -28q-57 -24 -119 -24q-63 0 -120 24q-17 8 -32.5 16t-29.5 19q-28 -16 -54 -28q-74 -31 -155 -31
q-84 0 -156 31q-70 29 -127 86q-55 55 -85 126zM1638 492q0 52 -20 98t-54 80t-80 54t-98 20h-201v-504h201q52 0 98 20t80 54t54 80t20 98zM370 744q-72 0 -135 -27t-110 -74t-74 -110t-27 -135q0 -71 27 -134t74 -109.5t110 -73.5t135 -27q90 0 167 43q-37 39 -59 90
q-24 57 -24 119v192h-59v53h59h53h59v-53h-59v-192q0 -53 20 -98.5t55 -80.5q60 48 96 118.5t36 152.5q0 72 -27 135t-74 110t-109.5 74t-133.5 27z" />
    <glyph glyph-name="M_A" horiz-adv-x="1600" 
d="M402 744h-41l182 -611l183 611h-40v54h152v-54h-40l205 -690h66v-54h-172v54h50l-185 623l-187 -623h51v-54h-171v54h56l-186 623l-186 -623h49v-54h-171v54h66l206 690h-40v54h153v-54zM1579 0h-171v54h50l-96 318h-181l-39 -132h49v-54h-171v54h66l150 504h-50v54h172
v-54h-50l206 -690h65v-54zM1346 426l-74 251l-75 -251h149z" />
    <glyph glyph-name="O_W" horiz-adv-x="1786" 
d="M1702 744l-205 -690h41v-54h-153v54h40l-183 611l-182 -611h41v-54h-153v54h40l-206 690h-66v54h171v-54h-49l186 -623l186 623h-56v54h172v-54h-51l186 -623l185 623h-50v54h172v-54h-66zM89 681q55 55 126 85q76 32 155 32q81 0 156 -32q72 -30 127 -85t85 -127
q32 -75 32 -156q0 -79 -32 -155q-30 -71 -85 -126q-57 -57 -127 -86q-72 -31 -156 -31q-81 0 -155 31q-70 30 -126 86t-86 126q-31 74 -31 155q0 84 31 156q29 70 86 127zM716 398q0 72 -27 135t-74 110t-110 74t-135 27q-71 0 -134 -27t-109.5 -74t-73.5 -110t-27 -135
q0 -71 27 -134t73.5 -109.5t109.5 -73.5t134 -27q72 0 135 27t110 73.5t74 109.5t27 134z" />
    <glyph glyph-name="O_W_N" horiz-adv-x="2145" 
d="M1550 54l-370 620v-620h59v-54h-172v54h39l-412 690h-70v54h171v-54h-38l369 -620v620h-59v54h172v-54h-38l369 -620v620h-59v54h59h54h59v-54h-39l362 -618v618h-59v54h59h53h59v-54h-59v-690h59v-53h-171v53h39l-362 618v-618h59v-53v-1h-172v1v53h39zM525 32
q-76 -32 -155 -32q-81 0 -156 32q-36 15 -67.5 36.5t-59.5 48.5q-27 28 -48.5 59.5t-36.5 67.5q-15 37 -23.5 76t-8.5 79q0 41 8.5 79.5t23.5 75.5q30 72 85 127t127 85q75 32 156 32q79 0 155 -32q35 -15 67 -36t59 -49q56 -54 86 -127q31 -72 31 -155q0 -40 -7.5 -79
t-23.5 -76q-29 -70 -86 -127q-55 -55 -126 -85zM24 399q0 -71 27 -134t74 -110t110 -74t135 -27q71 0 134 27t109.5 74t73.5 110t27 134q0 72 -27 134.5t-73.5 109.5t-109.5 74t-134 27q-72 0 -135 -27t-110 -74t-74 -109.5t-27 -134.5z" />
    <glyph glyph-name="A_N" horiz-adv-x="1214" 
d="M1126 744v-690h60v-53h-172v53h40l-363 618v-433h59v-53h-59h-53h-60v53h60v505h-60v54h172v-54h-39l362 -618v618h-59v54h59h53h60v-54h-60zM559 54h67v-54h-172v54h50l-40 132h-293l-39 -132h50v-54h-172v54h66l206 690h-50v54h171v-54h-49zM448 240l-130 438
l-131 -438h261z" />
    <glyph glyph-name="A_R_5" horiz-adv-x="1187" 
d="M566 187v-133h60v-54h-172v54h50l-40 132h-293l-39 -132h50v-54h-172v54h66l206 690h-50v54h171v-54h-49l159 -534v534h-59v54h313q62 0 119 -24q27 -12 51.5 -28t45.5 -38q43 -43 65 -97q25 -58 25 -119q0 -60 -25 -118q-23 -56 -65 -98t-97 -65q-48 -19 -101 -24
l28 -47q27 -44 67 -72t86.5 -39t95 -4t92.5 34l23 14l28 -46l-23 -14q-54 -32 -112 -41q-24 -3 -46 -3q-17 0 -35 1.5t-35 6.5q-57 13 -105 48q-50 35 -82 87l-1 1l-44 74h-156zM566 744v-503h201q52 0 98 20t80 54t54 79.5t20 97.5t-20 98t-54 80t-80 54t-98 20h-201z
M448 240l-130 438l-131 -438h261z" />
  </font>
</defs>
</svg>
