<?xml version="1.0" standalone="no"?>
<!DOCTYPE svg PUBLIC "-//W3C//DTD SVG 1.1//EN" "http://www.w3.org/Graphics/SVG/1.1/DTD/svg11.dtd" >
<svg xmlns="http://www.w3.org/2000/svg" xmlns:xlink="http://www.w3.org/1999/xlink" version="1.1">
<metadata>
Created by FontForge 20190801 at Sat Dec 29 20:18:05 2018
 By www-data
Copyright (c) Mark Simonson, 2009. All rights reserved. |DCNT
</metadata>
<defs>
<font id="MostraNuova" horiz-adv-x="546" >
  <font-face 
    font-family="MostraNuova"
    font-weight="400"
    font-stretch="normal"
    units-per-em="1000"
    panose-1="2 11 5 2 2 2 2 6 3 2"
    ascent="776"
    descent="-224"
    x-height="438"
    cap-height="685"
    bbox="-177 -212 1045 914"
    underline-thickness="20"
    underline-position="-133"
    unicode-range="U+000D-FB02"
  />
<missing-glyph horiz-adv-x="563" 
d="M100 0v685h363v-685h-363zM418 45v595h-273v-595h273zM326 415q0 39 -28 67t-67 28v47q59 0 100.5 -41.5t41.5 -100.5t-41.5 -100.5t-100.5 -41.5v48q39 0 67 27.5t28 66.5zM231 130v63h62v-63h-62z" />
    <glyph glyph-name="fi" unicode="fi" horiz-adv-x="426" 
d="M220 372h-78v-372h-66v372h-66v66h66v123q0 57 33.5 93t87.5 36q11 0 23 -5v-64q-8 2 -16 2q-27 0 -44.5 -17.5t-17.5 -44.5v-123h78v-66zM295 516v100h65v-100h-65zM295 0v438h65v-438h-65z" />
    <glyph glyph-name="fl" unicode="fl" horiz-adv-x="425" 
d="M220 372h-78v-372h-66v372h-66v66h66v123q0 57 33.5 93t87.5 36q11 0 23 -5v-64q-8 2 -16 2q-27 0 -44.5 -17.5t-17.5 -44.5v-123h78v-66zM295 0v685h65v-685h-65z" />
    <glyph glyph-name=".notdef" horiz-adv-x="563" 
d="M100 0v685h363v-685h-363zM418 45v595h-273v-595h273zM326 415q0 39 -28 67t-67 28v47q59 0 100.5 -41.5t41.5 -100.5t-41.5 -100.5t-100.5 -41.5v48q39 0 67 27.5t28 66.5zM231 130v63h62v-63h-62z" />
    <glyph glyph-name=".null" horiz-adv-x="0" 
 />
    <glyph glyph-name="nonmarkingreturn" horiz-adv-x="333" 
 />
    <glyph glyph-name="NULL" horiz-adv-x="0" 
 />
    <glyph glyph-name="NULL" horiz-adv-x="0" 
 />
    <glyph glyph-name="CR" unicode="&#xd;" horiz-adv-x="267" 
 />
    <glyph glyph-name="space" unicode=" " horiz-adv-x="267" 
 />
    <glyph glyph-name="exclam" unicode="!" horiz-adv-x="252" 
d="M128 228h-4l-32 319v138h68v-138zM75 0v103h102v-103h-102z" />
    <glyph glyph-name="quotedbl" unicode="&#x22;" horiz-adv-x="428" 
d="M75 500v185h102v-66zM252 500v185h101v-66z" />
    <glyph glyph-name="numbersign" unicode="#" horiz-adv-x="557" 
d="M64 0l44 176h-84v68h100l49 197h-84v68h101l43 176h68l-43 -176h123l44 176h68l-44 -176h84v-68h-100l-49 -197h84v-68h-101l-43 -176h-68l43 176h-123l-44 -176h-68zM192 244h124l49 197h-124z" />
    <glyph glyph-name="dollar" unicode="$" horiz-adv-x="310" 
d="M181 88l7 -88h-76l6 66q-6 -1 -27 -1q-17 0 -33 3v70q14 -7 33 -7q45 0 73 25t28 69q0 28 -13.5 48t-46.5 45q-39 30 -61 62q-21 32 -21 86q0 34 19.5 69t51.5 56l-9 94h76l-6 -70q12 3 27 3t28 -3v-66q-12 3 -25 3q-40 0 -67.5 -24t-27.5 -62q0 -34 15.5 -56.5
t52.5 -52.5q41 -33 58 -60.5t17 -71.5q0 -89 -79 -137z" />
    <glyph glyph-name="percent" unicode="%" horiz-adv-x="745" 
d="M47 550q0 61 44 105t106 44q61 0 105 -44t44 -105t-44 -105t-105 -44q-62 0 -106 44t-44 105zM259 0h-67l295 685h67zM285 550q0 37 -26 62.5t-62 25.5q-37 0 -63 -25.5t-26 -62.5t26 -63t63 -26q36 0 62 26t26 63zM400 135q0 61 44 105t105 44t105 -44t44 -105t-44 -105
t-105 -44t-105 44t-44 105zM637 135q0 37 -25.5 62.5t-62.5 25.5t-63 -25.5t-26 -62.5t26 -62.5t63 -25.5t62.5 25.5t25.5 62.5z" />
    <glyph glyph-name="ampersand" unicode="&#x26;" horiz-adv-x="651" 
d="M627 342l-111 -194l86 -148h-79l-48 82q-75 -96 -190 -96q-95 -2 -167.5 70t-70.5 167q0 88 61 156t149 79l-131 227h333v-68h-215l231 -398l70 123h82zM436 150l-139 240h-12q-68 0 -117.5 -49.5t-49.5 -117.5t49.5 -117.5t117.5 -49.5q94 0 151 94z" />
    <glyph glyph-name="quotesingle" unicode="'" horiz-adv-x="252" 
d="M75 500v185h102v-66z" />
    <glyph glyph-name="parenleft" unicode="(" horiz-adv-x="318" 
d="M47 342q0 123 56 232q56 108 152 179l36 -48q-86 -64 -134 -159t-48 -204q0 -108 48.5 -203.5t133.5 -158.5l-36 -49q-97 73 -152.5 181t-55.5 230z" />
    <glyph glyph-name="parenright" unicode=")" horiz-adv-x="318" 
d="M64 -69l-37 49q86 64 134.5 159t48.5 203q0 109 -48.5 203.5t-134.5 159.5l37 48q95 -70 151 -179t56 -232t-55 -230.5t-152 -180.5z" />
    <glyph glyph-name="asterisk" unicode="*" horiz-adv-x="385" 
d="M27 458l111 56l-111 56l34 59l104 -69l-7 125h68l-7 -124l104 68l34 -59l-111 -56l112 -57l-34 -58l-105 68l7 -125h-68l7 125l-104 -68z" />
    <glyph glyph-name="plus" unicode="+" horiz-adv-x="553" 
d="M308 311v-225h-62v225h-226v62h226v226h62v-226h225v-62h-225z" />
    <glyph glyph-name="comma" unicode="," horiz-adv-x="252" 
d="M75 -81v184h102v-65z" />
    <glyph glyph-name="hyphen" unicode="-" horiz-adv-x="330" 
d="M20 190v58h290v-58h-290z" />
    <glyph glyph-name="period" unicode="." horiz-adv-x="252" 
d="M75 0v103h102v-103h-102z" />
    <glyph glyph-name="slash" unicode="/" horiz-adv-x="425" 
d="M69 -69l-57 25l344 797l57 -24z" />
    <glyph glyph-name="zero" unicode="0" horiz-adv-x="808" 
d="M47 342q-3 144 104.5 252t252.5 105q144 3 252 -105t105 -252q3 -144 -105 -251.5t-252 -104.5q-145 -3 -252.5 104.5t-104.5 251.5zM118 342q-2 -116 84 -202t202 -84q116 -2 202 84t84 202q2 116 -84 202.5t-202 84.5q-116 2 -202 -84.5t-84 -202.5z" />
    <glyph glyph-name="one" unicode="1" horiz-adv-x="268" 
d="M100 0v609l68 94v-703h-68z" />
    <glyph glyph-name="two" unicode="2" horiz-adv-x="378" 
d="M50 0l161 369q15 33 15 72q0 75 -54.5 130t-126.5 55h-5v68h5q99 2 175 -74.5t74 -178.5q0 -53 -21 -100l-119 -273h184v-68h-288z" />
    <glyph glyph-name="three" unicode="3" horiz-adv-x="380" 
d="M82 -16h-5v66h5q73 0 127.5 56t54.5 132q0 68 -45.5 121t-112.5 63l86 195h-162v68h267l-99 -225q61 -33 96.5 -92.5t35.5 -129.5q2 -102 -73.5 -179t-174.5 -75z" />
    <glyph glyph-name="four" unicode="4" horiz-adv-x="516" 
d="M391 132v-132h-68v132h-323l391 597v-529h108v-68h-108zM323 517l-208 -317h208v317z" />
    <glyph glyph-name="five" unicode="5" horiz-adv-x="379" 
d="M80 -14h-5v65h5q74 0 128.5 56t54.5 133q0 75 -54 131.5t-129 56.5h-5v257h250v-68h-182v-133q82 -22 134 -91q52 -67 52 -153q2 -102 -74 -179t-175 -75z" />
    <glyph glyph-name="six" unicode="6" horiz-adv-x="485" 
d="M435 178q0 -79 -57 -135.5t-136 -56.5t-135.5 56.5t-56.5 135.5q0 40 17 80l185 427h75l-139 -321q22 7 54 7q79 0 136 -57t57 -136zM365 178q0 51 -36 87t-87 36q-50 0 -86 -36t-36 -87t36 -87t86 -36q51 0 87 36t36 87z" />
    <glyph glyph-name="seven" unicode="7" horiz-adv-x="397" 
d="M94 0h-74l266 617h-229v68h332z" />
    <glyph glyph-name="eight" unicode="8" horiz-adv-x="517" 
d="M60 184q0 53 26.5 97t72.5 69q-43 24 -68 65t-25 92q0 79 57 135.5t136 56.5t135.5 -56.5t56.5 -135.5q0 -51 -25 -92t-68 -65q46 -25 72.5 -69t26.5 -97q0 -82 -58 -140t-140 -58q-81 0 -140 58.5t-59 139.5zM134 507q0 -51 36 -89q38 -36 89 -36q52 0 88 36
q37 37 37 89t-37 88q-36 36 -88 36q-51 0 -89 -36q-36 -36 -36 -88zM129 184q0 -53 38.5 -91t91.5 -38t91 38.5t38 90.5q0 53 -38 91.5t-91 38.5t-91.5 -38.5t-38.5 -91.5z" />
    <glyph glyph-name="nine" unicode="9" horiz-adv-x="485" 
d="M435 507q0 -40 -17 -80l-185 -427h-75l139 321q-22 -7 -54 -7q-79 0 -136 57t-57 136t57 135.5t136 56.5t135.5 -56.5t56.5 -135.5zM365 507q0 51 -36 87t-86 36q-51 0 -87 -36t-36 -87t36 -87t87 -36q50 0 86 36t36 87z" />
    <glyph glyph-name="colon" unicode=":" horiz-adv-x="252" 
d="M75 334v104h102v-104h-102zM75 0v103h102v-103h-102z" />
    <glyph glyph-name="semicolon" unicode=";" horiz-adv-x="253" 
d="M76 334v104h102v-104h-102zM75 -81v184h102v-65z" />
    <glyph glyph-name="less" unicode="&#x3c;" horiz-adv-x="410" 
d="M350 575l-233 -233l233 -233l-43 -43l-277 276l277 277z" />
    <glyph glyph-name="equal" unicode="=" horiz-adv-x="553" 
d="M20 435v62h513v-62h-513zM20 188v62h513v-62h-513z" />
    <glyph glyph-name="greater" unicode="&#x3e;" horiz-adv-x="410" 
d="M104 619l276 -277l-276 -276l-44 43l233 233l-233 233z" />
    <glyph glyph-name="question" unicode="?" horiz-adv-x="357" 
d="M243 467q0 70 -49 119t-119 49v64q94 2 164 -68t68 -164q2 -94 -68 -164t-164 -68v64q70 0 119 49t49 119zM75 0v103h102v-103h-102z" />
    <glyph glyph-name="at" unicode="@" horiz-adv-x="808" 
d="M552 53h-41v47q-38 -47 -114 -47q-77 0 -134.5 59t-57.5 139q0 81 57.5 140t134.5 59q76 0 114 -47v35h65v-323q58 0 96 56t38 125q0 116 -84 188.5t-211 72.5q-125 3 -221.5 -90t-94.5 -216q-2 -124 89.5 -215.5t215.5 -89.5v-51q-145 -3 -252.5 104.5t-104.5 251.5
q-2 93 49.5 177t137.5 133t180 47q147 2 248 -88t99 -224q0 -102 -59.5 -172.5t-149.5 -70.5zM404 383q-54 0 -92.5 -38.5t-38.5 -93.5q0 -54 38.5 -92.5t92.5 -38.5q72 0 107 53v158q-39 52 -107 52z" />
    <glyph glyph-name="A" unicode="A" 
d="M434 99h-322l-37 -99h-73l271 706l271 -706h-73zM134 155h278l-139 368z" />
    <glyph glyph-name="B" unicode="B" horiz-adv-x="467" 
d="M218 0h-118v685h102q76 0 130.5 -55.5t54.5 -132.5q0 -49 -24.5 -88t-68.5 -61q52 -19 82.5 -61.5t30.5 -97.5q0 -77 -56 -133t-133 -56zM202 617h-34v-239h32q49 0 84 35t35 84t-35 84q-34 36 -82 36zM218 310h-50v-242h50q50 0 85 35q36 36 36 86q0 51 -36 85
q-35 36 -85 36z" />
    <glyph glyph-name="C" unicode="C" horiz-adv-x="676" 
d="M404 -14q-145 -3 -252.5 104.5t-104.5 251.5q-3 144 104.5 252t252.5 105q150 0 252 -105l-49 -49q-84 84 -203 84q-116 2 -202 -84.5t-84 -202.5q-2 -116 84 -202t202 -84q119 0 203 84l49 -50q-104 -104 -252 -104z" />
    <glyph glyph-name="D" unicode="D" horiz-adv-x="596" 
d="M100 0v685h106q138 3 241.5 -100.5t100.5 -242.5q3 -139 -100.5 -242t-241.5 -100h-106zM168 68h38q110 -2 193 81t81 193q2 112 -81 194.5t-193 80.5h-38v-549z" />
    <glyph glyph-name="E" unicode="E" horiz-adv-x="457" 
d="M100 0v685h297v-68h-229v-240h229v-68h-229v-241h229v-68h-297z" />
    <glyph glyph-name="F" unicode="F" horiz-adv-x="457" 
d="M168 309v-309h-68v685h297v-68h-229v-240h229v-68h-229z" />
    <glyph glyph-name="G" unicode="G" horiz-adv-x="766" 
d="M399 275h355q-22 -124 -123.5 -207.5t-226.5 -81.5q-145 -3 -252.5 105t-104.5 251q-3 144 104.5 252t252.5 105q147 0 252 -105l-49 -49q-87 84 -203 84q-116 2 -202 -84.5t-84 -202.5q-2 -116 84 -202t202 -84q80 0 147.5 41t104.5 110h-257v68z" />
    <glyph glyph-name="H" unicode="H" horiz-adv-x="563" 
d="M395 0v309h-227v-309h-68v685h68v-308h227v308h68v-685h-68z" />
    <glyph glyph-name="I" unicode="I" horiz-adv-x="268" 
d="M100 0v685h68v-685h-68z" />
    <glyph glyph-name="J" unicode="J" horiz-adv-x="346" 
d="M43 -9q-15 0 -26 3v70q10 -5 26 -5q60 0 98 37.5t38 97.5v491h67v-491q0 -87 -55.5 -145t-147.5 -58z" />
    <glyph glyph-name="K" unicode="K" horiz-adv-x="454" 
d="M374 0l-182 302l-24 -41v-261h-68v685h68v-294l174 294h80l-190 -316l221 -369h-79z" />
    <glyph glyph-name="L" unicode="L" horiz-adv-x="412" 
d="M100 0v685h68v-617h229v-68h-297z" />
    <glyph glyph-name="M" unicode="M" horiz-adv-x="636" 
d="M468 0v498l-150 -203l-150 203v-498h-68v704l218 -296l218 296v-704h-68z" />
    <glyph glyph-name="N" unicode="N" horiz-adv-x="558" 
d="M168 462v-462h-68v704l290 -483v464h68v-704z" />
    <glyph glyph-name="O" unicode="O" horiz-adv-x="808" 
d="M47 342q-3 144 104.5 252t252.5 105q144 3 252 -105t105 -252q3 -144 -105 -251.5t-252 -104.5q-145 -3 -252.5 104.5t-104.5 251.5zM690 342q2 116 -84 202.5t-202 84.5q-116 2 -202 -84.5t-84 -202.5q-2 -116 84 -202t202 -84q116 -2 202 84t84 202z" />
    <glyph glyph-name="P" unicode="P" horiz-adv-x="492" 
d="M205 211h-37v-211h-68v685h105q97 0 167 -70t70 -167t-70 -167t-167 -70zM205 617h-37v-338h37q69 0 119 50t50 119t-50 119t-119 50z" />
    <glyph glyph-name="Q" unicode="Q" horiz-adv-x="808" 
d="M723 -24l-92 91q-98 -81 -227 -81q-145 -3 -252.5 104.5t-104.5 251.5q-3 144 104.5 252t252.5 105q144 3 252 -105t105 -252q0 -126 -82 -227l91 -91zM118 342q-2 -116 84 -202t202 -84q116 -2 202 84t84 202q2 116 -84 202.5t-202 84.5q-116 2 -202 -84.5t-84 -202.5z
" />
    <glyph glyph-name="R" unicode="R" horiz-adv-x="507" 
d="M258 217l189 -217h-91l-188 214v-214h-68v685h105q97 0 167 -70t70 -167q0 -83 -52 -148t-132 -83zM205 617h-37v-338h37q69 0 119 50t50 119t-50 119t-119 50z" />
    <glyph glyph-name="S" unicode="S" horiz-adv-x="329" 
d="M50 -6v70q12 -5 26 -5q60 0 98 37.5t38 97.5q0 35 -14.5 62.5t-49.5 70.5q-43 52 -60.5 87.5t-17.5 85.5q0 84 56.5 139t139.5 55h5v-66h-5q-55 0 -92 -36t-37 -92q0 -32 14.5 -60t48.5 -69q43 -53 61 -90t18 -87q0 -90 -56.5 -146.5t-146.5 -56.5q-18 0 -26 3z" />
    <glyph glyph-name="T" unicode="T" horiz-adv-x="399" 
d="M233 617v-617h-68v617h-148v68h365v-68h-149z" />
    <glyph glyph-name="U" unicode="U" horiz-adv-x="563" 
d="M100 172v513h68v-513q0 -46 33 -81q33 -33 80 -33t80 33q34 34 34 81v513h68v-513q0 -74 -54 -127.5t-128 -53.5t-127.5 53.5t-53.5 127.5z" />
    <glyph glyph-name="V" unicode="V" horiz-adv-x="545" 
d="M470 685h73l-271 -706l-271 706h73l198 -523z" />
    <glyph glyph-name="W" unicode="W" horiz-adv-x="777" 
d="M547 -21l-158 488l-158 -488l-230 706h72l158 -492l156 492h4l156 -492l158 492h71z" />
    <glyph glyph-name="X" unicode="X" horiz-adv-x="519" 
d="M430 0l-170 282l-171 -282h-79l210 347l-204 338h79l165 -272l164 272h79l-204 -338l210 -347h-79z" />
    <glyph glyph-name="Y" unicode="Y" horiz-adv-x="532" 
d="M300 302v-302h-68v302l-231 383h79l186 -307l185 307h79z" />
    <glyph glyph-name="Z" unicode="Z" horiz-adv-x="464" 
d="M25 0l305 617h-296v68h405l-305 -617h287v-68h-396z" />
    <glyph glyph-name="bracketleft" unicode="[" horiz-adv-x="326" 
d="M100 -55v795h202v-62h-140v-671h140v-62h-202z" />
    <glyph glyph-name="backslash" unicode="\" horiz-adv-x="425" 
d="M12 729l57 24l344 -797l-57 -25z" />
    <glyph glyph-name="bracketright" unicode="]" horiz-adv-x="326" 
d="M24 -55v62h140v671h-140v62h202v-795h-202z" />
    <glyph glyph-name="asciicircum" unicode="^" horiz-adv-x="321" 
d="M24 562l136 137l137 -137l-44 -43l-93 92l-92 -92z" />
    <glyph glyph-name="underscore" unicode="_" horiz-adv-x="553" 
d="M20 -103v58h513v-58h-513z" />
    <glyph glyph-name="grave" unicode="`" horiz-adv-x="228" 
d="M160 486l-136 136l44 44l136 -137z" />
    <glyph glyph-name="a" unicode="a" horiz-adv-x="525" 
d="M266 -14q-91 0 -158.5 69t-67.5 164t67.5 164t158.5 69q76 0 129 -46v32h65v-438h-65v32q-53 -46 -129 -46zM273 387q-67 0 -117.5 -50.5t-50.5 -117.5q0 -68 49.5 -117.5t118.5 -49.5q71 0 122 53v229q-53 53 -122 53z" />
    <glyph glyph-name="b" unicode="b" horiz-adv-x="525" 
d="M259 452q91 0 158.5 -69t67.5 -164t-67.5 -164t-158.5 -69q-76 0 -129 46v-32h-65v685h65v-279q53 46 129 46zM130 334v-229q51 -53 122 -53q69 0 118.5 49.5t49.5 117.5q0 67 -50 117.5t-118 50.5q-69 0 -122 -53z" />
    <glyph glyph-name="c" unicode="c" horiz-adv-x="468" 
d="M273 -14q-95 0 -164 69t-69 164t69 164t164 69q94 0 165 -69l-47 -45q-52 49 -118 49q-67 0 -117.5 -50.5t-50.5 -117.5t50.5 -117.5t117.5 -50.5q68 0 118 49l46 -46q-68 -68 -164 -68z" />
    <glyph glyph-name="d" unicode="d" horiz-adv-x="525" 
d="M266 -14q-91 0 -158.5 69t-67.5 164t67.5 164t158.5 69q76 0 129 -46v279h65v-685h-65v32q-53 -46 -129 -46zM273 387q-67 0 -117.5 -50.5t-50.5 -117.5q0 -68 49.5 -117.5t118.5 -49.5q71 0 122 53v229q-53 53 -122 53z" />
    <glyph glyph-name="e" unicode="e" 
d="M273 -14q-95 0 -164 69t-69 164t69 164t164 69q94 0 162 -66.5t71 -166.5q0 -21 -1 -28h-398q10 -59 57 -100q46 -40 109 -40q68 0 118 49l46 -46q-68 -68 -164 -68zM107 246h332q-10 59 -57 100t-109 41t-109 -41t-57 -100z" />
    <glyph glyph-name="f" unicode="f" horiz-adv-x="230" 
d="M220 372h-78v-372h-66v372h-66v66h66v123q0 57 33.5 93t87.5 36q11 0 23 -5v-64q-8 2 -16 2q-27 0 -44.5 -17.5t-17.5 -44.5v-123h78v-66z" />
    <glyph glyph-name="g" unicode="g" horiz-adv-x="525" 
d="M252 -199q-26 0 -38 4v65q18 -3 34 -3q64 0 105.5 40.5t41.5 106.5v18q-53 -46 -129 -46q-91 0 -158.5 69t-67.5 164t67.5 164t158.5 69q76 0 129 -46v32h65v-424q0 -97 -60.5 -155t-147.5 -58zM273 387q-67 0 -117.5 -50.5t-50.5 -117.5q0 -68 49.5 -117.5t118.5 -49.5
q71 0 122 53v229q-53 53 -122 53z" />
    <glyph glyph-name="h" unicode="h" horiz-adv-x="431" 
d="M236 452q57 0 93.5 -40t36.5 -106v-306h-65v298q0 41 -22 65t-59 24q-29 0 -54 -15.5t-36 -39.5v-332h-65v685h65v-283q40 50 106 50z" />
    <glyph glyph-name="i" unicode="i" horiz-adv-x="196" 
d="M65 516v100h65v-100h-65zM65 0v438h65v-438h-65z" />
    <glyph glyph-name="j" unicode="j" horiz-adv-x="195" 
d="M65 516v100h65v-100h-65zM11 -199q-11 0 -23 5v64l16 -2q27 0 44 17.5t17 45.5v507h65v-507q0 -58 -32.5 -94t-86.5 -36z" />
    <glyph glyph-name="k" unicode="k" horiz-adv-x="371" 
d="M273 0l-129 175l-14 -19v-156h-65v685h65v-424l129 177h84l-157 -209l170 -229h-83z" />
    <glyph glyph-name="l" unicode="l" horiz-adv-x="195" 
d="M65 0v685h65v-685h-65z" />
    <glyph glyph-name="m" unicode="m" horiz-adv-x="667" 
d="M130 332v-332h-65v438h65v-36q40 50 106 50q72 0 109 -62q20 28 54 45t70 17q58 0 95.5 -40t37.5 -106v-306h-65v298q0 41 -22 65t-59 24q-30 0 -55.5 -16t-36.5 -41q2 -22 2 -24v-306h-65v298q0 41 -22 65t-59 24q-29 0 -54 -15.5t-36 -39.5z" />
    <glyph glyph-name="n" unicode="n" horiz-adv-x="431" 
d="M236 452q57 0 93.5 -40t36.5 -106v-306h-65v298q0 41 -22 65t-59 24q-29 0 -54 -15.5t-36 -39.5v-332h-65v438h65v-36q40 50 106 50z" />
    <glyph glyph-name="o" unicode="o" 
d="M273 452q95 0 164 -69t69 -164t-69 -164t-164 -69t-164 69t-69 164t69 164t164 69zM441 219q0 67 -50.5 117.5t-117.5 50.5t-117.5 -50.5t-50.5 -117.5t50.5 -117.5t117.5 -50.5t117.5 50.5t50.5 117.5z" />
    <glyph glyph-name="p" unicode="p" horiz-adv-x="525" 
d="M259 452q91 0 158.5 -69t67.5 -164t-67.5 -164t-158.5 -69q-76 0 -129 46v-217h-65v623h65v-32q53 46 129 46zM130 334v-229q51 -53 122 -53q69 0 118.5 49.5t49.5 117.5q0 67 -50 117.5t-118 50.5q-69 0 -122 -53z" />
    <glyph glyph-name="q" unicode="q" horiz-adv-x="525" 
d="M266 -14q-91 0 -158.5 69t-67.5 164t67.5 164t158.5 69q76 0 129 -46v33h65v-625h-65v218q-53 -46 -129 -46zM273 387q-67 0 -117.5 -50.5t-50.5 -117.5q0 -68 49.5 -117.5t118.5 -49.5q71 0 122 53v229q-53 53 -122 53z" />
    <glyph glyph-name="r" unicode="r" horiz-adv-x="246" 
d="M236 387h-3q-31 0 -60.5 -18.5t-42.5 -46.5v-322h-65v438h65v-37q37 51 106 51v-65z" />
    <glyph glyph-name="s" unicode="s" horiz-adv-x="239" 
d="M40 -12v66q9 -3 20 -3q32 0 51.5 20t19.5 51q0 33 -38 83q-27 38 -38 63t-11 58q0 54 38 90t96 36h3v-65h-3q-28 0 -46.5 -18.5t-18.5 -48.5t37 -82q26 -34 37.5 -59.5t11.5 -59.5q0 -57 -39.5 -95t-99.5 -38q-6 0 -20 2z" />
    <glyph glyph-name="t" unicode="t" horiz-adv-x="240" 
d="M225 373h-78v-373h-66v373h-66v65h66v147l66 33v-180h78v-65z" />
    <glyph glyph-name="u" unicode="u" horiz-adv-x="431" 
d="M195 -14q-57 0 -93.5 40t-36.5 106v306h65v-298q0 -41 22 -65t59 -24q29 0 53.5 15t36.5 39v333h65v-438h-65v36q-40 -50 -106 -50z" />
    <glyph glyph-name="v" unicode="v" horiz-adv-x="366" 
d="M183 -21l-183 459h71l112 -291l112 291h71z" />
    <glyph glyph-name="w" unicode="w" horiz-adv-x="573" 
d="M388 146l114 292h71l-184 -459l-103 295l-103 -295l-183 459h71l113 -292l101 294h2z" />
    <glyph glyph-name="x" unicode="x" horiz-adv-x="375" 
d="M285 0l-97 165l-98 -165h-75l134 224l-129 214h76l92 -154l91 154h76l-130 -214l135 -224h-75z" />
    <glyph glyph-name="y" unicode="y" horiz-adv-x="373" 
d="M0 438h71l116 -298l115 298h71l-248 -623h-71l99 241z" />
    <glyph glyph-name="z" unicode="z" horiz-adv-x="356" 
d="M27 0l195 373h-186v65h293l-196 -373h194v-65h-300z" />
    <glyph glyph-name="braceleft" unicode="{" horiz-adv-x="328" 
d="M133 112v90q0 45 -31 77t-73 32h-5v63h5q42 0 73 31.5t31 76.5v90q0 71 49 121.5t117 50.5h5v-63h-5q-42 0 -73 -32t-31 -77v-90q0 -45 -23 -82t-64 -58q41 -20 64 -57t23 -83v-90q0 -45 31 -77t73 -32h5v-62h-5q-68 0 -117 50.5t-49 120.5z" />
    <glyph glyph-name="bar" unicode="|" horiz-adv-x="262" 
d="M100 -55v795h62v-795h-62z" />
    <glyph glyph-name="braceright" unicode="}" horiz-adv-x="328" 
d="M24 -59v63h5q42 0 73 32t31 77v90q0 45 23 82t64 58q-41 20 -64 57t-23 83v90q0 45 -31 77t-73 32h-5v62h5q68 0 117 -50.5t49 -120.5v-90q0 -45 31 -77t73 -32h5v-63h-5q-42 0 -73 -31.5t-31 -76.5v-90q0 -71 -49 -121.5t-117 -50.5h-5z" />
    <glyph glyph-name="asciitilde" unicode="~" horiz-adv-x="370" 
d="M171 315q-25 19 -43 19t-30 -12t-12 -29h-62v4q0 44 29.5 71.5t74.5 27.5q31 0 69 -27q28 -19 45 -19q18 0 30 12.5t12 29.5h62v-3q0 -45 -29.5 -73t-74.5 -28q-31 0 -71 27z" />
    <glyph glyph-name="uni00A0" unicode="&#xa0;" horiz-adv-x="267" 
 />
    <glyph glyph-name="exclamdown" unicode="&#xa1;" horiz-adv-x="252" 
d="M177 439v-104h-102v104h102zM124 270h4l32 -318v-138h-68v138z" />
    <glyph glyph-name="cent" unicode="&#xa2;" horiz-adv-x="535" 
d="M47 342q0 102 68.5 180t169.5 90l-7 73h76l-6 -73q93 -8 163 -78l-48 -47q-60 60 -144 60t-144 -60t-60 -145q0 -83 60 -143.5t144 -60.5t144 60l48 -48q-69 -69 -162 -77l5 -73h-76l7 73q-101 12 -169.5 90t-68.5 179z" />
    <glyph glyph-name="sterling" unicode="&#xa3;" horiz-adv-x="456" 
d="M396 376v-68h-102q34 -53 34 -114q0 -88 -62 -126h130v-68h-336v68h64q61 0 99 34t38 92q0 52 -50 114h-151v68h98q-40 58 -40 124q0 86 56 140t141 54h5v-66h-5q-56 0 -92.5 -35.5t-36.5 -92.5q0 -31 13.5 -58t45.5 -66h151z" />
    <glyph glyph-name="currency" unicode="&#xa4;" 
d="M467 109l-50 50q-65 -50 -144 -50q-80 0 -144 50l-50 -50l-39 39l50 50q-50 64 -50 144q0 79 50 144l-50 51l39 39l50 -51q65 50 144 50q81 0 143 -50l51 51l39 -39l-50 -51q50 -63 50 -144q0 -80 -50 -144l50 -50zM441 342q0 68 -50.5 118t-117.5 50t-117.5 -50
t-50.5 -118t50.5 -118t117.5 -50t117.5 50t50.5 118z" />
    <glyph glyph-name="yen" unicode="&#xa5;" horiz-adv-x="529" 
d="M29 376h163l-192 309h79l186 -307l185 307h79l-192 -309h163v-68h-202v-103h202v-68h-202v-137h-67v137h-202v68h202v103h-202v68z" />
    <glyph glyph-name="brokenbar" unicode="&#xa6;" horiz-adv-x="262" 
d="M100 445v295h62v-295h-62zM100 -55v295h62v-295h-62z" />
    <glyph glyph-name="section" unicode="&#xa7;" horiz-adv-x="386" 
d="M127 614q0 68 50 121h76q-66 -47 -66 -120q0 -39 16 -67.5t56 -71.5q41 -46 59 -79q21 -36 21 -89q0 -48 -26.5 -88t-74.5 -62q21 -42 21 -84q0 -72 -51 -126h-77q68 48 68 122q0 37 -16.5 67t-54.5 72q-44 49 -62.5 83.5t-18.5 82.5q0 49 27 90t74 62q-21 42 -21 87z
M207 199q37 14 59 45t22 70q0 36 -16 63t-53 64q-23 23 -40 45q-36 -13 -58.5 -44.5t-22.5 -70.5q0 -37 15.5 -63t54.5 -65q22 -22 39 -44z" />
    <glyph glyph-name="dieresis" unicode="&#xa8;" horiz-adv-x="291" 
d="M112 566q0 -18 -12.5 -31t-31.5 -13q-18 0 -31 13t-13 31q0 19 13 32t31 13q19 0 31.5 -13t12.5 -32zM267 566q0 -18 -13 -31t-31 -13t-31 13t-13 31q0 19 13 32t31 13t31 -13t13 -32z" />
    <glyph glyph-name="copyright" unicode="&#xa9;" horiz-adv-x="807" 
d="M47 342q-3 144 104.5 252t252.5 105q144 3 251.5 -105t104.5 -252q3 -144 -104.5 -251.5t-251.5 -104.5q-145 -3 -252.5 104.5t-104.5 251.5zM716 342q2 126 -92 220t-220 92q-127 2 -220.5 -92t-91.5 -220q-2 -127 91.5 -220.5t220.5 -91.5q126 -2 220 91.5t92 220.5z
M404 114q-94 0 -161 67t-67 161t67 161t161 67q95 0 161 -66l-47 -47q-47 47 -114 47t-115 -47.5t-48 -114.5q0 -66 48 -114t115 -48q69 0 114 48l47 -47q-67 -67 -161 -67z" />
    <glyph glyph-name="ordfeminine" unicode="&#xaa;" horiz-adv-x="461" 
d="M396 316h-58v26q-44 -38 -107 -38q-77 0 -134 58.5t-57 138.5t57 138t134 58q63 0 107 -37v25h58v-369zM338 408v187q-42 44 -101 44q-57 0 -97.5 -40.5t-40.5 -97.5t40.5 -97.5t97.5 -40.5q59 0 101 45zM67 103v65h329v-65h-329z" />
    <glyph glyph-name="guillemotleft" unicode="&#xab;" horiz-adv-x="447" 
d="M153 10l-129 209l129 209h70l-128 -209l128 -209h-70zM352 10l-129 209l129 209h71l-129 -209l129 -209h-71z" />
    <glyph glyph-name="uni00AD" unicode="&#xad;" horiz-adv-x="330" 
d="M20 190v58h290v-58h-290z" />
    <glyph glyph-name="registered" unicode="&#xae;" horiz-adv-x="447" 
d="M40 518q0 75 54.5 129t129.5 54q76 0 129.5 -53.5t53.5 -129.5q0 -75 -54 -129.5t-129 -54.5t-129.5 54.5t-54.5 129.5zM375 518q0 62 -44.5 106.5t-106.5 44.5t-106.5 -44.5t-44.5 -106.5t44.5 -106.5t106.5 -44.5t106.5 44.5t44.5 106.5zM251 479l55 -63h-55l-47 54
v-54h-42v209h53q32 0 54.5 -23t22.5 -55q0 -47 -41 -68zM215 583h-11v-72h11q15 0 25.5 11t10.5 25q0 15 -10.5 25.5t-25.5 10.5z" />
    <glyph glyph-name="overscore" unicode="&#xaf;" horiz-adv-x="369" 
d="M345 535h-321v62h321v-62z" />
    <glyph glyph-name="degree" unicode="&#xb0;" horiz-adv-x="288" 
d="M25 580q0 49 35 84t84 35t84 -35t35 -84t-35 -84t-84 -35t-84 35t-35 84zM75 580q0 -28 20.5 -48.5t48.5 -20.5q29 0 49.5 20t20.5 49t-20.5 49t-49.5 20q-28 0 -48.5 -20t-20.5 -49z" />
    <glyph glyph-name="acute" unicode="&#xb4;" horiz-adv-x="228" 
d="M24 529l136 137l44 -44l-136 -136z" />
    <glyph glyph-name="paragraph" unicode="&#xb6;" horiz-adv-x="443" 
d="M312 -55v709h-85v-709h-30v442q-62 0 -106 43.5t-44 105.5q0 61 44 105t106 44h146v-740h-31z" />
    <glyph glyph-name="middot" unicode="&#xb7;" horiz-adv-x="252" 
d="M75 168v103h102v-103h-102z" />
    <glyph glyph-name="cedilla" unicode="&#xb8;" horiz-adv-x="150" 
d="M53 -100q0 35 -23 56l44 44q41 -41 41 -100t-41 -100l-44 44q23 21 23 56z" />
    <glyph glyph-name="ordmasculine" unicode="&#xba;" horiz-adv-x="476" 
d="M436 500q0 -81 -58.5 -139.5t-139.5 -58.5t-139.5 58.5t-58.5 139.5q0 82 58 140t140 58t140 -58t58 -140zM238 641q-59 0 -99.5 -41t-40.5 -100q0 -57 41 -98.5t99 -41.5t99.5 41.5t41.5 98.5q0 58 -41.5 99.5t-99.5 41.5zM423 103h-369v65h369v-65z" />
    <glyph glyph-name="guillemotright" unicode="&#xbb;" horiz-adv-x="447" 
d="M24 10l129 209l-129 209h71l128 -209l-128 -209h-71zM223 10l129 209l-129 209h71l129 -209l-129 -209h-71z" />
    <glyph glyph-name="questiondown" unicode="&#xbf;" horiz-adv-x="357" 
d="M282 439v-104h-102v104h102zM282 -136v-64q-94 -2 -164 68t-68 164q-2 94 68 164t164 68v-65q-70 0 -119 -49.5t-49 -117.5q0 -70 49 -119t119 -49z" />
    <glyph glyph-name="Agrave" unicode="&#xc0;" 
d="M434 99h-322l-37 -99h-73l271 706l271 -706h-73zM134 155h278l-139 368zM319 709l-136 136l44 44l136 -137z" />
    <glyph glyph-name="Aacute" unicode="&#xc1;" 
d="M434 99h-322l-37 -99h-73l271 706l271 -706h-73zM134 155h278l-139 368zM183 752l136 137l44 -44l-136 -136z" />
    <glyph glyph-name="Acircumflex" unicode="&#xc2;" 
d="M434 99h-322l-37 -99h-73l271 706l271 -706h-73zM134 155h278l-139 368zM137 752l136 137l137 -137l-44 -43l-93 92l-92 -92z" />
    <glyph glyph-name="Atilde" unicode="&#xc3;" 
d="M434 99h-322l-37 -99h-73l271 706l271 -706h-73zM134 155h278l-139 368zM259 765q-25 19 -43 19t-30 -12t-12 -29h-62v4q0 44 29.5 71.5t74.5 27.5q31 0 69 -27q28 -19 45 -19q18 0 30 12.5t12 29.5h62v-3q0 -45 -29.5 -73t-74.5 -28q-31 0 -71 27z" />
    <glyph glyph-name="Adieresis" unicode="&#xc4;" 
d="M434 99h-322l-37 -99h-73l271 706l271 -706h-73zM134 155h278l-139 368zM240 792q0 -18 -12.5 -31t-31.5 -13q-18 0 -31 13t-13 31q0 19 13 32t31 13q19 0 31.5 -13t12.5 -32zM395 792q0 -18 -13 -31t-31 -13t-31 13t-13 31q0 19 13 32t31 13t31 -13t13 -32z" />
    <glyph glyph-name="Aring" unicode="&#xc5;" 
d="M434 99h-322l-37 -99h-73l271 706l271 -706h-73zM134 155h278l-139 368zM174 808q0 41 29 70t70 29t70 -29t29 -70t-29 -70t-70 -29t-70 29t-29 70zM215 808q0 -24 17 -41t41 -17t41 17t17 41t-17 41t-41 17t-41 -17t-17 -41z" />
    <glyph glyph-name="AE" unicode="&#xc6;" horiz-adv-x="816" 
d="M0 0l458 685h298v-68h-229v-240h229v-68h-229v-241h229v-68h-297v99h-312l-65 -99h-82zM459 155v413l-274 -413h274z" />
    <glyph glyph-name="Ccedilla" unicode="&#xc7;" horiz-adv-x="676" 
d="M383 -100q0 35 -23 56l30 31q-140 2 -242.5 108t-100.5 247q-3 144 104.5 252t252.5 105q150 0 252 -105l-49 -49q-84 84 -203 84q-116 2 -202 -84.5t-84 -202.5q-2 -116 84 -202t202 -84q119 0 203 84l49 -50q-99 -99 -240 -104q29 -38 29 -86q0 -59 -41 -100l-44 44
q23 21 23 56z" />
    <glyph glyph-name="Egrave" unicode="&#xc8;" horiz-adv-x="457" 
d="M100 0v685h297v-68h-229v-240h229v-68h-229v-241h229v-68h-297zM294 709l-136 136l44 44l136 -137z" />
    <glyph glyph-name="Eacute" unicode="&#xc9;" horiz-adv-x="457" 
d="M100 0v685h297v-68h-229v-240h229v-68h-229v-241h229v-68h-297zM158 752l136 137l44 -44l-136 -136z" />
    <glyph glyph-name="Ecircumflex" unicode="&#xca;" horiz-adv-x="457" 
d="M100 0v685h297v-68h-229v-240h229v-68h-229v-241h229v-68h-297zM112 752l136 137l137 -137l-44 -43l-93 92l-92 -92z" />
    <glyph glyph-name="Edieresis" unicode="&#xcb;" horiz-adv-x="457" 
d="M100 0v685h297v-68h-229v-240h229v-68h-229v-241h229v-68h-297zM215 792q0 -18 -12.5 -31t-31.5 -13q-18 0 -31 13t-13 31q0 19 13 32t31 13q19 0 31.5 -13t12.5 -32zM370 792q0 -18 -13 -31t-31 -13t-31 13t-13 31q0 19 13 32t31 13t31 -13t13 -32z" />
    <glyph glyph-name="Igrave" unicode="&#xcc;" horiz-adv-x="268" 
d="M100 0v685h68v-685h-68zM180 709l-136 136l44 44l136 -137z" />
    <glyph glyph-name="Iacute" unicode="&#xcd;" horiz-adv-x="268" 
d="M100 0v685h68v-685h-68zM44 752l136 137l44 -44l-136 -136z" />
    <glyph glyph-name="Icircumflex" unicode="&#xce;" horiz-adv-x="268" 
d="M100 0v685h68v-685h-68zM-2 752l136 137l137 -137l-44 -43l-93 92l-92 -92z" />
    <glyph glyph-name="Idieresis" unicode="&#xcf;" horiz-adv-x="268" 
d="M100 0v685h68v-685h-68zM101 792q0 -18 -12.5 -31t-31.5 -13q-18 0 -31 13t-13 31q0 19 13 32t31 13q19 0 31.5 -13t12.5 -32zM256 792q0 -18 -13 -31t-31 -13t-31 13t-13 31q0 19 13 32t31 13t31 -13t13 -32z" />
    <glyph glyph-name="Eth" unicode="&#xd0;" horiz-adv-x="596" 
d="M25 374h75v311h106q138 3 241.5 -100.5t100.5 -242.5q3 -139 -100.5 -242t-241.5 -100h-106v313h-75v61zM206 617h-38v-243h154v-61h-154v-245h38q110 -2 193 81t81 193q2 112 -81 194.5t-193 80.5z" />
    <glyph glyph-name="Ntilde" unicode="&#xd1;" horiz-adv-x="558" 
d="M168 462v-462h-68v704l290 -483v464h68v-704zM265 765q-25 19 -43 19t-30 -12t-12 -29h-62v4q0 44 29.5 71.5t74.5 27.5q31 0 69 -27q28 -19 45 -19q18 0 30 12.5t12 29.5h62v-3q0 -45 -29.5 -73t-74.5 -28q-31 0 -71 27z" />
    <glyph glyph-name="Ograve" unicode="&#xd2;" horiz-adv-x="808" 
d="M47 342q-3 144 104.5 252t252.5 105q144 3 252 -105t105 -252q3 -144 -105 -251.5t-252 -104.5q-145 -3 -252.5 104.5t-104.5 251.5zM690 342q2 116 -84 202.5t-202 84.5q-116 2 -202 -84.5t-84 -202.5q-2 -116 84 -202t202 -84q116 -2 202 84t84 202zM450 709l-136 136
l44 44l136 -137z" />
    <glyph glyph-name="Oacute" unicode="&#xd3;" horiz-adv-x="808" 
d="M47 342q-3 144 104.5 252t252.5 105q144 3 252 -105t105 -252q3 -144 -105 -251.5t-252 -104.5q-145 -3 -252.5 104.5t-104.5 251.5zM690 342q2 116 -84 202.5t-202 84.5q-116 2 -202 -84.5t-84 -202.5q-2 -116 84 -202t202 -84q116 -2 202 84t84 202zM314 752l136 137
l44 -44l-136 -136z" />
    <glyph glyph-name="Ocircumflex" unicode="&#xd4;" horiz-adv-x="808" 
d="M47 342q-3 144 104.5 252t252.5 105q144 3 252 -105t105 -252q3 -144 -105 -251.5t-252 -104.5q-145 -3 -252.5 104.5t-104.5 251.5zM690 342q2 116 -84 202.5t-202 84.5q-116 2 -202 -84.5t-84 -202.5q-2 -116 84 -202t202 -84q116 -2 202 84t84 202zM268 752l136 137
l137 -137l-44 -43l-93 92l-92 -92z" />
    <glyph glyph-name="Otilde" unicode="&#xd5;" horiz-adv-x="808" 
d="M47 342q-3 144 104.5 252t252.5 105q144 3 252 -105t105 -252q3 -144 -105 -251.5t-252 -104.5q-145 -3 -252.5 104.5t-104.5 251.5zM690 342q2 116 -84 202.5t-202 84.5q-116 2 -202 -84.5t-84 -202.5q-2 -116 84 -202t202 -84q116 -2 202 84t84 202zM390 765
q-25 19 -43 19t-30 -12t-12 -29h-62v4q0 44 29.5 71.5t74.5 27.5q31 0 69 -27q28 -19 45 -19q18 0 30 12.5t12 29.5h62v-3q0 -45 -29.5 -73t-74.5 -28q-31 0 -71 27z" />
    <glyph glyph-name="Odieresis" unicode="&#xd6;" horiz-adv-x="808" 
d="M47 342q-3 144 104.5 252t252.5 105q144 3 252 -105t105 -252q3 -144 -105 -251.5t-252 -104.5q-145 -3 -252.5 104.5t-104.5 251.5zM690 342q2 116 -84 202.5t-202 84.5q-116 2 -202 -84.5t-84 -202.5q-2 -116 84 -202t202 -84q116 -2 202 84t84 202zM371 792
q0 -18 -12.5 -31t-31.5 -13q-18 0 -31 13t-13 31q0 19 13 32t31 13q19 0 31.5 -13t12.5 -32zM526 792q0 -18 -13 -31t-31 -13t-31 13t-13 31q0 19 13 32t31 13t31 -13t13 -32z" />
    <glyph glyph-name="multiply" unicode="&#xd7;" horiz-adv-x="527" 
d="M467 502l-160 -160l160 -159l-44 -44l-159 160l-160 -160l-44 44l160 159l-160 160l44 44l160 -160l159 160z" />
    <glyph glyph-name="Oslash" unicode="&#xd8;" horiz-adv-x="808" 
d="M761 342q3 -144 -105 -251.5t-252 -104.5q-127 0 -227 81l-62 -62l-48 48l62 62q-82 101 -82 227q-3 144 104.5 252t252.5 105q125 0 227 -81l62 62l48 -48l-62 -62q82 -101 82 -228zM118 342q0 -98 61 -177l402 403q-79 61 -177 61q-116 2 -202 -84.5t-84 -202.5z
M690 342q0 100 -61 177l-402 -402q79 -61 177 -61q116 -2 202 84t84 202z" />
    <glyph glyph-name="Ugrave" unicode="&#xd9;" horiz-adv-x="563" 
d="M100 172v513h68v-513q0 -46 33 -81q33 -33 80 -33t80 33q34 34 34 81v513h68v-513q0 -74 -54 -127.5t-128 -53.5t-127.5 53.5t-53.5 127.5zM327 709l-136 136l44 44l136 -137z" />
    <glyph glyph-name="Uacute" unicode="&#xda;" horiz-adv-x="563" 
d="M100 172v513h68v-513q0 -46 33 -81q33 -33 80 -33t80 33q34 34 34 81v513h68v-513q0 -74 -54 -127.5t-128 -53.5t-127.5 53.5t-53.5 127.5zM191 752l136 137l44 -44l-136 -136z" />
    <glyph glyph-name="Ucircumflex" unicode="&#xdb;" horiz-adv-x="563" 
d="M100 172v513h68v-513q0 -46 33 -81q33 -33 80 -33t80 33q34 34 34 81v513h68v-513q0 -74 -54 -127.5t-128 -53.5t-127.5 53.5t-53.5 127.5zM145 752l136 137l137 -137l-44 -43l-93 92l-92 -92z" />
    <glyph glyph-name="Udieresis" unicode="&#xdc;" horiz-adv-x="563" 
d="M100 172v513h68v-513q0 -46 33 -81q33 -33 80 -33t80 33q34 34 34 81v513h68v-513q0 -74 -54 -127.5t-128 -53.5t-127.5 53.5t-53.5 127.5zM248 792q0 -18 -12.5 -31t-31.5 -13q-18 0 -31 13t-13 31q0 19 13 32t31 13q19 0 31.5 -13t12.5 -32zM403 792q0 -18 -13 -31
t-31 -13t-31 13t-13 31q0 19 13 32t31 13t31 -13t13 -32z" />
    <glyph glyph-name="Yacute" unicode="&#xdd;" horiz-adv-x="532" 
d="M300 302v-302h-68v302l-231 383h79l186 -307l185 307h79zM176 752l136 137l44 -44l-136 -136z" />
    <glyph glyph-name="Thorn" unicode="&#xde;" horiz-adv-x="492" 
d="M205 108h-37v-108h-68v685h68v-104h37q97 0 167 -70t70 -167t-70 -166.5t-167 -69.5zM205 513h-37v-337h37q69 0 119 49.5t50 118.5t-50 119t-119 50z" />
    <glyph glyph-name="germandbls" unicode="&#xdf;" horiz-adv-x="470" 
d="M275 620q-61 0 -102.5 -41t-41.5 -104v-475h-66v475q0 92 61 151t149 59q67 0 119 -34l-87 -199q58 -35 90.5 -92t32.5 -123q0 -104 -73 -177.5t-173 -73.5h-5v64h5q74 0 127.5 55t53.5 131q0 66 -37 112q-39 48 -88 61l-11 2l86 204q-25 5 -40 5z" />
    <glyph glyph-name="agrave" unicode="&#xe0;" horiz-adv-x="525" 
d="M266 -14q-91 0 -158.5 69t-67.5 164t67.5 164t158.5 69q76 0 129 -46v32h65v-438h-65v32q-53 -46 -129 -46zM273 387q-67 0 -117.5 -50.5t-50.5 -117.5q0 -68 49.5 -117.5t118.5 -49.5q71 0 122 53v229q-53 53 -122 53zM319 486l-136 136l44 44l136 -137z" />
    <glyph glyph-name="aacute" unicode="&#xe1;" horiz-adv-x="525" 
d="M266 -14q-91 0 -158.5 69t-67.5 164t67.5 164t158.5 69q76 0 129 -46v32h65v-438h-65v32q-53 -46 -129 -46zM273 387q-67 0 -117.5 -50.5t-50.5 -117.5q0 -68 49.5 -117.5t118.5 -49.5q71 0 122 53v229q-53 53 -122 53zM183 529l136 137l44 -44l-136 -136z" />
    <glyph glyph-name="acircumflex" unicode="&#xe2;" horiz-adv-x="525" 
d="M266 -14q-91 0 -158.5 69t-67.5 164t67.5 164t158.5 69q76 0 129 -46v32h65v-438h-65v32q-53 -46 -129 -46zM273 387q-67 0 -117.5 -50.5t-50.5 -117.5q0 -68 49.5 -117.5t118.5 -49.5q71 0 122 53v229q-53 53 -122 53zM137 530l136 137l137 -137l-44 -43l-93 92l-92 -92
z" />
    <glyph glyph-name="atilde" unicode="&#xe3;" horiz-adv-x="525" 
d="M266 -14q-91 0 -158.5 69t-67.5 164t67.5 164t158.5 69q76 0 129 -46v32h65v-438h-65v32q-53 -46 -129 -46zM273 387q-67 0 -117.5 -50.5t-50.5 -117.5q0 -68 49.5 -117.5t118.5 -49.5q71 0 122 53v229q-53 53 -122 53zM259 539q-25 19 -43 19t-30 -12t-12 -29h-62v4
q0 44 29.5 71.5t74.5 27.5q31 0 69 -27q28 -19 45 -19q18 0 30 12.5t12 29.5h62v-3q0 -45 -29.5 -73t-74.5 -28q-31 0 -71 27z" />
    <glyph glyph-name="adieresis" unicode="&#xe4;" horiz-adv-x="525" 
d="M266 -14q-91 0 -158.5 69t-67.5 164t67.5 164t158.5 69q76 0 129 -46v32h65v-438h-65v32q-53 -46 -129 -46zM273 387q-67 0 -117.5 -50.5t-50.5 -117.5q0 -68 49.5 -117.5t118.5 -49.5q71 0 122 53v229q-53 53 -122 53zM240 566q0 -18 -12.5 -31t-31.5 -13q-18 0 -31 13
t-13 31q0 19 13 32t31 13q19 0 31.5 -13t12.5 -32zM395 566q0 -18 -13 -31t-31 -13t-31 13t-13 31q0 19 13 32t31 13t31 -13t13 -32z" />
    <glyph glyph-name="aring" unicode="&#xe5;" horiz-adv-x="525" 
d="M266 -14q-91 0 -158.5 69t-67.5 164t67.5 164t158.5 69q76 0 129 -46v32h65v-438h-65v32q-53 -46 -129 -46zM273 387q-67 0 -117.5 -50.5t-50.5 -117.5q0 -68 49.5 -117.5t118.5 -49.5q71 0 122 53v229q-53 53 -122 53zM174 567q0 41 29 70t70 29t70 -29t29 -70t-29 -70
t-70 -29t-70 29t-29 70zM215 567q0 -24 17 -41t41 -17t41 17t17 41t-17 41t-41 17t-41 -17t-17 -41z" />
    <glyph glyph-name="ae" unicode="&#xe6;" horiz-adv-x="855" 
d="M266 452q76 0 129 -46v32h65v-32q53 46 129 46q89 2 157 -66.5t69 -166.5q0 -21 -1 -28h-354v-87q50 -53 122 -53q68 0 118 49l46 -46q-68 -68 -157 -68q-76 0 -129 46v-32h-65v32q-53 -46 -129 -46q-91 0 -158.5 69t-67.5 164t67.5 164t158.5 69zM395 105v229
q-53 53 -122 53q-67 0 -117.5 -50.5t-50.5 -117.5q0 -68 49.5 -117.5t118.5 -49.5q71 0 122 53zM582 387q-72 0 -122 -53v-88h288q-10 59 -57 100t-109 41z" />
    <glyph glyph-name="ccedilla" unicode="&#xe7;" horiz-adv-x="468" 
d="M391 100l46 -46q-63 -63 -152 -68q29 -38 29 -86q0 -59 -41 -100l-44 44q23 21 23 56t-23 56l30 30q-91 4 -155 72.5t-64 160.5q0 95 69 164t164 69q94 0 165 -69l-47 -45q-52 49 -118 49q-67 0 -117.5 -50.5t-50.5 -117.5t50.5 -117.5t117.5 -50.5q68 0 118 49z" />
    <glyph glyph-name="egrave" unicode="&#xe8;" 
d="M273 -14q-95 0 -164 69t-69 164t69 164t164 69q94 0 162 -66.5t71 -166.5q0 -21 -1 -28h-398q10 -59 57 -100q46 -40 109 -40q68 0 118 49l46 -46q-68 -68 -164 -68zM107 246h332q-10 59 -57 100t-109 41t-109 -41t-57 -100zM319 486l-136 136l44 44l136 -137z" />
    <glyph glyph-name="eacute" unicode="&#xe9;" 
d="M273 -14q-95 0 -164 69t-69 164t69 164t164 69q94 0 162 -66.5t71 -166.5q0 -21 -1 -28h-398q10 -59 57 -100q46 -40 109 -40q68 0 118 49l46 -46q-68 -68 -164 -68zM107 246h332q-10 59 -57 100t-109 41t-109 -41t-57 -100zM183 529l136 137l44 -44l-136 -136z" />
    <glyph glyph-name="ecircumflex" unicode="&#xea;" 
d="M273 -14q-95 0 -164 69t-69 164t69 164t164 69q94 0 162 -66.5t71 -166.5q0 -21 -1 -28h-398q10 -59 57 -100q46 -40 109 -40q68 0 118 49l46 -46q-68 -68 -164 -68zM107 246h332q-10 59 -57 100t-109 41t-109 -41t-57 -100zM137 530l136 137l137 -137l-44 -43l-93 92
l-92 -92z" />
    <glyph glyph-name="edieresis" unicode="&#xeb;" 
d="M273 -14q-95 0 -164 69t-69 164t69 164t164 69q94 0 162 -66.5t71 -166.5q0 -21 -1 -28h-398q10 -59 57 -100q46 -40 109 -40q68 0 118 49l46 -46q-68 -68 -164 -68zM107 246h332q-10 59 -57 100t-109 41t-109 -41t-57 -100zM240 566q0 -18 -12.5 -31t-31.5 -13
q-18 0 -31 13t-13 31q0 19 13 32t31 13q19 0 31.5 -13t12.5 -32zM395 566q0 -18 -13 -31t-31 -13t-31 13t-13 31q0 19 13 32t31 13t31 -13t13 -32z" />
    <glyph glyph-name="igrave" unicode="&#xec;" horiz-adv-x="196" 
d="M65 0v438h65v-438h-65zM143 486l-136 136l44 44l136 -137z" />
    <glyph glyph-name="iacute" unicode="&#xed;" horiz-adv-x="196" 
d="M65 0v438h65v-438h-65zM7 529l136 137l44 -44l-136 -136z" />
    <glyph glyph-name="icircumflex" unicode="&#xee;" horiz-adv-x="196" 
d="M65 0v438h65v-438h-65zM-39 530l136 137l137 -137l-44 -43l-93 92l-92 -92z" />
    <glyph glyph-name="idieresis" unicode="&#xef;" horiz-adv-x="196" 
d="M65 0v438h65v-438h-65zM64 566q0 -18 -12.5 -31t-31.5 -13q-18 0 -31 13t-13 31q0 19 13 32t31 13q19 0 31.5 -13t12.5 -32zM219 566q0 -18 -13 -31t-31 -13t-31 13t-13 31q0 19 13 32t31 13t31 -13t13 -32z" />
    <glyph glyph-name="eth" unicode="&#xf0;" horiz-adv-x="547" 
d="M507 219q0 -95 -69 -164t-164 -69q-94 -2 -165 68.5t-69 164.5q-2 94 69 164.5t165 68.5q41 0 86 -17l-45 103l-131 -49v56l110 41l-42 99h74l32 -75l131 50v-57l-110 -41l108 -248q20 -45 20 -95zM449 222q0 70 -51.5 121.5t-121.5 51.5q-71 0 -121.5 -51t-50.5 -122
t50.5 -121.5t121.5 -50.5t122 50.5t51 121.5z" />
    <glyph glyph-name="ntilde" unicode="&#xf1;" horiz-adv-x="431" 
d="M236 452q57 0 93.5 -40t36.5 -106v-306h-65v298q0 41 -22 65t-59 24q-29 0 -54 -15.5t-36 -39.5v-332h-65v438h65v-36q40 50 106 50zM201 539q-25 19 -43 19t-30 -12t-12 -29h-62v4q0 44 29.5 71.5t74.5 27.5q31 0 69 -27q28 -19 45 -19q18 0 30 12.5t12 29.5h62v-3
q0 -45 -29.5 -73t-74.5 -28q-31 0 -71 27z" />
    <glyph glyph-name="ograve" unicode="&#xf2;" 
d="M273 452q95 0 164 -69t69 -164t-69 -164t-164 -69t-164 69t-69 164t69 164t164 69zM441 219q0 67 -50.5 117.5t-117.5 50.5t-117.5 -50.5t-50.5 -117.5t50.5 -117.5t117.5 -50.5t117.5 50.5t50.5 117.5zM319 486l-136 136l44 44l136 -137z" />
    <glyph glyph-name="oacute" unicode="&#xf3;" 
d="M273 452q95 0 164 -69t69 -164t-69 -164t-164 -69t-164 69t-69 164t69 164t164 69zM441 219q0 67 -50.5 117.5t-117.5 50.5t-117.5 -50.5t-50.5 -117.5t50.5 -117.5t117.5 -50.5t117.5 50.5t50.5 117.5zM183 529l136 137l44 -44l-136 -136z" />
    <glyph glyph-name="ocircumflex" unicode="&#xf4;" 
d="M273 452q95 0 164 -69t69 -164t-69 -164t-164 -69t-164 69t-69 164t69 164t164 69zM441 219q0 67 -50.5 117.5t-117.5 50.5t-117.5 -50.5t-50.5 -117.5t50.5 -117.5t117.5 -50.5t117.5 50.5t50.5 117.5zM137 530l136 137l137 -137l-44 -43l-93 92l-92 -92z" />
    <glyph glyph-name="otilde" unicode="&#xf5;" 
d="M273 452q95 0 164 -69t69 -164t-69 -164t-164 -69t-164 69t-69 164t69 164t164 69zM441 219q0 67 -50.5 117.5t-117.5 50.5t-117.5 -50.5t-50.5 -117.5t50.5 -117.5t117.5 -50.5t117.5 50.5t50.5 117.5zM259 539q-25 19 -43 19t-30 -12t-12 -29h-62v4q0 44 29.5 71.5
t74.5 27.5q31 0 69 -27q28 -19 45 -19q18 0 30 12.5t12 29.5h62v-3q0 -45 -29.5 -73t-74.5 -28q-31 0 -71 27z" />
    <glyph glyph-name="odieresis" unicode="&#xf6;" 
d="M273 452q95 0 164 -69t69 -164t-69 -164t-164 -69t-164 69t-69 164t69 164t164 69zM441 219q0 67 -50.5 117.5t-117.5 50.5t-117.5 -50.5t-50.5 -117.5t50.5 -117.5t117.5 -50.5t117.5 50.5t50.5 117.5zM240 566q0 -18 -12.5 -31t-31.5 -13q-18 0 -31 13t-13 31
q0 19 13 32t31 13q19 0 31.5 -13t12.5 -32zM395 566q0 -18 -13 -31t-31 -13t-31 13t-13 31q0 19 13 32t31 13t31 -13t13 -32z" />
    <glyph glyph-name="divide" unicode="&#xf7;" horiz-adv-x="553" 
d="M226 458v104h102v-104h-102zM20 313v58h513v-58h-513zM226 124v103h102v-103h-102z" />
    <glyph glyph-name="oslash" unicode="&#xf8;" 
d="M506 414l-50 -50q50 -65 50 -145q0 -95 -69 -164t-164 -69q-80 0 -144 50l-50 -50l-39 39l50 50q-50 63 -50 144q0 95 69 164t164 69q82 0 144 -49l50 50zM136 122l234 234q-46 31 -97 31q-67 0 -117.5 -50.5t-50.5 -117.5q0 -54 31 -97zM441 219q0 52 -32 98l-234 -234
q46 -32 98 -32q67 0 117.5 50.5t50.5 117.5z" />
    <glyph glyph-name="ugrave" unicode="&#xf9;" horiz-adv-x="431" 
d="M195 -14q-57 0 -93.5 40t-36.5 106v306h65v-298q0 -41 22 -65t59 -24q29 0 53.5 15t36.5 39v333h65v-438h-65v36q-40 -50 -106 -50zM261 487l-136 136l44 44l136 -137z" />
    <glyph glyph-name="uacute" unicode="&#xfa;" horiz-adv-x="431" 
d="M195 -14q-57 0 -93.5 40t-36.5 106v306h65v-298q0 -41 22 -65t59 -24q29 0 53.5 15t36.5 39v333h65v-438h-65v36q-40 -50 -106 -50zM125 530l136 137l44 -44l-136 -136z" />
    <glyph glyph-name="ucircumflex" unicode="&#xfb;" horiz-adv-x="431" 
d="M195 -14q-57 0 -93.5 40t-36.5 106v306h65v-298q0 -41 22 -65t59 -24q29 0 53.5 15t36.5 39v333h65v-438h-65v36q-40 -50 -106 -50zM79 531l136 137l137 -137l-44 -43l-93 92l-92 -92z" />
    <glyph glyph-name="udieresis" unicode="&#xfc;" horiz-adv-x="431" 
d="M195 -14q-57 0 -93.5 40t-36.5 106v306h65v-298q0 -41 22 -65t59 -24q29 0 53.5 15t36.5 39v333h65v-438h-65v36q-40 -50 -106 -50zM182 567q0 -18 -12.5 -31t-31.5 -13q-18 0 -31 13t-13 31q0 19 13 32t31 13q19 0 31.5 -13t12.5 -32zM337 567q0 -18 -13 -31t-31 -13
t-31 13t-13 31q0 19 13 32t31 13t31 -13t13 -32z" />
    <glyph glyph-name="yacute" unicode="&#xfd;" horiz-adv-x="373" 
d="M0 438h71l116 -298l115 298h71l-248 -623h-71l99 241zM97 529l136 137l44 -44l-136 -136z" />
    <glyph glyph-name="thorn" unicode="&#xfe;" horiz-adv-x="525" 
d="M259 452q91 0 158.5 -69t67.5 -164t-67.5 -164t-158.5 -69q-76 0 -129 46v-217h-65v870h65v-279q53 46 129 46zM130 334v-229q51 -53 122 -53q69 0 118.5 49.5t49.5 117.5q0 67 -50 117.5t-118 50.5q-69 0 -122 -53z" />
    <glyph glyph-name="ydieresis" unicode="&#xff;" horiz-adv-x="373" 
d="M0 438h71l116 -298l115 298h71l-248 -623h-71l99 241zM154 566q0 -18 -12.5 -31t-31.5 -13q-18 0 -31 13t-13 31q0 19 13 32t31 13q19 0 31.5 -13t12.5 -32zM309 566q0 -18 -13 -31t-31 -13t-31 13t-13 31q0 19 13 32t31 13t31 -13t13 -32z" />
    <glyph glyph-name="Amacron" unicode="&#x100;" 
d="M434 99h-322l-37 -99h-73l271 706l271 -706h-73zM134 155h278l-139 368zM434 761h-321v62h321v-62z" />
    <glyph glyph-name="amacron" unicode="&#x101;" horiz-adv-x="525" 
d="M266 -14q-91 0 -158.5 69t-67.5 164t67.5 164t158.5 69q76 0 129 -46v32h65v-438h-65v32q-53 -46 -129 -46zM273 387q-67 0 -117.5 -50.5t-50.5 -117.5q0 -68 49.5 -117.5t118.5 -49.5q71 0 122 53v229q-53 53 -122 53zM434 535h-321v62h321v-62z" />
    <glyph glyph-name="Abreve" unicode="&#x102;" 
d="M434 99h-322l-37 -99h-73l271 706l271 -706h-73zM134 155h278l-139 368zM404 853l43 -44q-72 -72 -174 -72q-101 0 -173 72l44 44q54 -54 129 -54q77 0 131 54z" />
    <glyph glyph-name="abreve" unicode="&#x103;" horiz-adv-x="525" 
d="M266 -14q-91 0 -158.5 69t-67.5 164t67.5 164t158.5 69q76 0 129 -46v32h65v-438h-65v32q-53 -46 -129 -46zM273 387q-67 0 -117.5 -50.5t-50.5 -117.5q0 -68 49.5 -117.5t118.5 -49.5q71 0 122 53v229q-53 53 -122 53zM404 627l43 -44q-72 -72 -174 -72q-101 0 -173 72
l44 44q54 -54 129 -54q77 0 131 54z" />
    <glyph glyph-name="Aogonek" unicode="&#x104;" 
d="M452 -67q0 -29 20 -48.5t48 -19.5v-56q-50 0 -88 36q-36 36 -36 88q0 69 60 106l-22 60h-322l-37 -99h-73l271 706l271 -706h-24q-28 0 -48 -19.5t-20 -47.5zM134 155h278l-139 368z" />
    <glyph glyph-name="aogonek" unicode="&#x105;" horiz-adv-x="525" 
d="M395 438h65v-438q-28 0 -48 -19.5t-20 -47.5q0 -29 20 -48.5t48 -19.5v-56q-50 0 -88 33q-36 33 -36 80q0 29 16 55t43 42v28q-52 -61 -129 -61q-91 0 -158.5 69t-67.5 164t67.5 164t158.5 69q76 0 129 -46v32zM395 105v229q-53 53 -122 53q-67 0 -117.5 -50.5
t-50.5 -117.5q0 -68 49.5 -117.5t118.5 -49.5q71 0 122 53z" />
    <glyph glyph-name="Cacute" unicode="&#x106;" horiz-adv-x="676" 
d="M404 -14q-145 -3 -252.5 104.5t-104.5 251.5q-3 144 104.5 252t252.5 105q150 0 252 -105l-49 -49q-84 84 -203 84q-116 2 -202 -84.5t-84 -202.5q-2 -116 84 -202t202 -84q119 0 203 84l49 -50q-104 -104 -252 -104zM314 752l136 137l44 -44l-136 -136z" />
    <glyph glyph-name="cacute" unicode="&#x107;" horiz-adv-x="468" 
d="M273 -14q-95 0 -164 69t-69 164t69 164t164 69q94 0 165 -69l-47 -45q-52 49 -118 49q-67 0 -117.5 -50.5t-50.5 -117.5t50.5 -117.5t117.5 -50.5q68 0 118 49l46 -46q-68 -68 -164 -68zM183 529l136 137l44 -44l-136 -136z" />
    <glyph glyph-name="Ccircumflex" unicode="&#x108;" horiz-adv-x="676" 
d="M404 -14q-145 -3 -252.5 104.5t-104.5 251.5q-3 144 104.5 252t252.5 105q150 0 252 -105l-49 -49q-84 84 -203 84q-116 2 -202 -84.5t-84 -202.5q-2 -116 84 -202t202 -84q119 0 203 84l49 -50q-104 -104 -252 -104zM268 752l136 137l137 -137l-44 -43l-93 92l-92 -92z
" />
    <glyph glyph-name="ccircumflex" unicode="&#x109;" horiz-adv-x="468" 
d="M273 -14q-95 0 -164 69t-69 164t69 164t164 69q94 0 165 -69l-47 -45q-52 49 -118 49q-67 0 -117.5 -50.5t-50.5 -117.5t50.5 -117.5t117.5 -50.5q68 0 118 49l46 -46q-68 -68 -164 -68zM137 530l136 137l137 -137l-44 -43l-93 92l-92 -92z" />
    <glyph glyph-name="Cdotaccent" unicode="&#x10a;" horiz-adv-x="676" 
d="M404 -14q-145 -3 -252.5 104.5t-104.5 251.5q-3 144 104.5 252t252.5 105q150 0 252 -105l-49 -49q-84 84 -203 84q-116 2 -202 -84.5t-84 -202.5q-2 -116 84 -202t202 -84q119 0 203 84l49 -50q-104 -104 -252 -104zM448 792q0 -18 -12.5 -31t-31.5 -13q-18 0 -31 13
t-13 31q0 19 13 32t31 13q19 0 31.5 -13t12.5 -32z" />
    <glyph glyph-name="cdotaccent" unicode="&#x10b;" horiz-adv-x="468" 
d="M273 -14q-95 0 -164 69t-69 164t69 164t164 69q94 0 165 -69l-47 -45q-52 49 -118 49q-67 0 -117.5 -50.5t-50.5 -117.5t50.5 -117.5t117.5 -50.5q68 0 118 49l46 -46q-68 -68 -164 -68zM317 566q0 -18 -12.5 -31t-31.5 -13q-18 0 -31 13t-13 31q0 19 13 32t31 13
q19 0 31.5 -13t12.5 -32z" />
    <glyph glyph-name="Ccaron" unicode="&#x10c;" horiz-adv-x="676" 
d="M404 -14q-145 -3 -252.5 104.5t-104.5 251.5q-3 144 104.5 252t252.5 105q150 0 252 -105l-49 -49q-84 84 -203 84q-116 2 -202 -84.5t-84 -202.5q-2 -116 84 -202t202 -84q119 0 203 84l49 -50q-104 -104 -252 -104zM541 845l-137 -136l-136 136l44 44l92 -93l93 93z
" />
    <glyph glyph-name="ccaron" unicode="&#x10d;" horiz-adv-x="468" 
d="M273 -14q-95 0 -164 69t-69 164t69 164t164 69q94 0 165 -69l-47 -45q-52 49 -118 49q-67 0 -117.5 -50.5t-50.5 -117.5t50.5 -117.5t117.5 -50.5q68 0 118 49l46 -46q-68 -68 -164 -68zM410 618l-137 -136l-136 136l44 44l92 -93l93 93z" />
    <glyph glyph-name="Dcaron" unicode="&#x10e;" horiz-adv-x="596" 
d="M100 0v685h106q138 3 241.5 -100.5t100.5 -242.5q3 -139 -100.5 -242t-241.5 -100h-106zM168 68h38q110 -2 193 81t81 193q2 112 -81 194.5t-193 80.5h-38v-549zM435 845l-137 -136l-136 136l44 44l92 -93l93 93z" />
    <glyph glyph-name="dcaron" unicode="&#x10f;" horiz-adv-x="601" 
d="M266 -14q-91 0 -158.5 69t-67.5 164t67.5 164t158.5 69q76 0 129 -46v279h65v-685h-65v32q-53 -46 -129 -46zM273 387q-67 0 -117.5 -50.5t-50.5 -117.5q0 -68 49.5 -117.5t118.5 -49.5q71 0 122 53v229q-53 53 -122 53zM512 500v185h102v-66z" />
    <glyph glyph-name="Dcroat" unicode="&#x110;" horiz-adv-x="596" 
d="M25 374h75v311h106q138 3 241.5 -100.5t100.5 -242.5q3 -139 -100.5 -242t-241.5 -100h-106v313h-75v61zM206 617h-38v-243h154v-61h-154v-245h38q110 -2 193 81t81 193q2 112 -81 194.5t-193 80.5z" />
    <glyph glyph-name="dslash" unicode="&#x111;" horiz-adv-x="525" 
d="M266 -14q-91 0 -158.5 69t-67.5 164t67.5 164t158.5 69q76 0 129 -46v129h-192v62h192v88h65v-88h64v-62h-64v-535h-65v32q-53 -46 -129 -46zM273 387q-67 0 -117.5 -50.5t-50.5 -117.5q0 -68 49.5 -117.5t118.5 -49.5q71 0 122 53v229q-53 53 -122 53z" />
    <glyph glyph-name="Emacron" unicode="&#x112;" horiz-adv-x="457" 
d="M100 0v685h297v-68h-229v-240h229v-68h-229v-241h229v-68h-297zM409 761h-321v62h321v-62z" />
    <glyph glyph-name="emacron" unicode="&#x113;" 
d="M273 -14q-95 0 -164 69t-69 164t69 164t164 69q94 0 162 -66.5t71 -166.5q0 -21 -1 -28h-398q10 -59 57 -100q46 -40 109 -40q68 0 118 49l46 -46q-68 -68 -164 -68zM107 246h332q-10 59 -57 100t-109 41t-109 -41t-57 -100zM434 535h-321v62h321v-62z" />
    <glyph glyph-name="Ebreve" unicode="&#x114;" horiz-adv-x="457" 
d="M100 0v685h297v-68h-229v-240h229v-68h-229v-241h229v-68h-297zM379 853l43 -44q-72 -72 -174 -72q-101 0 -173 72l44 44q54 -54 129 -54q77 0 131 54z" />
    <glyph glyph-name="ebreve" unicode="&#x115;" 
d="M273 -14q-95 0 -164 69t-69 164t69 164t164 69q94 0 162 -66.5t71 -166.5q0 -21 -1 -28h-398q10 -59 57 -100q46 -40 109 -40q68 0 118 49l46 -46q-68 -68 -164 -68zM107 246h332q-10 59 -57 100t-109 41t-109 -41t-57 -100zM404 627l43 -44q-72 -72 -174 -72
q-101 0 -173 72l44 44q54 -54 129 -54q77 0 131 54z" />
    <glyph glyph-name="Edotaccent" unicode="&#x116;" horiz-adv-x="457" 
d="M100 0v685h297v-68h-229v-240h229v-68h-229v-241h229v-68h-297zM292 792q0 -18 -12.5 -31t-31.5 -13q-18 0 -31 13t-13 31q0 19 13 32t31 13q19 0 31.5 -13t12.5 -32z" />
    <glyph glyph-name="edotaccent" unicode="&#x117;" 
d="M273 -14q-95 0 -164 69t-69 164t69 164t164 69q94 0 162 -66.5t71 -166.5q0 -21 -1 -28h-398q10 -59 57 -100q46 -40 109 -40q68 0 118 49l46 -46q-68 -68 -164 -68zM107 246h332q-10 59 -57 100t-109 41t-109 -41t-57 -100zM317 566q0 -18 -12.5 -31t-31.5 -13
q-18 0 -31 13t-13 31q0 19 13 32t31 13q19 0 31.5 -13t12.5 -32z" />
    <glyph glyph-name="Eogonek" unicode="&#x118;" horiz-adv-x="457" 
d="M397 617h-229v-240h229v-68h-229v-241h229v-68q-28 0 -48 -19.5t-20 -47.5q0 -29 20 -48.5t48 -19.5v-56q-51 0 -88 36q-36 36 -36 88q0 38 20 67h-193v685h297v-68z" />
    <glyph glyph-name="eogonek" unicode="&#x119;" 
d="M505 191h-398q10 -59 57 -100q46 -40 109 -40q68 0 118 49l46 -46q-39 -39 -93 -57q-22 -6 -35 -23.5t-13 -40.5q0 -29 20 -48.5t48 -19.5v-56q-50 0 -88 36q-36 36 -36 88q0 29 13 54q-89 6 -151 73.5t-62 158.5q0 95 69 164t164 69q94 0 162 -66.5t71 -166.5
q0 -21 -1 -28zM107 246h332q-10 59 -57 100t-109 41t-109 -41t-57 -100z" />
    <glyph glyph-name="Ecaron" unicode="&#x11a;" horiz-adv-x="457" 
d="M100 0v685h297v-68h-229v-240h229v-68h-229v-241h229v-68h-297zM385 845l-137 -136l-136 136l44 44l92 -93l93 93z" />
    <glyph glyph-name="ecaron" unicode="&#x11b;" 
d="M273 -14q-95 0 -164 69t-69 164t69 164t164 69q94 0 162 -66.5t71 -166.5q0 -21 -1 -28h-398q10 -59 57 -100q46 -40 109 -40q68 0 118 49l46 -46q-68 -68 -164 -68zM107 246h332q-10 59 -57 100t-109 41t-109 -41t-57 -100zM410 618l-137 -136l-136 136l44 44l92 -93
l93 93z" />
    <glyph glyph-name="Gcircumflex" unicode="&#x11c;" horiz-adv-x="766" 
d="M399 275h355q-22 -124 -123.5 -207.5t-226.5 -81.5q-145 -3 -252.5 105t-104.5 251q-3 144 104.5 252t252.5 105q147 0 252 -105l-49 -49q-87 84 -203 84q-116 2 -202 -84.5t-84 -202.5q-2 -116 84 -202t202 -84q80 0 147.5 41t104.5 110h-257v68zM268 752l136 137
l137 -137l-44 -43l-93 92l-92 -92z" />
    <glyph glyph-name="gcircumflex" unicode="&#x11d;" horiz-adv-x="525" 
d="M252 -199q-26 0 -38 4v65q18 -3 34 -3q64 0 105.5 40.5t41.5 106.5v18q-53 -46 -129 -46q-91 0 -158.5 69t-67.5 164t67.5 164t158.5 69q76 0 129 -46v32h65v-424q0 -97 -60.5 -155t-147.5 -58zM273 387q-67 0 -117.5 -50.5t-50.5 -117.5q0 -68 49.5 -117.5t118.5 -49.5
q71 0 122 53v229q-53 53 -122 53zM137 530l136 137l137 -137l-44 -43l-93 92l-92 -92z" />
    <glyph glyph-name="Gbreve" unicode="&#x11e;" horiz-adv-x="766" 
d="M399 275h355q-22 -124 -123.5 -207.5t-226.5 -81.5q-145 -3 -252.5 105t-104.5 251q-3 144 104.5 252t252.5 105q147 0 252 -105l-49 -49q-87 84 -203 84q-116 2 -202 -84.5t-84 -202.5q-2 -116 84 -202t202 -84q80 0 147.5 41t104.5 110h-257v68zM535 853l43 -44
q-72 -72 -174 -72q-101 0 -173 72l44 44q54 -54 129 -54q77 0 131 54z" />
    <glyph glyph-name="gbreve" unicode="&#x11f;" horiz-adv-x="525" 
d="M252 -199q-26 0 -38 4v65q18 -3 34 -3q64 0 105.5 40.5t41.5 106.5v18q-53 -46 -129 -46q-91 0 -158.5 69t-67.5 164t67.5 164t158.5 69q76 0 129 -46v32h65v-424q0 -97 -60.5 -155t-147.5 -58zM273 387q-67 0 -117.5 -50.5t-50.5 -117.5q0 -68 49.5 -117.5t118.5 -49.5
q71 0 122 53v229q-53 53 -122 53zM404 627l43 -44q-72 -72 -174 -72q-101 0 -173 72l44 44q54 -54 129 -54q77 0 131 54z" />
    <glyph glyph-name="Gdotaccent" unicode="&#x120;" horiz-adv-x="766" 
d="M399 275h355q-22 -124 -123.5 -207.5t-226.5 -81.5q-145 -3 -252.5 105t-104.5 251q-3 144 104.5 252t252.5 105q147 0 252 -105l-49 -49q-87 84 -203 84q-116 2 -202 -84.5t-84 -202.5q-2 -116 84 -202t202 -84q80 0 147.5 41t104.5 110h-257v68zM448 792
q0 -18 -12.5 -31t-31.5 -13q-18 0 -31 13t-13 31q0 19 13 32t31 13q19 0 31.5 -13t12.5 -32z" />
    <glyph glyph-name="gdotaccent" unicode="&#x121;" horiz-adv-x="525" 
d="M252 -199q-26 0 -38 4v65q18 -3 34 -3q64 0 105.5 40.5t41.5 106.5v18q-53 -46 -129 -46q-91 0 -158.5 69t-67.5 164t67.5 164t158.5 69q76 0 129 -46v32h65v-424q0 -97 -60.5 -155t-147.5 -58zM273 387q-67 0 -117.5 -50.5t-50.5 -117.5q0 -68 49.5 -117.5t118.5 -49.5
q71 0 122 53v229q-53 53 -122 53zM317 566q0 -18 -12.5 -31t-31.5 -13q-18 0 -31 13t-13 31q0 19 13 32t31 13q19 0 31.5 -13t12.5 -32z" />
    <glyph glyph-name="Gcommaaccent" unicode="&#x122;" horiz-adv-x="766" 
d="M399 275h355q-22 -124 -123.5 -207.5t-226.5 -81.5q-145 -3 -252.5 105t-104.5 251q-3 144 104.5 252t252.5 105q147 0 252 -105l-49 -49q-87 84 -203 84q-116 2 -202 -84.5t-84 -202.5q-2 -116 84 -202t202 -84q80 0 147.5 41t104.5 110h-257v68zM353 -212v162h102v-93z
" />
    <glyph glyph-name="gcommaaccent" unicode="&#x123;" horiz-adv-x="525" 
d="M252 -199q-26 0 -38 4v65q18 -3 34 -3q64 0 105.5 40.5t41.5 106.5v18q-53 -46 -129 -46q-91 0 -158.5 69t-67.5 164t67.5 164t158.5 69q76 0 129 -46v32h65v-424q0 -97 -60.5 -155t-147.5 -58zM273 387q-67 0 -117.5 -50.5t-50.5 -117.5q0 -68 49.5 -117.5t118.5 -49.5
q71 0 122 53v229q-53 53 -122 53zM325 651v-153h-102v84z" />
    <glyph glyph-name="Hcircumflex" unicode="&#x124;" horiz-adv-x="563" 
d="M395 0v309h-227v-309h-68v685h68v-308h227v308h68v-685h-68zM145 752l136 137l137 -137l-44 -43l-93 92l-92 -92z" />
    <glyph glyph-name="hcircumflex" unicode="&#x125;" horiz-adv-x="431" 
d="M236 452q57 0 93.5 -40t36.5 -106v-306h-65v298q0 41 -22 65t-59 24q-29 0 -54 -15.5t-36 -39.5v-332h-65v685h65v-283q40 50 106 50zM-39 777l136 137l137 -137l-44 -43l-93 92l-92 -92z" />
    <glyph glyph-name="Hbar" unicode="&#x126;" horiz-adv-x="563" 
d="M395 0v309h-227v-309h-68v502h-51v62h51v121h68v-121h227v121h68v-121h50v-62h-50v-502h-68zM395 377v125h-227v-125h227z" />
    <glyph glyph-name="hbar" unicode="&#x127;" horiz-adv-x="431" 
d="M130 595h191v-62h-191v-131q40 50 106 50q57 0 93.5 -40t36.5 -106v-306h-65v298q0 41 -22 65t-59 24q-29 0 -54 -15.5t-36 -39.5v-332h-65v533h-65v62h65v90h65v-90z" />
    <glyph glyph-name="Itilde" unicode="&#x128;" horiz-adv-x="268" 
d="M100 0v685h68v-685h-68zM120 765q-25 19 -43 19t-30 -12t-12 -29h-62v4q0 44 29.5 71.5t74.5 27.5q31 0 69 -27q28 -19 45 -19q18 0 30 12.5t12 29.5h62v-3q0 -45 -29.5 -73t-74.5 -28q-31 0 -71 27z" />
    <glyph glyph-name="itilde" unicode="&#x129;" horiz-adv-x="196" 
d="M65 0v438h65v-438h-65zM83 539q-25 19 -43 19t-30 -12t-12 -29h-62v4q0 44 29.5 71.5t74.5 27.5q31 0 69 -27q28 -19 45 -19q18 0 30 12.5t12 29.5h62v-3q0 -45 -29.5 -73t-74.5 -28q-31 0 -71 27z" />
    <glyph glyph-name="Imacron" unicode="&#x12a;" horiz-adv-x="268" 
d="M100 0v685h68v-685h-68zM295 761h-321v62h321v-62z" />
    <glyph glyph-name="imacron" unicode="&#x12b;" horiz-adv-x="196" 
d="M65 0v438h65v-438h-65zM258 535h-321v62h321v-62z" />
    <glyph glyph-name="Ibreve" unicode="&#x12c;" horiz-adv-x="268" 
d="M100 0v685h68v-685h-68zM265 853l43 -44q-72 -72 -174 -72q-101 0 -173 72l44 44q54 -54 129 -54q77 0 131 54z" />
    <glyph glyph-name="ibreve" unicode="&#x12d;" horiz-adv-x="196" 
d="M65 0v438h65v-438h-65zM228 627l43 -44q-72 -72 -174 -72q-101 0 -173 72l44 44q54 -54 129 -54q77 0 131 54z" />
    <glyph glyph-name="Iogonek" unicode="&#x12e;" horiz-adv-x="268" 
d="M100 685h68v-685q-28 0 -48 -19.5t-20 -47.5q0 -29 20 -48.5t48 -19.5v-56q-50 0 -88 36q-36 36 -36 88q0 66 56 103v649z" />
    <glyph glyph-name="iogonek" unicode="&#x12f;" horiz-adv-x="196" 
d="M65 616h65v-100h-65v100zM65 38v400h65v-438q-28 0 -48 -19.5t-20 -47.5q0 -29 20 -48.5t48 -19.5v-56q-50 0 -88 36q-36 36 -36 88q0 67 59 105z" />
    <glyph glyph-name="Idot" unicode="&#x130;" horiz-adv-x="268" 
d="M100 0v685h68v-685h-68zM178 792q0 -18 -12.5 -31t-31.5 -13q-18 0 -31 13t-13 31q0 19 13 32t31 13q19 0 31.5 -13t12.5 -32z" />
    <glyph glyph-name="dotlessi" unicode="&#x131;" horiz-adv-x="196" 
d="M65 0v438h65v-438h-65z" />
    <glyph glyph-name="IJ" unicode="&#x132;" horiz-adv-x="617" 
d="M100 0v685h68v-685h-68zM314 -9q-16 0 -26 3v70q10 -5 26 -5q60 0 98 37.5t38 97.5v491h67v-491q0 -87 -55.5 -145t-147.5 -58z" />
    <glyph glyph-name="ij" unicode="&#x133;" horiz-adv-x="391" 
d="M65 516v100h65v-100h-65zM65 0v438h65v-438h-65zM261 516v100h65v-100h-65zM207 -199q-11 0 -23 5v64l16 -2q27 0 44 17.5t17 45.5v507h65v-507q0 -58 -32.5 -94t-86.5 -36z" />
    <glyph glyph-name="Jcircumflex" unicode="&#x134;" horiz-adv-x="346" 
d="M43 -9q-15 0 -26 3v70q10 -5 26 -5q60 0 98 37.5t38 97.5v491h67v-491q0 -87 -55.5 -145t-147.5 -58zM76 752l136 137l137 -137l-44 -43l-93 92l-92 -92z" />
    <glyph glyph-name="jcircumflex" unicode="&#x135;" horiz-adv-x="195" 
d="M11 -199q-11 0 -23 5v64l16 -2q27 0 44 17.5t17 45.5v507h65v-507q0 -58 -32.5 -94t-86.5 -36zM-39 530l136 137l137 -137l-44 -43l-93 92l-92 -92z" />
    <glyph glyph-name="Kcommaaccent" unicode="&#x136;" horiz-adv-x="454" 
d="M374 0l-182 302l-24 -41v-261h-68v685h68v-294l174 294h80l-190 -316l221 -369h-79zM204 -212v162h102v-93z" />
    <glyph glyph-name="kcommaaccent" unicode="&#x137;" horiz-adv-x="371" 
d="M273 0l-129 175l-14 -19v-156h-65v685h65v-424l129 177h84l-157 -209l170 -229h-83zM134 -212v162h102v-93z" />
    <glyph glyph-name="kgreenlandic" unicode="&#x138;" horiz-adv-x="371" 
d="M273 0l-129 175l-14 -19v-156h-65v438h65v-177l129 177h84l-157 -209l170 -229h-83z" />
    <glyph glyph-name="Lacute" unicode="&#x139;" horiz-adv-x="412" 
d="M100 0v685h68v-617h229v-68h-297zM163 752l136 137l44 -44l-136 -136z" />
    <glyph glyph-name="lacute" unicode="&#x13a;" horiz-adv-x="195" 
d="M65 0v685h65v-685h-65zM7 776l136 137l44 -44l-136 -136z" />
    <glyph glyph-name="Lcommaaccent" unicode="&#x13b;" horiz-adv-x="412" 
d="M100 0v685h68v-617h229v-68h-297zM196 -212v162h102v-93z" />
    <glyph glyph-name="lcommaaccent" unicode="&#x13c;" horiz-adv-x="195" 
d="M65 0v685h65v-685h-65zM47 -212v162h102v-93z" />
    <glyph glyph-name="Lcaron" unicode="&#x13d;" horiz-adv-x="412" 
d="M100 0v685h68v-617h229v-68h-297zM295 500v185h102v-66z" />
    <glyph glyph-name="lcaron" unicode="&#x13e;" horiz-adv-x="271" 
d="M65 0v685h65v-685h-65zM182 500v185h102v-66z" />
    <glyph glyph-name="Ldot" unicode="&#x13f;" horiz-adv-x="412" 
d="M100 0v685h68v-617h229v-68h-297zM289 290v103h102v-103h-102z" />
    <glyph glyph-name="ldot" unicode="&#x140;" horiz-adv-x="297" 
d="M65 0v685h65v-685h-65zM195 168v103h102v-103h-102z" />
    <glyph glyph-name="Lslash" unicode="&#x141;" horiz-adv-x="412" 
d="M100 0v295l-75 -32v62l75 32v328h68v-298l124 53v-63l-124 -53v-256h229v-68h-297z" />
    <glyph glyph-name="lslash" unicode="&#x142;" horiz-adv-x="195" 
d="M65 0v172l-65 -28v62l65 28v451h65v-423l65 28v-62l-65 -28v-200h-65z" />
    <glyph glyph-name="Nacute" unicode="&#x143;" horiz-adv-x="558" 
d="M168 462v-462h-68v704l290 -483v464h68v-704zM189 752l136 137l44 -44l-136 -136z" />
    <glyph glyph-name="nacute" unicode="&#x144;" horiz-adv-x="431" 
d="M236 452q57 0 93.5 -40t36.5 -106v-306h-65v298q0 41 -22 65t-59 24q-29 0 -54 -15.5t-36 -39.5v-332h-65v438h65v-36q40 50 106 50zM125 529l136 137l44 -44l-136 -136z" />
    <glyph glyph-name="Ncommaaccent" unicode="&#x145;" horiz-adv-x="558" 
d="M168 462v-462h-68v704l290 -483v464h68v-704zM228 -212v162h102v-93z" />
    <glyph glyph-name="ncommaaccent" unicode="&#x146;" horiz-adv-x="431" 
d="M236 452q57 0 93.5 -40t36.5 -106v-306h-65v298q0 41 -22 65t-59 24q-29 0 -54 -15.5t-36 -39.5v-332h-65v438h65v-36q40 50 106 50zM164 -212v162h102v-93z" />
    <glyph glyph-name="Ncaron" unicode="&#x147;" horiz-adv-x="558" 
d="M168 462v-462h-68v704l290 -483v464h68v-704zM416 845l-137 -136l-136 136l44 44l92 -93l93 93z" />
    <glyph glyph-name="ncaron" unicode="&#x148;" horiz-adv-x="431" 
d="M236 452q57 0 93.5 -40t36.5 -106v-306h-65v298q0 41 -22 65t-59 24q-29 0 -54 -15.5t-36 -39.5v-332h-65v438h65v-36q40 50 106 50zM352 618l-137 -136l-136 136l44 44l92 -93l93 93z" />
    <glyph glyph-name="napostrophe" unicode="&#x149;" horiz-adv-x="431" 
d="M236 452q57 0 93.5 -40t36.5 -106v-306h-65v298q0 41 -22 65t-59 24q-29 0 -54 -15.5t-36 -39.5v-332h-65v438h65v-36q40 50 106 50zM65 500v185h102v-66z" />
    <glyph glyph-name="Eng" unicode="&#x14a;" horiz-adv-x="558" 
d="M229 -196v70q10 -5 26 -5q59 0 97 37.5t38 97.5v89l-222 369v-462h-68v704l290 -483v464h68v-681q0 -87 -55.5 -145t-147.5 -58q-15 0 -26 3z" />
    <glyph glyph-name="eng" unicode="&#x14b;" horiz-adv-x="431" 
d="M65 438h65v-36q40 50 106 50q57 0 93.5 -40t36.5 -106v-375q0 -58 -32.5 -94t-86.5 -36q-11 0 -23 5v64l16 -2q27 0 44 17.5t17 45.5v367q0 41 -22 65t-59 24q-29 0 -54 -15.5t-36 -39.5v-332h-65v438z" />
    <glyph glyph-name="Omacron" unicode="&#x14c;" horiz-adv-x="808" 
d="M47 342q-3 144 104.5 252t252.5 105q144 3 252 -105t105 -252q3 -144 -105 -251.5t-252 -104.5q-145 -3 -252.5 104.5t-104.5 251.5zM690 342q2 116 -84 202.5t-202 84.5q-116 2 -202 -84.5t-84 -202.5q-2 -116 84 -202t202 -84q116 -2 202 84t84 202zM565 761h-321v62
h321v-62z" />
    <glyph glyph-name="omacron" unicode="&#x14d;" 
d="M273 452q95 0 164 -69t69 -164t-69 -164t-164 -69t-164 69t-69 164t69 164t164 69zM441 219q0 67 -50.5 117.5t-117.5 50.5t-117.5 -50.5t-50.5 -117.5t50.5 -117.5t117.5 -50.5t117.5 50.5t50.5 117.5zM434 535h-321v62h321v-62z" />
    <glyph glyph-name="Obreve" unicode="&#x14e;" horiz-adv-x="808" 
d="M47 342q-3 144 104.5 252t252.5 105q144 3 252 -105t105 -252q3 -144 -105 -251.5t-252 -104.5q-145 -3 -252.5 104.5t-104.5 251.5zM690 342q2 116 -84 202.5t-202 84.5q-116 2 -202 -84.5t-84 -202.5q-2 -116 84 -202t202 -84q116 -2 202 84t84 202zM535 853l43 -44
q-72 -72 -174 -72q-101 0 -173 72l44 44q54 -54 129 -54q77 0 131 54z" />
    <glyph glyph-name="obreve" unicode="&#x14f;" 
d="M273 452q95 0 164 -69t69 -164t-69 -164t-164 -69t-164 69t-69 164t69 164t164 69zM441 219q0 67 -50.5 117.5t-117.5 50.5t-117.5 -50.5t-50.5 -117.5t50.5 -117.5t117.5 -50.5t117.5 50.5t50.5 117.5zM404 627l43 -44q-72 -72 -174 -72q-101 0 -173 72l44 44
q54 -54 129 -54q77 0 131 54z" />
    <glyph glyph-name="Ohungarumlaut" unicode="&#x150;" horiz-adv-x="808" 
d="M47 342q-3 144 104.5 252t252.5 105q144 3 252 -105t105 -252q3 -144 -105 -251.5t-252 -104.5q-145 -3 -252.5 104.5t-104.5 251.5zM690 342q2 116 -84 202.5t-202 84.5q-116 2 -202 -84.5t-84 -202.5q-2 -116 84 -202t202 -84q116 -2 202 84t84 202zM331 705l-55 27
l72 147l55 -27zM460 705l-55 27l72 147l55 -27z" />
    <glyph glyph-name="ohungarumlaut" unicode="&#x151;" 
d="M273 452q95 0 164 -69t69 -164t-69 -164t-164 -69t-164 69t-69 164t69 164t164 69zM441 219q0 67 -50.5 117.5t-117.5 50.5t-117.5 -50.5t-50.5 -117.5t50.5 -117.5t117.5 -50.5t117.5 50.5t50.5 117.5zM200 479l-55 27l72 147l55 -27zM329 479l-55 27l72 147l55 -27z
" />
    <glyph glyph-name="OE" unicode="&#x152;" horiz-adv-x="1050" 
d="M693 0v153q-45 -79 -121.5 -123t-167.5 -44q-145 -3 -252.5 105t-104.5 251q-3 144 104.5 252t252.5 105q92 0 168 -44.5t121 -123.5v154h297v-68h-229v-240h229v-68h-229v-241h229v-68h-297zM690 342q2 116 -84 202.5t-202 84.5q-116 2 -202 -84.5t-84 -202.5
q-2 -116 84 -202t202 -84q116 -2 202 84t84 202z" />
    <glyph glyph-name="oe" unicode="&#x153;" horiz-adv-x="848" 
d="M273 452q87 0 151 -56q67 56 151 56q94 0 162 -66.5t71 -166.5q0 -21 -1 -28h-303q-6 -57 -37 -101q47 -39 108 -39q67 0 118 49l46 -46q-68 -68 -164 -68q-89 0 -152 55q-64 -55 -150 -55q-95 0 -164 69t-69 164t69 164t164 69zM441 219q0 67 -50.5 117.5t-117.5 50.5
t-117.5 -50.5t-50.5 -117.5t50.5 -117.5t117.5 -50.5t117.5 50.5t50.5 117.5zM575 387q-59 0 -108 -39q31 -46 37 -102h237q-10 59 -57 100t-109 41z" />
    <glyph glyph-name="Racute" unicode="&#x154;" horiz-adv-x="507" 
d="M258 217l189 -217h-91l-188 214v-214h-68v685h105q97 0 167 -70t70 -167q0 -83 -52 -148t-132 -83zM205 617h-37v-338h37q69 0 119 50t50 119t-50 119t-119 50zM163 752l136 137l44 -44l-136 -136z" />
    <glyph glyph-name="racute" unicode="&#x155;" horiz-adv-x="246" 
d="M236 387h-3q-31 0 -60.5 -18.5t-42.5 -46.5v-322h-65v438h65v-37q37 51 106 51v-65zM60 529l136 137l44 -44l-136 -136z" />
    <glyph glyph-name="Rcommaaccent" unicode="&#x156;" horiz-adv-x="507" 
d="M258 217l189 -217h-91l-188 214v-214h-68v685h105q97 0 167 -70t70 -167q0 -83 -52 -148t-132 -83zM205 617h-37v-338h37q69 0 119 50t50 119t-50 119t-119 50zM202 -212v162h102v-93z" />
    <glyph glyph-name="rcommaaccent" unicode="&#x157;" horiz-adv-x="246" 
d="M236 387h-3q-31 0 -60.5 -18.5t-42.5 -46.5v-322h-65v438h65v-37q37 51 106 51v-65zM47 -212v162h102v-93z" />
    <glyph glyph-name="Rcaron" unicode="&#x158;" horiz-adv-x="507" 
d="M258 217l189 -217h-91l-188 214v-214h-68v685h105q97 0 167 -70t70 -167q0 -83 -52 -148t-132 -83zM205 617h-37v-338h37q69 0 119 50t50 119t-50 119t-119 50zM390 845l-137 -136l-136 136l44 44l92 -93l93 93z" />
    <glyph glyph-name="rcaron" unicode="&#x159;" horiz-adv-x="246" 
d="M236 387h-3q-31 0 -60.5 -18.5t-42.5 -46.5v-322h-65v438h65v-37q37 51 106 51v-65zM287 618l-137 -136l-136 136l44 44l92 -93l93 93z" />
    <glyph glyph-name="Sacute" unicode="&#x15a;" horiz-adv-x="329" 
d="M50 -6v70q12 -5 26 -5q60 0 98 37.5t38 97.5q0 35 -14.5 62.5t-49.5 70.5q-43 52 -60.5 87.5t-17.5 85.5q0 84 56.5 139t139.5 55h5v-66h-5q-55 0 -92 -36t-37 -92q0 -32 14.5 -60t48.5 -69q43 -53 61 -90t18 -87q0 -90 -56.5 -146.5t-146.5 -56.5q-18 0 -26 3zM74 752
l136 137l44 -44l-136 -136z" />
    <glyph glyph-name="sacute" unicode="&#x15b;" horiz-adv-x="239" 
d="M40 -12v66q9 -3 20 -3q32 0 51.5 20t19.5 51q0 33 -38 83q-27 38 -38 63t-11 58q0 54 38 90t96 36h3v-65h-3q-28 0 -46.5 -18.5t-18.5 -48.5t37 -82q26 -34 37.5 -59.5t11.5 -59.5q0 -57 -39.5 -95t-99.5 -38q-6 0 -20 2zM29 543l136 137l44 -44l-136 -136z" />
    <glyph glyph-name="Scircumflex" unicode="&#x15c;" horiz-adv-x="329" 
d="M50 -6v70q12 -5 26 -5q60 0 98 37.5t38 97.5q0 35 -14.5 62.5t-49.5 70.5q-43 52 -60.5 87.5t-17.5 85.5q0 84 56.5 139t139.5 55h5v-66h-5q-55 0 -92 -36t-37 -92q0 -32 14.5 -60t48.5 -69q43 -53 61 -90t18 -87q0 -90 -56.5 -146.5t-146.5 -56.5q-18 0 -26 3zM28 752
l136 137l137 -137l-44 -43l-93 92l-92 -92z" />
    <glyph glyph-name="scircumflex" unicode="&#x15d;" horiz-adv-x="239" 
d="M40 -12v66q9 -3 20 -3q32 0 51.5 20t19.5 51q0 33 -38 83q-27 38 -38 63t-11 58q0 54 38 90t96 36h3v-65h-3q-28 0 -46.5 -18.5t-18.5 -48.5t37 -82q26 -34 37.5 -59.5t11.5 -59.5q0 -57 -39.5 -95t-99.5 -38q-6 0 -20 2zM-17 544l136 137l137 -137l-44 -43l-93 92
l-92 -92z" />
    <glyph glyph-name="Scedilla" unicode="&#x15e;" horiz-adv-x="329" 
d="M50 -6v70q12 -5 26 -5q60 0 98 37.5t38 97.5q0 35 -14.5 62.5t-49.5 70.5q-43 52 -60.5 87.5t-17.5 85.5q0 84 56.5 139t139.5 55h5v-66h-5q-55 0 -92 -36t-37 -92q0 -32 14.5 -60t48.5 -69q43 -53 61 -90t18 -87q0 -90 -56.5 -146.5t-146.5 -56.5q-18 0 -26 3zM143 -100
q0 35 -23 56l44 44q41 -41 41 -100t-41 -100l-44 44q23 21 23 56z" />
    <glyph glyph-name="scedilla" unicode="&#x15f;" horiz-adv-x="239" 
d="M121 -2q39 -40 39 -98q0 -59 -41 -100l-44 44q23 21 23 56t-23 56l40 40q-27 -10 -55 -10q-6 0 -20 2v66q9 -3 20 -3q32 0 51.5 20t19.5 51q0 33 -38 83q-27 38 -38 63t-11 58q0 54 38 90t96 36h3v-65h-3q-28 0 -46.5 -18.5t-18.5 -48.5t37 -82q26 -34 37.5 -59.5
t11.5 -59.5q0 -40 -21 -72.5t-57 -48.5z" />
    <glyph glyph-name="Scaron" unicode="&#x160;" horiz-adv-x="329" 
d="M50 -6v70q12 -5 26 -5q60 0 98 37.5t38 97.5q0 35 -14.5 62.5t-49.5 70.5q-43 52 -60.5 87.5t-17.5 85.5q0 84 56.5 139t139.5 55h5v-66h-5q-55 0 -92 -36t-37 -92q0 -32 14.5 -60t48.5 -69q43 -53 61 -90t18 -87q0 -90 -56.5 -146.5t-146.5 -56.5q-18 0 -26 3zM301 845
l-137 -136l-136 136l44 44l92 -93l93 93z" />
    <glyph glyph-name="scaron" unicode="&#x161;" horiz-adv-x="239" 
d="M40 -12v66q9 -3 20 -3q32 0 51.5 20t19.5 51q0 33 -38 83q-27 38 -38 63t-11 58q0 54 38 90t96 36h3v-65h-3q-28 0 -46.5 -18.5t-18.5 -48.5t37 -82q26 -34 37.5 -59.5t11.5 -59.5q0 -57 -39.5 -95t-99.5 -38q-6 0 -20 2zM256 632l-137 -136l-136 136l44 44l92 -93l93 93
z" />
    <glyph glyph-name="uni0162" unicode="&#x162;" horiz-adv-x="399" 
d="M233 617v-617h-68v617h-148v68h365v-68h-149zM148 -212v162h102v-93z" />
    <glyph glyph-name="uni0163" unicode="&#x163;" horiz-adv-x="240" 
d="M225 373h-78v-373h-66v373h-66v65h66v147l66 33v-180h78v-65zM63 -212v162h102v-93z" />
    <glyph glyph-name="Tcaron" unicode="&#x164;" horiz-adv-x="399" 
d="M233 617v-617h-68v617h-148v68h365v-68h-149zM336 845l-137 -136l-136 136l44 44l92 -93l93 93z" />
    <glyph glyph-name="tcaron" unicode="&#x165;" horiz-adv-x="295" 
d="M225 373h-78v-373h-66v373h-66v65h66v147l66 33v-180h78v-65zM193 500v185h102v-66z" />
    <glyph glyph-name="Tbar" unicode="&#x166;" horiz-adv-x="399" 
d="M360 277h-127v-277h-68v277h-126v62h126v278h-148v68h365v-68h-149v-278h127v-62z" />
    <glyph glyph-name="tbar" unicode="&#x167;" horiz-adv-x="240" 
d="M211 159h-64v-159h-66v159h-63v62h63v152h-66v65h66v147l66 33v-180h78v-65h-78v-152h64v-62z" />
    <glyph glyph-name="Utilde" unicode="&#x168;" horiz-adv-x="563" 
d="M100 172v513h68v-513q0 -46 33 -81q33 -33 80 -33t80 33q34 34 34 81v513h68v-513q0 -74 -54 -127.5t-128 -53.5t-127.5 53.5t-53.5 127.5zM267 765q-25 19 -43 19t-30 -12t-12 -29h-62v4q0 44 29.5 71.5t74.5 27.5q31 0 69 -27q28 -19 45 -19q18 0 30 12.5t12 29.5h62
v-3q0 -45 -29.5 -73t-74.5 -28q-31 0 -71 27z" />
    <glyph glyph-name="utilde" unicode="&#x169;" horiz-adv-x="431" 
d="M195 -14q-57 0 -93.5 40t-36.5 106v306h65v-298q0 -41 22 -65t59 -24q29 0 53.5 15t36.5 39v333h65v-438h-65v36q-40 -50 -106 -50zM201 540q-25 19 -43 19t-30 -12t-12 -29h-62v4q0 44 29.5 71.5t74.5 27.5q31 0 69 -27q28 -19 45 -19q18 0 30 12.5t12 29.5h62v-3
q0 -45 -29.5 -73t-74.5 -28q-31 0 -71 27z" />
    <glyph glyph-name="Umacron" unicode="&#x16a;" horiz-adv-x="563" 
d="M100 172v513h68v-513q0 -46 33 -81q33 -33 80 -33t80 33q34 34 34 81v513h68v-513q0 -74 -54 -127.5t-128 -53.5t-127.5 53.5t-53.5 127.5zM442 761h-321v62h321v-62z" />
    <glyph glyph-name="umacron" unicode="&#x16b;" horiz-adv-x="431" 
d="M195 -14q-57 0 -93.5 40t-36.5 106v306h65v-298q0 -41 22 -65t59 -24q29 0 53.5 15t36.5 39v333h65v-438h-65v36q-40 -50 -106 -50zM376 536h-321v62h321v-62z" />
    <glyph glyph-name="Ubreve" unicode="&#x16c;" horiz-adv-x="563" 
d="M100 172v513h68v-513q0 -46 33 -81q33 -33 80 -33t80 33q34 34 34 81v513h68v-513q0 -74 -54 -127.5t-128 -53.5t-127.5 53.5t-53.5 127.5zM412 853l43 -44q-72 -72 -174 -72q-101 0 -173 72l44 44q54 -54 129 -54q77 0 131 54z" />
    <glyph glyph-name="ubreve" unicode="&#x16d;" horiz-adv-x="431" 
d="M195 -14q-57 0 -93.5 40t-36.5 106v306h65v-298q0 -41 22 -65t59 -24q29 0 53.5 15t36.5 39v333h65v-438h-65v36q-40 -50 -106 -50zM346 628l43 -44q-72 -72 -174 -72q-101 0 -173 72l44 44q54 -54 129 -54q77 0 131 54z" />
    <glyph glyph-name="Uring" unicode="&#x16e;" horiz-adv-x="563" 
d="M100 172v513h68v-513q0 -46 33 -81q33 -33 80 -33t80 33q34 34 34 81v513h68v-513q0 -74 -54 -127.5t-128 -53.5t-127.5 53.5t-53.5 127.5zM182 808q0 41 29 70t70 29t70 -29t29 -70t-29 -70t-70 -29t-70 29t-29 70zM223 808q0 -24 17 -41t41 -17t41 17t17 41t-17 41
t-41 17t-41 -17t-17 -41z" />
    <glyph glyph-name="uring" unicode="&#x16f;" horiz-adv-x="431" 
d="M195 -14q-57 0 -93.5 40t-36.5 106v306h65v-298q0 -41 22 -65t59 -24q29 0 53.5 15t36.5 39v333h65v-438h-65v36q-40 -50 -106 -50zM116 568q0 41 29 70t70 29t70 -29t29 -70t-29 -70t-70 -29t-70 29t-29 70zM157 568q0 -24 17 -41t41 -17t41 17t17 41t-17 41t-41 17
t-41 -17t-17 -41z" />
    <glyph glyph-name="Uhungarumlaut" unicode="&#x170;" horiz-adv-x="563" 
d="M100 172v513h68v-513q0 -46 33 -81q33 -33 80 -33t80 33q34 34 34 81v513h68v-513q0 -74 -54 -127.5t-128 -53.5t-127.5 53.5t-53.5 127.5zM208 705l-55 27l72 147l55 -27zM337 705l-55 27l72 147l55 -27z" />
    <glyph glyph-name="uhungarumlaut" unicode="&#x171;" horiz-adv-x="431" 
d="M195 -14q-57 0 -93.5 40t-36.5 106v306h65v-298q0 -41 22 -65t59 -24q29 0 53.5 15t36.5 39v333h65v-438h-65v36q-40 -50 -106 -50zM142 480l-55 27l72 147l55 -27zM271 480l-55 27l72 147l55 -27z" />
    <glyph glyph-name="Uogonek" unicode="&#x172;" horiz-adv-x="563" 
d="M395 685h68v-513q0 -61 -37.5 -109.5t-95.5 -64.5q-22 -7 -36 -24.5t-14 -40.5q0 -29 20 -48.5t48 -19.5v-56q-50 0 -88 36q-36 36 -36 88q0 33 17 62q-61 13 -102 64q-39 51 -39 113v513h68v-513q0 -46 33 -81q33 -33 80 -33t80 33q34 34 34 81v513z" />
    <glyph glyph-name="uogonek" unicode="&#x173;" horiz-adv-x="431" 
d="M298 -67q0 -29 20 -48.5t48 -19.5v-56q-50 0 -88 33q-36 33 -36 80q0 59 59 97v25q-38 -58 -106 -58q-57 0 -93.5 40t-36.5 106v306h65v-298q0 -41 22 -65t59 -24q29 0 53.5 15t36.5 39v333h65v-438h-2q-27 0 -46.5 -19.5t-19.5 -47.5z" />
    <glyph glyph-name="Wcircumflex" unicode="&#x174;" horiz-adv-x="777" 
d="M547 -21l-158 488l-158 -488l-230 706h72l158 -492l156 492h4l156 -492l158 492h71zM253 752l136 137l137 -137l-44 -43l-93 92l-92 -92z" />
    <glyph glyph-name="wcircumflex" unicode="&#x175;" horiz-adv-x="573" 
d="M388 146l114 292h71l-184 -459l-103 295l-103 -295l-183 459h71l113 -292l101 294h2zM150 530l136 137l137 -137l-44 -43l-93 92l-92 -92z" />
    <glyph glyph-name="Ycircumflex" unicode="&#x176;" horiz-adv-x="532" 
d="M300 302v-302h-68v302l-231 383h79l186 -307l185 307h79zM130 752l136 137l137 -137l-44 -43l-93 92l-92 -92z" />
    <glyph glyph-name="ycircumflex" unicode="&#x177;" horiz-adv-x="373" 
d="M0 438h71l116 -298l115 298h71l-248 -623h-71l99 241zM51 530l136 137l137 -137l-44 -43l-93 92l-92 -92z" />
    <glyph glyph-name="Ydieresis" unicode="&#x178;" horiz-adv-x="532" 
d="M300 302v-302h-68v302l-231 383h79l186 -307l185 307h79zM233 792q0 -18 -12.5 -31t-31.5 -13q-18 0 -31 13t-13 31q0 19 13 32t31 13q19 0 31.5 -13t12.5 -32zM388 792q0 -18 -13 -31t-31 -13t-31 13t-13 31q0 19 13 32t31 13t31 -13t13 -32z" />
    <glyph glyph-name="Zacute" unicode="&#x179;" horiz-adv-x="464" 
d="M25 0l305 617h-296v68h405l-305 -617h287v-68h-396zM137 752l136 137l44 -44l-136 -136z" />
    <glyph glyph-name="zacute" unicode="&#x17a;" horiz-adv-x="356" 
d="M27 0l195 373h-186v65h293l-196 -373h194v-65h-300zM91 529l136 137l44 -44l-136 -136z" />
    <glyph glyph-name="Zdotaccent" unicode="&#x17b;" horiz-adv-x="464" 
d="M25 0l305 617h-296v68h405l-305 -617h287v-68h-396zM271 792q0 -18 -12.5 -31t-31.5 -13q-18 0 -31 13t-13 31q0 19 13 32t31 13q19 0 31.5 -13t12.5 -32z" />
    <glyph glyph-name="zdotaccent" unicode="&#x17c;" horiz-adv-x="356" 
d="M27 0l195 373h-186v65h293l-196 -373h194v-65h-300zM225 566q0 -18 -12.5 -31t-31.5 -13q-18 0 -31 13t-13 31q0 19 13 32t31 13q19 0 31.5 -13t12.5 -32z" />
    <glyph glyph-name="Zcaron" unicode="&#x17d;" horiz-adv-x="464" 
d="M25 0l305 617h-296v68h405l-305 -617h287v-68h-396zM364 845l-137 -136l-136 136l44 44l92 -93l93 93z" />
    <glyph glyph-name="zcaron" unicode="&#x17e;" horiz-adv-x="356" 
d="M27 0l195 373h-186v65h293l-196 -373h194v-65h-300zM318 618l-137 -136l-136 136l44 44l92 -93l93 93z" />
    <glyph glyph-name="florin" unicode="&#x192;" horiz-adv-x="507" 
d="M60 376h162v120q0 86 54.5 142t146.5 56h5v-66h-5q-60 0 -97 -36t-37 -96v-120h158v-68h-158v-114q0 -87 -55.5 -145t-147.5 -58q-16 0 -26 3v70q10 -5 26 -5q60 0 98 37.5t38 97.5v114h-162v68z" />
    <glyph glyph-name="AEacute" unicode="&#x1fc;" horiz-adv-x="816" 
d="M0 0l458 685h298v-68h-229v-240h229v-68h-229v-241h229v-68h-297v99h-312l-65 -99h-82zM459 155v413l-274 -413h274zM403 752l136 137l44 -44l-136 -136z" />
    <glyph glyph-name="aeacute" unicode="&#x1fd;" horiz-adv-x="855" 
d="M266 452q76 0 129 -46v32h65v-32q53 46 129 46q89 2 157 -66.5t69 -166.5q0 -21 -1 -28h-354v-87q50 -53 122 -53q68 0 118 49l46 -46q-68 -68 -157 -68q-76 0 -129 46v-32h-65v32q-53 -46 -129 -46q-91 0 -158.5 69t-67.5 164t67.5 164t158.5 69zM395 105v229
q-53 53 -122 53q-67 0 -117.5 -50.5t-50.5 -117.5q0 -68 49.5 -117.5t118.5 -49.5q71 0 122 53zM582 387q-72 0 -122 -53v-88h288q-10 59 -57 100t-109 41zM337 529l136 137l44 -44l-136 -136z" />
    <glyph glyph-name="Oslashacute" unicode="&#x1fe;" horiz-adv-x="808" 
d="M761 342q3 -144 -105 -251.5t-252 -104.5q-127 0 -227 81l-62 -62l-48 48l62 62q-82 101 -82 227q-3 144 104.5 252t252.5 105q125 0 227 -81l62 62l48 -48l-62 -62q82 -101 82 -228zM118 342q0 -98 61 -177l402 403q-79 61 -177 61q-116 2 -202 -84.5t-84 -202.5z
M690 342q0 100 -61 177l-402 -402q79 -61 177 -61q116 -2 202 84t84 202zM314 752l136 137l44 -44l-136 -136z" />
    <glyph glyph-name="oslashacute" unicode="&#x1ff;" 
d="M506 414l-50 -50q50 -65 50 -145q0 -95 -69 -164t-164 -69q-80 0 -144 50l-50 -50l-39 39l50 50q-50 63 -50 144q0 95 69 164t164 69q82 0 144 -49l50 50zM136 122l234 234q-46 31 -97 31q-67 0 -117.5 -50.5t-50.5 -117.5q0 -54 31 -97zM441 219q0 52 -32 98l-234 -234
q46 -32 98 -32q67 0 117.5 50.5t50.5 117.5zM183 529l136 137l44 -44l-136 -136z" />
    <glyph glyph-name="Scommaaccent" unicode="&#x218;" horiz-adv-x="329" 
d="M50 -6v70q12 -5 26 -5q60 0 98 37.5t38 97.5q0 35 -14.5 62.5t-49.5 70.5q-43 52 -60.5 87.5t-17.5 85.5q0 84 56.5 139t139.5 55h5v-66h-5q-55 0 -92 -36t-37 -92q0 -32 14.5 -60t48.5 -69q43 -53 61 -90t18 -87q0 -90 -56.5 -146.5t-146.5 -56.5q-18 0 -26 3zM124 -212
v162h102v-93z" />
    <glyph glyph-name="scommaaccent" unicode="&#x219;" horiz-adv-x="239" 
d="M40 -12v66q9 -3 20 -3q32 0 51.5 20t19.5 51q0 33 -38 83q-27 38 -38 63t-11 58q0 54 38 90t96 36h3v-65h-3q-28 0 -46.5 -18.5t-18.5 -48.5t37 -82q26 -34 37.5 -59.5t11.5 -59.5q0 -57 -39.5 -95t-99.5 -38q-6 0 -20 2zM68 -212v162h102v-93z" />
    <glyph glyph-name="uni021A" unicode="&#x21a;" horiz-adv-x="399" 
d="M233 617v-617h-68v617h-148v68h365v-68h-149zM148 -212v162h102v-93z" />
    <glyph glyph-name="uni021B" unicode="&#x21b;" horiz-adv-x="240" 
d="M225 373h-78v-373h-66v373h-66v65h66v147l66 33v-180h78v-65zM63 -212v162h102v-93z" />
    <glyph glyph-name="uni0237" unicode="&#x237;" horiz-adv-x="195" 
d="M11 -199q-11 0 -23 5v64l16 -2q27 0 44 17.5t17 45.5v507h65v-507q0 -58 -32.5 -94t-86.5 -36z" />
    <glyph glyph-name="circumflex" unicode="&#x2c6;" horiz-adv-x="321" 
d="M24 530l136 137l137 -137l-44 -43l-93 92l-92 -92z" />
    <glyph glyph-name="caron" unicode="&#x2c7;" horiz-adv-x="321" 
d="M297 618l-137 -136l-136 136l44 44l92 -93l93 93z" />
    <glyph glyph-name="breve" unicode="&#x2d8;" horiz-adv-x="395" 
d="M328 627l43 -44q-72 -72 -174 -72q-101 0 -173 72l44 44q54 -54 129 -54q77 0 131 54z" />
    <glyph glyph-name="dotaccent" unicode="&#x2d9;" horiz-adv-x="136" 
d="M112 566q0 -18 -12.5 -31t-31.5 -13q-18 0 -31 13t-13 31q0 19 13 32t31 13q19 0 31.5 -13t12.5 -32z" />
    <glyph glyph-name="ring" unicode="&#x2da;" horiz-adv-x="246" 
d="M24 567q0 41 29 70t70 29t70 -29t29 -70t-29 -70t-70 -29t-70 29t-29 70zM65 567q0 -24 17 -41t41 -17t41 17t17 41t-17 41t-41 17t-41 -17t-17 -41z" />
    <glyph glyph-name="ogonek" unicode="&#x2db;" horiz-adv-x="183" 
d="M24 -67q0 49 37 86.5t87 37.5v-57q-28 0 -48 -19.5t-20 -47.5q0 -29 20 -48.5t48 -19.5v-56q-50 0 -88 36q-36 36 -36 88z" />
    <glyph glyph-name="tilde" unicode="&#x2dc;" horiz-adv-x="370" 
d="M171 539q-25 19 -43 19t-30 -12t-12 -29h-62v4q0 44 29.5 71.5t74.5 27.5q31 0 69 -27q28 -19 45 -19q18 0 30 12.5t12 29.5h62v-3q0 -45 -29.5 -73t-74.5 -28q-31 0 -71 27z" />
    <glyph glyph-name="hungarumlaut" unicode="&#x2dd;" horiz-adv-x="304" 
d="M79 479l-55 27l72 147l55 -27zM208 479l-55 27l72 147l55 -27z" />
    <glyph glyph-name="uni0326" unicode="&#x326;" horiz-adv-x="0" 
d="M-177 -212v162h102v-93z" />
    <glyph glyph-name="Wgrave" unicode="&#x1e80;" horiz-adv-x="777" 
d="M547 -21l-158 488l-158 -488l-230 706h72l158 -492l156 492h4l156 -492l158 492h71zM435 709l-136 136l44 44l136 -137z" />
    <glyph glyph-name="wgrave" unicode="&#x1e81;" horiz-adv-x="573" 
d="M388 146l114 292h71l-184 -459l-103 295l-103 -295l-183 459h71l113 -292l101 294h2zM332 486l-136 136l44 44l136 -137z" />
    <glyph glyph-name="Wacute" unicode="&#x1e82;" horiz-adv-x="777" 
d="M547 -21l-158 488l-158 -488l-230 706h72l158 -492l156 492h4l156 -492l158 492h71zM299 752l136 137l44 -44l-136 -136z" />
    <glyph glyph-name="wacute" unicode="&#x1e83;" horiz-adv-x="573" 
d="M388 146l114 292h71l-184 -459l-103 295l-103 -295l-183 459h71l113 -292l101 294h2zM196 529l136 137l44 -44l-136 -136z" />
    <glyph glyph-name="Wdieresis" unicode="&#x1e84;" horiz-adv-x="777" 
d="M547 -21l-158 488l-158 -488l-230 706h72l158 -492l156 492h4l156 -492l158 492h71zM356 792q0 -18 -12.5 -31t-31.5 -13q-18 0 -31 13t-13 31q0 19 13 32t31 13q19 0 31.5 -13t12.5 -32zM511 792q0 -18 -13 -31t-31 -13t-31 13t-13 31q0 19 13 32t31 13t31 -13t13 -32z
" />
    <glyph glyph-name="wdieresis" unicode="&#x1e85;" horiz-adv-x="573" 
d="M388 146l114 292h71l-184 -459l-103 295l-103 -295l-183 459h71l113 -292l101 294h2zM253 566q0 -18 -12.5 -31t-31.5 -13q-18 0 -31 13t-13 31q0 19 13 32t31 13q19 0 31.5 -13t12.5 -32zM408 566q0 -18 -13 -31t-31 -13t-31 13t-13 31q0 19 13 32t31 13t31 -13t13 -32z
" />
    <glyph glyph-name="Ygrave" unicode="&#x1ef2;" horiz-adv-x="532" 
d="M300 302v-302h-68v302l-231 383h79l186 -307l185 307h79zM312 709l-136 136l44 44l136 -137z" />
    <glyph glyph-name="ygrave" unicode="&#x1ef3;" horiz-adv-x="373" 
d="M0 438h71l116 -298l115 298h71l-248 -623h-71l99 241zM233 486l-136 136l44 44l136 -137z" />
    <glyph glyph-name="endash" unicode="&#x2013;" horiz-adv-x="475" 
d="M20 190v58h435v-58h-435z" />
    <glyph glyph-name="emdash" unicode="&#x2014;" horiz-adv-x="620" 
d="M20 190v58h580v-58h-580z" />
    <glyph glyph-name="quoteleft" unicode="&#x2018;" horiz-adv-x="252" 
d="M75 619v66h102v-185z" />
    <glyph glyph-name="quoteright" unicode="&#x2019;" horiz-adv-x="252" 
d="M75 500v185h102v-66z" />
    <glyph glyph-name="quotesinglbase" unicode="&#x201a;" horiz-adv-x="252" 
d="M75 -81v184h102v-65z" />
    <glyph glyph-name="quotedblleft" unicode="&#x201c;" horiz-adv-x="428" 
d="M75 619v66h102v-185zM252 619v66h101v-185z" />
    <glyph glyph-name="quotedblright" unicode="&#x201d;" horiz-adv-x="428" 
d="M75 500v185h102v-66zM252 500v185h101v-66z" />
    <glyph glyph-name="quotedblbase" unicode="&#x201e;" horiz-adv-x="428" 
d="M75 -81v184h102v-65zM252 -81v184h101v-65z" />
    <glyph glyph-name="dagger" unicode="&#x2020;" horiz-adv-x="369" 
d="M215 500v-270h-61v270h-130v62h130v123h61v-123h130v-62h-130z" />
    <glyph glyph-name="daggerdbl" unicode="&#x2021;" horiz-adv-x="369" 
d="M154 292v208h-130v62h130v123h61v-123h130v-62h-130v-208h130v-62h-130v-123h-61v123h-130v62h130z" />
    <glyph glyph-name="bullet" unicode="&#x2022;" horiz-adv-x="323" 
d="M47 219q0 48 33.5 81.5t81.5 33.5q47 0 80 -34q34 -33 34 -81q0 -47 -34 -81q-33 -33 -80 -33q-48 0 -82 33q-33 34 -33 81z" />
    <glyph glyph-name="ellipsis" unicode="&#x2026;" horiz-adv-x="755" 
d="M75 0v103h102v-103h-102zM327 0v103h101v-103h-101zM578 0v103h102v-103h-102z" />
    <glyph glyph-name="perthousand" unicode="&#x2030;" horiz-adv-x="1092" 
d="M47 550q0 61 44 105t106 44q61 0 105 -44t44 -105t-44 -105t-105 -44q-62 0 -106 44t-44 105zM259 0h-67l295 685h67zM285 550q0 37 -26 62.5t-62 25.5q-37 0 -63 -25.5t-26 -62.5t26 -63t63 -26q36 0 62 26t26 63zM400 135q0 61 44 105t105 44t105 -44t44 -105t-44 -105
t-105 -44t-105 44t-44 105zM747 135q0 61 44 105t105 44t105 -44t44 -105t-44 -105t-105 -44t-105 44t-44 105zM637 135q0 37 -25.5 62.5t-62.5 25.5t-63 -25.5t-26 -62.5t26 -62.5t63 -25.5t62.5 25.5t25.5 62.5zM984 135q0 37 -26 62.5t-62 25.5q-37 0 -63 -25.5
t-26 -62.5t26 -62.5t63 -25.5q36 0 62 25.5t26 62.5z" />
    <glyph glyph-name="guilsinglleft" unicode="&#x2039;" horiz-adv-x="247" 
d="M153 10l-129 209l129 209h70l-128 -209l128 -209h-70z" />
    <glyph glyph-name="guilsinglright" unicode="&#x203a;" horiz-adv-x="247" 
d="M24 10l129 209l-129 209h71l128 -209l-128 -209h-71z" />
    <glyph glyph-name="fraction" unicode="&#x2044;" horiz-adv-x="425" 
d="M69 -69l-57 25l344 797l57 -24z" />
    <glyph glyph-name="Euro" unicode="&#x20ac;" horiz-adv-x="753" 
d="M684 140l49 -50q-104 -104 -252 -104q-113 0 -207 66.5t-130 170.5h-114v67h98q-4 20 -4 52t4 52h-98v68h115q36 104 129.5 170.5t206.5 66.5q150 0 252 -105l-49 -49q-84 84 -203 84q-85 0 -155 -46q-71 -47 -105 -121h280v-68h-301q-5 -32 -5 -52t5 -52h301v-67h-280
q35 -75 104 -121q70 -46 156 -46q119 0 203 84z" />
    <glyph glyph-name="uni2117" unicode="&#x2117;" horiz-adv-x="807" 
d="M47 342q-3 144 104.5 252t251.5 105q144 3 252 -105t105 -252q3 -143 -105 -251t-252 -105q-144 -3 -251.5 105t-104.5 251zM715 342q2 126 -92 220t-220 92q-127 2 -220.5 -92t-91.5 -220q-2 -127 91.5 -220.5t220.5 -91.5q126 -2 220 91.5t92 220.5zM398 258h-24v-136
h-66v441h90q63 0 108 -45t45 -108t-45 -107.5t-108 -44.5zM398 501h-24v-182h24q38 0 64.5 27t26.5 64q0 38 -26.5 64.5t-64.5 26.5z" />
    <glyph glyph-name="trademark" unicode="&#x2122;" horiz-adv-x="610" 
d="M485 342v205l-67 -85l-67 85v-205h-51v352l118 -148l117 148v-352h-50zM154 634v-292h-50v292h-66v51h182v-51h-66z" />
    <glyph glyph-name="minus" unicode="&#x2212;" horiz-adv-x="553" 
d="M20 313v58h513v-58h-513z" />
    <glyph glyph-name="lozenge" unicode="&#x25ca;" horiz-adv-x="301" 
d="M151 93l-127 126l127 127l126 -127z" />
    <glyph glyph-name="uniF8FF" unicode="&#xf8ff;" horiz-adv-x="808" 
d="M557 271l94 -290l-247 179l-247 -179l95 290l-247 179h305l94 290l94 -290h305zM460 398l-56 172l-56 -172h-181l147 -107l-57 -172l147 106l147 -106l-56 172l146 107h-181z" />
    <glyph glyph-name="A.alt1" 
d="M128 139l-53 -139h-73l271 706l271 -706h-73l-53 139l-145 -74zM134 155h278l-139 368z" />
    <glyph glyph-name="Aacute.alt1" 
d="M128 139l-53 -139h-73l271 706l271 -706h-73l-53 139l-145 -74zM134 155h278l-139 368zM183 752l136 137l44 -44l-136 -136z" />
    <glyph glyph-name="Agrave.alt1" 
d="M128 139l-53 -139h-73l271 706l271 -706h-73l-53 139l-145 -74zM134 155h278l-139 368zM319 709l-136 136l44 44l136 -137z" />
    <glyph glyph-name="Acircumflex.alt1" 
d="M128 139l-53 -139h-73l271 706l271 -706h-73l-53 139l-145 -74zM134 155h278l-139 368zM137 752l136 137l137 -137l-44 -43l-93 92l-92 -92z" />
    <glyph glyph-name="Adieresis.alt1" 
d="M128 139l-53 -139h-73l271 706l271 -706h-73l-53 139l-145 -74zM134 155h278l-139 368zM240 792q0 -18 -12.5 -31t-31.5 -13q-18 0 -31 13t-13 31q0 19 13 32t31 13q19 0 31.5 -13t12.5 -32zM395 792q0 -18 -13 -31t-31 -13t-31 13t-13 31q0 19 13 32t31 13t31 -13
t13 -32z" />
    <glyph glyph-name="Atilde.alt1" 
d="M128 139l-53 -139h-73l271 706l271 -706h-73l-53 139l-145 -74zM134 155h278l-139 368zM259 765q-25 19 -43 19t-30 -12t-12 -29h-62v4q0 44 29.5 71.5t74.5 27.5q31 0 69 -27q28 -19 45 -19q18 0 30 12.5t12 29.5h62v-3q0 -45 -29.5 -73t-74.5 -28q-31 0 -71 27z" />
    <glyph glyph-name="Aring.alt1" 
d="M128 139l-53 -139h-73l271 706l271 -706h-73l-53 139l-145 -74zM134 155h278l-139 368zM174 808q0 41 29 70t70 29t70 -29t29 -70t-29 -70t-70 -29t-70 29t-29 70zM215 808q0 -24 17 -41t41 -17t41 17t17 41t-17 41t-41 17t-41 -17t-17 -41z" />
    <glyph glyph-name="Abreve.alt1" 
d="M128 139l-53 -139h-73l271 706l271 -706h-73l-53 139l-145 -74zM134 155h278l-139 368zM404 853l43 -44q-72 -72 -174 -72q-101 0 -173 72l44 44q54 -54 129 -54q77 0 131 54z" />
    <glyph glyph-name="Amacron.alt1" 
d="M128 139l-53 -139h-73l271 706l271 -706h-73l-53 139l-145 -74zM134 155h278l-139 368zM434 761h-321v62h321v-62z" />
    <glyph glyph-name="Aogonek.alt1" 
d="M452 -67q0 -29 20 -48.5t48 -19.5v-56q-50 0 -88 36q-36 36 -36 88q0 69 60 106l-38 100l-145 -74l-145 74l-53 -139h-73l271 706l271 -706h-24q-28 0 -48 -19.5t-20 -47.5zM134 155h278l-139 368z" />
    <glyph glyph-name="A.alt2" 
d="M273 523l-198 -523h-73l271 706l271 -706h-73z" />
    <glyph glyph-name="Aacute.alt2" 
d="M273 523l-198 -523h-73l271 706l271 -706h-73zM183 752l136 137l44 -44l-136 -136z" />
    <glyph glyph-name="Agrave.alt2" 
d="M273 523l-198 -523h-73l271 706l271 -706h-73zM319 709l-136 136l44 44l136 -137z" />
    <glyph glyph-name="Acircumflex.alt2" 
d="M273 523l-198 -523h-73l271 706l271 -706h-73zM137 752l136 137l137 -137l-44 -43l-93 92l-92 -92z" />
    <glyph glyph-name="Adieresis.alt2" 
d="M273 523l-198 -523h-73l271 706l271 -706h-73zM240 792q0 -18 -12.5 -31t-31.5 -13q-18 0 -31 13t-13 31q0 19 13 32t31 13q19 0 31.5 -13t12.5 -32zM395 792q0 -18 -13 -31t-31 -13t-31 13t-13 31q0 19 13 32t31 13t31 -13t13 -32z" />
    <glyph glyph-name="Atilde.alt2" 
d="M273 523l-198 -523h-73l271 706l271 -706h-73zM259 765q-25 19 -43 19t-30 -12t-12 -29h-62v4q0 44 29.5 71.5t74.5 27.5q31 0 69 -27q28 -19 45 -19q18 0 30 12.5t12 29.5h62v-3q0 -45 -29.5 -73t-74.5 -28q-31 0 -71 27z" />
    <glyph glyph-name="Aring.alt2" 
d="M273 523l-198 -523h-73l271 706l271 -706h-73zM174 808q0 41 29 70t70 29t70 -29t29 -70t-29 -70t-70 -29t-70 29t-29 70zM215 808q0 -24 17 -41t41 -17t41 17t17 41t-17 41t-41 17t-41 -17t-17 -41z" />
    <glyph glyph-name="Abreve.alt2" 
d="M273 523l-198 -523h-73l271 706l271 -706h-73zM404 853l43 -44q-72 -72 -174 -72q-101 0 -173 72l44 44q54 -54 129 -54q77 0 131 54z" />
    <glyph glyph-name="Amacron.alt2" 
d="M273 523l-198 -523h-73l271 706l271 -706h-73zM434 761h-321v62h321v-62z" />
    <glyph glyph-name="Aogonek.alt2" 
d="M452 -67q0 -29 20 -48.5t48 -19.5v-56q-50 0 -88 36q-36 36 -36 88q0 69 60 106l-183 484l-198 -523h-73l271 706l271 -706h-24q-28 0 -48 -19.5t-20 -47.5z" />
    <glyph glyph-name="AE.alt1" horiz-adv-x="816" 
d="M0 0l458 685h298v-68h-229v-266l229 36v-88l-229 37v-268h229v-68h-297v135l-138 -70l-146 75l-93 -140h-82zM459 155v413l-274 -413h274z" />
    <glyph glyph-name="AEacute.alt1" horiz-adv-x="816" 
d="M0 0l458 685h298v-68h-229v-266l229 36v-88l-229 37v-268h229v-68h-297v135l-138 -70l-146 75l-93 -140h-82zM459 155v413l-274 -413h274zM403 752l136 137l44 -44l-136 -136z" />
    <glyph glyph-name="AE.alt2" horiz-adv-x="816" 
d="M0 0l458 685h298v-68h-229v-240h229v-68h-229v-241h229v-68h-297v568l-377 -568h-82z" />
    <glyph glyph-name="AEacute.alt2" horiz-adv-x="816" 
d="M0 0l458 685h298v-68h-229v-240h229v-68h-229v-241h229v-68h-297v568l-377 -568h-82zM403 752l136 137l44 -44l-136 -136z" />
    <glyph glyph-name="C.alt2" horiz-adv-x="444" 
d="M404 56v-70q-145 -3 -252.5 104.5t-104.5 251.5q-3 144 104.5 252t252.5 105v-70q-116 2 -202 -84.5t-84 -202.5q-2 -116 84 -202t202 -84z" />
    <glyph glyph-name="Ccedilla.alt2" horiz-adv-x="444" 
d="M283 -100q0 35 -23 56l44 44q-113 32 -185 127t-72 215q-3 144 104.5 252t252.5 105v-70q-116 2 -202 -84.5t-84 -202.5q-2 -116 84 -202t202 -84v-70q-55 0 -98 13q39 -39 39 -99q0 -59 -41 -100l-44 44q23 21 23 56z" />
    <glyph glyph-name="Cacute.alt2" horiz-adv-x="444" 
d="M404 56v-70q-145 -3 -252.5 104.5t-104.5 251.5q-3 144 104.5 252t252.5 105v-70q-116 2 -202 -84.5t-84 -202.5q-2 -116 84 -202t202 -84zM217 752l136 137l44 -44l-136 -136z" />
    <glyph glyph-name="Ccaron.alt2" horiz-adv-x="444" 
d="M404 56v-70q-145 -3 -252.5 104.5t-104.5 251.5q-3 144 104.5 252t252.5 105v-70q-116 2 -202 -84.5t-84 -202.5q-2 -116 84 -202t202 -84zM440 845l-137 -136l-136 136l44 44l92 -93l93 93z" />
    <glyph glyph-name="Ccircumflex.alt2" horiz-adv-x="444" 
d="M404 56v-70q-145 -3 -252.5 104.5t-104.5 251.5q-3 144 104.5 252t252.5 105v-70q-116 2 -202 -84.5t-84 -202.5q-2 -116 84 -202t202 -84zM167 752l136 137l137 -137l-44 -43l-93 92l-92 -92z" />
    <glyph glyph-name="Cdotaccent.alt2" horiz-adv-x="444" 
d="M404 56v-70q-145 -3 -252.5 104.5t-104.5 251.5q-3 144 104.5 252t252.5 105v-70q-116 2 -202 -84.5t-84 -202.5q-2 -116 84 -202t202 -84zM350 792q0 -18 -12.5 -31t-31.5 -13q-18 0 -31 13t-13 31q0 19 13 32t31 13q19 0 31.5 -13t12.5 -32z" />
    <glyph glyph-name="E.alt1" horiz-adv-x="457" 
d="M100 0v685h297v-68h-229v-266l229 36v-88l-229 37v-268h229v-68h-297z" />
    <glyph glyph-name="Eacute.alt1" horiz-adv-x="457" 
d="M100 0v685h297v-68h-229v-266l229 36v-88l-229 37v-268h229v-68h-297zM158 752l136 137l44 -44l-136 -136z" />
    <glyph glyph-name="Egrave.alt1" horiz-adv-x="457" 
d="M100 0v685h297v-68h-229v-266l229 36v-88l-229 37v-268h229v-68h-297zM294 709l-136 136l44 44l136 -137z" />
    <glyph glyph-name="Ecircumflex.alt1" horiz-adv-x="457" 
d="M100 0v685h297v-68h-229v-266l229 36v-88l-229 37v-268h229v-68h-297zM112 752l136 137l137 -137l-44 -43l-93 92l-92 -92z" />
    <glyph glyph-name="Edieresis.alt1" horiz-adv-x="457" 
d="M100 0v685h297v-68h-229v-266l229 36v-88l-229 37v-268h229v-68h-297zM215 792q0 -18 -12.5 -31t-31.5 -13q-18 0 -31 13t-13 31q0 19 13 32t31 13q19 0 31.5 -13t12.5 -32zM370 792q0 -18 -13 -31t-31 -13t-31 13t-13 31q0 19 13 32t31 13t31 -13t13 -32z" />
    <glyph glyph-name="Ebreve.alt1" horiz-adv-x="457" 
d="M100 0v685h297v-68h-229v-266l229 36v-88l-229 37v-268h229v-68h-297zM379 853l43 -44q-72 -72 -174 -72q-101 0 -173 72l44 44q54 -54 129 -54q77 0 131 54z" />
    <glyph glyph-name="Ecaron.alt1" horiz-adv-x="457" 
d="M100 0v685h297v-68h-229v-266l229 36v-88l-229 37v-268h229v-68h-297zM385 845l-137 -136l-136 136l44 44l92 -93l93 93z" />
    <glyph glyph-name="Edotaccent.alt1" horiz-adv-x="457" 
d="M100 0v685h297v-68h-229v-266l229 36v-88l-229 37v-268h229v-68h-297zM292 792q0 -18 -12.5 -31t-31.5 -13q-18 0 -31 13t-13 31q0 19 13 32t31 13q19 0 31.5 -13t12.5 -32z" />
    <glyph glyph-name="Emacron.alt1" horiz-adv-x="457" 
d="M100 0v685h297v-68h-229v-266l229 36v-88l-229 37v-268h229v-68h-297zM409 761h-321v62h321v-62z" />
    <glyph glyph-name="Eogonek.alt1" horiz-adv-x="457" 
d="M397 617h-229v-266l229 36v-88l-229 37v-268h229v-68q-28 0 -48 -19.5t-20 -47.5q0 -29 20 -48.5t48 -19.5v-56q-51 0 -88 36q-36 36 -36 88q0 38 20 67h-193v685h297v-68z" />
    <glyph glyph-name="F.alt1" horiz-adv-x="457" 
d="M168 336v-336h-68v685h297v-68h-229v-266l229 36v-88z" />
    <glyph glyph-name="G.alt1" horiz-adv-x="731" 
d="M589 122v220h68v-252q-107 -104 -252 -104q-145 -3 -252.5 104.5t-104.5 251.5q-3 144 104.5 252t252.5 105q147 0 252 -105l-50 -49q-84 84 -202 84q-116 2 -202.5 -84.5t-84.5 -202.5q-2 -116 84.5 -202t202.5 -84q102 0 184 66z" />
    <glyph glyph-name="Gbreve.alt1" horiz-adv-x="731" 
d="M589 122v220h68v-252q-107 -104 -252 -104q-145 -3 -252.5 104.5t-104.5 251.5q-3 144 104.5 252t252.5 105q147 0 252 -105l-50 -49q-84 84 -202 84q-116 2 -202.5 -84.5t-84.5 -202.5q-2 -116 84.5 -202t202.5 -84q102 0 184 66zM536 853l43 -44q-72 -72 -174 -72
q-101 0 -173 72l44 44q54 -54 129 -54q77 0 131 54z" />
    <glyph glyph-name="Gcircumflex.alt1" horiz-adv-x="731" 
d="M589 122v220h68v-252q-107 -104 -252 -104q-145 -3 -252.5 104.5t-104.5 251.5q-3 144 104.5 252t252.5 105q147 0 252 -105l-50 -49q-84 84 -202 84q-116 2 -202.5 -84.5t-84.5 -202.5q-2 -116 84.5 -202t202.5 -84q102 0 184 66zM269 752l136 137l137 -137l-44 -43
l-93 92l-92 -92z" />
    <glyph glyph-name="Gcommaaccent.alt1" horiz-adv-x="731" 
d="M589 122v220h68v-252q-107 -104 -252 -104q-145 -3 -252.5 104.5t-104.5 251.5q-3 144 104.5 252t252.5 105q147 0 252 -105l-50 -49q-84 84 -202 84q-116 2 -202.5 -84.5t-84.5 -202.5q-2 -116 84.5 -202t202.5 -84q102 0 184 66zM353 -212v162h102v-93z" />
    <glyph glyph-name="Gdotaccent.alt1" horiz-adv-x="731" 
d="M589 122v220h68v-252q-107 -104 -252 -104q-145 -3 -252.5 104.5t-104.5 251.5q-3 144 104.5 252t252.5 105q147 0 252 -105l-50 -49q-84 84 -202 84q-116 2 -202.5 -84.5t-84.5 -202.5q-2 -116 84.5 -202t202.5 -84q102 0 184 66zM449 792q0 -18 -12.5 -31t-31.5 -13
q-18 0 -31 13t-13 31q0 19 13 32t31 13q19 0 31.5 -13t12.5 -32z" />
    <glyph glyph-name="G.alt2" horiz-adv-x="461" 
d="M48 342q-3 144 104.5 252t252.5 105v-70q-116 2 -202.5 -84.5t-84.5 -202.5q0 -98 62 -177t157 -101v174h68v-252q-20 0 -26 1q-136 6 -235 112t-96 243z" />
    <glyph glyph-name="Gbreve.alt2" horiz-adv-x="461" 
d="M48 342q-3 144 104.5 252t252.5 105v-70q-116 2 -202.5 -84.5t-84.5 -202.5q0 -98 62 -177t157 -101v174h68v-252q-20 0 -26 1q-136 6 -235 112t-96 243zM437 853l43 -44q-72 -72 -174 -72q-101 0 -173 72l44 44q54 -54 129 -54q77 0 131 54z" />
    <glyph glyph-name="Gcircumflex.alt2" horiz-adv-x="461" 
d="M48 342q-3 144 104.5 252t252.5 105v-70q-116 2 -202.5 -84.5t-84.5 -202.5q0 -98 62 -177t157 -101v174h68v-252q-20 0 -26 1q-136 6 -235 112t-96 243zM172 752l136 137l137 -137l-44 -43l-93 92l-92 -92z" />
    <glyph glyph-name="Gcommaaccent.alt2" horiz-adv-x="461" 
d="M48 342q-3 144 104.5 252t252.5 105v-70q-116 2 -202.5 -84.5t-84.5 -202.5q0 -98 62 -177t157 -101v174h68v-252q-20 0 -26 1q-136 6 -235 112t-96 243zM252 -212v162h102v-93z" />
    <glyph glyph-name="Gdotaccent.alt2" horiz-adv-x="461" 
d="M48 342q-3 144 104.5 252t252.5 105v-70q-116 2 -202.5 -84.5t-84.5 -202.5q0 -98 62 -177t157 -101v174h68v-252q-20 0 -26 1q-136 6 -235 112t-96 243zM353 792q0 -18 -12.5 -31t-31.5 -13q-18 0 -31 13t-13 31q0 19 13 32t31 13q19 0 31.5 -13t12.5 -32z" />
    <glyph glyph-name="G.alt3" 
d="M48 342q-3 144 104.5 252t252.5 105v-70q-116 2 -203.5 -84.5t-85.5 -202.5q-2 -110 81 -193t193 -81h38v170h68v-238h-106q-139 -3 -242 100t-100 242z" />
    <glyph glyph-name="Gbreve.alt3" 
d="M48 342q-3 144 104.5 252t252.5 105v-70q-116 2 -203.5 -84.5t-85.5 -202.5q-2 -110 81 -193t193 -81h38v170h68v-238h-106q-139 -3 -242 100t-100 242zM439 853l43 -44q-72 -72 -174 -72q-101 0 -173 72l44 44q54 -54 129 -54q77 0 131 54z" />
    <glyph glyph-name="Gcircumflex.alt3" 
d="M48 342q-3 144 104.5 252t252.5 105v-70q-116 2 -203.5 -84.5t-85.5 -202.5q-2 -110 81 -193t193 -81h38v170h68v-238h-106q-139 -3 -242 100t-100 242zM171 752l136 137l137 -137l-44 -43l-93 92l-92 -92z" />
    <glyph glyph-name="Gcommaaccent.alt3" 
d="M48 342q-3 144 104.5 252t252.5 105v-70q-116 2 -203.5 -84.5t-85.5 -202.5q-2 -110 81 -193t193 -81h38v170h68v-238h-106q-139 -3 -242 100t-100 242zM253 -212v162h102v-93z" />
    <glyph glyph-name="Gdotaccent.alt3" 
d="M48 342q-3 144 104.5 252t252.5 105v-70q-116 2 -203.5 -84.5t-85.5 -202.5q-2 -110 81 -193t193 -81h38v170h68v-238h-106q-139 -3 -242 100t-100 242zM348 792q0 -18 -12.5 -31t-31.5 -13q-18 0 -31 13t-13 31q0 19 13 32t31 13q19 0 31.5 -13t12.5 -32z" />
    <glyph glyph-name="K.alt1" horiz-adv-x="454" 
d="M168 372l186 313h79l-203 -331l212 -354h-79l-195 325v-325h-68v685h68v-313z" />
    <glyph glyph-name="Kcommaaccent.alt1" horiz-adv-x="454" 
d="M168 372l186 313h79l-203 -331l212 -354h-79l-195 325v-325h-68v685h68v-313zM204 -212v162h102v-93z" />
    <glyph glyph-name="M.alt1" horiz-adv-x="784" 
d="M710 0l-158 492l-158 -492h-4l-158 492l-158 -492h-73l231 706l160 -488l160 488l231 -706h-73z" />
    <glyph glyph-name="M.alt2" horiz-adv-x="770" 
d="M385 225l-113 298l-198 -523h-73l271 706l113 -294l113 294l271 -706h-73l-198 523z" />
    <glyph glyph-name="M.alt3" horiz-adv-x="780" 
d="M680 704v-704h-68v462l-222 -369l-222 369v-462h-68v704l290 -483z" />
    <glyph glyph-name="OE.alt1" horiz-adv-x="1050" 
d="M693 0v153q-45 -79 -121.5 -123t-167.5 -44q-145 -3 -252.5 105t-104.5 251q-3 144 104.5 252t252.5 105q92 0 168 -44.5t121 -123.5v154h297v-68h-229v-266l229 36v-88l-229 37v-268h229v-68h-297zM690 342q2 116 -84 202.5t-202 84.5q-116 2 -202 -84.5t-84 -202.5
q-2 -116 84 -202t202 -84q116 -2 202 84t84 202z" />
    <glyph glyph-name="Q.alt1" horiz-adv-x="808" 
d="M778 30l-60 -60l-69 113q-103 -97 -245 -97q-145 -3 -252.5 104.5t-104.5 251.5q-3 144 104.5 252t252.5 105q144 3 252 -105t105 -252q0 -141 -97 -244zM690 342q2 116 -84 202.5t-202 84.5q-116 2 -202 -84.5t-84 -202.5q-2 -116 84 -202t202 -84q116 -2 202 84t84 202
z" />
    <glyph glyph-name="Q.alt2" horiz-adv-x="808" 
d="M438 -12v-131h-68v131q-134 10 -229.5 114.5t-93.5 239.5q-3 144 104.5 252t252.5 105q144 3 252 -105t105 -252q2 -135 -93.5 -239.5t-229.5 -114.5zM690 342q2 116 -84 202.5t-202 84.5q-116 2 -202 -84.5t-84 -202.5q0 -108 73 -190t179 -94v111h68v-111
q106 12 179 94t73 190z" />
    <glyph glyph-name="Q.alt3" horiz-adv-x="808" 
d="M770 24l-47 -48l-92 91q-102 -81 -227 -81q-145 -3 -252.5 104.5t-104.5 251.5q-3 144 104.5 252t252.5 105q144 3 252 -105t105 -252q0 -126 -82 -227zM581 117l-79 79l48 48l79 -79q61 79 61 177q2 116 -84 202.5t-202 84.5q-116 2 -202 -84.5t-84 -202.5
q-2 -116 84 -202t202 -84q98 0 177 61z" />
    <glyph glyph-name="R.alt1" horiz-adv-x="507" 
d="M168 0h-68v685h105q97 0 167 -70t70 -167q0 -83 -52 -148t-132 -83l162 -187l-52 -45l-200 229v-214zM168 279h37q69 0 119 50t50 119t-50 119t-119 50h-37v-338z" />
    <glyph glyph-name="Racute.alt1" horiz-adv-x="507" 
d="M168 0h-68v685h105q97 0 167 -70t70 -167q0 -83 -52 -148t-132 -83l162 -187l-52 -45l-200 229v-214zM168 279h37q69 0 119 50t50 119t-50 119t-119 50h-37v-338zM163 752l136 137l44 -44l-136 -136z" />
    <glyph glyph-name="Rcaron.alt1" horiz-adv-x="507" 
d="M168 0h-68v685h105q97 0 167 -70t70 -167q0 -83 -52 -148t-132 -83l162 -187l-52 -45l-200 229v-214zM168 279h37q69 0 119 50t50 119t-50 119t-119 50h-37v-338zM390 845l-137 -136l-136 136l44 44l92 -93l93 93z" />
    <glyph glyph-name="Rcommaaccent.alt1" horiz-adv-x="507" 
d="M168 0h-68v685h105q97 0 167 -70t70 -167q0 -83 -52 -148t-132 -83l162 -187l-52 -45l-200 229v-214zM168 279h37q69 0 119 50t50 119t-50 119t-119 50h-37v-338zM202 -212v162h102v-93z" />
    <glyph glyph-name="S.alt1" horiz-adv-x="448" 
d="M15 -9l-15 64q55 0 91 40q37 41 56 99q20 56 46 160q26 103 52 180q23 65 68 113q44 47 114 47l21 -57q-54 0 -89 -42q-35 -41 -56 -100q-21 -63 -47 -167q-28 -110 -54 -177q-62 -160 -187 -160z" />
    <glyph glyph-name="Sacute.alt1" horiz-adv-x="448" 
d="M15 -9l-15 64q55 0 91 40q37 41 56 99q20 56 46 160q26 103 52 180q23 65 68 113q44 47 114 47l21 -57q-54 0 -89 -42q-35 -41 -56 -100q-21 -63 -47 -167q-28 -110 -54 -177q-62 -160 -187 -160zM261 752l136 137l44 -44l-136 -136z" />
    <glyph glyph-name="Scedilla.alt1" horiz-adv-x="448" 
d="M15 -9l-15 64q55 0 91 40q37 41 56 99q20 56 46 160q26 103 52 180q23 65 68 113q44 47 114 47l21 -57q-54 0 -89 -42q-35 -41 -56 -100q-21 -63 -47 -167q-28 -110 -54 -177q-62 -160 -187 -160zM52 -100q0 35 -23 56l44 44q41 -41 41 -100t-41 -100l-44 44q23 21 23 56
z" />
    <glyph glyph-name="Scircumflex.alt1" horiz-adv-x="448" 
d="M15 -9l-15 64q55 0 91 40q37 41 56 99q20 56 46 160q26 103 52 180q23 65 68 113q44 47 114 47l21 -57q-54 0 -89 -42q-35 -41 -56 -100q-21 -63 -47 -167q-28 -110 -54 -177q-62 -160 -187 -160zM215 752l136 137l137 -137l-44 -43l-93 92l-92 -92z" />
    <glyph glyph-name="Scommaaccent.alt1" horiz-adv-x="448" 
d="M15 -9l-15 64q55 0 91 40q37 41 56 99q20 56 46 160q26 103 52 180q23 65 68 113q44 47 114 47l21 -57q-54 0 -89 -42q-35 -41 -56 -100q-21 -63 -47 -167q-28 -110 -54 -177q-62 -160 -187 -160zM22 -212v162h102v-93z" />
    <glyph glyph-name="Scaron.alt1" horiz-adv-x="448" 
d="M15 -9l-15 64q55 0 91 40q37 41 56 99q20 56 46 160q26 103 52 180q23 65 68 113q44 47 114 47l21 -57q-54 0 -89 -42q-35 -41 -56 -100q-21 -63 -47 -167q-28 -110 -54 -177q-62 -160 -187 -160zM488 845l-137 -136l-136 136l44 44l92 -93l93 93z" />
    <glyph glyph-name="S.alt2" horiz-adv-x="294" 
d="M141 497q0 -67 39 -149q23 -50 32 -83t9 -77q0 -114 -65 -188h-96q44 25 68.5 77.5t24.5 110.5q0 59 -38 143q-42 94 -42 166q0 112 65 188h96q-44 -26 -68.5 -77.5t-24.5 -110.5z" />
    <glyph glyph-name="Sacute.alt2" horiz-adv-x="294" 
d="M141 497q0 -67 39 -149q23 -50 32 -83t9 -77q0 -114 -65 -188h-96q44 25 68.5 77.5t24.5 110.5q0 59 -38 143q-42 94 -42 166q0 112 65 188h96q-44 -26 -68.5 -77.5t-24.5 -110.5zM56 752l136 137l44 -44l-136 -136z" />
    <glyph glyph-name="Scedilla.alt2" horiz-adv-x="294" 
d="M141 497q0 -67 39 -149q23 -50 32 -83t9 -77q0 -114 -65 -188h-96q44 25 68.5 77.5t24.5 110.5q0 59 -38 143q-42 94 -42 166q0 112 65 188h96q-44 -26 -68.5 -77.5t-24.5 -110.5zM125 -101q0 35 -23 56l44 44q41 -41 41 -100t-41 -100l-44 44q23 21 23 56z" />
    <glyph glyph-name="Scircumflex.alt2" horiz-adv-x="294" 
d="M141 497q0 -67 39 -149q23 -50 32 -83t9 -77q0 -114 -65 -188h-96q44 25 68.5 77.5t24.5 110.5q0 59 -38 143q-42 94 -42 166q0 112 65 188h96q-44 -26 -68.5 -77.5t-24.5 -110.5zM10 752l136 137l137 -137l-44 -43l-93 92l-92 -92z" />
    <glyph glyph-name="Scommaaccent.alt2" horiz-adv-x="294" 
d="M141 497q0 -67 39 -149q23 -50 32 -83t9 -77q0 -114 -65 -188h-96q44 25 68.5 77.5t24.5 110.5q0 59 -38 143q-42 94 -42 166q0 112 65 188h96q-44 -26 -68.5 -77.5t-24.5 -110.5zM95 -212v162h102v-93z" />
    <glyph glyph-name="Scaron.alt2" horiz-adv-x="294" 
d="M141 497q0 -67 39 -149q23 -50 32 -83t9 -77q0 -114 -65 -188h-96q44 25 68.5 77.5t24.5 110.5q0 59 -38 143q-42 94 -42 166q0 112 65 188h96q-44 -26 -68.5 -77.5t-24.5 -110.5zM283 845l-137 -136l-136 136l44 44l92 -93l93 93z" />
    <glyph glyph-name="S.alt3" horiz-adv-x="294" 
d="M144 -14l-57 45q66 71 66 157q0 62 -39 149q-23 49 -32 82t-9 78q0 119 77 202l57 -45q-66 -70 -66 -157q0 -62 39 -149q23 -49 32 -82t9 -78q0 -119 -77 -202z" />
    <glyph glyph-name="Sacute.alt3" horiz-adv-x="294" 
d="M144 -14l-57 45q66 71 66 157q0 62 -39 149q-23 49 -32 82t-9 78q0 119 77 202l57 -45q-66 -70 -66 -157q0 -62 39 -149q23 -49 32 -82t9 -78q0 -119 -77 -202zM56 752l136 137l44 -44l-136 -136z" />
    <glyph glyph-name="Scedilla.alt3" horiz-adv-x="294" 
d="M151 -6q36 -39 36 -94q0 -59 -41 -100l-44 44q23 21 23 56t-23 56l35 35l-50 40q66 71 66 157q0 62 -39 149q-23 49 -32 82t-9 78q0 119 77 202l57 -45q-66 -70 -66 -157q0 -62 39 -149q23 -49 32 -82t9 -78q0 -116 -70 -194z" />
    <glyph glyph-name="Scircumflex.alt3" horiz-adv-x="294" 
d="M144 -14l-57 45q66 71 66 157q0 62 -39 149q-23 49 -32 82t-9 78q0 119 77 202l57 -45q-66 -70 -66 -157q0 -62 39 -149q23 -49 32 -82t9 -78q0 -119 -77 -202zM10 752l136 137l137 -137l-44 -43l-93 92l-92 -92z" />
    <glyph glyph-name="Scommaaccent.alt3" horiz-adv-x="294" 
d="M144 -14l-57 45q66 71 66 157q0 62 -39 149q-23 49 -32 82t-9 78q0 119 77 202l57 -45q-66 -70 -66 -157q0 -62 39 -149q23 -49 32 -82t9 -78q0 -119 -77 -202zM95 -212v162h102v-93z" />
    <glyph glyph-name="Scaron.alt3" horiz-adv-x="294" 
d="M144 -14l-57 45q66 71 66 157q0 62 -39 149q-23 49 -32 82t-9 78q0 119 77 202l57 -45q-66 -70 -66 -157q0 -62 39 -149q23 -49 32 -82t9 -78q0 -119 -77 -202zM283 845l-137 -136l-136 136l44 44l92 -93l93 93z" />
    <glyph glyph-name="S.alt4" horiz-adv-x="464" 
d="M35 89l57 37q19 -36 52.5 -54t70.5 -18q57 0 97 37.5t40 91.5q0 40 -19 65q-17 25 -42 42t-76 41q-58 28 -86 46q-77 50 -77 147q0 72 53.5 123.5t129.5 51.5q48 0 92 -24t69 -69l-58 -34q-35 59 -103 59q-47 0 -82 -32q-33 -31 -33 -75q0 -31 17 -56q16 -22 39.5 -37
t72.5 -39t89 -50q83 -55 83 -159q0 -81 -61 -139t-145 -58q-53 0 -102 26.5t-78 76.5z" />
    <glyph glyph-name="Sacute.alt4" horiz-adv-x="464" 
d="M35 89l57 37q19 -36 52.5 -54t70.5 -18q57 0 97 37.5t40 91.5q0 40 -19 65q-17 25 -42 42t-76 41q-58 28 -86 46q-77 50 -77 147q0 72 53.5 123.5t129.5 51.5q48 0 92 -24t69 -69l-58 -34q-35 59 -103 59q-47 0 -82 -32q-33 -31 -33 -75q0 -31 17 -56q16 -22 39.5 -37
t72.5 -39t89 -50q83 -55 83 -159q0 -81 -61 -139t-145 -58q-53 0 -102 26.5t-78 76.5zM144 752l136 137l44 -44l-136 -136z" />
    <glyph glyph-name="Scedilla.alt4" horiz-adv-x="464" 
d="M245 -12q30 -40 30 -88q0 -59 -41 -100l-44 44q23 21 23 56t-23 56l30 30h-5q-53 0 -102 26.5t-78 76.5l57 37q19 -36 52.5 -54t70.5 -18q57 0 97 37.5t40 91.5q0 40 -19 65q-17 25 -42 42t-76 41q-58 28 -86 46q-77 50 -77 147q0 72 53.5 123.5t129.5 51.5q48 0 92 -24
t69 -69l-58 -34q-35 59 -103 59q-47 0 -82 -32q-33 -31 -33 -75q0 -31 17 -56q16 -22 39.5 -37t72.5 -39t89 -50q83 -55 83 -159q0 -74 -50.5 -129t-125.5 -66z" />
    <glyph glyph-name="Scircumflex.alt4" horiz-adv-x="464" 
d="M35 89l57 37q19 -36 52.5 -54t70.5 -18q57 0 97 37.5t40 91.5q0 40 -19 65q-17 25 -42 42t-76 41q-58 28 -86 46q-77 50 -77 147q0 72 53.5 123.5t129.5 51.5q48 0 92 -24t69 -69l-58 -34q-35 59 -103 59q-47 0 -82 -32q-33 -31 -33 -75q0 -31 17 -56q16 -22 39.5 -37
t72.5 -39t89 -50q83 -55 83 -159q0 -81 -61 -139t-145 -58q-53 0 -102 26.5t-78 76.5zM98 752l136 137l137 -137l-44 -43l-93 92l-92 -92z" />
    <glyph glyph-name="Scommaaccent.alt4" horiz-adv-x="464" 
d="M35 89l57 37q19 -36 52.5 -54t70.5 -18q57 0 97 37.5t40 91.5q0 40 -19 65q-17 25 -42 42t-76 41q-58 28 -86 46q-77 50 -77 147q0 72 53.5 123.5t129.5 51.5q48 0 92 -24t69 -69l-58 -34q-35 59 -103 59q-47 0 -82 -32q-33 -31 -33 -75q0 -31 17 -56q16 -22 39.5 -37
t72.5 -39t89 -50q83 -55 83 -159q0 -81 -61 -139t-145 -58q-53 0 -102 26.5t-78 76.5zM178 -212v162h102v-93z" />
    <glyph glyph-name="Scaron.alt4" horiz-adv-x="464" 
d="M35 89l57 37q19 -36 52.5 -54t70.5 -18q57 0 97 37.5t40 91.5q0 40 -19 65q-17 25 -42 42t-76 41q-58 28 -86 46q-77 50 -77 147q0 72 53.5 123.5t129.5 51.5q48 0 92 -24t69 -69l-58 -34q-35 59 -103 59q-47 0 -82 -32q-33 -31 -33 -75q0 -31 17 -56q16 -22 39.5 -37
t72.5 -39t89 -50q83 -55 83 -159q0 -81 -61 -139t-145 -58q-53 0 -102 26.5t-78 76.5zM371 845l-137 -136l-136 136l44 44l92 -93l93 93z" />
    <glyph glyph-name="W.alt2" horiz-adv-x="770" 
d="M696 685h73l-271 -706l-113 294l-113 -294l-271 706h73l198 -523l113 298l113 -298z" />
    <glyph glyph-name="Wacute.alt2" horiz-adv-x="770" 
d="M696 685h73l-271 -706l-113 294l-113 -294l-271 706h73l198 -523l113 298l113 -298zM295 752l136 137l44 -44l-136 -136z" />
    <glyph glyph-name="Wcircumflex.alt2" horiz-adv-x="770" 
d="M696 685h73l-271 -706l-113 294l-113 -294l-271 706h73l198 -523l113 298l113 -298zM249 752l136 137l137 -137l-44 -43l-93 92l-92 -92z" />
    <glyph glyph-name="Wdieresis.alt2" horiz-adv-x="770" 
d="M696 685h73l-271 -706l-113 294l-113 -294l-271 706h73l198 -523l113 298l113 -298zM352 792q0 -18 -12.5 -31t-31.5 -13q-18 0 -31 13t-13 31q0 19 13 32t31 13q19 0 31.5 -13t12.5 -32zM507 792q0 -18 -13 -31t-31 -13t-31 13t-13 31q0 19 13 32t31 13t31 -13t13 -32z
" />
    <glyph glyph-name="Wgrave.alt2" horiz-adv-x="770" 
d="M696 685h73l-271 -706l-113 294l-113 -294l-271 706h73l198 -523l113 298l113 -298zM431 709l-136 136l44 44l136 -137z" />
    <glyph glyph-name="Y.alt1" horiz-adv-x="540" 
d="M125 0h-79l189 312l-225 373h79l186 -307l185 307h79z" />
    <glyph glyph-name="Yacute.alt1" horiz-adv-x="540" 
d="M125 0h-79l189 312l-225 373h79l186 -307l185 307h79zM185 752l136 137l44 -44l-136 -136z" />
    <glyph glyph-name="Ygrave.alt1" horiz-adv-x="540" 
d="M125 0h-79l189 312l-225 373h79l186 -307l185 307h79zM321 709l-136 136l44 44l136 -137z" />
    <glyph glyph-name="Ycircumflex.alt1" horiz-adv-x="540" 
d="M125 0h-79l189 312l-225 373h79l186 -307l185 307h79zM139 752l136 137l137 -137l-44 -43l-93 92l-92 -92z" />
    <glyph glyph-name="Ydieresis.alt1" horiz-adv-x="540" 
d="M125 0h-79l189 312l-225 373h79l186 -307l185 307h79zM242 792q0 -18 -12.5 -31t-31.5 -13q-18 0 -31 13t-13 31q0 19 13 32t31 13q19 0 31.5 -13t12.5 -32zM397 792q0 -18 -13 -31t-31 -13t-31 13t-13 31q0 19 13 32t31 13t31 -13t13 -32z" />
    <glyph glyph-name="a.alt1" horiz-adv-x="410" 
d="M345 0h-65v14q-37 -28 -84 -28q-64 0 -110 46.5t-46 112.5t46 112.5t110 46.5q47 0 84 -28v19q0 41 -25.5 66.5t-64.5 25.5q-12 0 -24 -2v64q11 3 31 3q66 0 107 -43t41 -114v-295zM280 77v136q-28 33 -74 33q-42 0 -71.5 -29.5t-29.5 -71.5t29.5 -71.5t71.5 -29.5
q46 0 74 33z" />
    <glyph glyph-name="aacute.alt1" horiz-adv-x="410" 
d="M345 0h-65v14q-37 -28 -84 -28q-64 0 -110 46.5t-46 112.5t46 112.5t110 46.5q47 0 84 -28v19q0 41 -25.5 66.5t-64.5 25.5q-12 0 -24 -2v64q11 3 31 3q66 0 107 -43t41 -114v-295zM280 77v136q-28 33 -74 33q-42 0 -71.5 -29.5t-29.5 -71.5t29.5 -71.5t71.5 -29.5
q46 0 74 33zM116 529l136 137l44 -44l-136 -136z" />
    <glyph glyph-name="agrave.alt1" horiz-adv-x="410" 
d="M345 0h-65v14q-37 -28 -84 -28q-64 0 -110 46.5t-46 112.5t46 112.5t110 46.5q47 0 84 -28v19q0 41 -25.5 66.5t-64.5 25.5q-12 0 -24 -2v64q11 3 31 3q66 0 107 -43t41 -114v-295zM280 77v136q-28 33 -74 33q-42 0 -71.5 -29.5t-29.5 -71.5t29.5 -71.5t71.5 -29.5
q46 0 74 33zM252 486l-136 136l44 44l136 -137z" />
    <glyph glyph-name="acircumflex.alt1" horiz-adv-x="410" 
d="M345 0h-65v14q-37 -28 -84 -28q-64 0 -110 46.5t-46 112.5t46 112.5t110 46.5q47 0 84 -28v19q0 41 -25.5 66.5t-64.5 25.5q-12 0 -24 -2v64q11 3 31 3q66 0 107 -43t41 -114v-295zM280 77v136q-28 33 -74 33q-42 0 -71.5 -29.5t-29.5 -71.5t29.5 -71.5t71.5 -29.5
q46 0 74 33zM70 530l136 137l137 -137l-44 -43l-93 92l-92 -92z" />
    <glyph glyph-name="adieresis.alt1" horiz-adv-x="410" 
d="M345 0h-65v14q-37 -28 -84 -28q-64 0 -110 46.5t-46 112.5t46 112.5t110 46.5q47 0 84 -28v19q0 41 -25.5 66.5t-64.5 25.5q-12 0 -24 -2v64q11 3 31 3q66 0 107 -43t41 -114v-295zM280 77v136q-28 33 -74 33q-42 0 -71.5 -29.5t-29.5 -71.5t29.5 -71.5t71.5 -29.5
q46 0 74 33zM173 566q0 -18 -12.5 -31t-31.5 -13q-18 0 -31 13t-13 31q0 19 13 32t31 13q19 0 31.5 -13t12.5 -32zM328 566q0 -18 -13 -31t-31 -13t-31 13t-13 31q0 19 13 32t31 13t31 -13t13 -32z" />
    <glyph glyph-name="atilde.alt1" horiz-adv-x="410" 
d="M345 0h-65v14q-37 -28 -84 -28q-64 0 -110 46.5t-46 112.5t46 112.5t110 46.5q47 0 84 -28v19q0 41 -25.5 66.5t-64.5 25.5q-12 0 -24 -2v64q11 3 31 3q66 0 107 -43t41 -114v-295zM280 77v136q-28 33 -74 33q-42 0 -71.5 -29.5t-29.5 -71.5t29.5 -71.5t71.5 -29.5
q46 0 74 33zM192 539q-25 19 -43 19t-30 -12t-12 -29h-62v4q0 44 29.5 71.5t74.5 27.5q31 0 69 -27q28 -19 45 -19q18 0 30 12.5t12 29.5h62v-3q0 -45 -29.5 -73t-74.5 -28q-31 0 -71 27z" />
    <glyph glyph-name="aring.alt1" horiz-adv-x="410" 
d="M345 0h-65v14q-37 -28 -84 -28q-64 0 -110 46.5t-46 112.5t46 112.5t110 46.5q47 0 84 -28v19q0 41 -25.5 66.5t-64.5 25.5q-12 0 -24 -2v64q11 3 31 3q66 0 107 -43t41 -114v-295zM280 77v136q-28 33 -74 33q-42 0 -71.5 -29.5t-29.5 -71.5t29.5 -71.5t71.5 -29.5
q46 0 74 33zM107 567q0 41 29 70t70 29t70 -29t29 -70t-29 -70t-70 -29t-70 29t-29 70zM148 567q0 -24 17 -41t41 -17t41 17t17 41t-17 41t-41 17t-41 -17t-17 -41z" />
    <glyph glyph-name="abreve.alt1" horiz-adv-x="410" 
d="M345 0h-65v14q-37 -28 -84 -28q-64 0 -110 46.5t-46 112.5t46 112.5t110 46.5q47 0 84 -28v19q0 41 -25.5 66.5t-64.5 25.5q-12 0 -24 -2v64q11 3 31 3q66 0 107 -43t41 -114v-295zM280 77v136q-28 33 -74 33q-42 0 -71.5 -29.5t-29.5 -71.5t29.5 -71.5t71.5 -29.5
q46 0 74 33zM337 627l43 -44q-72 -72 -174 -72q-101 0 -173 72l44 44q54 -54 129 -54q77 0 131 54z" />
    <glyph glyph-name="amacron.alt1" horiz-adv-x="410" 
d="M345 0h-65v14q-37 -28 -84 -28q-64 0 -110 46.5t-46 112.5t46 112.5t110 46.5q47 0 84 -28v19q0 41 -25.5 66.5t-64.5 25.5q-12 0 -24 -2v64q11 3 31 3q66 0 107 -43t41 -114v-295zM280 77v136q-28 33 -74 33q-42 0 -71.5 -29.5t-29.5 -71.5t29.5 -71.5t71.5 -29.5
q46 0 74 33zM367 535h-321v62h321v-62z" />
    <glyph glyph-name="aogonek.alt1" horiz-adv-x="410" 
d="M345 295v-295q-28 0 -48 -19.5t-20 -47.5q0 -29 20 -48.5t48 -19.5v-56q-51 0 -88 33q-36 33 -36 80q0 41 31 75q-27 -11 -56 -11q-64 0 -110 46.5t-46 112.5t46 112.5t110 46.5q47 0 84 -28v19q0 41 -25.5 66.5t-64.5 25.5l-24 -2v64q11 3 31 3q66 0 107 -43t41 -114z
M206 44q46 0 74 33v136q-28 33 -74 33q-42 0 -71.5 -29.5t-29.5 -71.5t29.5 -71.5t71.5 -29.5z" />
    <glyph glyph-name="ae.alt1" horiz-adv-x="671" 
d="M585 100l46 -46q-68 -68 -157 -68q-76 0 -129 46v-32h-65v14q-37 -28 -84 -28q-64 0 -110 46.5t-46 112.5t46 112.5t110 46.5q47 0 84 -28v19q0 41 -25.5 66.5t-64.5 25.5l-24 -2v64q11 3 31 3q75 0 118 -57q63 57 159 57q86 0 157 -68q12 -8 20 -23l-280 -281
q41 -29 96 -29q66 0 118 49zM345 295v-163l221 222q-48 33 -99 33q-74 0 -125 -57q3 -16 3 -35zM280 77v136q-28 33 -74 33q-42 0 -71.5 -29.5t-29.5 -71.5t29.5 -71.5t71.5 -29.5q46 0 74 33z" />
    <glyph glyph-name="aeacute.alt1" horiz-adv-x="671" 
d="M585 100l46 -46q-68 -68 -157 -68q-76 0 -129 46v-32h-65v14q-37 -28 -84 -28q-64 0 -110 46.5t-46 112.5t46 112.5t110 46.5q47 0 84 -28v19q0 41 -25.5 66.5t-64.5 25.5l-24 -2v64q11 3 31 3q75 0 118 -57q63 57 159 57q86 0 157 -68q12 -8 20 -23l-280 -281
q41 -29 96 -29q66 0 118 49zM345 295v-163l221 222q-48 33 -99 33q-74 0 -125 -57q3 -16 3 -35zM280 77v136q-28 33 -74 33q-42 0 -71.5 -29.5t-29.5 -71.5t29.5 -71.5t71.5 -29.5q46 0 74 33zM222 529l136 137l44 -44l-136 -136z" />
    <glyph glyph-name="ae.alt2" horiz-adv-x="786" 
d="M266 -14q-91 0 -158.5 69t-67.5 164t67.5 164t158.5 69q76 0 129 -46v32h65v-32q53 46 129 46q86 0 157 -68q12 -8 20 -23l-279 -280q43 -30 95 -30q66 0 118 49l46 -46q-68 -68 -157 -68q-76 0 -129 46v-32h-65v32q-53 -46 -129 -46zM273 387q-67 0 -117.5 -50.5
t-50.5 -117.5q0 -68 49.5 -117.5t118.5 -49.5q71 0 122 53v229q-53 53 -122 53zM460 333v-201l221 222q-48 33 -99 33q-70 0 -122 -54z" />
    <glyph glyph-name="aeacute.alt2" horiz-adv-x="786" 
d="M266 -14q-91 0 -158.5 69t-67.5 164t67.5 164t158.5 69q76 0 129 -46v32h65v-32q53 46 129 46q86 0 157 -68q12 -8 20 -23l-279 -280q43 -30 95 -30q66 0 118 49l46 -46q-68 -68 -157 -68q-76 0 -129 46v-32h-65v32q-53 -46 -129 -46zM273 387q-67 0 -117.5 -50.5
t-50.5 -117.5q0 -68 49.5 -117.5t118.5 -49.5q71 0 122 53v229q-53 53 -122 53zM460 333v-201l221 222q-48 33 -99 33q-70 0 -122 -54zM337 529l136 137l44 -44l-136 -136z" />
    <glyph glyph-name="ae.alt3" horiz-adv-x="740" 
d="M345 0h-65v14q-37 -28 -84 -28q-64 0 -110 46.5t-46 112.5t46 112.5t110 46.5q47 0 84 -28v19q0 41 -25.5 66.5t-64.5 25.5l-24 -2v64q11 3 31 3q74 0 118 -57q59 57 159 57q89 2 157 -66.5t69 -166.5q0 -21 -1 -28h-354v-87q50 -53 122 -53q68 0 118 49l46 -46
q-68 -68 -157 -68q-76 0 -129 46v-32zM345 295v-49h288q-10 59 -57 100t-109 41q-74 0 -125 -57q3 -16 3 -35zM280 77v136q-28 33 -74 33q-42 0 -71.5 -29.5t-29.5 -71.5t29.5 -71.5t71.5 -29.5q46 0 74 33z" />
    <glyph glyph-name="aeacute.alt3" horiz-adv-x="740" 
d="M345 0h-65v14q-37 -28 -84 -28q-64 0 -110 46.5t-46 112.5t46 112.5t110 46.5q47 0 84 -28v19q0 41 -25.5 66.5t-64.5 25.5l-24 -2v64q11 3 31 3q74 0 118 -57q59 57 159 57q89 2 157 -66.5t69 -166.5q0 -21 -1 -28h-354v-87q50 -53 122 -53q68 0 118 49l46 -46
q-68 -68 -157 -68q-76 0 -129 46v-32zM345 295v-49h288q-10 59 -57 100t-109 41q-74 0 -125 -57q3 -16 3 -35zM280 77v136q-28 33 -74 33q-42 0 -71.5 -29.5t-29.5 -71.5t29.5 -71.5t71.5 -29.5q46 0 74 33zM222 529l136 137l44 -44l-136 -136z" />
    <glyph glyph-name="c.alt2" horiz-adv-x="313" 
d="M273 452v-65q-67 0 -117.5 -50.5t-50.5 -117.5t50.5 -117.5t117.5 -50.5v-65q-95 0 -164 69t-69 164t69 164t164 69z" />
    <glyph glyph-name="ccedilla.alt2" horiz-adv-x="313" 
d="M219 -100q0 35 -23 56l34 34q-82 15 -136 79.5t-54 149.5q0 95 69 164t164 69v-65q-67 0 -117.5 -50.5t-50.5 -117.5t50.5 -117.5t117.5 -50.5v-65l-22 1q30 -36 30 -87q0 -59 -41 -100l-44 44q23 21 23 56z" />
    <glyph glyph-name="cacute.alt2" horiz-adv-x="313" 
d="M273 452v-65q-67 0 -117.5 -50.5t-50.5 -117.5t50.5 -117.5t117.5 -50.5v-65q-95 0 -164 69t-69 164t69 164t164 69zM150 529l136 137l44 -44l-136 -136z" />
    <glyph glyph-name="ccaron.alt2" horiz-adv-x="313" 
d="M273 452v-65q-67 0 -117.5 -50.5t-50.5 -117.5t50.5 -117.5t117.5 -50.5v-65q-95 0 -164 69t-69 164t69 164t164 69zM377 618l-137 -136l-136 136l44 44l92 -93l93 93z" />
    <glyph glyph-name="ccircumflex.alt2" horiz-adv-x="313" 
d="M273 452v-65q-67 0 -117.5 -50.5t-50.5 -117.5t50.5 -117.5t117.5 -50.5v-65q-95 0 -164 69t-69 164t69 164t164 69zM104 530l136 137l137 -137l-44 -43l-93 92l-92 -92z" />
    <glyph glyph-name="cdotaccent.alt2" horiz-adv-x="313" 
d="M273 452v-65q-67 0 -117.5 -50.5t-50.5 -117.5t50.5 -117.5t117.5 -50.5v-65q-95 0 -164 69t-69 164t69 164t164 69zM284 566q0 -18 -12.5 -31t-31.5 -13q-18 0 -31 13t-13 31q0 19 13 32t31 13q19 0 31.5 -13t12.5 -32z" />
    <glyph glyph-name="e.alt1" horiz-adv-x="477" 
d="M273 -14q-96 0 -164.5 68.5t-68.5 164.5q-2 93 69 164t164 69q93 0 164 -68q12 -8 20 -23l-280 -280q43 -30 96 -30q66 0 118 49l46 -46q-68 -68 -164 -68zM138 119l234 235q-48 33 -99 33q-67 0 -117.5 -50.5t-50.5 -117.5q0 -57 33 -100z" />
    <glyph glyph-name="eacute.alt1" horiz-adv-x="477" 
d="M273 -14q-96 0 -164.5 68.5t-68.5 164.5q-2 93 69 164t164 69q93 0 164 -68q12 -8 20 -23l-280 -280q43 -30 96 -30q66 0 118 49l46 -46q-68 -68 -164 -68zM138 119l234 235q-48 33 -99 33q-67 0 -117.5 -50.5t-50.5 -117.5q0 -57 33 -100zM183 529l136 137l44 -44
l-136 -136z" />
    <glyph glyph-name="egrave.alt1" horiz-adv-x="477" 
d="M273 -14q-96 0 -164.5 68.5t-68.5 164.5q-2 93 69 164t164 69q93 0 164 -68q12 -8 20 -23l-280 -280q43 -30 96 -30q66 0 118 49l46 -46q-68 -68 -164 -68zM138 119l234 235q-48 33 -99 33q-67 0 -117.5 -50.5t-50.5 -117.5q0 -57 33 -100zM319 486l-136 136l44 44
l136 -137z" />
    <glyph glyph-name="ecircumflex.alt1" horiz-adv-x="477" 
d="M273 -14q-96 0 -164.5 68.5t-68.5 164.5q-2 93 69 164t164 69q93 0 164 -68q12 -8 20 -23l-280 -280q43 -30 96 -30q66 0 118 49l46 -46q-68 -68 -164 -68zM138 119l234 235q-48 33 -99 33q-67 0 -117.5 -50.5t-50.5 -117.5q0 -57 33 -100zM137 530l136 137l137 -137
l-44 -43l-93 92l-92 -92z" />
    <glyph glyph-name="edieresis.alt1" horiz-adv-x="477" 
d="M273 -14q-96 0 -164.5 68.5t-68.5 164.5q-2 93 69 164t164 69q93 0 164 -68q12 -8 20 -23l-280 -280q43 -30 96 -30q66 0 118 49l46 -46q-68 -68 -164 -68zM138 119l234 235q-48 33 -99 33q-67 0 -117.5 -50.5t-50.5 -117.5q0 -57 33 -100zM240 566q0 -18 -12.5 -31
t-31.5 -13q-18 0 -31 13t-13 31q0 19 13 32t31 13q19 0 31.5 -13t12.5 -32zM395 566q0 -18 -13 -31t-31 -13t-31 13t-13 31q0 19 13 32t31 13t31 -13t13 -32z" />
    <glyph glyph-name="ebreve.alt1" horiz-adv-x="477" 
d="M273 -14q-96 0 -164.5 68.5t-68.5 164.5q-2 93 69 164t164 69q93 0 164 -68q12 -8 20 -23l-280 -280q43 -30 96 -30q66 0 118 49l46 -46q-68 -68 -164 -68zM138 119l234 235q-48 33 -99 33q-67 0 -117.5 -50.5t-50.5 -117.5q0 -57 33 -100zM404 627l43 -44
q-72 -72 -174 -72q-101 0 -173 72l44 44q54 -54 129 -54q77 0 131 54z" />
    <glyph glyph-name="ecaron.alt1" horiz-adv-x="477" 
d="M273 -14q-96 0 -164.5 68.5t-68.5 164.5q-2 93 69 164t164 69q93 0 164 -68q12 -8 20 -23l-280 -280q43 -30 96 -30q66 0 118 49l46 -46q-68 -68 -164 -68zM138 119l234 235q-48 33 -99 33q-67 0 -117.5 -50.5t-50.5 -117.5q0 -57 33 -100zM410 618l-137 -136l-136 136
l44 44l92 -93l93 93z" />
    <glyph glyph-name="edotaccent.alt1" horiz-adv-x="477" 
d="M273 -14q-96 0 -164.5 68.5t-68.5 164.5q-2 93 69 164t164 69q93 0 164 -68q12 -8 20 -23l-280 -280q43 -30 96 -30q66 0 118 49l46 -46q-68 -68 -164 -68zM138 119l234 235q-48 33 -99 33q-67 0 -117.5 -50.5t-50.5 -117.5q0 -57 33 -100zM317 566q0 -18 -12.5 -31
t-31.5 -13q-18 0 -31 13t-13 31q0 19 13 32t31 13q19 0 31.5 -13t12.5 -32z" />
    <glyph glyph-name="emacron.alt1" horiz-adv-x="477" 
d="M273 -14q-96 0 -164.5 68.5t-68.5 164.5q-2 93 69 164t164 69q93 0 164 -68q12 -8 20 -23l-280 -280q43 -30 96 -30q66 0 118 49l46 -46q-68 -68 -164 -68zM138 119l234 235q-48 33 -99 33q-67 0 -117.5 -50.5t-50.5 -117.5q0 -57 33 -100zM434 535h-321v62h321v-62z" />
    <glyph glyph-name="eogonek.alt1" horiz-adv-x="477" 
d="M296 -67q0 -29 20 -48.5t48 -19.5v-56q-50 0 -88 36q-36 36 -36 88q0 29 13 54q-88 8 -150.5 75t-62.5 157q-2 93 69 164t164 69q93 0 164 -68q12 -8 20 -23l-280 -280q43 -30 96 -30q66 0 118 49l46 -46q-41 -40 -93 -57q-21 -6 -34.5 -24t-13.5 -40zM138 119l234 235
q-48 33 -99 33q-67 0 -117.5 -50.5t-50.5 -117.5q0 -57 33 -100z" />
    <glyph glyph-name="fi.alt1" horiz-adv-x="426" 
d="M220 372h-78v-372h-66v372h-66v66h66v123q0 57 33.5 93t87.5 36q11 0 23 -5v-64q-8 2 -16 2q-27 0 -44.5 -17.5t-17.5 -44.5v-123h78v-66zM325 496l-40 120h85l-41 -120h-4zM295 0v438h65v-438h-65z" />
    <glyph glyph-name="g.alt1" horiz-adv-x="493" 
d="M453 35q2 -94 -69 -165t-165 -69q-95 0 -163 68l46 46q48 -48 117 -48q70 0 119 49t49 119q0 62 -40 108q-52 -52 -126 -52q-75 0 -128 53t-53 127q0 75 53 128t128 53q72 0 122 -48l18 34h71l-48 -90q17 -37 17 -76q0 -38 -16 -74q68 -73 68 -163zM336 272q0 47 -34 81
t-81 34q-48 0 -82 -34t-34 -82q0 -47 34 -81t82 -34q47 0 81 34t34 82z" />
    <glyph glyph-name="gbreve.alt1" horiz-adv-x="493" 
d="M453 35q2 -94 -69 -165t-165 -69q-95 0 -163 68l46 46q48 -48 117 -48q70 0 119 49t49 119q0 62 -40 108q-52 -52 -126 -52q-75 0 -128 53t-53 127q0 75 53 128t128 53q72 0 122 -48l18 34h71l-48 -90q17 -37 17 -76q0 -38 -16 -74q68 -73 68 -163zM336 272q0 47 -34 81
t-81 34q-48 0 -82 -34t-34 -82q0 -47 34 -81t82 -34q47 0 81 34t34 82zM348 627l43 -44q-72 -72 -174 -72q-101 0 -173 72l44 44q54 -54 129 -54q77 0 131 54z" />
    <glyph glyph-name="gcircumflex.alt1" horiz-adv-x="493" 
d="M453 35q2 -94 -69 -165t-165 -69q-95 0 -163 68l46 46q48 -48 117 -48q70 0 119 49t49 119q0 62 -40 108q-52 -52 -126 -52q-75 0 -128 53t-53 127q0 75 53 128t128 53q72 0 122 -48l18 34h71l-48 -90q17 -37 17 -76q0 -38 -16 -74q68 -73 68 -163zM336 272q0 47 -34 81
t-81 34q-48 0 -82 -34t-34 -82q0 -47 34 -81t82 -34q47 0 81 34t34 82zM85 530l136 137l137 -137l-44 -43l-93 92l-92 -92z" />
    <glyph glyph-name="gcommaaccent.alt1" horiz-adv-x="493" 
d="M453 35q2 -94 -69 -165t-165 -69q-95 0 -163 68l46 46q48 -48 117 -48q70 0 119 49t49 119q0 62 -40 108q-52 -52 -126 -52q-75 0 -128 53t-53 127q0 75 53 128t128 53q72 0 122 -48l18 34h71l-48 -90q17 -37 17 -76q0 -38 -16 -74q68 -73 68 -163zM336 272q0 47 -34 81
t-81 34q-48 0 -82 -34t-34 -82q0 -47 34 -81t82 -34q47 0 81 34t34 82zM270 651v-153h-102v84z" />
    <glyph glyph-name="gdotaccent.alt1" horiz-adv-x="493" 
d="M453 35q2 -94 -69 -165t-165 -69q-95 0 -163 68l46 46q48 -48 117 -48q70 0 119 49t49 119q0 62 -40 108q-52 -52 -126 -52q-75 0 -128 53t-53 127q0 75 53 128t128 53q72 0 122 -48l18 34h71l-48 -90q17 -37 17 -76q0 -38 -16 -74q68 -73 68 -163zM336 272q0 47 -34 81
t-81 34q-48 0 -82 -34t-34 -82q0 -47 34 -81t82 -34q47 0 81 34t34 82zM262 566q0 -18 -12.5 -31t-31.5 -13q-18 0 -31 13t-13 31q0 19 13 32t31 13q19 0 31.5 -13t12.5 -32z" />
    <glyph glyph-name="i.dotaccent" horiz-adv-x="196" 
d="M65 516v100h65v-100h-65zM65 0v438h65v-438h-65z" />
    <glyph glyph-name="i.dotaccentalt1" horiz-adv-x="196" 
d="M95 496l-40 120h85l-41 -120h-4zM65 0v438h65v-438h-65z" />
    <glyph glyph-name="i.alt1" horiz-adv-x="196" 
d="M95 496l-40 120h85l-41 -120h-4zM65 0v438h65v-438h-65z" />
    <glyph glyph-name="iogonek.alt1" horiz-adv-x="196" 
d="M99 496h-4l-40 120h85zM65 38v400h65v-438q-28 0 -48 -19.5t-20 -47.5q0 -29 20 -48.5t48 -19.5v-56q-50 0 -88 36q-36 36 -36 88q0 67 59 105z" />
    <glyph glyph-name="ij.alt1" horiz-adv-x="391" 
d="M95 496l-40 120h85l-41 -120h-4zM65 0v438h65v-438h-65zM291 496l-40 120h85l-41 -120h-4zM207 -199q-11 0 -23 5v64l16 -2q27 0 44 17.5t17 45.5v507h65v-507q0 -58 -32.5 -94t-86.5 -36z" />
    <glyph glyph-name="j.alt1" horiz-adv-x="195" 
d="M95 496l-40 120h85l-41 -120h-4zM11 -199q-11 0 -23 5v64l16 -2q27 0 44 17.5t17 45.5v507h65v-507q0 -58 -32.5 -94t-86.5 -36z" />
    <glyph glyph-name="k.alt1" horiz-adv-x="371" 
d="M356 0h-83l-143 195v-195h-65v685h65v-424l129 177h84l-157 -209z" />
    <glyph glyph-name="kcommaaccent.alt1" horiz-adv-x="371" 
d="M356 0h-83l-143 195v-195h-65v685h65v-424l129 177h84l-157 -209zM134 -212v162h102v-93z" />
    <glyph glyph-name="kgreenlandic.alt1" horiz-adv-x="371" 
d="M356 0h-83l-143 195v-195h-65v438h65v-177l129 177h84l-157 -209z" />
    <glyph glyph-name="oe.alt1" horiz-adv-x="779" 
d="M693 100l46 -46q-68 -68 -157 -68q-94 0 -158 55q-64 -55 -151 -55q-95 0 -164 69t-69 164t69 164t164 69q87 0 151 -56q62 56 158 56q86 0 157 -68q12 -8 20 -23l-280 -281q41 -29 96 -29q66 0 118 49zM441 219q0 67 -50.5 117.5t-117.5 50.5t-117.5 -50.5t-50.5 -117.5
t50.5 -117.5t117.5 -50.5t117.5 50.5t50.5 117.5zM467 348q39 -58 39 -129q0 -19 -3 -36l171 170q-44 34 -99 34q-59 0 -108 -39z" />
    <glyph glyph-name="r.alt2" horiz-adv-x="249" 
d="M153 407q0 19 13 32t31 13q19 0 31.5 -13t12.5 -32q0 -18 -12.5 -31t-31.5 -13q-18 0 -31 13t-13 31zM130 0h-65v438h65v-438z" />
    <glyph glyph-name="racute.alt2" horiz-adv-x="249" 
d="M153 407q0 19 13 32t31 13q19 0 31.5 -13t12.5 -32q0 -18 -12.5 -31t-31.5 -13q-18 0 -31 13t-13 31zM130 0h-65v438h65v-438zM34 529l136 137l44 -44l-136 -136z" />
    <glyph glyph-name="rcaron.alt2" horiz-adv-x="249" 
d="M153 407q0 19 13 32t31 13q19 0 31.5 -13t12.5 -32q0 -18 -12.5 -31t-31.5 -13q-18 0 -31 13t-13 31zM130 0h-65v438h65v-438zM261 618l-137 -136l-136 136l44 44l92 -93l93 93z" />
    <glyph glyph-name="rcommaaccent.alt2" horiz-adv-x="249" 
d="M153 407q0 19 13 32t31 13q19 0 31.5 -13t12.5 -32q0 -18 -12.5 -31t-31.5 -13q-18 0 -31 13t-13 31zM130 0h-65v438h65v-438zM46 -212v162h102v-93z" />
    <glyph glyph-name="s.alt1" horiz-adv-x="397" 
d="M223 199q-24 -72 -43 -110q-50 -98 -162 -98l-18 64q52 0 83 25q30 23 47 57t40 104q21 64 43 110q48 98 162 98l24 -60q-51 0 -85 -26q-31 -23 -49 -57.5t-42 -106.5z" />
    <glyph glyph-name="sacute.alt1" horiz-adv-x="397" 
d="M223 199q-24 -72 -43 -110q-50 -98 -162 -98l-18 64q52 0 83 25q30 23 47 57t40 104q21 64 43 110q48 98 162 98l24 -60q-51 0 -85 -26q-31 -23 -49 -57.5t-42 -106.5zM218 529l136 137l44 -44l-136 -136z" />
    <glyph glyph-name="scedilla.alt1" horiz-adv-x="397" 
d="M223 199q-24 -72 -43 -110q-50 -98 -162 -98l-18 64q52 0 83 25q30 23 47 57t40 104q21 64 43 110q48 98 162 98l24 -60q-51 0 -85 -26q-31 -23 -49 -57.5t-42 -106.5zM60 -100q0 35 -23 56l44 44q41 -41 41 -100t-41 -100l-44 44q23 21 23 56z" />
    <glyph glyph-name="scircumflex.alt1" horiz-adv-x="397" 
d="M223 199q-24 -72 -43 -110q-50 -98 -162 -98l-18 64q52 0 83 25q30 23 47 57t40 104q21 64 43 110q48 98 162 98l24 -60q-51 0 -85 -26q-31 -23 -49 -57.5t-42 -106.5zM172 530l136 137l137 -137l-44 -43l-93 92l-92 -92z" />
    <glyph glyph-name="scommaaccent.alt1" horiz-adv-x="397" 
d="M223 199q-24 -72 -43 -110q-50 -98 -162 -98l-18 64q52 0 83 25q30 23 47 57t40 104q21 64 43 110q48 98 162 98l24 -60q-51 0 -85 -26q-31 -23 -49 -57.5t-42 -106.5zM30 -212v162h102v-93z" />
    <glyph glyph-name="scaron.alt1" horiz-adv-x="397" 
d="M223 199q-24 -72 -43 -110q-50 -98 -162 -98l-18 64q52 0 83 25q30 23 47 57t40 104q21 64 43 110q48 98 162 98l24 -60q-51 0 -85 -26q-31 -23 -49 -57.5t-42 -106.5zM445 618l-137 -136l-136 136l44 44l92 -93l93 93z" />
    <glyph glyph-name="s.alt2" horiz-adv-x="233" 
d="M121 320q0 -39 26 -92q29 -59 29 -108q0 -69 -43 -120h-80q26 20 42 53.5t16 66.5q0 39 -26 92q-29 59 -29 108q0 67 43 118h80q-27 -21 -42.5 -53t-15.5 -65z" />
    <glyph glyph-name="sacute.alt2" horiz-adv-x="233" 
d="M121 320q0 -39 26 -92q29 -59 29 -108q0 -69 -43 -120h-80q26 20 42 53.5t16 66.5q0 39 -26 92q-29 59 -29 108q0 67 43 118h80q-27 -21 -42.5 -53t-15.5 -65zM26 529l136 137l44 -44l-136 -136z" />
    <glyph glyph-name="scedilla.alt2" horiz-adv-x="233" 
d="M121 320q0 -39 26 -92q29 -59 29 -108q0 -69 -43 -120h-80q26 20 42 53.5t16 66.5q0 39 -26 92q-29 59 -29 108q0 67 43 118h80q-27 -21 -42.5 -53t-15.5 -65zM95 -101q0 35 -23 56l44 44q41 -41 41 -100t-41 -100l-44 44q23 21 23 56z" />
    <glyph glyph-name="scircumflex.alt2" horiz-adv-x="233" 
d="M121 320q0 -39 26 -92q29 -59 29 -108q0 -69 -43 -120h-80q26 20 42 53.5t16 66.5q0 39 -26 92q-29 59 -29 108q0 67 43 118h80q-27 -21 -42.5 -53t-15.5 -65zM-20 530l136 137l137 -137l-44 -43l-93 92l-92 -92z" />
    <glyph glyph-name="scommaaccent.alt2" horiz-adv-x="233" 
d="M121 320q0 -39 26 -92q29 -59 29 -108q0 -69 -43 -120h-80q26 20 42 53.5t16 66.5q0 39 -26 92q-29 59 -29 108q0 67 43 118h80q-27 -21 -42.5 -53t-15.5 -65zM65 -212v162h102v-93z" />
    <glyph glyph-name="scaron.alt2" horiz-adv-x="233" 
d="M121 320q0 -39 26 -92q29 -59 29 -108q0 -69 -43 -120h-80q26 20 42 53.5t16 66.5q0 39 -26 92q-29 59 -29 108q0 67 43 118h80q-27 -21 -42.5 -53t-15.5 -65zM253 618l-137 -136l-136 136l44 44l92 -93l93 93z" />
    <glyph glyph-name="s.alt3" horiz-adv-x="233" 
d="M121 -14l-48 44q39 34 39 88q0 33 -26 93q-29 64 -29 109q0 79 56 132l48 -44q-39 -34 -39 -88q0 -33 26 -93q29 -64 29 -109q0 -79 -56 -132z" />
    <glyph glyph-name="sacute.alt3" horiz-adv-x="233" 
d="M121 -14l-48 44q39 34 39 88q0 33 -26 93q-29 64 -29 109q0 79 56 132l48 -44q-39 -34 -39 -88q0 -33 26 -93q29 -64 29 -109q0 -79 -56 -132zM27 529l136 137l44 -44l-136 -136z" />
    <glyph glyph-name="scedilla.alt3" horiz-adv-x="233" 
d="M126 -9q32 -38 32 -91q0 -59 -41 -100l-44 44q23 21 23 56t-23 56l39 39l-39 35q39 34 39 88q0 33 -26 93q-29 64 -29 109q0 79 56 132l48 -44q-39 -34 -39 -88q0 -33 26 -93q29 -64 29 -109q0 -76 -51 -127z" />
    <glyph glyph-name="scircumflex.alt3" horiz-adv-x="233" 
d="M121 -14l-48 44q39 34 39 88q0 33 -26 93q-29 64 -29 109q0 79 56 132l48 -44q-39 -34 -39 -88q0 -33 26 -93q29 -64 29 -109q0 -79 -56 -132zM-19 530l136 137l137 -137l-44 -43l-93 92l-92 -92z" />
    <glyph glyph-name="scommaaccent.alt3" horiz-adv-x="233" 
d="M121 -14l-48 44q39 34 39 88q0 33 -26 93q-29 64 -29 109q0 79 56 132l48 -44q-39 -34 -39 -88q0 -33 26 -93q29 -64 29 -109q0 -79 -56 -132zM66 -212v162h102v-93z" />
    <glyph glyph-name="scaron.alt3" horiz-adv-x="233" 
d="M121 -14l-48 44q39 34 39 88q0 33 -26 93q-29 64 -29 109q0 79 56 132l48 -44q-39 -34 -39 -88q0 -33 26 -93q29 -64 29 -109q0 -79 -56 -132zM254 618l-137 -136l-136 136l44 44l92 -93l93 93z" />
    <glyph glyph-name="s.alt4" horiz-adv-x="321" 
d="M30 53l53 35q24 -37 64 -37q29 0 49 18.5t20 44.5q0 28 -17 46.5t-58 41.5q-54 33 -75.5 58.5t-24.5 76.5q0 47 35 80q34 34 84 34q31 0 59.5 -15.5t45.5 -45.5l-57 -34q-16 31 -48 31q-23 0 -38 -14.5t-15 -35.5q0 -22 15.5 -38.5t53.5 -39.5q54 -33 78 -62t27 -83
q0 -53 -39.5 -90.5t-94.5 -37.5q-77 0 -117 67z" />
    <glyph glyph-name="sacute.alt4" horiz-adv-x="321" 
d="M30 53l53 35q24 -37 64 -37q29 0 49 18.5t20 44.5q0 28 -17 46.5t-58 41.5q-54 33 -75.5 58.5t-24.5 76.5q0 47 35 80q34 34 84 34q31 0 59.5 -15.5t45.5 -45.5l-57 -34q-16 31 -48 31q-23 0 -38 -14.5t-15 -35.5q0 -22 15.5 -38.5t53.5 -39.5q54 -33 78 -62t27 -83
q0 -53 -39.5 -90.5t-94.5 -37.5q-77 0 -117 67zM70 543l136 137l44 -44l-136 -136z" />
    <glyph glyph-name="scedilla.alt4" horiz-adv-x="321" 
d="M140 -100q0 35 -23 56l30 30q-77 0 -117 67l53 35q24 -37 64 -37q29 0 49 18.5t20 44.5q0 28 -17 46.5t-58 41.5q-54 33 -75.5 58.5t-24.5 76.5q0 47 35 80q34 34 84 34q31 0 59.5 -15.5t45.5 -45.5l-57 -34q-16 31 -48 31q-23 0 -38 -14.5t-15 -35.5q0 -22 15 -37
t55 -41q35 -23 54 -39q50 -39 50 -106q0 -47 -31 -82.5t-79 -43.5q31 -37 31 -88q0 -59 -41 -100l-44 44q23 21 23 56z" />
    <glyph glyph-name="scircumflex.alt4" horiz-adv-x="321" 
d="M30 53l53 35q24 -37 64 -37q29 0 49 18.5t20 44.5q0 28 -17 46.5t-58 41.5q-54 33 -75.5 58.5t-24.5 76.5q0 47 35 80q34 34 84 34q31 0 59.5 -15.5t45.5 -45.5l-57 -34q-16 31 -48 31q-23 0 -38 -14.5t-15 -35.5q0 -22 15.5 -38.5t53.5 -39.5q54 -33 78 -62t27 -83
q0 -53 -39.5 -90.5t-94.5 -37.5q-77 0 -117 67zM26 544l136 137l137 -137l-44 -43l-93 92l-92 -92z" />
    <glyph glyph-name="scommaaccent.alt4" horiz-adv-x="321" 
d="M30 53l53 35q24 -37 64 -37q29 0 49 18.5t20 44.5q0 28 -17 46.5t-58 41.5q-54 33 -75.5 58.5t-24.5 76.5q0 47 35 80q34 34 84 34q31 0 59.5 -15.5t45.5 -45.5l-57 -34q-16 31 -48 31q-23 0 -38 -14.5t-15 -35.5q0 -22 15.5 -38.5t53.5 -39.5q54 -33 78 -62t27 -83
q0 -53 -39.5 -90.5t-94.5 -37.5q-77 0 -117 67zM65 -212v162h102v-93z" />
    <glyph glyph-name="scaron.alt4" horiz-adv-x="321" 
d="M30 53l53 35q24 -37 64 -37q29 0 49 18.5t20 44.5q0 28 -17 46.5t-58 41.5q-54 33 -75.5 58.5t-24.5 76.5q0 47 35 80q34 34 84 34q31 0 59.5 -15.5t45.5 -45.5l-57 -34q-16 31 -48 31q-23 0 -38 -14.5t-15 -35.5q0 -22 15.5 -38.5t53.5 -39.5q54 -33 78 -62t27 -83
q0 -53 -39.5 -90.5t-94.5 -37.5q-77 0 -117 67zM299 632l-137 -136l-136 136l44 44l92 -93l93 93z" />
    <glyph glyph-name="u.alt2" horiz-adv-x="431" 
d="M65 136v302h65v-302q0 -35 25 -60t60 -25t60.5 25t25.5 60v302h65v-302q0 -62 -44.5 -106t-106.5 -44t-106 44t-44 106z" />
    <glyph glyph-name="uacute.alt2" horiz-adv-x="431" 
d="M65 136v302h65v-302q0 -35 25 -60t60 -25t60.5 25t25.5 60v302h65v-302q0 -62 -44.5 -106t-106.5 -44t-106 44t-44 106zM125 530l136 137l44 -44l-136 -136z" />
    <glyph glyph-name="ugrave.alt2" horiz-adv-x="431" 
d="M65 136v302h65v-302q0 -35 25 -60t60 -25t60.5 25t25.5 60v302h65v-302q0 -62 -44.5 -106t-106.5 -44t-106 44t-44 106zM261 487l-136 136l44 44l136 -137z" />
    <glyph glyph-name="ucircumflex.alt2" horiz-adv-x="431" 
d="M65 136v302h65v-302q0 -35 25 -60t60 -25t60.5 25t25.5 60v302h65v-302q0 -62 -44.5 -106t-106.5 -44t-106 44t-44 106zM79 531l136 137l137 -137l-44 -43l-93 92l-92 -92z" />
    <glyph glyph-name="udieresis.alt2" horiz-adv-x="431" 
d="M65 136v302h65v-302q0 -35 25 -60t60 -25t60.5 25t25.5 60v302h65v-302q0 -62 -44.5 -106t-106.5 -44t-106 44t-44 106zM182 567q0 -18 -12.5 -31t-31.5 -13q-18 0 -31 13t-13 31q0 19 13 32t31 13q19 0 31.5 -13t12.5 -32zM337 567q0 -18 -13 -31t-31 -13t-31 13t-13 31
q0 19 13 32t31 13t31 -13t13 -32z" />
    <glyph glyph-name="ubreve.alt2" horiz-adv-x="431" 
d="M65 136v302h65v-302q0 -35 25 -60t60 -25t60.5 25t25.5 60v302h65v-302q0 -62 -44.5 -106t-106.5 -44t-106 44t-44 106zM346 628l43 -44q-72 -72 -174 -72q-101 0 -173 72l44 44q54 -54 129 -54q77 0 131 54z" />
    <glyph glyph-name="uhungarumlaut.alt2" horiz-adv-x="431" 
d="M65 136v302h65v-302q0 -35 25 -60t60 -25t60.5 25t25.5 60v302h65v-302q0 -62 -44.5 -106t-106.5 -44t-106 44t-44 106zM142 480l-55 27l72 147l55 -27zM271 480l-55 27l72 147l55 -27z" />
    <glyph glyph-name="umacron.alt2" horiz-adv-x="431" 
d="M65 136v302h65v-302q0 -35 25 -60t60 -25t60.5 25t25.5 60v302h65v-302q0 -62 -44.5 -106t-106.5 -44t-106 44t-44 106zM376 536h-321v62h321v-62z" />
    <glyph glyph-name="uogonek.alt2" horiz-adv-x="431" 
d="M301 438h65v-302q0 -47 -27 -85.5t-72 -55.5q-19 -7 -30.5 -24t-11.5 -38q0 -29 20 -48.5t48 -19.5v-56q-51 0 -88 36q-36 36 -36 88q0 30 14 56q-52 11 -85 52.5t-33 94.5v302h65v-302q0 -35 25 -60t60 -25t60.5 25t25.5 60v302z" />
    <glyph glyph-name="uring.alt2" horiz-adv-x="431" 
d="M65 136v302h65v-302q0 -35 25 -60t60 -25t60.5 25t25.5 60v302h65v-302q0 -62 -44.5 -106t-106.5 -44t-106 44t-44 106zM116 568q0 41 29 70t70 29t70 -29t29 -70t-29 -70t-70 -29t-70 29t-29 70zM157 568q0 -24 17 -41t41 -17t41 17t17 41t-17 41t-41 17t-41 -17
t-17 -41z" />
    <glyph glyph-name="utilde.alt2" horiz-adv-x="431" 
d="M65 136v302h65v-302q0 -35 25 -60t60 -25t60.5 25t25.5 60v302h65v-302q0 -62 -44.5 -106t-106.5 -44t-106 44t-44 106zM201 540q-25 19 -43 19t-30 -12t-12 -29h-62v4q0 44 29.5 71.5t74.5 27.5q31 0 69 -27q28 -19 45 -19q18 0 30 12.5t12 29.5h62v-3q0 -45 -29.5 -73
t-74.5 -28q-31 0 -71 27z" />
    <glyph glyph-name="z.alt1" horiz-adv-x="348" 
d="M242 35q0 63 -41 109.5t-91 54.5l91 174h-186v65h293l-108 -206q47 -31 77.5 -81.5t30.5 -115.5q2 -94 -69 -165t-165 -69v66q70 0 119 49t49 119z" />
    <glyph glyph-name="zacute.alt1" horiz-adv-x="348" 
d="M242 35q0 63 -41 109.5t-91 54.5l91 174h-186v65h293l-108 -206q47 -31 77.5 -81.5t30.5 -115.5q2 -94 -69 -165t-165 -69v66q70 0 119 49t49 119zM70 529l136 137l44 -44l-136 -136z" />
    <glyph glyph-name="zcaron.alt1" horiz-adv-x="348" 
d="M242 35q0 63 -41 109.5t-91 54.5l91 174h-186v65h293l-108 -206q47 -31 77.5 -81.5t30.5 -115.5q2 -94 -69 -165t-165 -69v66q70 0 119 49t49 119zM297 618l-137 -136l-136 136l44 44l92 -93l93 93z" />
    <glyph glyph-name="zdotaccent.alt1" horiz-adv-x="348" 
d="M242 35q0 63 -41 109.5t-91 54.5l91 174h-186v65h293l-108 -206q47 -31 77.5 -81.5t30.5 -115.5q2 -94 -69 -165t-165 -69v66q70 0 119 49t49 119zM204 566q0 -18 -12.5 -31t-31.5 -13q-18 0 -31 13t-13 31q0 19 13 32t31 13q19 0 31.5 -13t12.5 -32z" />
    <glyph glyph-name="ordfeminine.alt1" horiz-adv-x="368" 
d="M303 316h-58v15q-33 -27 -73 -27q-54 0 -93 39.5t-39 95.5q0 55 39 94.5t93 39.5q40 0 73 -27v18q0 35 -21 56t-55 21q-3 0 -19 -2v54q8 3 24 3q57 0 93 -36.5t36 -95.5v-248zM245 383v112q-23 29 -62 29q-35 0 -59.5 -25t-24.5 -60q0 -36 24.5 -60t59.5 -24q37 0 62 28z
M67 103v65h236v-65h-236z" />
    <glyph glyph-name="colon.case" horiz-adv-x="252" 
d="M75 581v104h102v-104h-102zM75 0v103h102v-103h-102z" />
    <glyph glyph-name="semicolon.case" horiz-adv-x="253" 
d="M76 581v104h102v-104h-102zM75 -81v184h102v-65z" />
    <glyph glyph-name="exclamdown.case" horiz-adv-x="252" 
d="M177 685v-103h-102v103h102zM124 457h4l32 -319v-138h-68v138z" />
    <glyph glyph-name="questiondown.case" horiz-adv-x="357" 
d="M282 685v-104h-102v104h102zM282 50v-64q-94 -2 -164 68t-68 164q-2 94 68 164t164 68v-65q-70 0 -119 -49.5t-49 -117.5q0 -70 49 -119t119 -49z" />
    <glyph glyph-name="guillemotleft.case" horiz-adv-x="447" 
d="M153 133l-129 209l129 209h70l-128 -209l128 -209h-70zM352 133l-129 209l129 209h71l-129 -209l129 -209h-71z" />
    <glyph glyph-name="guillemotright.case" horiz-adv-x="447" 
d="M95 133h-71l129 209l-129 209h71l128 -209zM294 133h-71l129 209l-129 209h71l129 -209z" />
    <glyph glyph-name="guilsinglleft.case" horiz-adv-x="247" 
d="M153 133l-129 209l129 209h70l-128 -209l128 -209h-70z" />
    <glyph glyph-name="guilsinglright.case" horiz-adv-x="247" 
d="M95 133h-71l129 209l-129 209h71l128 -209z" />
    <glyph glyph-name="hyphen.case" horiz-adv-x="330" 
d="M20 313v58h290v-58h-290z" />
    <glyph glyph-name="endash.case" horiz-adv-x="475" 
d="M20 313v58h435v-58h-435z" />
    <glyph glyph-name="emdash.case" horiz-adv-x="620" 
d="M20 313v58h580v-58h-580z" />
    <glyph glyph-name="periodcentered.case" horiz-adv-x="252" 
d="M75 291v103h102v-103h-102z" />
    <glyph glyph-name="bullet.case" horiz-adv-x="323" 
d="M47 342q0 48 33.5 81.5t81.5 33.5q47 0 80 -34q34 -33 34 -81q0 -47 -34 -81q-33 -33 -80 -33q-48 0 -82 33q-33 35 -33 81z" />
    <glyph glyph-name="at.case" horiz-adv-x="808" 
d="M552 144h-41v47q-38 -47 -114 -47q-77 0 -134.5 59t-57.5 139q0 81 57.5 140t134.5 59q76 0 114 -47v35h65v-323q58 0 96 56t38 125q0 116 -84 188.5t-211 72.5q-125 3 -221.5 -90t-94.5 -216q-2 -124 89.5 -215.5t215.5 -89.5v-51q-145 -3 -252.5 104.5t-104.5 251.5
q-2 93 49.5 177t137.5 133t180 47q147 2 248 -88t99 -224q0 -102 -59.5 -172.5t-149.5 -70.5zM404 474q-54 0 -92.5 -38.5t-38.5 -93.5q0 -54 38.5 -92.5t92.5 -38.5q72 0 107 53v158q-39 52 -107 52z" />
    <glyph glyph-name="lozenge.case" horiz-adv-x="301" 
d="M151 216l-127 126l127 127l126 -127z" />
    <glyph glyph-name="acute.caps" horiz-adv-x="228" 
d="M24 752l136 137l44 -44l-136 -136z" />
    <glyph glyph-name="grave.caps" horiz-adv-x="228" 
d="M160 709l-136 136l44 44l136 -137z" />
    <glyph glyph-name="circumflex.caps" horiz-adv-x="321" 
d="M24 752l136 137l137 -137l-44 -43l-93 92l-92 -92z" />
    <glyph glyph-name="dieresis.caps" horiz-adv-x="291" 
d="M112 792q0 -18 -12.5 -31t-31.5 -13q-18 0 -31 13t-13 31q0 19 13 32t31 13q19 0 31.5 -13t12.5 -32zM267 792q0 -18 -13 -31t-31 -13t-31 13t-13 31q0 19 13 32t31 13t31 -13t13 -32z" />
    <glyph glyph-name="tilde.caps" horiz-adv-x="370" 
d="M171 765q-25 19 -43 19t-30 -12t-12 -29h-62v4q0 44 29.5 71.5t74.5 27.5q31 0 69 -27q28 -19 45 -19q18 0 30 12.5t12 29.5h62v-3q0 -45 -29.5 -73t-74.5 -28q-31 0 -71 27z" />
    <glyph glyph-name="ring.caps" horiz-adv-x="246" 
d="M24 808q0 41 29 70t70 29t70 -29t29 -70t-29 -70t-70 -29t-70 29t-29 70zM65 808q0 -24 17 -41t41 -17t41 17t17 41t-17 41t-41 17t-41 -17t-17 -41z" />
    <glyph glyph-name="breve.caps" horiz-adv-x="395" 
d="M328 853l43 -44q-72 -72 -174 -72q-101 0 -173 72l44 44q54 -54 129 -54q77 0 131 54z" />
    <glyph glyph-name="macron.caps" horiz-adv-x="369" 
d="M345 761h-321v62h321v-62z" />
    <glyph glyph-name="dotaccent.caps" horiz-adv-x="136" 
d="M112 792q0 -18 -12.5 -31t-31.5 -13q-18 0 -31 13t-13 31q0 19 13 32t31 13q19 0 31.5 -13t12.5 -32z" />
    <glyph glyph-name="hungarumlaut.caps" horiz-adv-x="304" 
d="M79 705l-55 27l72 147l55 -27zM208 705l-55 27l72 147l55 -27z" />
    <glyph glyph-name="caron.caps" horiz-adv-x="321" 
d="M297 845l-137 -136l-136 136l44 44l92 -93l93 93z" />
    <glyph glyph-name="uni0326.salt" horiz-adv-x="0" 
d="M-75 651v-153h-102v84z" />
    </font>
</defs>
</svg>
